G04*
G04 #@! TF.GenerationSoftware,Altium Limited,Altium Designer,24.4.1 (13)*
G04*
G04 Layer_Physical_Order=2*
G04 Layer_Color=16711680*
%FSLAX25Y25*%
%MOIN*%
G70*
G04*
G04 #@! TF.SameCoordinates,870DF38A-AD74-42CB-99D2-8A797F58AB83*
G04*
G04*
G04 #@! TF.FilePolarity,Positive*
G04*
G01*
G75*
%ADD11C,0.00787*%
%ADD16C,0.38976*%
%ADD18R,0.05512X0.05512*%
%ADD19C,0.05512*%
%ADD22R,0.05512X0.05512*%
%ADD32C,0.01181*%
%ADD33C,0.02362*%
%ADD34C,0.03937*%
%ADD35O,0.10630X0.11811*%
%ADD36C,0.04961*%
%ADD37R,0.04961X0.04961*%
%ADD38C,0.05906*%
%ADD39C,0.07087*%
G04:AMPARAMS|DCode=40|XSize=70.87mil|YSize=70.87mil|CornerRadius=17.72mil|HoleSize=0mil|Usage=FLASHONLY|Rotation=270.000|XOffset=0mil|YOffset=0mil|HoleType=Round|Shape=RoundedRectangle|*
%AMROUNDEDRECTD40*
21,1,0.07087,0.03543,0,0,270.0*
21,1,0.03543,0.07087,0,0,270.0*
1,1,0.03543,-0.01772,-0.01772*
1,1,0.03543,-0.01772,0.01772*
1,1,0.03543,0.01772,0.01772*
1,1,0.03543,0.01772,-0.01772*
%
%ADD40ROUNDEDRECTD40*%
G04:AMPARAMS|DCode=41|XSize=59.06mil|YSize=59.06mil|CornerRadius=14.76mil|HoleSize=0mil|Usage=FLASHONLY|Rotation=180.000|XOffset=0mil|YOffset=0mil|HoleType=Round|Shape=RoundedRectangle|*
%AMROUNDEDRECTD41*
21,1,0.05906,0.02953,0,0,180.0*
21,1,0.02953,0.05906,0,0,180.0*
1,1,0.02953,-0.01476,0.01476*
1,1,0.02953,0.01476,0.01476*
1,1,0.02953,0.01476,-0.01476*
1,1,0.02953,-0.01476,-0.01476*
%
%ADD41ROUNDEDRECTD41*%
%ADD42C,0.05984*%
G04:AMPARAMS|DCode=43|XSize=59.84mil|YSize=59.84mil|CornerRadius=14.96mil|HoleSize=0mil|Usage=FLASHONLY|Rotation=270.000|XOffset=0mil|YOffset=0mil|HoleType=Round|Shape=RoundedRectangle|*
%AMROUNDEDRECTD43*
21,1,0.05984,0.02992,0,0,270.0*
21,1,0.02992,0.05984,0,0,270.0*
1,1,0.02992,-0.01496,-0.01496*
1,1,0.02992,-0.01496,0.01496*
1,1,0.02992,0.01496,0.01496*
1,1,0.02992,0.01496,-0.01496*
%
%ADD43ROUNDEDRECTD43*%
%ADD44C,0.06000*%
%ADD45C,0.05000*%
%ADD46C,0.04724*%
%ADD47R,0.11221X0.04921*%
%ADD48R,0.25591X0.21850*%
%ADD49C,0.01968*%
%ADD50C,0.01575*%
D11*
X317057Y222500D02*
X316000Y222587D01*
X314943Y222500D01*
X231500D02*
X314943D01*
X317057D02*
X339200D01*
X246963Y391300D02*
X336900D01*
X241681Y447200D02*
X323731D01*
X231467Y502800D02*
X333455D01*
D16*
X367600Y346400D02*
D03*
X524700Y571100D02*
D03*
X367300Y571300D02*
D03*
X524199Y402599D02*
D03*
X525100Y121300D02*
D03*
X524567Y177700D02*
D03*
X524767Y514100D02*
D03*
X524599Y458499D02*
D03*
X524399Y289999D02*
D03*
X524700Y233900D02*
D03*
X525000Y346200D02*
D03*
X525100Y39500D02*
D03*
X367300Y39600D02*
D03*
X367167Y177900D02*
D03*
X367300Y234100D02*
D03*
X366999Y290199D02*
D03*
X366799Y402799D02*
D03*
X367199Y458699D02*
D03*
X367367Y514300D02*
D03*
D18*
X199100Y87033D02*
D03*
X216500D02*
D03*
X95000Y86966D02*
D03*
X112500Y87000D02*
D03*
X130100Y86900D02*
D03*
X164600Y86933D02*
D03*
X147500D02*
D03*
X181600Y87000D02*
D03*
X216200Y130067D02*
D03*
X92400Y130267D02*
D03*
X109500Y130467D02*
D03*
X126900D02*
D03*
X144000D02*
D03*
X161400Y130567D02*
D03*
X179300Y130767D02*
D03*
X196800Y131900D02*
D03*
D19*
X199100Y26167D02*
D03*
X216500D02*
D03*
X95000Y26100D02*
D03*
X112500Y26134D02*
D03*
X130100Y26034D02*
D03*
X164600Y26067D02*
D03*
X147500D02*
D03*
X181600Y26134D02*
D03*
X216200Y190933D02*
D03*
X224133Y595500D02*
D03*
X58300Y595100D02*
D03*
X92400Y191133D02*
D03*
X109500Y191333D02*
D03*
X126900D02*
D03*
X144000D02*
D03*
X161400Y191433D02*
D03*
X179300Y191633D02*
D03*
X196800Y192766D02*
D03*
X224266Y204100D02*
D03*
X224133Y258300D02*
D03*
X223832Y314399D02*
D03*
X224433Y370600D02*
D03*
X223632Y426999D02*
D03*
X224032Y482899D02*
D03*
X224200Y538500D02*
D03*
X58000Y204600D02*
D03*
X58300Y257900D02*
D03*
X57999Y313999D02*
D03*
X58600Y370200D02*
D03*
X57799Y426599D02*
D03*
X58199Y482499D02*
D03*
X58367Y538100D02*
D03*
D22*
X163267Y595500D02*
D03*
X119166Y595100D02*
D03*
X163400Y204100D02*
D03*
X163267Y258300D02*
D03*
X162966Y314399D02*
D03*
X163567Y370600D02*
D03*
X162766Y426999D02*
D03*
X163166Y482899D02*
D03*
X163334Y538500D02*
D03*
X118866Y204600D02*
D03*
X119166Y257900D02*
D03*
X118866Y313999D02*
D03*
X119466Y370200D02*
D03*
X118666Y426599D02*
D03*
X119065Y482499D02*
D03*
X119233Y538100D02*
D03*
D32*
X383130Y443175D02*
X383126Y443175D01*
X283457Y185386D02*
X283454Y185387D01*
X314088Y264513D02*
X315158Y264338D01*
X316241D01*
X317311Y264513D01*
X343498Y224100D02*
X343500Y224100D01*
X340015Y224468D02*
X340017Y224468D01*
X317194Y224272D02*
X316000Y224358D01*
X314806Y224272D01*
X317931Y278500D02*
X317055Y278744D01*
X316154Y278867D01*
X315245Y278867D01*
X314344Y278744D01*
X313468Y278500D01*
X310855Y323318D02*
X311567Y322477D01*
X312408Y321764D01*
X315038Y507000D02*
X316207Y506922D01*
X316659Y563900D02*
X315341D01*
X318606Y561600D02*
X318608Y561600D01*
X317733Y561777D02*
X316808Y561914D01*
X315874Y561951D01*
X314942Y561887D01*
X313474Y561660D02*
X313455Y561657D01*
X314801Y561870D02*
X314806Y561870D01*
X314653Y561847D02*
X314644Y561845D01*
X313422Y559653D02*
X312424Y559391D01*
X311466Y559004D01*
X310565Y558500D01*
X313775Y559715D02*
X313422Y559653D01*
X319381Y559067D02*
X318559Y559475D01*
X317689Y559767D01*
X316787Y559937D01*
X315870Y559982D01*
X314956Y559902D01*
X320942Y558140D02*
X320527Y558396D01*
X237729Y316275D02*
X236848Y316443D01*
X235952D01*
X235071Y316275D01*
X218758Y328961D02*
X218760Y328961D01*
X237212Y326394D02*
X236400Y326464D01*
X235588Y326394D01*
X374257Y366400D02*
X373332Y366684D01*
X372395Y366926D01*
X371448Y367124D01*
X370493Y367279D01*
X369532Y367390D01*
X368567Y367457D01*
X367600Y367479D01*
X366633Y367457D01*
X365668Y367390D01*
X364707Y367279D01*
X363752Y367124D01*
X362805Y366926D01*
X361868Y366684D01*
X360943Y366400D01*
X380441Y475100D02*
X379630Y475723D01*
X378789Y476306D01*
X377922Y476847D01*
X377029Y477346D01*
X376114Y477801D01*
X375177Y478210D01*
X374221Y478574D01*
X373249Y478891D01*
X372263Y479161D01*
X371264Y479382D01*
X370256Y479555D01*
X369241Y479679D01*
X368222Y479753D01*
X367199Y479778D01*
X367199D02*
X366183Y479754D01*
X365170Y479680D01*
X364161Y479558D01*
X363159Y479387D01*
X362166Y479168D01*
X361185Y478902D01*
X360218Y478589D01*
X359268Y478229D01*
X358336Y477824D01*
X357424Y477374D01*
X356535Y476882D01*
X355671Y476346D01*
X354834Y475770D01*
X354025Y475154D01*
X353247Y474500D01*
X382376Y529100D02*
X381648Y529804D01*
X380888Y530471D01*
X380096Y531102D01*
X379274Y531693D01*
X378426Y532245D01*
X377551Y532755D01*
X376654Y533223D01*
X375734Y533647D01*
X374796Y534026D01*
X373841Y534360D01*
X372870Y534648D01*
X371887Y534888D01*
X370893Y535082D01*
X369892Y535227D01*
X368884Y535324D01*
X367873Y535373D01*
X366861D01*
X365850Y535324D01*
X364842Y535227D01*
X363841Y535082D01*
X362847Y534888D01*
X361864Y534648D01*
X360893Y534360D01*
X359938Y534026D01*
X358999Y533647D01*
X358080Y533223D01*
X357183Y532755D01*
X356308Y532245D01*
X355459Y531693D01*
X354638Y531102D01*
X353846Y530471D01*
X353086Y529804D01*
X352358Y529100D01*
X343651Y557849D02*
X344445Y557186D01*
X345244Y556528D01*
X346046Y555875D01*
X346852Y555227D01*
X347663Y554583D01*
X348477Y553945D01*
X349295Y553312D01*
X350117Y552683D01*
X350943Y552060D01*
X351773Y551442D01*
X352606Y550829D01*
X353444Y550221D01*
X341582Y556741D02*
X342335Y556106D01*
X343091Y555476D01*
X343850Y554850D01*
X344614Y554228D01*
X345380Y553611D01*
X346151Y552998D01*
X346925Y552390D01*
X347702Y551786D01*
X348483Y551186D01*
X349267Y550591D01*
X350055Y550001D01*
X350846Y549415D01*
X351641Y548834D01*
X352438Y548257D01*
X348679Y493221D02*
X401121D01*
X337100Y504800D02*
X348679Y493221D01*
X238167Y504800D02*
X337100D01*
X320216Y393500D02*
X340900D01*
X355638Y378762D02*
X379262D01*
X340900Y393500D02*
X355638Y378762D01*
X340900Y393500D02*
X355638Y378762D01*
X320216Y393500D02*
X340900D01*
X355638Y378762D02*
X355638D01*
X390895Y390395D02*
X438704D01*
X379262Y378762D02*
X390895Y390395D01*
X383321Y156821D02*
X387700Y161200D01*
X400073Y207265D02*
Y207739D01*
X361039Y206573D02*
X399381D01*
X400073Y207265D01*
X384247Y274644D02*
X411144D01*
X402694Y326450D02*
X426485D01*
X400316Y324073D02*
X402694Y326450D01*
X426485D02*
X426958Y326924D01*
X413059Y382300D02*
X416859Y386100D01*
X502000D01*
X511800Y376300D01*
X402674Y494474D02*
X404700Y496500D01*
X401121Y493221D02*
X402674Y494474D01*
X383130Y443175D02*
X383131D01*
X376934Y437636D02*
X382138Y442840D01*
X382473Y443175D02*
X383126D01*
X382138Y442840D02*
X382473Y443175D01*
X289743Y185300D02*
X307962Y167900D01*
X317900D01*
X328979Y156821D01*
X283842Y185300D02*
X289743D01*
X283457Y185386D02*
X283772Y185370D01*
X283842Y185300D01*
X282235Y185449D02*
X283454Y185387D01*
X177523Y185449D02*
X282235D01*
X163400Y199572D02*
X177523Y185449D01*
X313500Y432100D02*
X402137D01*
X251020Y441381D02*
X304220D01*
X313500Y432100D01*
X403965Y430272D02*
X404600D01*
X402137Y432100D02*
X403965Y430272D01*
X310164Y264513D02*
X314088D01*
X400428D02*
X403406Y267491D01*
X317311Y264513D02*
X400428D01*
X299815Y274862D02*
X310164Y264513D01*
X364400Y86400D02*
X391500Y113500D01*
X216500Y87033D02*
X217133Y86400D01*
X364400D01*
X280600Y182600D02*
X311270Y151930D01*
X536397D02*
X562468Y178001D01*
X311270Y151930D02*
X536397D01*
X328979Y156821D02*
X383321D01*
X205611Y266089D02*
X245100Y226600D01*
X319732D02*
X348732Y255600D01*
X245100Y226600D02*
X319732D01*
X206565Y256135D02*
X238428Y224272D01*
X343500Y224100D02*
X343846Y223754D01*
X338385Y224468D02*
X340015Y224468D01*
X338188Y224272D02*
X338385Y224468D01*
X317194Y224272D02*
X338188D01*
X238428D02*
X314806D01*
X343846Y223754D02*
X361027Y206573D01*
X340017Y224468D02*
X343498Y224100D01*
X204000Y250000D02*
X231500Y222500D01*
X339200D02*
X357308Y204392D01*
X319332Y282600D02*
X348432Y311700D01*
X205310Y322188D02*
X244899Y282600D01*
X319332D01*
X317931Y278500D02*
X343300D01*
X206265Y312234D02*
X239999Y278500D01*
X313468D01*
X343300D02*
X354925Y266875D01*
X314734Y319600D02*
X319264D01*
X314388Y319946D02*
X314734Y319600D01*
X312408Y321764D02*
X312974Y321360D01*
X310450Y323884D02*
X310855Y323318D01*
X312974Y321360D02*
X314388Y319946D01*
X319264Y319600D02*
X321555Y321891D01*
X306734Y327600D02*
X310450Y323884D01*
X402137Y317559D02*
X404064Y319487D01*
X309891Y317500D02*
X339477D01*
X302091Y325300D02*
X309891Y317500D01*
X339477D02*
X339536Y317559D01*
X404064Y319487D02*
X404600D01*
X339536Y317559D02*
X402137D01*
X328200Y335800D02*
X339927Y324073D01*
X319715Y335800D02*
X328200D01*
X307700Y329900D02*
X313531Y335732D01*
X319647D01*
X319715Y335800D01*
X234819Y393500D02*
X245516D01*
X245585Y393431D02*
X320147D01*
X320216Y393500D01*
X231817Y396502D02*
X234819Y393500D01*
X245516D02*
X245585Y393431D01*
X319332Y395400D02*
X347932Y424000D01*
X237983Y403817D02*
X246400Y395400D01*
X319332D01*
X336900Y391300D02*
X351619Y376581D01*
X238863Y383200D02*
X246963Y391300D01*
X253000Y451200D02*
X319632D01*
X240800Y463400D02*
X253000Y451200D01*
X319632D02*
X342932Y474500D01*
X347468Y447973D02*
X357886Y437556D01*
X242016Y453300D02*
X246344Y448972D01*
X325741Y447973D02*
X347468D01*
X322915Y449168D02*
X324546D01*
X325741Y447973D01*
X322719Y448972D02*
X322915Y449168D01*
X246344Y448972D02*
X322719D01*
X238298Y443817D02*
X241681Y447200D01*
X323731D02*
X335556Y435375D01*
X244967Y507000D02*
X315038D01*
X319999Y507000D02*
X320344Y507346D01*
X342098Y529100D01*
X316207Y506922D02*
X319999Y507000D01*
X205678Y546289D02*
X244967Y507000D01*
X206632Y536335D02*
X238167Y504800D01*
X333455Y502800D02*
X346074Y490180D01*
X204067Y530200D02*
X231467Y502800D01*
X66000Y95700D02*
X75000D01*
X80600Y101300D01*
X131800D01*
X141400Y110900D01*
X55665Y103465D02*
X123965D01*
X131400Y110900D01*
X87834Y99000D02*
X139285D01*
X151185Y110900D02*
X151400D01*
X139285Y99000D02*
X151185Y110900D01*
X75800Y86966D02*
X87834Y99000D01*
X136600Y93531D02*
X145198Y102129D01*
X152629D02*
X161400Y110900D01*
X145198Y102129D02*
X152629D01*
X147500Y93100D02*
X163800D01*
X171400Y100700D01*
Y110900D01*
X172304Y121804D02*
Y123771D01*
X171400Y120900D02*
X172304Y121804D01*
Y123771D02*
X179300Y130767D01*
X161400Y120900D02*
Y130567D01*
X245000Y563900D02*
X315341D01*
X319832D02*
X349279Y593347D01*
X205611Y603289D02*
X245000Y563900D01*
X316659D02*
X319832D01*
X318608Y561600D02*
X339900D01*
X317733Y561777D02*
X318606Y561600D01*
X314806Y561870D02*
X314942Y561887D01*
X314653Y561847D02*
X314801Y561870D01*
X312999Y561600D02*
X313386Y561647D01*
X313474Y561660D02*
X314644Y561845D01*
X313386Y561647D02*
X313455Y561657D01*
X238300Y561600D02*
X312999D01*
X232700Y558500D02*
X310565D01*
X313775Y559715D02*
X314956Y559902D01*
X323145Y556741D02*
X341582D01*
X320942Y558140D02*
X323098Y556741D01*
X319381Y559067D02*
X320527Y558396D01*
X323098Y556741D02*
X323145Y556741D01*
X418837Y593347D02*
X435884Y576300D01*
X349279Y593347D02*
X367300D01*
X367300Y593347D01*
X418837D01*
X206565Y593335D02*
X238300Y561600D01*
X339900D02*
X343651Y557849D01*
X231140Y316275D02*
X235071D01*
X220997Y326418D02*
X231140Y316275D01*
X237729D02*
X308032D01*
X315699Y308607D01*
X217960Y326418D02*
X220997D01*
X217779Y326599D02*
X217960Y326418D01*
X122335Y326599D02*
X217779D01*
X219386Y328781D02*
X227119D01*
X218760Y328961D02*
X219386Y328781D01*
X121356Y328962D02*
X218758Y328961D01*
X120728Y328781D02*
X121356Y328962D01*
X237212Y326394D02*
X237856Y326283D01*
X59354Y328781D02*
X120728D01*
X229617Y326283D02*
X234944D01*
X237856D02*
X238298D01*
X234944D02*
X235588Y326394D01*
X227119Y328781D02*
X229617Y326283D01*
X196124Y125624D02*
X199407D01*
X191400Y120900D02*
X196124Y125624D01*
X199407D02*
X203850Y130067D01*
X216200D01*
X147500Y86933D02*
X160233Y74200D01*
X181600Y87000D02*
X188900Y79700D01*
X164600Y86933D02*
X174933Y76600D01*
X199100Y87033D02*
X203447Y82687D01*
X95000Y86966D02*
X115866Y66100D01*
X112500Y87000D02*
X130900Y68600D01*
X130100Y86900D02*
X145300Y71700D01*
X57900Y204700D02*
X58000Y204600D01*
X326129Y413333D02*
X338896Y426100D01*
X434458D02*
X443859Y416699D01*
X347028Y426181D02*
X420086D01*
X420167Y426100D02*
X434458D01*
X420086Y426181D02*
X420167Y426100D01*
X346947D02*
X347028Y426181D01*
X338896Y426100D02*
X346947D01*
X348732Y255600D02*
X419384D01*
X435884Y239100D01*
X419083Y311700D02*
X435583Y295199D01*
X348432Y311700D02*
X419083D01*
X437191Y366400D02*
X442491Y371700D01*
X347532Y366400D02*
X360943D01*
X374257D02*
X437191D01*
X318832Y337700D02*
X347532Y366400D01*
X232319Y446000D02*
X234502Y443817D01*
X191899Y446000D02*
X232319D01*
X155399Y482499D02*
X191899Y446000D01*
X399510Y66100D02*
X400063Y65547D01*
X404189D01*
X115866Y66100D02*
X399510D01*
X404189Y65547D02*
X406137Y63600D01*
X399459Y68822D02*
X401022D01*
X399236Y68600D02*
X399459Y68822D01*
X401022D02*
X401700Y69500D01*
X130900Y68600D02*
X399236D01*
X392200Y71700D02*
X396000Y75500D01*
X145300Y71700D02*
X392200D01*
X406137Y63600D02*
X407000D01*
X372600Y76600D02*
X386400Y90400D01*
X415100D01*
X370200Y79700D02*
X388200Y97700D01*
X420300D01*
X367087Y82687D02*
X390200Y105800D01*
X426400D01*
X391500Y113500D02*
X431800D01*
X219318Y171100D02*
X243918Y146500D01*
X54800Y171100D02*
X219318D01*
X21100Y204800D02*
X54800Y171100D01*
X44673Y257700D02*
X64473Y277500D01*
X229214D02*
X234033Y272681D01*
X64473Y277500D02*
X229214D01*
X62473Y500200D02*
X295891D01*
X308092Y487999D01*
X44573Y482299D02*
X62473Y500200D01*
X296459Y555400D02*
X306559Y545300D01*
X62240Y555400D02*
X296459D01*
X44740Y537900D02*
X62240Y555400D01*
X204000Y587200D02*
X232700Y558500D01*
X393800Y615900D02*
X405300Y604400D01*
X44673Y594900D02*
X65673Y615900D01*
X393800D01*
X99535Y303799D02*
X122335Y326599D01*
X51499Y303799D02*
X99535D01*
X223632Y426999D02*
X226832Y423800D01*
X278616Y413333D02*
X326129D01*
X226832Y423800D02*
X268149D01*
X315499Y402703D02*
X326129Y413333D01*
X443859Y416699D02*
X447008D01*
X268149Y423800D02*
X278616Y413333D01*
X380441Y475100D02*
X424383D01*
X435783Y463699D01*
X342932Y474500D02*
X353247D01*
X426151Y529100D02*
X435951Y519300D01*
X382376Y529100D02*
X426151D01*
X342098D02*
X352358D01*
X239500Y356400D02*
X263700Y332200D01*
X297084D01*
X302585Y337700D01*
X258161Y329900D02*
X307700D01*
X240944Y347117D02*
X258161Y329900D01*
X244498Y337117D02*
X254015Y327600D01*
X306734D01*
X238298Y326283D02*
X239281Y325300D01*
X302091D01*
X34851Y382751D02*
X230464D01*
X22100Y370000D02*
X34851Y382751D01*
X44373Y313799D02*
X59354Y328781D01*
X234033Y272681D02*
X298911D01*
X309592Y262000D01*
X381700Y74200D02*
X389500Y82000D01*
X160233Y74200D02*
X381700D01*
X234936Y274862D02*
X299815D01*
X203699Y306099D02*
X234936Y274862D01*
X209484Y377901D02*
X303207D01*
X206815Y380570D02*
X209484Y377901D01*
X406795Y267491D02*
X408386Y265900D01*
X537900Y265900D02*
X562300Y290300D01*
X408386Y265900D02*
X492674D01*
X403406Y267491D02*
X406795D01*
X492674Y265900D02*
X537900D01*
X542350Y323577D02*
X562901Y346501D01*
X402906Y323577D02*
X542350D01*
X339927Y324073D02*
X400316D01*
X353444Y550221D02*
X354029Y550221D01*
X417521D01*
X352741Y548040D02*
X353121Y548040D01*
X352439Y548257D02*
X352741Y548040D01*
X353121Y548040D02*
X539240D01*
X417521Y550221D02*
X434500Y567200D01*
X447509D01*
X539240Y548040D02*
X562601Y571401D01*
X442491Y371700D02*
X442668D01*
X376478Y266875D02*
X384247Y274644D01*
X354925Y266875D02*
X376478D01*
X389700Y382300D02*
X413059D01*
X383981Y376581D02*
X389700Y382300D01*
X351619Y376581D02*
X383981D01*
X361287Y437556D02*
X361352Y437621D01*
X375931D01*
X375944Y437634D02*
X376934D01*
X375931Y437621D02*
X375944Y437634D01*
X376934D02*
Y437636D01*
X357886Y437556D02*
X361287D01*
X444426Y510200D02*
X447576D01*
X346074Y490180D02*
X401396D01*
X335556Y435375D02*
X360067D01*
X405282D01*
X234502Y443817D02*
X238298D01*
X321555Y321891D02*
X401220D01*
X402906Y323577D01*
X532792Y204392D02*
X562601Y234201D01*
X357308Y204392D02*
X532792D01*
X409984Y488800D02*
X537067D01*
X401396Y490180D02*
X403306Y492090D01*
X537067Y488800D02*
X562668Y514401D01*
X406694Y492090D02*
X409984Y488800D01*
X403306Y492090D02*
X406694D01*
X540800Y432600D02*
X558874Y450674D01*
X408056Y432600D02*
X540800D01*
X405282Y435375D02*
X408056Y432600D01*
X511800Y376300D02*
X536300D01*
X560912Y401458D02*
X562100Y402900D01*
X558357Y398357D02*
X560912Y401458D01*
X51100Y204800D02*
X51200Y204700D01*
X203447Y82687D02*
X367087D01*
X188900Y79700D02*
X370200D01*
X174933Y76600D02*
X372600D01*
X243918Y146500D02*
X404500D01*
X355900Y28200D02*
X365400D01*
X21100Y194800D02*
X73400Y142500D01*
X202400D01*
X163567Y370600D02*
X205100D01*
X155800Y369236D02*
Y370200D01*
X158928Y375239D02*
X163567Y370600D01*
X125800Y360200D02*
X134835D01*
X149875Y375239D02*
X158928D01*
X228583Y347117D02*
X240944D01*
X134835Y360200D02*
X149875Y375239D01*
X205100Y370600D02*
X228583Y347117D01*
X164000Y182600D02*
X280600D01*
X112400Y234200D02*
X164000Y182600D01*
X127800Y239700D02*
X163400Y204100D01*
X82400Y224200D02*
X90219Y232019D01*
X90323D01*
X98004Y239700D02*
X127800D01*
X90323Y232019D02*
X98004Y239700D01*
X163400Y199572D02*
Y204100D01*
X113120Y257900D02*
X119166D01*
X89420Y234200D02*
X113120Y257900D01*
X82400Y234200D02*
X89420D01*
X309592Y262000D02*
X402667D01*
X404067Y263400D02*
X405101D01*
X402667Y262000D02*
X404067Y263400D01*
X21800Y257700D02*
X44673D01*
X155500Y256936D02*
X162436Y250000D01*
X204000D01*
X155500Y256936D02*
Y257900D01*
X148270Y266089D02*
X205611D01*
X140081Y257900D02*
X148270Y266089D01*
X125500Y257900D02*
X140081D01*
X58200Y257800D02*
X58300Y257900D01*
X51800Y257700D02*
X51900Y257800D01*
X163267Y258300D02*
X165432Y256135D01*
X206565D01*
X149575Y262939D02*
X158628D01*
X163267Y258300D01*
X134535Y247900D02*
X149575Y262939D01*
X125500Y247900D02*
X134535D01*
X227884Y337117D02*
X244498D01*
X202701Y362300D02*
X227884Y337117D01*
X163700Y362300D02*
X202701D01*
X223401Y356400D02*
X239500D01*
X201412Y378389D02*
X223401Y356400D01*
X21499Y313799D02*
X44373D01*
X155199Y313035D02*
X162135Y306099D01*
X203699D01*
X155199Y313035D02*
Y313999D01*
X147969Y322188D02*
X205310D01*
X139780Y313999D02*
X147969Y322188D01*
X125199Y313999D02*
X139780D01*
X57899Y313899D02*
X57999Y313999D01*
X51499Y313799D02*
X51599Y313899D01*
X162966Y314399D02*
X165132Y312234D01*
X206265D01*
X149274Y319039D02*
X158327D01*
X162966Y314399D01*
X134235Y303999D02*
X149274Y319039D01*
X125199Y303999D02*
X134235D01*
X304111Y380082D02*
X309792Y374400D01*
X402900D01*
X233134Y380082D02*
X304111D01*
X230464Y382751D02*
X233134Y380082D01*
X155800Y370200D02*
X163700Y362300D01*
X302585Y337700D02*
X318832D01*
X230200Y386100D02*
Y390400D01*
X233100Y383200D02*
X238863D01*
X230200Y386100D02*
X233100Y383200D01*
X201901Y418699D02*
X230200Y390400D01*
X148570Y378389D02*
X201412D01*
X140381Y370200D02*
X148570Y378389D01*
X125800Y370200D02*
X140381D01*
X58500Y370100D02*
X58600Y370200D01*
X52100Y370000D02*
X52200Y370100D01*
X303207Y377901D02*
X316300Y364808D01*
X147667Y380570D02*
X206815D01*
X144997Y377901D02*
X147667Y380570D01*
X118036Y377901D02*
X144997D01*
X100135Y360000D02*
X118036Y377901D01*
X52100Y360000D02*
X100135D01*
X227419Y441381D02*
X227800Y441000D01*
X121231Y441381D02*
X227419D01*
X250700Y441700D02*
X251020Y441381D01*
X200612Y434788D02*
X231583Y403817D01*
X147769Y434788D02*
X200612D01*
X231583Y403817D02*
X237983D01*
X560773Y401573D02*
X562100Y402900D01*
X164932Y424834D02*
X203666D01*
X231817Y396683D01*
Y396502D02*
Y396683D01*
X161935Y418699D02*
X201901D01*
X51573Y433799D02*
X113650D01*
X121231Y441381D01*
X209166Y433817D02*
X238298D01*
X206014Y436969D02*
X209166Y433817D01*
X238298D02*
X238781Y434300D01*
X302407D02*
X315499Y421207D01*
X117235Y434300D02*
X144197D01*
X99335Y416399D02*
X117235Y434300D01*
X146866Y436969D02*
X206014D01*
X144197Y434300D02*
X146866Y436969D01*
X238781Y434300D02*
X302407D01*
X347932Y424000D02*
X419183D01*
X435383Y407799D01*
X44173Y426399D02*
X51573Y433799D01*
X21299Y426399D02*
X44173D01*
X154999Y425635D02*
X161935Y418699D01*
X154999Y425635D02*
Y426599D01*
X139581D02*
X147769Y434788D01*
X124999Y426599D02*
X139581D01*
X57699Y426499D02*
X57799Y426599D01*
X51299Y426399D02*
X51399Y426499D01*
X162766Y426999D02*
X164932Y424834D01*
X149074Y431639D02*
X158127D01*
X162766Y426999D01*
X134035Y416599D02*
X149074Y431639D01*
X124999Y416599D02*
X134035D01*
X51299Y416399D02*
X99335D01*
X558874Y450674D02*
Y450674D01*
X562500Y454300D02*
Y458800D01*
X558874Y450674D02*
X562500Y454300D01*
X234919Y463400D02*
X240800D01*
X206465Y480734D02*
X233899Y453300D01*
X242016D01*
X165332Y480734D02*
X206465D01*
X231817Y466502D02*
X234919Y463400D01*
X148170Y490688D02*
X207712D01*
X231817Y466583D01*
Y466502D02*
Y466583D01*
X308092Y487999D02*
X405000D01*
X21699Y482299D02*
X44573D01*
X139980Y482499D02*
X148170Y490688D01*
X125399Y482499D02*
X139980D01*
X58099Y482399D02*
X58199Y482499D01*
X51699Y482299D02*
X51799Y482399D01*
X163166Y482899D02*
X165332Y480734D01*
X149474Y487539D02*
X158527D01*
X163166Y482899D01*
X134435Y472499D02*
X149474Y487539D01*
X125399Y472499D02*
X134435D01*
X402566Y545300D02*
X404266Y543600D01*
X306559Y545300D02*
X402566D01*
X404266Y543600D02*
X405168D01*
X21867Y537900D02*
X44740D01*
X148337Y546289D02*
X205678D01*
X125567Y538100D02*
X140148D01*
X148337Y546289D01*
X155567Y537136D02*
X162503Y530200D01*
X204067D01*
X155567Y537136D02*
Y538100D01*
X58267Y538000D02*
X58367Y538100D01*
X51867Y537900D02*
X51967Y538000D01*
X163334Y538500D02*
X165499Y536335D01*
X206632D01*
X149642Y543139D02*
X158695D01*
X163334Y538500D01*
X134602Y528100D02*
X149642Y543139D01*
X125567Y528100D02*
X134602D01*
X162436Y587200D02*
X204000D01*
X155500Y594136D02*
X162436Y587200D01*
X163267Y595500D02*
X165432Y593335D01*
X206565D01*
X155500Y594136D02*
Y595100D01*
X148270Y603289D02*
X205611D01*
X125500Y585100D02*
X134535D01*
X51800Y594900D02*
X51900Y595000D01*
X158628Y600139D02*
X163267Y595500D01*
X21800Y594900D02*
X44673D01*
X134535Y585100D02*
X149575Y600139D01*
X158628D01*
X58200Y595000D02*
X58300Y595100D01*
X140081D02*
X148270Y603289D01*
X125500Y595100D02*
X140081D01*
D33*
X272872Y306676D02*
X278816Y300733D01*
X223832Y314399D02*
X231555Y306676D01*
X433759Y258600D02*
X444359Y248000D01*
X326630Y244634D02*
X340596Y258600D01*
X433759D01*
X406538Y315000D02*
X433158D01*
X406482Y314943D02*
X406538Y315000D01*
X326329Y300733D02*
X340596Y315000D01*
X433158D02*
X444059Y304099D01*
X340596Y315000D02*
X402662D01*
X402718Y314943D02*
X406482D01*
X402662Y315000D02*
X402718Y314943D01*
X440400Y379600D02*
X451700D01*
X435817Y375017D02*
X440400Y379600D01*
X435817Y371240D02*
Y375017D01*
X401018Y369857D02*
X434434D01*
X435817Y371240D01*
X400624Y370250D02*
X401018Y369857D01*
X326930Y356934D02*
X340247Y370250D01*
X400624D01*
X232514Y448889D02*
X235911D01*
X236400Y448400D01*
X179500Y465600D02*
X215804D01*
X232514Y448889D01*
X444359Y248000D02*
X447509D01*
X316000Y234004D02*
X326630Y244634D01*
X279116D02*
X326630D01*
X265450Y258300D02*
X279116Y244634D01*
X224133Y258300D02*
X265450D01*
X278816Y300733D02*
X326329D01*
X315699Y290103D02*
X326329Y300733D01*
X444059Y304099D02*
X447208D01*
X269850Y366500D02*
X279416Y356934D01*
X224433Y370600D02*
X228533Y366500D01*
X316300Y346304D02*
X326930Y356934D01*
X279416D02*
X326930D01*
X26000Y449400D02*
X42200Y465600D01*
X8300Y431700D02*
X26000Y449400D01*
X42200Y465600D02*
X165300D01*
X8300Y421700D02*
Y431700D01*
D34*
X383131Y443175D02*
X383441Y443500D01*
X324643Y186627D02*
X324649Y186626D01*
X299991Y188646D02*
X299997Y188646D01*
X337040Y199018D02*
X337044Y199018D01*
X374806Y199018D02*
X373877Y199331D01*
X372934Y199603D01*
X371981Y199835D01*
X371019Y200024D01*
X370049Y200171D01*
X369074Y200276D01*
X368095Y200338D01*
X367114Y200357D01*
X366133Y200333D01*
X373351Y538200D02*
X372369Y538425D01*
X371379Y538609D01*
X370382Y538753D01*
X369380Y538856D01*
X368374Y538917D01*
X367367Y538938D01*
X366360Y538917D01*
X365354Y538856D01*
X364352Y538753D01*
X363355Y538609D01*
X362365Y538425D01*
X361383Y538200D01*
X41900Y12100D02*
X489800D01*
X517200Y39500D02*
X525100D01*
X489800Y12100D02*
X517200Y39500D01*
X495200Y54800D02*
X535300Y94900D01*
X406600Y54800D02*
X495200D01*
X535300Y94900D02*
X567600D01*
X572100Y99400D01*
X472806Y576300D02*
X519500D01*
X524700Y571100D01*
X473499Y463699D02*
X519399D01*
X524599Y458499D01*
X472673Y182900D02*
X519367D01*
X524567Y177700D01*
X472900Y239100D02*
X519500D01*
X524700Y233900D01*
X519199Y295199D02*
X524399Y289999D01*
X489816Y295199D02*
X519199D01*
X472505Y295199D02*
X489816D01*
X387700Y161200D02*
X434776D01*
X447376Y173800D01*
X442011Y227651D02*
X443867Y229508D01*
X447017D02*
X447509Y230000D01*
X443867Y229508D02*
X447017D01*
X421151Y227651D02*
X442011D01*
X401239Y207739D02*
X421151Y227651D01*
X400073Y207739D02*
X401239D01*
X411144Y274644D02*
X421696Y285196D01*
X441260D02*
X441672Y285607D01*
X421696Y285196D02*
X441260D01*
X446716Y285607D02*
X447208Y286099D01*
X441672Y285607D02*
X446716D01*
X451700Y350500D02*
Y361600D01*
X426958Y326924D02*
X428124D01*
X438704Y390395D02*
X447008Y398699D01*
X404700Y496500D02*
X430726D01*
X444426Y510200D01*
X436309Y443500D02*
X447408Y454599D01*
X383441Y443500D02*
X436309D01*
X324649Y186626D02*
X324649Y186626D01*
X279037Y190237D02*
X279701D01*
X281080Y188859D01*
X299997Y188646D02*
X324643Y186627D01*
X281080Y188859D02*
X285228Y188646D01*
X299991Y188646D01*
X315867Y177844D02*
X325543Y187520D01*
X95000Y26100D02*
X95034Y26133D01*
X216466D01*
X216500Y26167D01*
X234133Y43800D01*
X398588Y61988D02*
X399412D01*
X398377Y62200D02*
X398588Y61988D01*
X399412D02*
X406600Y54800D01*
X335000Y43800D02*
X353400Y62200D01*
X398377D01*
X234133Y43800D02*
X335000D01*
X95519Y177581D02*
X266319D01*
X78300Y194800D02*
X95519Y177581D01*
X51100Y194800D02*
X78300D01*
X113348Y269648D02*
X207085D01*
X91400Y247700D02*
X113348Y269648D01*
X209833Y266900D02*
X290200D01*
X304592Y252508D01*
X207085Y269648D02*
X209833Y266900D01*
X51800Y247700D02*
X91400D01*
X314619Y478388D02*
X315899Y477107D01*
X309412Y478388D02*
X314619D01*
X293553Y494247D02*
X309412Y478388D01*
X120475Y494247D02*
X293553D01*
X96527Y470300D02*
X120475Y494247D01*
X51699Y472299D02*
X53699Y470300D01*
X96527D01*
X296978Y549848D02*
X305085Y541741D01*
X119982Y549848D02*
X296978D01*
X98968Y528834D02*
X119982Y549848D01*
X54685Y528834D02*
X98968D01*
X52379Y528412D02*
X54263D01*
X51867Y527900D02*
X52379Y528412D01*
X54263D02*
X54685Y528834D01*
X307034Y541741D02*
X316067Y532708D01*
X305085Y541741D02*
X307034D01*
X96765Y584900D02*
X120865Y609000D01*
X51800Y584900D02*
X96765D01*
X224305Y204139D02*
X265099D01*
X374806Y199018D02*
X437046D01*
X325543Y187520D02*
X337040Y199018D01*
X437046Y199018D02*
X443772Y192292D01*
X337044Y199018D02*
X366133Y200333D01*
X443772Y192292D02*
X447337Y191839D01*
X265099Y204139D02*
X279000Y190237D01*
X280662Y467800D02*
X325096D01*
X315899Y458603D02*
X325096Y467800D01*
X324900Y468800D02*
X338300Y482200D01*
X279016Y469233D02*
X279229D01*
X280662Y467800D01*
X357162Y481200D02*
X359299Y483337D01*
X367199D01*
X435658Y481200D02*
X444259Y472599D01*
X377236Y481200D02*
X435658D01*
X375099Y483337D02*
X377236Y481200D01*
X367199Y483337D02*
X375099D01*
X338496Y481200D02*
X357162D01*
X316067Y514204D02*
X324863Y523000D01*
X340063Y538200D01*
X279396Y524834D02*
X281230Y523000D01*
X279183Y524834D02*
X279396D01*
X281230Y523000D02*
X324863D01*
X435579Y537047D02*
X444426Y528200D01*
X340063Y538200D02*
X361383D01*
X373351D02*
X434426D01*
X435579Y537047D01*
X279116Y581834D02*
X279329D01*
X325396Y580600D02*
X342596Y597800D01*
X316000Y571204D02*
X325396Y580600D01*
X279329Y581834D02*
X280563Y580600D01*
X325396D01*
X431760Y597800D02*
X444359Y585200D01*
X342596Y597800D02*
X431760D01*
X473500Y363700D02*
X481500Y371700D01*
X502500D01*
X525000Y346200D02*
Y349200D01*
X502500Y371700D02*
X525000Y349200D01*
X51200Y204700D02*
X57900D01*
X472573Y182800D02*
X472673Y182900D01*
X472706Y238906D02*
X472900Y239100D01*
X472706Y238906D02*
Y239000D01*
X472405Y295099D02*
X472505Y295199D01*
X472359Y406962D02*
X473196Y407799D01*
X489615D01*
X472205Y407116D02*
X472359Y406962D01*
X472205Y407116D02*
Y407699D01*
X473000Y463200D02*
X473499Y463699D01*
X472605Y463595D02*
X473000Y463200D01*
X472605Y463595D02*
Y463599D01*
X472873Y519300D02*
X490183D01*
X472773Y519200D02*
X472873Y519300D01*
X472706Y576200D02*
X472806Y576300D01*
X266319Y177581D02*
X290300Y153600D01*
X346700Y19000D02*
X355900Y28200D01*
X63100Y19000D02*
X346700D01*
X29921Y52179D02*
X63100Y19000D01*
X15600Y52179D02*
X29921D01*
X15600Y38400D02*
X41900Y12100D01*
X304592Y252508D02*
X316000D01*
X119166Y257900D02*
X125500D01*
X51900Y257800D02*
X58200D01*
X118866Y313999D02*
X125199D01*
X51599Y313899D02*
X57899D01*
X119466Y370200D02*
X125800D01*
X52200Y370100D02*
X58500D01*
X490745Y406669D02*
X520129D01*
X489615Y407799D02*
X490745Y406669D01*
X520129D02*
X524199Y402599D01*
X118666Y426599D02*
X124999D01*
X51399Y426499D02*
X57699D01*
X31400Y110900D02*
Y120900D01*
Y89700D02*
Y110900D01*
Y89700D02*
X95000Y26100D01*
X224032Y482899D02*
X226933Y485800D01*
X262449D01*
X279016Y469233D01*
X51799Y482399D02*
X58099D01*
X119065Y482499D02*
X125399D01*
X444259Y472599D02*
X447408D01*
X491313Y518170D02*
X520697D01*
X490183Y519300D02*
X491313Y518170D01*
X520697D02*
X524767Y514100D01*
X51967Y538000D02*
X58267D01*
X119233Y538100D02*
X125567D01*
X444426Y528200D02*
X447576D01*
X265517Y538500D02*
X279183Y524834D01*
X224200Y538500D02*
X265517D01*
X224133Y595500D02*
X265450D01*
X279116Y581834D01*
X119166Y595100D02*
X125500D01*
X51900Y595000D02*
X58200D01*
X444359Y585200D02*
X447509D01*
X298008Y607700D02*
X316000Y589708D01*
X120865Y609000D02*
X296237D01*
D35*
X315867Y159300D02*
D03*
Y177804D02*
D03*
Y196308D02*
D03*
X316000Y215500D02*
D03*
Y234004D02*
D03*
Y252508D02*
D03*
X315699Y271599D02*
D03*
Y290103D02*
D03*
Y308607D02*
D03*
X316300Y327800D02*
D03*
Y346304D02*
D03*
Y364808D02*
D03*
X315499Y384199D02*
D03*
Y402703D02*
D03*
Y421207D02*
D03*
X315899Y440099D02*
D03*
Y458603D02*
D03*
Y477107D02*
D03*
X316067Y495700D02*
D03*
Y514204D02*
D03*
Y532708D02*
D03*
X316000Y552700D02*
D03*
Y571204D02*
D03*
Y589708D02*
D03*
D36*
X21800Y584900D02*
D03*
Y594900D02*
D03*
X51800D02*
D03*
X21867Y527900D02*
D03*
Y537900D02*
D03*
X51867D02*
D03*
X21699Y472299D02*
D03*
Y482299D02*
D03*
X51699D02*
D03*
X51299Y426399D02*
D03*
X21299D02*
D03*
Y416399D02*
D03*
X22100Y360000D02*
D03*
Y370000D02*
D03*
X52100D02*
D03*
X21499Y303799D02*
D03*
Y313799D02*
D03*
X51499D02*
D03*
X21800Y247700D02*
D03*
Y257700D02*
D03*
X51800D02*
D03*
X21100Y194800D02*
D03*
Y204800D02*
D03*
X51100D02*
D03*
X125500Y585100D02*
D03*
Y595100D02*
D03*
X155500D02*
D03*
X125567Y528100D02*
D03*
Y538100D02*
D03*
X155567D02*
D03*
X125399Y472499D02*
D03*
Y482499D02*
D03*
X155399D02*
D03*
X124999Y416599D02*
D03*
Y426599D02*
D03*
X154999D02*
D03*
X125800Y360200D02*
D03*
Y370200D02*
D03*
X155800D02*
D03*
X125199Y303999D02*
D03*
Y313999D02*
D03*
X155199D02*
D03*
X155500Y257900D02*
D03*
X125500D02*
D03*
Y247900D02*
D03*
X112400Y234200D02*
D03*
X82400D02*
D03*
Y224200D02*
D03*
D37*
X51800Y584900D02*
D03*
X51867Y527900D02*
D03*
X51699Y472299D02*
D03*
X51299Y416399D02*
D03*
X52100Y360000D02*
D03*
X51499Y303799D02*
D03*
X51800Y247700D02*
D03*
X51100Y194800D02*
D03*
X155500Y585100D02*
D03*
X155567Y528100D02*
D03*
X155399Y472499D02*
D03*
X154999Y416599D02*
D03*
X155800Y360200D02*
D03*
X155199Y303999D02*
D03*
X155500Y247900D02*
D03*
X112400Y224200D02*
D03*
D38*
X572601Y571401D02*
D03*
X562601D02*
D03*
X415101Y571101D02*
D03*
X405101D02*
D03*
X562468Y178001D02*
D03*
X572468D02*
D03*
X562601Y234201D02*
D03*
X572601D02*
D03*
X562300Y290300D02*
D03*
X572300D02*
D03*
X562901Y346501D02*
D03*
X572901D02*
D03*
X562100Y402900D02*
D03*
X572100D02*
D03*
X562500Y458800D02*
D03*
X572500D02*
D03*
X562668Y514401D02*
D03*
X572668D02*
D03*
X404968Y177701D02*
D03*
X414968D02*
D03*
X405101Y233901D02*
D03*
X415101D02*
D03*
X404800Y290000D02*
D03*
X414800D02*
D03*
X405401Y346201D02*
D03*
X415401D02*
D03*
X404600Y402600D02*
D03*
X414600D02*
D03*
X405000Y458500D02*
D03*
X415000D02*
D03*
X405168Y514101D02*
D03*
X415168D02*
D03*
X61400Y110900D02*
D03*
Y120900D02*
D03*
X81400Y110900D02*
D03*
Y120900D02*
D03*
X91400Y110900D02*
D03*
Y120900D02*
D03*
X101400Y110900D02*
D03*
Y120900D02*
D03*
X111400Y110900D02*
D03*
Y120900D02*
D03*
X131400Y110900D02*
D03*
Y120900D02*
D03*
X151400Y110900D02*
D03*
Y120900D02*
D03*
X171400Y110900D02*
D03*
Y120900D02*
D03*
X201400Y110900D02*
D03*
X191400Y120900D02*
D03*
Y110900D02*
D03*
X181400Y120900D02*
D03*
Y110900D02*
D03*
X161400Y120900D02*
D03*
Y110900D02*
D03*
X141400Y120900D02*
D03*
Y110900D02*
D03*
X121400Y120900D02*
D03*
Y110900D02*
D03*
X71400Y120900D02*
D03*
Y110900D02*
D03*
X51400Y120900D02*
D03*
Y110900D02*
D03*
X41400Y120900D02*
D03*
X31400D02*
D03*
X41400Y110900D02*
D03*
X31400D02*
D03*
D39*
X435884Y576300D02*
D03*
X490116D02*
D03*
X16200Y153400D02*
D03*
X15600Y38400D02*
D03*
X489615Y407799D02*
D03*
X435383D02*
D03*
X489983Y182900D02*
D03*
X435751D02*
D03*
X490116Y239100D02*
D03*
X435884D02*
D03*
X442668Y371700D02*
D03*
X496900D02*
D03*
X489816Y295199D02*
D03*
X435583D02*
D03*
X490183Y519300D02*
D03*
X435951D02*
D03*
X490016Y463699D02*
D03*
X435783D02*
D03*
D40*
X16200Y167180D02*
D03*
X15600Y52179D02*
D03*
D41*
X201400Y120900D02*
D03*
D42*
X236400Y418400D02*
D03*
Y458400D02*
D03*
Y468400D02*
D03*
Y448400D02*
D03*
Y438400D02*
D03*
Y428400D02*
D03*
Y408400D02*
D03*
Y398400D02*
D03*
Y388400D02*
D03*
Y301700D02*
D03*
Y311700D02*
D03*
Y351700D02*
D03*
Y361700D02*
D03*
Y341700D02*
D03*
Y331700D02*
D03*
Y321700D02*
D03*
X8300Y481700D02*
D03*
Y471700D02*
D03*
Y431700D02*
D03*
Y421700D02*
D03*
Y441700D02*
D03*
Y451700D02*
D03*
Y461700D02*
D03*
D43*
X236400Y478400D02*
D03*
Y371700D02*
D03*
X8300Y411700D02*
D03*
D44*
X465600Y340780D02*
D03*
X579773Y620307D02*
D03*
Y14008D02*
D03*
X16781D02*
D03*
Y616370D02*
D03*
X268750Y340780D02*
D03*
D45*
X66000Y95700D02*
D03*
X55665Y103465D02*
D03*
X75800Y86966D02*
D03*
X136600Y93531D02*
D03*
X147500Y93100D02*
D03*
D46*
X415100Y90400D02*
D03*
X420300Y97700D02*
D03*
X426400Y105800D02*
D03*
X431800Y113500D02*
D03*
X405300Y604400D02*
D03*
X572100Y99400D02*
D03*
X407000Y63600D02*
D03*
X279000Y190200D02*
D03*
X279116Y244634D02*
D03*
X278816Y300733D02*
D03*
X279416Y356934D02*
D03*
X278616Y413333D02*
D03*
X279016Y469233D02*
D03*
X279183Y524834D02*
D03*
X279116Y581834D02*
D03*
X396000Y75500D02*
D03*
X401700Y69500D02*
D03*
X389500Y82000D02*
D03*
X290300Y153600D02*
D03*
X202400Y142500D02*
D03*
X404500Y146500D02*
D03*
X405101Y263400D02*
D03*
X404600Y319487D02*
D03*
X402900Y374400D02*
D03*
X227800Y441000D02*
D03*
X250700Y441700D02*
D03*
X404600Y430272D02*
D03*
X179500Y465600D02*
D03*
X165300D02*
D03*
X405000Y487999D02*
D03*
X405168Y543600D02*
D03*
D47*
X447509Y567200D02*
D03*
Y585200D02*
D03*
X447376Y191800D02*
D03*
Y173800D02*
D03*
X447509Y248000D02*
D03*
Y230000D02*
D03*
X447208Y304099D02*
D03*
Y286099D02*
D03*
X451700Y379600D02*
D03*
Y361600D02*
D03*
X447008Y416699D02*
D03*
Y398699D02*
D03*
X447408Y472599D02*
D03*
Y454599D02*
D03*
X447576Y528200D02*
D03*
Y510200D02*
D03*
D48*
X472706Y576200D02*
D03*
X472573Y182800D02*
D03*
X472706Y239000D02*
D03*
X472405Y295099D02*
D03*
X476897Y370600D02*
D03*
X472205Y407699D02*
D03*
X472605Y463599D02*
D03*
X472773Y519200D02*
D03*
D49*
X428124Y326924D02*
X451700Y350500D01*
X231555Y306676D02*
X272872D01*
X536300Y376300D02*
X558357Y398357D01*
D50*
X228533Y366500D02*
X269850D01*
M02*
