G04*
G04 #@! TF.GenerationSoftware,Altium Limited,Altium Designer,24.4.1 (13)*
G04*
G04 Layer_Color=65535*
%FSLAX25Y25*%
%MOIN*%
G70*
G04*
G04 #@! TF.SameCoordinates,870DF38A-AD74-42CB-99D2-8A797F58AB83*
G04*
G04*
G04 #@! TF.FilePolarity,Positive*
G04*
G01*
G75*
%ADD10C,0.00591*%
%ADD11C,0.00787*%
%ADD12C,0.01000*%
%ADD13C,0.00500*%
%ADD14C,0.00394*%
%ADD15C,0.00600*%
D10*
X393600Y346400D02*
X393581Y347402D01*
X393523Y348403D01*
X393426Y349400D01*
X393292Y350393D01*
X393119Y351380D01*
X392908Y352360D01*
X392659Y353331D01*
X392373Y354291D01*
X392051Y355240D01*
X391692Y356176D01*
X391298Y357097D01*
X390868Y358002D01*
X390403Y358891D01*
X389905Y359760D01*
X389373Y360610D01*
X388810Y361438D01*
X388214Y362244D01*
X387589Y363027D01*
X386933Y363785D01*
X386249Y364517D01*
X385537Y365222D01*
X384798Y365900D01*
X384034Y366548D01*
X383245Y367166D01*
X382433Y367754D01*
X381599Y368309D01*
X380744Y368833D01*
X379870Y369323D01*
X378978Y369778D01*
X378068Y370199D01*
X377143Y370585D01*
X376204Y370935D01*
X375252Y371248D01*
X374289Y371525D01*
X373316Y371764D01*
X372334Y371965D01*
X371345Y372129D01*
X370351Y372254D01*
X369353Y372341D01*
X368352Y372389D01*
X367350Y372399D01*
X366348Y372370D01*
X365348Y372302D01*
X364351Y372196D01*
X363360Y372052D01*
X362374Y371869D01*
X361397Y371649D01*
X360428Y371391D01*
X359470Y371096D01*
X358525Y370765D01*
X357592Y370397D01*
X356675Y369993D01*
X355774Y369555D01*
X354890Y369082D01*
X354026Y368575D01*
X353181Y368036D01*
X352358Y367464D01*
X351558Y366861D01*
X350781Y366227D01*
X350029Y365564D01*
X349304Y364873D01*
X348606Y364154D01*
X347936Y363409D01*
X347295Y362639D01*
X346684Y361844D01*
X346104Y361027D01*
X345557Y360187D01*
X345042Y359328D01*
X344560Y358449D01*
X344113Y357552D01*
X343701Y356638D01*
X343324Y355710D01*
X342983Y354767D01*
X342679Y353812D01*
X342412Y352847D01*
X342182Y351871D01*
X341990Y350887D01*
X341836Y349897D01*
X341721Y348902D01*
X341643Y347902D01*
X341605Y346901D01*
Y345899D01*
X341643Y344898D01*
X341721Y343898D01*
X341836Y342903D01*
X341990Y341913D01*
X342182Y340929D01*
X342412Y339953D01*
X342679Y338988D01*
X342983Y338033D01*
X343324Y337090D01*
X343701Y336162D01*
X344113Y335248D01*
X344560Y334351D01*
X345042Y333472D01*
X345557Y332613D01*
X346104Y331773D01*
X346684Y330956D01*
X347295Y330161D01*
X347936Y329391D01*
X348606Y328646D01*
X349304Y327927D01*
X350029Y327236D01*
X350781Y326573D01*
X351558Y325939D01*
X352358Y325336D01*
X353181Y324764D01*
X354026Y324225D01*
X354890Y323718D01*
X355774Y323245D01*
X356675Y322807D01*
X357592Y322403D01*
X358524Y322035D01*
X359470Y321704D01*
X360428Y321409D01*
X361397Y321151D01*
X362374Y320931D01*
X363359Y320748D01*
X364351Y320604D01*
X365348Y320498D01*
X366348Y320430D01*
X367349Y320401D01*
X368352Y320411D01*
X369353Y320459D01*
X370351Y320546D01*
X371345Y320671D01*
X372334Y320835D01*
X373316Y321036D01*
X374289Y321275D01*
X375252Y321552D01*
X376204Y321865D01*
X377143Y322215D01*
X378068Y322601D01*
X378978Y323022D01*
X379870Y323477D01*
X380744Y323967D01*
X381599Y324490D01*
X382433Y325046D01*
X383245Y325634D01*
X384034Y326252D01*
X384798Y326900D01*
X385537Y327578D01*
X386248Y328283D01*
X386933Y329015D01*
X387589Y329773D01*
X388214Y330556D01*
X388810Y331362D01*
X389373Y332190D01*
X389905Y333040D01*
X390403Y333910D01*
X390868Y334798D01*
X391298Y335703D01*
X391692Y336624D01*
X392051Y337560D01*
X392373Y338509D01*
X392659Y339469D01*
X392908Y340440D01*
X393119Y341420D01*
X393291Y342407D01*
X393426Y343400D01*
X393523Y344397D01*
X393581Y345398D01*
X393600Y346400D01*
X550700Y571100D02*
X550681Y572102D01*
X550623Y573103D01*
X550526Y574100D01*
X550392Y575093D01*
X550219Y576080D01*
X550008Y577060D01*
X549759Y578031D01*
X549473Y578991D01*
X549151Y579940D01*
X548792Y580876D01*
X548397Y581797D01*
X547968Y582702D01*
X547503Y583590D01*
X547005Y584460D01*
X546474Y585310D01*
X545910Y586138D01*
X545315Y586944D01*
X544689Y587727D01*
X544033Y588485D01*
X543349Y589217D01*
X542637Y589922D01*
X541898Y590600D01*
X541134Y591248D01*
X540345Y591866D01*
X539533Y592454D01*
X538699Y593010D01*
X537844Y593533D01*
X536970Y594023D01*
X536078Y594478D01*
X535168Y594900D01*
X534243Y595285D01*
X533304Y595635D01*
X532352Y595948D01*
X531389Y596225D01*
X530416Y596464D01*
X529434Y596665D01*
X528445Y596829D01*
X527451Y596954D01*
X526453Y597041D01*
X525452Y597089D01*
X524449Y597099D01*
X523448Y597070D01*
X522448Y597002D01*
X521451Y596896D01*
X520460Y596752D01*
X519474Y596569D01*
X518497Y596349D01*
X517528Y596091D01*
X516570Y595796D01*
X515625Y595465D01*
X514692Y595097D01*
X513775Y594693D01*
X512874Y594255D01*
X511990Y593782D01*
X511126Y593275D01*
X510281Y592736D01*
X509458Y592164D01*
X508658Y591561D01*
X507881Y590927D01*
X507129Y590265D01*
X506404Y589573D01*
X505706Y588854D01*
X505036Y588109D01*
X504395Y587339D01*
X503784Y586544D01*
X503204Y585727D01*
X502657Y584887D01*
X502142Y584028D01*
X501660Y583149D01*
X501213Y582252D01*
X500801Y581338D01*
X500424Y580410D01*
X500083Y579467D01*
X499779Y578512D01*
X499512Y577547D01*
X499282Y576571D01*
X499090Y575588D01*
X498936Y574597D01*
X498821Y573602D01*
X498743Y572603D01*
X498705Y571601D01*
Y570599D01*
X498743Y569597D01*
X498821Y568598D01*
X498936Y567603D01*
X499090Y566613D01*
X499282Y565629D01*
X499512Y564653D01*
X499779Y563688D01*
X500083Y562733D01*
X500424Y561790D01*
X500801Y560862D01*
X501213Y559948D01*
X501660Y559051D01*
X502142Y558172D01*
X502657Y557313D01*
X503204Y556473D01*
X503784Y555656D01*
X504395Y554861D01*
X505036Y554091D01*
X505706Y553346D01*
X506404Y552627D01*
X507129Y551935D01*
X507881Y551273D01*
X508658Y550639D01*
X509458Y550036D01*
X510281Y549464D01*
X511126Y548925D01*
X511990Y548418D01*
X512874Y547945D01*
X513775Y547507D01*
X514692Y547103D01*
X515625Y546735D01*
X516570Y546404D01*
X517528Y546109D01*
X518497Y545851D01*
X519474Y545631D01*
X520460Y545448D01*
X521451Y545304D01*
X522448Y545198D01*
X523448Y545130D01*
X524449Y545101D01*
X525452Y545111D01*
X526452Y545159D01*
X527451Y545246D01*
X528445Y545371D01*
X529434Y545535D01*
X530416Y545736D01*
X531389Y545975D01*
X532352Y546252D01*
X533304Y546565D01*
X534243Y546915D01*
X535168Y547300D01*
X536078Y547722D01*
X536970Y548177D01*
X537844Y548667D01*
X538699Y549191D01*
X539533Y549746D01*
X540345Y550334D01*
X541134Y550952D01*
X541898Y551600D01*
X542636Y552278D01*
X543349Y552983D01*
X544033Y553715D01*
X544689Y554473D01*
X545314Y555256D01*
X545910Y556062D01*
X546474Y556890D01*
X547005Y557740D01*
X547503Y558609D01*
X547968Y559497D01*
X548397Y560403D01*
X548792Y561324D01*
X549151Y562260D01*
X549473Y563209D01*
X549759Y564169D01*
X550008Y565140D01*
X550219Y566120D01*
X550391Y567107D01*
X550526Y568100D01*
X550623Y569098D01*
X550681Y570098D01*
X550700Y571100D01*
X393300Y571300D02*
X393281Y572302D01*
X393223Y573303D01*
X393126Y574300D01*
X392992Y575293D01*
X392819Y576280D01*
X392608Y577260D01*
X392359Y578231D01*
X392073Y579191D01*
X391751Y580140D01*
X391392Y581076D01*
X390998Y581997D01*
X390568Y582902D01*
X390103Y583790D01*
X389605Y584660D01*
X389073Y585510D01*
X388510Y586338D01*
X387914Y587144D01*
X387288Y587927D01*
X386633Y588685D01*
X385949Y589417D01*
X385237Y590122D01*
X384498Y590800D01*
X383734Y591448D01*
X382945Y592066D01*
X382133Y592654D01*
X381299Y593210D01*
X380444Y593733D01*
X379570Y594223D01*
X378678Y594678D01*
X377768Y595099D01*
X376843Y595485D01*
X375904Y595835D01*
X374952Y596148D01*
X373989Y596425D01*
X373016Y596664D01*
X372034Y596865D01*
X371045Y597029D01*
X370051Y597154D01*
X369053Y597241D01*
X368052Y597289D01*
X367050Y597299D01*
X366048Y597270D01*
X365048Y597202D01*
X364051Y597096D01*
X363060Y596952D01*
X362074Y596769D01*
X361097Y596549D01*
X360128Y596291D01*
X359170Y595996D01*
X358225Y595665D01*
X357292Y595297D01*
X356375Y594893D01*
X355474Y594455D01*
X354590Y593982D01*
X353726Y593475D01*
X352881Y592936D01*
X352058Y592364D01*
X351258Y591761D01*
X350481Y591127D01*
X349729Y590464D01*
X349004Y589773D01*
X348306Y589054D01*
X347636Y588309D01*
X346995Y587539D01*
X346384Y586744D01*
X345804Y585927D01*
X345257Y585087D01*
X344742Y584228D01*
X344260Y583349D01*
X343813Y582452D01*
X343401Y581538D01*
X343024Y580610D01*
X342683Y579667D01*
X342379Y578712D01*
X342112Y577747D01*
X341882Y576771D01*
X341690Y575787D01*
X341536Y574797D01*
X341421Y573802D01*
X341343Y572802D01*
X341305Y571801D01*
Y570799D01*
X341343Y569798D01*
X341421Y568798D01*
X341536Y567803D01*
X341690Y566813D01*
X341882Y565829D01*
X342112Y564853D01*
X342379Y563888D01*
X342683Y562933D01*
X343024Y561990D01*
X343401Y561062D01*
X343813Y560148D01*
X344260Y559251D01*
X344742Y558372D01*
X345257Y557513D01*
X345804Y556673D01*
X346384Y555856D01*
X346995Y555061D01*
X347636Y554291D01*
X348306Y553546D01*
X349004Y552827D01*
X349729Y552136D01*
X350481Y551473D01*
X351258Y550839D01*
X352058Y550236D01*
X352881Y549664D01*
X353726Y549125D01*
X354590Y548618D01*
X355474Y548145D01*
X356375Y547707D01*
X357292Y547303D01*
X358225Y546935D01*
X359170Y546604D01*
X360128Y546309D01*
X361097Y546051D01*
X362074Y545831D01*
X363059Y545648D01*
X364051Y545504D01*
X365048Y545398D01*
X366048Y545330D01*
X367049Y545301D01*
X368052Y545311D01*
X369053Y545359D01*
X370051Y545446D01*
X371045Y545571D01*
X372034Y545735D01*
X373016Y545936D01*
X373989Y546175D01*
X374952Y546452D01*
X375904Y546765D01*
X376843Y547115D01*
X377768Y547501D01*
X378678Y547922D01*
X379570Y548377D01*
X380444Y548867D01*
X381299Y549391D01*
X382133Y549946D01*
X382945Y550534D01*
X383734Y551152D01*
X384498Y551800D01*
X385237Y552478D01*
X385948Y553183D01*
X386633Y553915D01*
X387288Y554673D01*
X387914Y555456D01*
X388510Y556262D01*
X389073Y557090D01*
X389605Y557940D01*
X390103Y558810D01*
X390568Y559697D01*
X390998Y560603D01*
X391392Y561524D01*
X391751Y562460D01*
X392073Y563409D01*
X392359Y564369D01*
X392608Y565340D01*
X392819Y566320D01*
X392991Y567307D01*
X393126Y568300D01*
X393223Y569298D01*
X393281Y570298D01*
X393300Y571300D01*
X550199Y402599D02*
X550180Y403601D01*
X550122Y404602D01*
X550026Y405599D01*
X549891Y406592D01*
X549718Y407580D01*
X549507Y408559D01*
X549259Y409530D01*
X548973Y410491D01*
X548650Y411440D01*
X548291Y412375D01*
X547897Y413297D01*
X547467Y414202D01*
X547003Y415090D01*
X546504Y415959D01*
X545973Y416809D01*
X545409Y417637D01*
X544814Y418444D01*
X544188Y419226D01*
X543532Y419984D01*
X542848Y420716D01*
X542136Y421422D01*
X541397Y422099D01*
X540633Y422747D01*
X539844Y423366D01*
X539032Y423953D01*
X538199Y424509D01*
X537344Y425032D01*
X536470Y425522D01*
X535577Y425978D01*
X534668Y426399D01*
X533743Y426785D01*
X532803Y427134D01*
X531852Y427448D01*
X530888Y427724D01*
X529915Y427963D01*
X528933Y428165D01*
X527945Y428328D01*
X526950Y428453D01*
X525952Y428540D01*
X524951Y428588D01*
X523949Y428598D01*
X522947Y428569D01*
X521947Y428502D01*
X520951Y428396D01*
X519959Y428251D01*
X518973Y428069D01*
X517996Y427848D01*
X517028Y427591D01*
X516070Y427296D01*
X515124Y426964D01*
X514192Y426596D01*
X513274Y426193D01*
X512373Y425754D01*
X511490Y425281D01*
X510625Y424775D01*
X509781Y424235D01*
X508957Y423663D01*
X508157Y423060D01*
X507380Y422427D01*
X506629Y421764D01*
X505903Y421072D01*
X505205Y420354D01*
X504535Y419608D01*
X503894Y418838D01*
X503283Y418044D01*
X502704Y417226D01*
X502156Y416387D01*
X501641Y415527D01*
X501160Y414648D01*
X500712Y413751D01*
X500300Y412838D01*
X499923Y411909D01*
X499582Y410967D01*
X499278Y410012D01*
X499011Y409046D01*
X498781Y408070D01*
X498590Y407087D01*
X498436Y406097D01*
X498320Y405101D01*
X498243Y404102D01*
X498204Y403100D01*
Y402098D01*
X498243Y401097D01*
X498320Y400098D01*
X498436Y399102D01*
X498590Y398112D01*
X498781Y397128D01*
X499011Y396153D01*
X499278Y395187D01*
X499582Y394232D01*
X499923Y393290D01*
X500300Y392361D01*
X500712Y391448D01*
X501160Y390551D01*
X501641Y389672D01*
X502156Y388812D01*
X502704Y387973D01*
X503283Y387155D01*
X503894Y386361D01*
X504535Y385590D01*
X505205Y384845D01*
X505903Y384126D01*
X506629Y383435D01*
X507380Y382772D01*
X508157Y382139D01*
X508957Y381536D01*
X509781Y380964D01*
X510625Y380424D01*
X511490Y379918D01*
X512373Y379445D01*
X513274Y379006D01*
X514192Y378603D01*
X515124Y378235D01*
X516070Y377903D01*
X517027Y377608D01*
X517996Y377350D01*
X518973Y377130D01*
X519959Y376947D01*
X520951Y376803D01*
X521947Y376697D01*
X522947Y376629D01*
X523949Y376601D01*
X524951Y376610D01*
X525952Y376659D01*
X526950Y376745D01*
X527945Y376870D01*
X528933Y377034D01*
X529915Y377235D01*
X530888Y377474D01*
X531851Y377751D01*
X532803Y378064D01*
X533743Y378414D01*
X534667Y378800D01*
X535577Y379221D01*
X536469Y379677D01*
X537344Y380167D01*
X538198Y380690D01*
X539032Y381246D01*
X539844Y381833D01*
X540633Y382452D01*
X541397Y383100D01*
X542136Y383777D01*
X542848Y384482D01*
X543532Y385214D01*
X544188Y385972D01*
X544814Y386755D01*
X545409Y387561D01*
X545973Y388390D01*
X546504Y389239D01*
X547003Y390109D01*
X547467Y390997D01*
X547897Y391902D01*
X548291Y392823D01*
X548650Y393759D01*
X548973Y394708D01*
X549259Y395669D01*
X549507Y396639D01*
X549718Y397619D01*
X549891Y398606D01*
X550026Y399599D01*
X550122Y400597D01*
X550180Y401597D01*
X550199Y402599D01*
X551100Y121300D02*
X551081Y122302D01*
X551023Y123302D01*
X550926Y124300D01*
X550792Y125293D01*
X550619Y126280D01*
X550408Y127260D01*
X550159Y128231D01*
X549873Y129191D01*
X549551Y130140D01*
X549192Y131076D01*
X548798Y131997D01*
X548368Y132902D01*
X547903Y133791D01*
X547405Y134660D01*
X546874Y135510D01*
X546310Y136338D01*
X545715Y137144D01*
X545089Y137927D01*
X544433Y138685D01*
X543749Y139417D01*
X543037Y140122D01*
X542298Y140800D01*
X541534Y141448D01*
X540745Y142066D01*
X539933Y142654D01*
X539099Y143210D01*
X538244Y143733D01*
X537370Y144223D01*
X536478Y144678D01*
X535568Y145099D01*
X534643Y145485D01*
X533704Y145835D01*
X532752Y146148D01*
X531789Y146425D01*
X530816Y146664D01*
X529834Y146865D01*
X528845Y147029D01*
X527851Y147154D01*
X526853Y147241D01*
X525852Y147289D01*
X524850Y147299D01*
X523848Y147270D01*
X522848Y147202D01*
X521851Y147096D01*
X520860Y146952D01*
X519874Y146769D01*
X518896Y146549D01*
X517928Y146291D01*
X516970Y145996D01*
X516025Y145665D01*
X515092Y145297D01*
X514175Y144893D01*
X513274Y144455D01*
X512390Y143982D01*
X511526Y143475D01*
X510681Y142936D01*
X509858Y142364D01*
X509058Y141761D01*
X508281Y141127D01*
X507529Y140464D01*
X506804Y139773D01*
X506106Y139054D01*
X505436Y138309D01*
X504795Y137539D01*
X504184Y136744D01*
X503604Y135927D01*
X503057Y135087D01*
X502542Y134228D01*
X502060Y133349D01*
X501613Y132452D01*
X501201Y131538D01*
X500824Y130610D01*
X500483Y129667D01*
X500179Y128712D01*
X499912Y127747D01*
X499682Y126771D01*
X499490Y125787D01*
X499336Y124797D01*
X499221Y123802D01*
X499144Y122802D01*
X499105Y121801D01*
Y120799D01*
X499144Y119798D01*
X499221Y118798D01*
X499336Y117803D01*
X499490Y116813D01*
X499682Y115829D01*
X499912Y114854D01*
X500179Y113888D01*
X500483Y112933D01*
X500824Y111990D01*
X501201Y111062D01*
X501613Y110148D01*
X502060Y109251D01*
X502542Y108372D01*
X503057Y107513D01*
X503604Y106673D01*
X504184Y105856D01*
X504795Y105061D01*
X505436Y104291D01*
X506106Y103546D01*
X506804Y102827D01*
X507529Y102136D01*
X508281Y101473D01*
X509058Y100839D01*
X509858Y100236D01*
X510681Y99664D01*
X511526Y99125D01*
X512390Y98618D01*
X513274Y98145D01*
X514175Y97707D01*
X515092Y97303D01*
X516024Y96935D01*
X516970Y96604D01*
X517928Y96309D01*
X518896Y96051D01*
X519874Y95831D01*
X520859Y95648D01*
X521851Y95504D01*
X522848Y95398D01*
X523848Y95330D01*
X524849Y95301D01*
X525851Y95311D01*
X526853Y95359D01*
X527851Y95446D01*
X528845Y95571D01*
X529834Y95735D01*
X530816Y95936D01*
X531789Y96175D01*
X532752Y96452D01*
X533704Y96765D01*
X534643Y97115D01*
X535568Y97500D01*
X536478Y97922D01*
X537370Y98377D01*
X538244Y98867D01*
X539099Y99391D01*
X539933Y99946D01*
X540745Y100534D01*
X541534Y101152D01*
X542298Y101800D01*
X543037Y102478D01*
X543749Y103183D01*
X544433Y103915D01*
X545088Y104673D01*
X545714Y105456D01*
X546310Y106262D01*
X546874Y107090D01*
X547405Y107940D01*
X547903Y108809D01*
X548368Y109697D01*
X548798Y110603D01*
X549192Y111524D01*
X549551Y112460D01*
X549873Y113409D01*
X550159Y114369D01*
X550408Y115340D01*
X550619Y116320D01*
X550792Y117307D01*
X550926Y118300D01*
X551023Y119298D01*
X551081Y120298D01*
X551100Y121300D01*
X550567Y177700D02*
X550548Y178702D01*
X550490Y179702D01*
X550393Y180700D01*
X550258Y181693D01*
X550085Y182680D01*
X549875Y183660D01*
X549626Y184631D01*
X549340Y185591D01*
X549018Y186540D01*
X548659Y187476D01*
X548265Y188397D01*
X547835Y189302D01*
X547370Y190190D01*
X546872Y191060D01*
X546341Y191910D01*
X545777Y192738D01*
X545181Y193544D01*
X544556Y194327D01*
X543900Y195085D01*
X543216Y195817D01*
X542503Y196522D01*
X541765Y197200D01*
X541001Y197848D01*
X540212Y198466D01*
X539400Y199054D01*
X538566Y199609D01*
X537711Y200133D01*
X536837Y200623D01*
X535945Y201078D01*
X535035Y201500D01*
X534110Y201885D01*
X533171Y202235D01*
X532219Y202548D01*
X531256Y202825D01*
X530283Y203064D01*
X529301Y203265D01*
X528312Y203429D01*
X527318Y203554D01*
X526320Y203641D01*
X525318Y203689D01*
X524316Y203699D01*
X523315Y203670D01*
X522315Y203602D01*
X521318Y203496D01*
X520327Y203352D01*
X519341Y203169D01*
X518364Y202949D01*
X517395Y202691D01*
X516437Y202396D01*
X515492Y202065D01*
X514559Y201697D01*
X513642Y201293D01*
X512741Y200855D01*
X511857Y200382D01*
X510993Y199875D01*
X510148Y199336D01*
X509325Y198764D01*
X508525Y198161D01*
X507748Y197527D01*
X506996Y196864D01*
X506271Y196173D01*
X505573Y195454D01*
X504903Y194709D01*
X504262Y193939D01*
X503651Y193144D01*
X503071Y192327D01*
X502524Y191487D01*
X502009Y190628D01*
X501527Y189749D01*
X501080Y188852D01*
X500668Y187938D01*
X500291Y187010D01*
X499950Y186067D01*
X499646Y185112D01*
X499379Y184147D01*
X499149Y183171D01*
X498957Y182187D01*
X498803Y181197D01*
X498688Y180202D01*
X498610Y179202D01*
X498572Y178201D01*
Y177199D01*
X498610Y176198D01*
X498688Y175198D01*
X498803Y174203D01*
X498957Y173213D01*
X499149Y172229D01*
X499379Y171254D01*
X499646Y170288D01*
X499950Y169333D01*
X500291Y168390D01*
X500668Y167462D01*
X501080Y166548D01*
X501527Y165651D01*
X502009Y164772D01*
X502524Y163913D01*
X503071Y163073D01*
X503651Y162256D01*
X504262Y161461D01*
X504903Y160691D01*
X505573Y159946D01*
X506271Y159227D01*
X506996Y158536D01*
X507748Y157873D01*
X508525Y157239D01*
X509325Y156636D01*
X510148Y156064D01*
X510993Y155525D01*
X511857Y155018D01*
X512741Y154545D01*
X513642Y154107D01*
X514559Y153703D01*
X515491Y153335D01*
X516437Y153004D01*
X517395Y152709D01*
X518363Y152451D01*
X519341Y152231D01*
X520326Y152048D01*
X521318Y151904D01*
X522315Y151798D01*
X523315Y151730D01*
X524316Y151701D01*
X525318Y151711D01*
X526319Y151759D01*
X527318Y151846D01*
X528312Y151971D01*
X529301Y152135D01*
X530283Y152336D01*
X531256Y152575D01*
X532219Y152852D01*
X533171Y153165D01*
X534110Y153515D01*
X535035Y153901D01*
X535945Y154322D01*
X536837Y154777D01*
X537711Y155267D01*
X538566Y155790D01*
X539400Y156346D01*
X540212Y156934D01*
X541001Y157552D01*
X541765Y158200D01*
X542503Y158878D01*
X543216Y159583D01*
X543900Y160315D01*
X544555Y161073D01*
X545181Y161856D01*
X545777Y162662D01*
X546340Y163490D01*
X546872Y164340D01*
X547370Y165209D01*
X547835Y166097D01*
X548264Y167003D01*
X548659Y167924D01*
X549018Y168860D01*
X549340Y169809D01*
X549626Y170769D01*
X549875Y171740D01*
X550085Y172720D01*
X550258Y173707D01*
X550393Y174700D01*
X550490Y175698D01*
X550548Y176698D01*
X550567Y177700D01*
X550767Y514100D02*
X550748Y515102D01*
X550690Y516103D01*
X550593Y517100D01*
X550458Y518093D01*
X550285Y519080D01*
X550075Y520060D01*
X549826Y521031D01*
X549540Y521991D01*
X549218Y522940D01*
X548859Y523876D01*
X548464Y524797D01*
X548035Y525702D01*
X547570Y526590D01*
X547072Y527460D01*
X546540Y528310D01*
X545977Y529138D01*
X545381Y529944D01*
X544756Y530727D01*
X544100Y531485D01*
X543415Y532217D01*
X542703Y532922D01*
X541965Y533600D01*
X541201Y534248D01*
X540412Y534866D01*
X539600Y535454D01*
X538766Y536010D01*
X537911Y536533D01*
X537037Y537023D01*
X536145Y537478D01*
X535235Y537899D01*
X534310Y538285D01*
X533371Y538635D01*
X532419Y538948D01*
X531456Y539225D01*
X530483Y539464D01*
X529501Y539665D01*
X528512Y539829D01*
X527518Y539954D01*
X526519Y540041D01*
X525519Y540089D01*
X524516Y540099D01*
X523515Y540070D01*
X522515Y540002D01*
X521518Y539896D01*
X520527Y539752D01*
X519541Y539569D01*
X518564Y539349D01*
X517595Y539091D01*
X516637Y538796D01*
X515692Y538465D01*
X514759Y538097D01*
X513842Y537693D01*
X512941Y537255D01*
X512057Y536782D01*
X511193Y536275D01*
X510348Y535736D01*
X509525Y535164D01*
X508725Y534561D01*
X507948Y533927D01*
X507197Y533264D01*
X506471Y532573D01*
X505773Y531854D01*
X505102Y531109D01*
X504462Y530339D01*
X503851Y529544D01*
X503271Y528727D01*
X502724Y527887D01*
X502209Y527028D01*
X501727Y526149D01*
X501280Y525252D01*
X500868Y524338D01*
X500491Y523410D01*
X500150Y522467D01*
X499846Y521512D01*
X499579Y520547D01*
X499349Y519571D01*
X499157Y518587D01*
X499003Y517597D01*
X498888Y516602D01*
X498810Y515602D01*
X498772Y514601D01*
Y513599D01*
X498810Y512598D01*
X498888Y511598D01*
X499003Y510603D01*
X499157Y509613D01*
X499349Y508629D01*
X499579Y507654D01*
X499846Y506688D01*
X500150Y505733D01*
X500491Y504790D01*
X500868Y503862D01*
X501280Y502948D01*
X501727Y502051D01*
X502209Y501172D01*
X502724Y500313D01*
X503271Y499473D01*
X503851Y498656D01*
X504462Y497861D01*
X505102Y497091D01*
X505773Y496346D01*
X506471Y495627D01*
X507196Y494936D01*
X507948Y494273D01*
X508725Y493639D01*
X509525Y493036D01*
X510348Y492464D01*
X511193Y491925D01*
X512057Y491418D01*
X512941Y490945D01*
X513842Y490507D01*
X514759Y490103D01*
X515692Y489735D01*
X516637Y489404D01*
X517595Y489109D01*
X518563Y488851D01*
X519541Y488631D01*
X520526Y488448D01*
X521518Y488304D01*
X522515Y488198D01*
X523515Y488130D01*
X524516Y488101D01*
X525518Y488111D01*
X526519Y488159D01*
X527518Y488246D01*
X528512Y488371D01*
X529501Y488535D01*
X530483Y488736D01*
X531456Y488975D01*
X532419Y489252D01*
X533371Y489565D01*
X534310Y489915D01*
X535235Y490301D01*
X536144Y490722D01*
X537037Y491177D01*
X537911Y491667D01*
X538766Y492191D01*
X539600Y492746D01*
X540412Y493334D01*
X541200Y493952D01*
X541965Y494600D01*
X542703Y495278D01*
X543415Y495983D01*
X544100Y496715D01*
X544755Y497473D01*
X545381Y498256D01*
X545977Y499062D01*
X546540Y499890D01*
X547072Y500740D01*
X547570Y501610D01*
X548035Y502497D01*
X548464Y503403D01*
X548859Y504324D01*
X549218Y505260D01*
X549540Y506209D01*
X549826Y507169D01*
X550075Y508140D01*
X550285Y509120D01*
X550458Y510107D01*
X550593Y511100D01*
X550690Y512098D01*
X550748Y513098D01*
X550767Y514100D01*
X550599Y458499D02*
X550580Y459501D01*
X550522Y460502D01*
X550426Y461499D01*
X550291Y462492D01*
X550118Y463480D01*
X549907Y464459D01*
X549659Y465430D01*
X549373Y466391D01*
X549050Y467340D01*
X548692Y468275D01*
X548297Y469197D01*
X547867Y470102D01*
X547403Y470990D01*
X546904Y471859D01*
X546373Y472709D01*
X545809Y473537D01*
X545214Y474344D01*
X544588Y475126D01*
X543932Y475884D01*
X543248Y476616D01*
X542536Y477322D01*
X541797Y477999D01*
X541033Y478647D01*
X540244Y479266D01*
X539432Y479853D01*
X538598Y480409D01*
X537744Y480932D01*
X536869Y481422D01*
X535977Y481878D01*
X535068Y482299D01*
X534143Y482685D01*
X533204Y483034D01*
X532252Y483348D01*
X531288Y483624D01*
X530315Y483863D01*
X529333Y484065D01*
X528345Y484228D01*
X527350Y484353D01*
X526352Y484440D01*
X525351Y484488D01*
X524349Y484498D01*
X523347Y484469D01*
X522347Y484402D01*
X521351Y484296D01*
X520359Y484151D01*
X519374Y483969D01*
X518396Y483748D01*
X517427Y483491D01*
X516470Y483196D01*
X515524Y482864D01*
X514592Y482496D01*
X513674Y482093D01*
X512773Y481654D01*
X511890Y481181D01*
X511025Y480675D01*
X510181Y480135D01*
X509358Y479563D01*
X508557Y478960D01*
X507781Y478327D01*
X507029Y477664D01*
X506303Y476972D01*
X505605Y476254D01*
X504935Y475508D01*
X504294Y474738D01*
X503683Y473944D01*
X503104Y473126D01*
X502556Y472287D01*
X502041Y471427D01*
X501560Y470548D01*
X501112Y469651D01*
X500700Y468738D01*
X500323Y467809D01*
X499983Y466867D01*
X499678Y465912D01*
X499411Y464946D01*
X499182Y463970D01*
X498989Y462987D01*
X498836Y461997D01*
X498720Y461001D01*
X498643Y460002D01*
X498604Y459000D01*
Y457998D01*
X498643Y456997D01*
X498720Y455998D01*
X498836Y455002D01*
X498989Y454012D01*
X499182Y453028D01*
X499411Y452053D01*
X499678Y451087D01*
X499983Y450132D01*
X500323Y449190D01*
X500700Y448261D01*
X501112Y447348D01*
X501560Y446451D01*
X502041Y445572D01*
X502556Y444712D01*
X503104Y443873D01*
X503683Y443055D01*
X504294Y442261D01*
X504935Y441490D01*
X505605Y440745D01*
X506303Y440026D01*
X507029Y439335D01*
X507781Y438672D01*
X508557Y438039D01*
X509358Y437435D01*
X510181Y436864D01*
X511025Y436324D01*
X511890Y435818D01*
X512773Y435345D01*
X513674Y434906D01*
X514592Y434503D01*
X515524Y434135D01*
X516470Y433803D01*
X517427Y433508D01*
X518396Y433250D01*
X519374Y433030D01*
X520359Y432847D01*
X521351Y432703D01*
X522347Y432597D01*
X523347Y432529D01*
X524349Y432501D01*
X525351Y432510D01*
X526352Y432558D01*
X527350Y432645D01*
X528345Y432770D01*
X529333Y432934D01*
X530315Y433135D01*
X531288Y433375D01*
X532252Y433651D01*
X533203Y433964D01*
X534143Y434314D01*
X535068Y434700D01*
X535977Y435121D01*
X536869Y435577D01*
X537744Y436067D01*
X538598Y436590D01*
X539432Y437146D01*
X540244Y437733D01*
X541033Y438351D01*
X541797Y439000D01*
X542536Y439677D01*
X543248Y440382D01*
X543932Y441114D01*
X544588Y441872D01*
X545214Y442655D01*
X545809Y443461D01*
X546373Y444290D01*
X546904Y445139D01*
X547403Y446009D01*
X547867Y446897D01*
X548297Y447802D01*
X548692Y448723D01*
X549050Y449659D01*
X549373Y450608D01*
X549659Y451569D01*
X549907Y452539D01*
X550118Y453519D01*
X550291Y454506D01*
X550426Y455499D01*
X550522Y456497D01*
X550580Y457497D01*
X550599Y458499D01*
X550399Y289999D02*
X550380Y291001D01*
X550322Y292002D01*
X550226Y292999D01*
X550091Y293992D01*
X549918Y294980D01*
X549707Y295959D01*
X549459Y296930D01*
X549173Y297891D01*
X548850Y298839D01*
X548491Y299775D01*
X548097Y300696D01*
X547667Y301602D01*
X547203Y302490D01*
X546704Y303359D01*
X546173Y304209D01*
X545609Y305037D01*
X545014Y305844D01*
X544388Y306626D01*
X543732Y307384D01*
X543048Y308117D01*
X542336Y308822D01*
X541597Y309499D01*
X540833Y310147D01*
X540044Y310766D01*
X539232Y311353D01*
X538399Y311909D01*
X537544Y312432D01*
X536669Y312922D01*
X535777Y313378D01*
X534868Y313799D01*
X533943Y314185D01*
X533004Y314534D01*
X532052Y314848D01*
X531088Y315124D01*
X530115Y315363D01*
X529133Y315565D01*
X528145Y315728D01*
X527150Y315853D01*
X526152Y315940D01*
X525151Y315988D01*
X524149Y315998D01*
X523147Y315969D01*
X522147Y315902D01*
X521151Y315796D01*
X520159Y315651D01*
X519173Y315469D01*
X518196Y315248D01*
X517228Y314991D01*
X516270Y314696D01*
X515324Y314364D01*
X514392Y313996D01*
X513474Y313593D01*
X512573Y313154D01*
X511690Y312681D01*
X510825Y312175D01*
X509981Y311635D01*
X509158Y311063D01*
X508357Y310460D01*
X507581Y309827D01*
X506829Y309164D01*
X506103Y308472D01*
X505405Y307754D01*
X504735Y307009D01*
X504094Y306238D01*
X503483Y305444D01*
X502904Y304626D01*
X502356Y303787D01*
X501841Y302927D01*
X501360Y302048D01*
X500912Y301151D01*
X500500Y300238D01*
X500123Y299309D01*
X499783Y298367D01*
X499478Y297412D01*
X499211Y296446D01*
X498982Y295470D01*
X498790Y294487D01*
X498636Y293496D01*
X498520Y292501D01*
X498443Y291502D01*
X498404Y290500D01*
Y289498D01*
X498443Y288497D01*
X498520Y287498D01*
X498636Y286502D01*
X498790Y285512D01*
X498982Y284528D01*
X499211Y283553D01*
X499478Y282587D01*
X499783Y281632D01*
X500123Y280690D01*
X500500Y279761D01*
X500912Y278848D01*
X501360Y277951D01*
X501841Y277072D01*
X502356Y276212D01*
X502904Y275373D01*
X503483Y274555D01*
X504094Y273761D01*
X504735Y272990D01*
X505405Y272245D01*
X506103Y271526D01*
X506829Y270835D01*
X507581Y270172D01*
X508357Y269539D01*
X509158Y268935D01*
X509980Y268364D01*
X510825Y267824D01*
X511690Y267318D01*
X512573Y266845D01*
X513474Y266406D01*
X514392Y266003D01*
X515324Y265635D01*
X516270Y265303D01*
X517227Y265008D01*
X518196Y264750D01*
X519173Y264530D01*
X520159Y264348D01*
X521151Y264203D01*
X522147Y264097D01*
X523147Y264030D01*
X524149Y264001D01*
X525151Y264010D01*
X526152Y264058D01*
X527150Y264145D01*
X528145Y264270D01*
X529133Y264434D01*
X530115Y264635D01*
X531088Y264875D01*
X532052Y265151D01*
X533003Y265464D01*
X533943Y265814D01*
X534867Y266200D01*
X535777Y266621D01*
X536669Y267077D01*
X537544Y267567D01*
X538398Y268090D01*
X539232Y268646D01*
X540044Y269233D01*
X540833Y269851D01*
X541597Y270500D01*
X542336Y271177D01*
X543048Y271882D01*
X543732Y272614D01*
X544388Y273372D01*
X545014Y274155D01*
X545609Y274961D01*
X546173Y275790D01*
X546704Y276639D01*
X547203Y277509D01*
X547667Y278397D01*
X548097Y279302D01*
X548491Y280223D01*
X548850Y281159D01*
X549173Y282108D01*
X549459Y283068D01*
X549707Y284039D01*
X549918Y285019D01*
X550091Y286006D01*
X550226Y286999D01*
X550322Y287997D01*
X550380Y288997D01*
X550399Y289999D01*
X550700Y233900D02*
X550681Y234902D01*
X550623Y235903D01*
X550526Y236900D01*
X550392Y237893D01*
X550219Y238880D01*
X550008Y239860D01*
X549759Y240831D01*
X549473Y241791D01*
X549151Y242740D01*
X548792Y243676D01*
X548397Y244597D01*
X547968Y245502D01*
X547503Y246391D01*
X547005Y247260D01*
X546474Y248110D01*
X545910Y248938D01*
X545315Y249744D01*
X544689Y250527D01*
X544033Y251285D01*
X543349Y252017D01*
X542637Y252722D01*
X541898Y253400D01*
X541134Y254048D01*
X540345Y254666D01*
X539533Y255254D01*
X538699Y255809D01*
X537844Y256333D01*
X536970Y256823D01*
X536078Y257278D01*
X535168Y257699D01*
X534243Y258085D01*
X533304Y258435D01*
X532352Y258748D01*
X531389Y259025D01*
X530416Y259264D01*
X529434Y259465D01*
X528445Y259629D01*
X527451Y259754D01*
X526453Y259841D01*
X525452Y259889D01*
X524449Y259899D01*
X523448Y259870D01*
X522448Y259802D01*
X521451Y259696D01*
X520460Y259552D01*
X519474Y259369D01*
X518497Y259149D01*
X517528Y258891D01*
X516570Y258596D01*
X515625Y258265D01*
X514692Y257897D01*
X513775Y257493D01*
X512874Y257055D01*
X511990Y256582D01*
X511126Y256075D01*
X510281Y255536D01*
X509458Y254964D01*
X508658Y254361D01*
X507881Y253727D01*
X507129Y253064D01*
X506404Y252373D01*
X505706Y251654D01*
X505036Y250909D01*
X504395Y250139D01*
X503784Y249344D01*
X503204Y248527D01*
X502657Y247687D01*
X502142Y246828D01*
X501660Y245949D01*
X501213Y245052D01*
X500801Y244138D01*
X500424Y243210D01*
X500083Y242267D01*
X499779Y241312D01*
X499512Y240347D01*
X499282Y239371D01*
X499090Y238387D01*
X498936Y237397D01*
X498821Y236402D01*
X498743Y235402D01*
X498705Y234401D01*
Y233399D01*
X498743Y232398D01*
X498821Y231398D01*
X498936Y230403D01*
X499090Y229413D01*
X499282Y228429D01*
X499512Y227453D01*
X499779Y226488D01*
X500083Y225533D01*
X500424Y224590D01*
X500801Y223662D01*
X501213Y222748D01*
X501660Y221851D01*
X502142Y220972D01*
X502657Y220113D01*
X503204Y219273D01*
X503784Y218456D01*
X504395Y217661D01*
X505036Y216891D01*
X505706Y216146D01*
X506404Y215427D01*
X507129Y214736D01*
X507881Y214073D01*
X508658Y213439D01*
X509458Y212836D01*
X510281Y212264D01*
X511126Y211725D01*
X511990Y211218D01*
X512874Y210745D01*
X513775Y210307D01*
X514692Y209903D01*
X515625Y209535D01*
X516570Y209204D01*
X517528Y208909D01*
X518497Y208651D01*
X519474Y208431D01*
X520460Y208248D01*
X521451Y208104D01*
X522448Y207998D01*
X523448Y207930D01*
X524449Y207901D01*
X525452Y207911D01*
X526452Y207959D01*
X527451Y208046D01*
X528445Y208171D01*
X529434Y208335D01*
X530416Y208536D01*
X531389Y208775D01*
X532352Y209052D01*
X533304Y209365D01*
X534243Y209715D01*
X535168Y210101D01*
X536078Y210522D01*
X536970Y210977D01*
X537844Y211467D01*
X538699Y211990D01*
X539533Y212546D01*
X540345Y213134D01*
X541134Y213752D01*
X541898Y214400D01*
X542636Y215078D01*
X543349Y215783D01*
X544033Y216515D01*
X544689Y217273D01*
X545314Y218056D01*
X545910Y218862D01*
X546474Y219690D01*
X547005Y220540D01*
X547503Y221410D01*
X547968Y222298D01*
X548397Y223203D01*
X548792Y224124D01*
X549151Y225060D01*
X549473Y226009D01*
X549759Y226969D01*
X550008Y227940D01*
X550219Y228920D01*
X550391Y229907D01*
X550526Y230900D01*
X550623Y231897D01*
X550681Y232898D01*
X550700Y233900D01*
X551000Y346200D02*
X550981Y347202D01*
X550923Y348202D01*
X550826Y349200D01*
X550692Y350193D01*
X550519Y351180D01*
X550308Y352160D01*
X550059Y353131D01*
X549774Y354091D01*
X549451Y355040D01*
X549092Y355976D01*
X548698Y356897D01*
X548268Y357802D01*
X547803Y358691D01*
X547305Y359560D01*
X546773Y360410D01*
X546210Y361238D01*
X545614Y362044D01*
X544989Y362827D01*
X544333Y363585D01*
X543649Y364317D01*
X542937Y365022D01*
X542198Y365700D01*
X541434Y366348D01*
X540645Y366966D01*
X539833Y367554D01*
X538999Y368109D01*
X538144Y368633D01*
X537270Y369123D01*
X536378Y369578D01*
X535468Y370000D01*
X534543Y370385D01*
X533604Y370735D01*
X532652Y371048D01*
X531689Y371325D01*
X530716Y371564D01*
X529734Y371765D01*
X528745Y371929D01*
X527751Y372054D01*
X526753Y372141D01*
X525752Y372189D01*
X524750Y372199D01*
X523748Y372170D01*
X522748Y372102D01*
X521751Y371996D01*
X520760Y371852D01*
X519774Y371669D01*
X518796Y371449D01*
X517828Y371191D01*
X516870Y370896D01*
X515925Y370565D01*
X514992Y370197D01*
X514075Y369793D01*
X513174Y369355D01*
X512290Y368882D01*
X511426Y368375D01*
X510581Y367836D01*
X509758Y367264D01*
X508958Y366661D01*
X508181Y366027D01*
X507430Y365365D01*
X506704Y364673D01*
X506006Y363954D01*
X505336Y363209D01*
X504695Y362439D01*
X504084Y361644D01*
X503504Y360827D01*
X502957Y359987D01*
X502442Y359128D01*
X501960Y358249D01*
X501513Y357352D01*
X501101Y356438D01*
X500724Y355510D01*
X500383Y354567D01*
X500079Y353612D01*
X499812Y352646D01*
X499582Y351671D01*
X499390Y350688D01*
X499236Y349697D01*
X499121Y348702D01*
X499044Y347703D01*
X499005Y346701D01*
Y345699D01*
X499044Y344697D01*
X499121Y343698D01*
X499236Y342703D01*
X499390Y341713D01*
X499582Y340729D01*
X499812Y339754D01*
X500079Y338788D01*
X500383Y337833D01*
X500724Y336890D01*
X501101Y335962D01*
X501513Y335048D01*
X501960Y334151D01*
X502442Y333272D01*
X502957Y332413D01*
X503504Y331573D01*
X504084Y330756D01*
X504695Y329961D01*
X505336Y329191D01*
X506006Y328446D01*
X506704Y327727D01*
X507430Y327035D01*
X508181Y326373D01*
X508958Y325739D01*
X509758Y325136D01*
X510581Y324564D01*
X511426Y324025D01*
X512290Y323518D01*
X513174Y323045D01*
X514075Y322607D01*
X514992Y322203D01*
X515925Y321835D01*
X516870Y321504D01*
X517828Y321209D01*
X518796Y320951D01*
X519774Y320731D01*
X520759Y320548D01*
X521751Y320404D01*
X522748Y320298D01*
X523748Y320230D01*
X524749Y320201D01*
X525751Y320211D01*
X526753Y320259D01*
X527751Y320346D01*
X528745Y320471D01*
X529734Y320635D01*
X530716Y320836D01*
X531689Y321075D01*
X532652Y321352D01*
X533604Y321665D01*
X534543Y322015D01*
X535468Y322400D01*
X536378Y322822D01*
X537270Y323277D01*
X538144Y323767D01*
X538999Y324290D01*
X539833Y324846D01*
X540645Y325434D01*
X541434Y326052D01*
X542198Y326700D01*
X542937Y327378D01*
X543648Y328083D01*
X544333Y328815D01*
X544988Y329573D01*
X545614Y330356D01*
X546210Y331162D01*
X546773Y331990D01*
X547305Y332840D01*
X547803Y333710D01*
X548268Y334597D01*
X548698Y335503D01*
X549092Y336424D01*
X549451Y337360D01*
X549774Y338309D01*
X550059Y339269D01*
X550308Y340240D01*
X550519Y341220D01*
X550692Y342207D01*
X550826Y343200D01*
X550923Y344197D01*
X550981Y345198D01*
X551000Y346200D01*
X551100Y39500D02*
X551081Y40502D01*
X551023Y41502D01*
X550926Y42500D01*
X550792Y43493D01*
X550619Y44480D01*
X550408Y45460D01*
X550159Y46431D01*
X549873Y47391D01*
X549551Y48340D01*
X549192Y49276D01*
X548798Y50197D01*
X548368Y51102D01*
X547903Y51990D01*
X547405Y52860D01*
X546874Y53710D01*
X546310Y54538D01*
X545715Y55344D01*
X545089Y56127D01*
X544433Y56885D01*
X543749Y57617D01*
X543037Y58322D01*
X542298Y59000D01*
X541534Y59648D01*
X540745Y60266D01*
X539933Y60854D01*
X539099Y61409D01*
X538244Y61933D01*
X537370Y62423D01*
X536478Y62878D01*
X535568Y63300D01*
X534643Y63685D01*
X533704Y64035D01*
X532752Y64348D01*
X531789Y64625D01*
X530816Y64864D01*
X529834Y65065D01*
X528845Y65229D01*
X527851Y65354D01*
X526853Y65441D01*
X525852Y65489D01*
X524850Y65499D01*
X523848Y65470D01*
X522848Y65402D01*
X521851Y65296D01*
X520860Y65152D01*
X519874Y64969D01*
X518896Y64749D01*
X517928Y64491D01*
X516970Y64196D01*
X516025Y63865D01*
X515092Y63497D01*
X514175Y63093D01*
X513274Y62655D01*
X512390Y62182D01*
X511526Y61675D01*
X510681Y61136D01*
X509858Y60564D01*
X509058Y59961D01*
X508281Y59327D01*
X507529Y58665D01*
X506804Y57973D01*
X506106Y57254D01*
X505436Y56509D01*
X504795Y55739D01*
X504184Y54944D01*
X503604Y54127D01*
X503057Y53287D01*
X502542Y52428D01*
X502060Y51549D01*
X501613Y50652D01*
X501201Y49738D01*
X500824Y48810D01*
X500483Y47867D01*
X500179Y46913D01*
X499912Y45947D01*
X499682Y44971D01*
X499490Y43988D01*
X499336Y42997D01*
X499221Y42002D01*
X499144Y41003D01*
X499105Y40001D01*
Y38999D01*
X499144Y37997D01*
X499221Y36998D01*
X499336Y36003D01*
X499490Y35013D01*
X499682Y34029D01*
X499912Y33053D01*
X500179Y32088D01*
X500483Y31133D01*
X500824Y30190D01*
X501201Y29262D01*
X501613Y28348D01*
X502060Y27451D01*
X502542Y26572D01*
X503057Y25713D01*
X503604Y24873D01*
X504184Y24056D01*
X504795Y23261D01*
X505436Y22491D01*
X506106Y21746D01*
X506804Y21027D01*
X507529Y20335D01*
X508281Y19673D01*
X509058Y19039D01*
X509858Y18436D01*
X510681Y17864D01*
X511526Y17325D01*
X512390Y16818D01*
X513274Y16345D01*
X514175Y15907D01*
X515092Y15503D01*
X516024Y15135D01*
X516970Y14804D01*
X517928Y14509D01*
X518896Y14251D01*
X519874Y14031D01*
X520859Y13848D01*
X521851Y13704D01*
X522848Y13598D01*
X523848Y13530D01*
X524849Y13501D01*
X525851Y13511D01*
X526853Y13559D01*
X527851Y13646D01*
X528845Y13771D01*
X529834Y13935D01*
X530816Y14136D01*
X531789Y14375D01*
X532752Y14652D01*
X533704Y14965D01*
X534643Y15315D01*
X535568Y15700D01*
X536478Y16122D01*
X537370Y16577D01*
X538244Y17067D01*
X539099Y17591D01*
X539933Y18146D01*
X540745Y18734D01*
X541534Y19352D01*
X542298Y20000D01*
X543037Y20678D01*
X543749Y21383D01*
X544433Y22115D01*
X545088Y22873D01*
X545714Y23656D01*
X546310Y24462D01*
X546874Y25290D01*
X547405Y26140D01*
X547903Y27009D01*
X548368Y27898D01*
X548798Y28803D01*
X549192Y29724D01*
X549551Y30660D01*
X549873Y31609D01*
X550159Y32569D01*
X550408Y33540D01*
X550619Y34520D01*
X550792Y35507D01*
X550926Y36500D01*
X551023Y37497D01*
X551081Y38498D01*
X551100Y39500D01*
X393300Y39600D02*
X393281Y40602D01*
X393223Y41603D01*
X393126Y42600D01*
X392992Y43593D01*
X392819Y44580D01*
X392608Y45560D01*
X392359Y46531D01*
X392073Y47491D01*
X391751Y48440D01*
X391392Y49376D01*
X390998Y50297D01*
X390568Y51202D01*
X390103Y52090D01*
X389605Y52960D01*
X389073Y53810D01*
X388510Y54638D01*
X387914Y55444D01*
X387288Y56227D01*
X386633Y56985D01*
X385949Y57717D01*
X385237Y58422D01*
X384498Y59100D01*
X383734Y59748D01*
X382945Y60366D01*
X382133Y60954D01*
X381299Y61510D01*
X380444Y62033D01*
X379570Y62523D01*
X378678Y62978D01*
X377768Y63399D01*
X376843Y63785D01*
X375904Y64135D01*
X374952Y64448D01*
X373989Y64725D01*
X373016Y64964D01*
X372034Y65165D01*
X371045Y65329D01*
X370051Y65454D01*
X369053Y65541D01*
X368052Y65589D01*
X367050Y65599D01*
X366048Y65570D01*
X365048Y65502D01*
X364051Y65396D01*
X363060Y65252D01*
X362074Y65069D01*
X361097Y64849D01*
X360128Y64591D01*
X359170Y64296D01*
X358225Y63965D01*
X357292Y63597D01*
X356375Y63193D01*
X355474Y62755D01*
X354590Y62282D01*
X353726Y61775D01*
X352881Y61236D01*
X352058Y60664D01*
X351258Y60061D01*
X350481Y59427D01*
X349729Y58764D01*
X349004Y58073D01*
X348306Y57354D01*
X347636Y56609D01*
X346995Y55839D01*
X346384Y55044D01*
X345804Y54227D01*
X345257Y53387D01*
X344742Y52528D01*
X344260Y51649D01*
X343813Y50752D01*
X343401Y49838D01*
X343024Y48910D01*
X342683Y47967D01*
X342379Y47012D01*
X342112Y46047D01*
X341882Y45071D01*
X341690Y44087D01*
X341536Y43097D01*
X341421Y42102D01*
X341343Y41102D01*
X341305Y40101D01*
Y39099D01*
X341343Y38098D01*
X341421Y37098D01*
X341536Y36103D01*
X341690Y35113D01*
X341882Y34129D01*
X342112Y33154D01*
X342379Y32188D01*
X342683Y31233D01*
X343024Y30290D01*
X343401Y29362D01*
X343813Y28448D01*
X344260Y27551D01*
X344742Y26672D01*
X345257Y25813D01*
X345804Y24973D01*
X346384Y24156D01*
X346995Y23361D01*
X347636Y22591D01*
X348306Y21846D01*
X349004Y21127D01*
X349729Y20436D01*
X350481Y19773D01*
X351258Y19139D01*
X352058Y18536D01*
X352881Y17964D01*
X353726Y17425D01*
X354590Y16918D01*
X355474Y16445D01*
X356375Y16007D01*
X357292Y15603D01*
X358225Y15235D01*
X359170Y14904D01*
X360128Y14609D01*
X361097Y14351D01*
X362074Y14131D01*
X363059Y13948D01*
X364051Y13804D01*
X365048Y13698D01*
X366048Y13630D01*
X367049Y13601D01*
X368052Y13611D01*
X369053Y13659D01*
X370051Y13746D01*
X371045Y13871D01*
X372034Y14035D01*
X373016Y14236D01*
X373989Y14475D01*
X374952Y14752D01*
X375904Y15065D01*
X376843Y15415D01*
X377768Y15800D01*
X378678Y16222D01*
X379570Y16677D01*
X380444Y17167D01*
X381299Y17691D01*
X382133Y18246D01*
X382945Y18834D01*
X383734Y19452D01*
X384498Y20100D01*
X385237Y20778D01*
X385948Y21483D01*
X386633Y22215D01*
X387288Y22973D01*
X387914Y23756D01*
X388510Y24562D01*
X389073Y25390D01*
X389605Y26240D01*
X390103Y27110D01*
X390568Y27997D01*
X390998Y28903D01*
X391392Y29824D01*
X391751Y30760D01*
X392073Y31709D01*
X392359Y32669D01*
X392608Y33640D01*
X392819Y34620D01*
X392991Y35607D01*
X393126Y36600D01*
X393223Y37597D01*
X393281Y38598D01*
X393300Y39600D01*
X393167Y177900D02*
X393148Y178902D01*
X393090Y179903D01*
X392993Y180900D01*
X392859Y181893D01*
X392686Y182880D01*
X392475Y183860D01*
X392226Y184831D01*
X391940Y185791D01*
X391618Y186740D01*
X391259Y187676D01*
X390864Y188597D01*
X390435Y189502D01*
X389970Y190391D01*
X389472Y191260D01*
X388941Y192110D01*
X388377Y192938D01*
X387781Y193744D01*
X387156Y194527D01*
X386500Y195285D01*
X385816Y196017D01*
X385104Y196722D01*
X384365Y197400D01*
X383601Y198048D01*
X382812Y198666D01*
X382000Y199254D01*
X381166Y199810D01*
X380311Y200333D01*
X379437Y200823D01*
X378545Y201278D01*
X377635Y201699D01*
X376710Y202085D01*
X375771Y202435D01*
X374819Y202748D01*
X373856Y203025D01*
X372883Y203264D01*
X371901Y203465D01*
X370912Y203629D01*
X369918Y203754D01*
X368919Y203841D01*
X367918Y203889D01*
X366916Y203899D01*
X365915Y203870D01*
X364915Y203802D01*
X363918Y203696D01*
X362927Y203552D01*
X361941Y203369D01*
X360964Y203149D01*
X359995Y202891D01*
X359037Y202596D01*
X358092Y202265D01*
X357159Y201897D01*
X356242Y201493D01*
X355341Y201055D01*
X354457Y200582D01*
X353593Y200075D01*
X352748Y199536D01*
X351925Y198964D01*
X351125Y198361D01*
X350348Y197727D01*
X349597Y197064D01*
X348871Y196373D01*
X348173Y195654D01*
X347503Y194909D01*
X346862Y194139D01*
X346251Y193344D01*
X345671Y192527D01*
X345124Y191687D01*
X344609Y190828D01*
X344127Y189949D01*
X343680Y189052D01*
X343268Y188138D01*
X342891Y187210D01*
X342550Y186267D01*
X342246Y185312D01*
X341979Y184347D01*
X341749Y183371D01*
X341557Y182387D01*
X341403Y181397D01*
X341288Y180402D01*
X341210Y179402D01*
X341172Y178401D01*
Y177399D01*
X341210Y176398D01*
X341288Y175398D01*
X341403Y174403D01*
X341557Y173413D01*
X341749Y172429D01*
X341979Y171453D01*
X342246Y170488D01*
X342550Y169533D01*
X342891Y168590D01*
X343268Y167662D01*
X343680Y166748D01*
X344127Y165851D01*
X344609Y164972D01*
X345124Y164113D01*
X345671Y163273D01*
X346251Y162456D01*
X346862Y161661D01*
X347502Y160891D01*
X348173Y160146D01*
X348871Y159427D01*
X349596Y158736D01*
X350348Y158073D01*
X351125Y157439D01*
X351925Y156836D01*
X352748Y156264D01*
X353593Y155725D01*
X354457Y155218D01*
X355341Y154745D01*
X356242Y154307D01*
X357159Y153903D01*
X358091Y153535D01*
X359037Y153204D01*
X359995Y152909D01*
X360963Y152651D01*
X361941Y152431D01*
X362926Y152248D01*
X363918Y152104D01*
X364915Y151998D01*
X365915Y151930D01*
X366916Y151901D01*
X367918Y151911D01*
X368919Y151959D01*
X369918Y152046D01*
X370912Y152171D01*
X371901Y152335D01*
X372883Y152536D01*
X373856Y152775D01*
X374819Y153052D01*
X375771Y153365D01*
X376710Y153715D01*
X377635Y154101D01*
X378544Y154522D01*
X379437Y154977D01*
X380311Y155467D01*
X381166Y155991D01*
X382000Y156546D01*
X382812Y157134D01*
X383600Y157752D01*
X384365Y158400D01*
X385103Y159078D01*
X385816Y159783D01*
X386500Y160515D01*
X387155Y161273D01*
X387781Y162056D01*
X388377Y162862D01*
X388940Y163690D01*
X389472Y164540D01*
X389970Y165410D01*
X390435Y166297D01*
X390864Y167203D01*
X391259Y168124D01*
X391618Y169060D01*
X391940Y170009D01*
X392226Y170969D01*
X392475Y171940D01*
X392686Y172920D01*
X392859Y173907D01*
X392993Y174900D01*
X393090Y175898D01*
X393148Y176898D01*
X393167Y177900D01*
X393300Y234100D02*
X393281Y235102D01*
X393223Y236103D01*
X393126Y237100D01*
X392992Y238093D01*
X392819Y239080D01*
X392608Y240060D01*
X392359Y241031D01*
X392073Y241991D01*
X391751Y242940D01*
X391392Y243876D01*
X390998Y244797D01*
X390568Y245702D01*
X390103Y246590D01*
X389605Y247460D01*
X389073Y248310D01*
X388510Y249138D01*
X387914Y249944D01*
X387288Y250727D01*
X386633Y251485D01*
X385949Y252217D01*
X385237Y252922D01*
X384498Y253600D01*
X383734Y254248D01*
X382945Y254866D01*
X382133Y255454D01*
X381299Y256010D01*
X380444Y256533D01*
X379570Y257023D01*
X378678Y257478D01*
X377768Y257899D01*
X376843Y258285D01*
X375904Y258635D01*
X374952Y258948D01*
X373989Y259225D01*
X373016Y259464D01*
X372034Y259665D01*
X371045Y259829D01*
X370051Y259954D01*
X369053Y260041D01*
X368052Y260089D01*
X367050Y260099D01*
X366048Y260070D01*
X365048Y260002D01*
X364051Y259896D01*
X363060Y259752D01*
X362074Y259569D01*
X361097Y259349D01*
X360128Y259091D01*
X359170Y258796D01*
X358225Y258465D01*
X357292Y258097D01*
X356375Y257693D01*
X355474Y257255D01*
X354590Y256782D01*
X353726Y256275D01*
X352881Y255736D01*
X352058Y255164D01*
X351258Y254561D01*
X350481Y253927D01*
X349729Y253264D01*
X349004Y252573D01*
X348306Y251854D01*
X347636Y251109D01*
X346995Y250339D01*
X346384Y249544D01*
X345804Y248727D01*
X345257Y247887D01*
X344742Y247028D01*
X344260Y246149D01*
X343813Y245252D01*
X343401Y244338D01*
X343024Y243410D01*
X342683Y242467D01*
X342379Y241512D01*
X342112Y240546D01*
X341882Y239571D01*
X341690Y238587D01*
X341536Y237597D01*
X341421Y236602D01*
X341343Y235602D01*
X341305Y234601D01*
Y233599D01*
X341343Y232597D01*
X341421Y231598D01*
X341536Y230603D01*
X341690Y229613D01*
X341882Y228629D01*
X342112Y227654D01*
X342379Y226688D01*
X342683Y225733D01*
X343024Y224790D01*
X343401Y223862D01*
X343813Y222948D01*
X344260Y222051D01*
X344742Y221172D01*
X345257Y220313D01*
X345804Y219473D01*
X346384Y218656D01*
X346995Y217861D01*
X347636Y217091D01*
X348306Y216346D01*
X349004Y215627D01*
X349729Y214935D01*
X350481Y214273D01*
X351258Y213639D01*
X352058Y213036D01*
X352881Y212464D01*
X353726Y211925D01*
X354590Y211418D01*
X355474Y210945D01*
X356375Y210507D01*
X357292Y210103D01*
X358225Y209735D01*
X359170Y209404D01*
X360128Y209109D01*
X361097Y208851D01*
X362074Y208631D01*
X363059Y208448D01*
X364051Y208304D01*
X365048Y208198D01*
X366048Y208130D01*
X367049Y208101D01*
X368052Y208111D01*
X369053Y208159D01*
X370051Y208246D01*
X371045Y208371D01*
X372034Y208535D01*
X373016Y208736D01*
X373989Y208975D01*
X374952Y209252D01*
X375904Y209565D01*
X376843Y209915D01*
X377768Y210300D01*
X378678Y210722D01*
X379570Y211177D01*
X380444Y211667D01*
X381299Y212191D01*
X382133Y212746D01*
X382945Y213334D01*
X383734Y213952D01*
X384498Y214600D01*
X385237Y215278D01*
X385948Y215983D01*
X386633Y216715D01*
X387288Y217473D01*
X387914Y218256D01*
X388510Y219062D01*
X389073Y219890D01*
X389605Y220740D01*
X390103Y221609D01*
X390568Y222498D01*
X390998Y223403D01*
X391392Y224324D01*
X391751Y225260D01*
X392073Y226209D01*
X392359Y227169D01*
X392608Y228140D01*
X392819Y229120D01*
X392991Y230107D01*
X393126Y231100D01*
X393223Y232097D01*
X393281Y233098D01*
X393300Y234100D01*
X392999Y290199D02*
X392980Y291201D01*
X392922Y292202D01*
X392826Y293199D01*
X392691Y294192D01*
X392518Y295180D01*
X392307Y296159D01*
X392059Y297130D01*
X391773Y298091D01*
X391450Y299040D01*
X391091Y299975D01*
X390697Y300897D01*
X390267Y301802D01*
X389803Y302690D01*
X389304Y303559D01*
X388773Y304409D01*
X388209Y305238D01*
X387614Y306044D01*
X386988Y306826D01*
X386332Y307584D01*
X385648Y308316D01*
X384936Y309022D01*
X384197Y309699D01*
X383433Y310347D01*
X382644Y310966D01*
X381832Y311553D01*
X380998Y312109D01*
X380144Y312632D01*
X379270Y313122D01*
X378377Y313578D01*
X377468Y313999D01*
X376543Y314385D01*
X375604Y314734D01*
X374652Y315048D01*
X373688Y315324D01*
X372715Y315563D01*
X371733Y315765D01*
X370745Y315928D01*
X369750Y316053D01*
X368752Y316140D01*
X367751Y316189D01*
X366749Y316198D01*
X365747Y316169D01*
X364747Y316102D01*
X363751Y315996D01*
X362759Y315851D01*
X361773Y315669D01*
X360796Y315448D01*
X359827Y315191D01*
X358870Y314896D01*
X357924Y314564D01*
X356992Y314196D01*
X356074Y313793D01*
X355173Y313354D01*
X354290Y312881D01*
X353425Y312375D01*
X352581Y311835D01*
X351758Y311263D01*
X350957Y310660D01*
X350181Y310027D01*
X349429Y309364D01*
X348703Y308672D01*
X348005Y307954D01*
X347335Y307208D01*
X346694Y306438D01*
X346083Y305644D01*
X345504Y304826D01*
X344956Y303987D01*
X344441Y303127D01*
X343960Y302248D01*
X343512Y301351D01*
X343100Y300438D01*
X342723Y299509D01*
X342383Y298567D01*
X342078Y297612D01*
X341811Y296646D01*
X341582Y295670D01*
X341389Y294687D01*
X341236Y293696D01*
X341120Y292701D01*
X341043Y291702D01*
X341004Y290701D01*
Y289698D01*
X341043Y288697D01*
X341120Y287698D01*
X341236Y286702D01*
X341389Y285712D01*
X341582Y284728D01*
X341811Y283753D01*
X342078Y282787D01*
X342383Y281832D01*
X342723Y280890D01*
X343100Y279961D01*
X343512Y279048D01*
X343960Y278151D01*
X344441Y277272D01*
X344956Y276412D01*
X345504Y275573D01*
X346083Y274755D01*
X346694Y273961D01*
X347335Y273190D01*
X348005Y272445D01*
X348703Y271726D01*
X349429Y271035D01*
X350181Y270372D01*
X350957Y269739D01*
X351758Y269135D01*
X352580Y268564D01*
X353425Y268024D01*
X354290Y267517D01*
X355173Y267045D01*
X356074Y266606D01*
X356992Y266203D01*
X357924Y265835D01*
X358870Y265503D01*
X359827Y265208D01*
X360796Y264950D01*
X361773Y264730D01*
X362759Y264547D01*
X363751Y264403D01*
X364747Y264297D01*
X365747Y264229D01*
X366749Y264201D01*
X367751Y264210D01*
X368752Y264259D01*
X369750Y264345D01*
X370745Y264471D01*
X371733Y264634D01*
X372715Y264835D01*
X373688Y265074D01*
X374652Y265351D01*
X375604Y265664D01*
X376543Y266014D01*
X377467Y266400D01*
X378377Y266821D01*
X379269Y267277D01*
X380144Y267767D01*
X380998Y268290D01*
X381832Y268846D01*
X382644Y269433D01*
X383433Y270052D01*
X384197Y270700D01*
X384936Y271377D01*
X385648Y272082D01*
X386332Y272814D01*
X386988Y273572D01*
X387614Y274355D01*
X388209Y275161D01*
X388773Y275990D01*
X389304Y276839D01*
X389803Y277709D01*
X390267Y278597D01*
X390697Y279502D01*
X391091Y280423D01*
X391450Y281359D01*
X391773Y282308D01*
X392059Y283268D01*
X392307Y284239D01*
X392518Y285219D01*
X392691Y286206D01*
X392826Y287199D01*
X392922Y288197D01*
X392980Y289197D01*
X392999Y290199D01*
X392799Y402799D02*
X392780Y403801D01*
X392722Y404802D01*
X392626Y405799D01*
X392491Y406792D01*
X392318Y407780D01*
X392107Y408759D01*
X391859Y409730D01*
X391573Y410691D01*
X391250Y411639D01*
X390892Y412575D01*
X390497Y413496D01*
X390067Y414402D01*
X389603Y415290D01*
X389104Y416159D01*
X388573Y417009D01*
X388009Y417837D01*
X387414Y418644D01*
X386788Y419426D01*
X386132Y420184D01*
X385448Y420917D01*
X384736Y421622D01*
X383997Y422299D01*
X383233Y422947D01*
X382444Y423566D01*
X381632Y424153D01*
X380799Y424709D01*
X379944Y425232D01*
X379069Y425722D01*
X378177Y426178D01*
X377268Y426599D01*
X376343Y426985D01*
X375403Y427334D01*
X374452Y427648D01*
X373488Y427924D01*
X372515Y428163D01*
X371533Y428365D01*
X370545Y428528D01*
X369550Y428653D01*
X368552Y428740D01*
X367551Y428789D01*
X366549Y428798D01*
X365547Y428769D01*
X364547Y428702D01*
X363551Y428596D01*
X362559Y428451D01*
X361574Y428269D01*
X360596Y428049D01*
X359627Y427791D01*
X358670Y427496D01*
X357724Y427164D01*
X356792Y426796D01*
X355874Y426393D01*
X354973Y425954D01*
X354090Y425481D01*
X353225Y424975D01*
X352381Y424435D01*
X351557Y423863D01*
X350757Y423260D01*
X349980Y422627D01*
X349229Y421964D01*
X348503Y421273D01*
X347805Y420554D01*
X347135Y419808D01*
X346494Y419038D01*
X345883Y418244D01*
X345304Y417426D01*
X344756Y416587D01*
X344241Y415727D01*
X343760Y414848D01*
X343312Y413951D01*
X342900Y413038D01*
X342523Y412109D01*
X342182Y411167D01*
X341878Y410212D01*
X341611Y409246D01*
X341382Y408270D01*
X341190Y407287D01*
X341036Y406296D01*
X340920Y405301D01*
X340843Y404302D01*
X340804Y403301D01*
Y402298D01*
X340843Y401297D01*
X340920Y400298D01*
X341036Y399302D01*
X341190Y398312D01*
X341382Y397328D01*
X341611Y396353D01*
X341878Y395387D01*
X342182Y394432D01*
X342523Y393490D01*
X342900Y392561D01*
X343312Y391648D01*
X343760Y390751D01*
X344241Y389872D01*
X344756Y389012D01*
X345304Y388173D01*
X345883Y387355D01*
X346494Y386561D01*
X347135Y385790D01*
X347805Y385045D01*
X348503Y384326D01*
X349229Y383635D01*
X349980Y382972D01*
X350757Y382339D01*
X351557Y381735D01*
X352380Y381164D01*
X353225Y380624D01*
X354090Y380118D01*
X354973Y379645D01*
X355874Y379206D01*
X356792Y378803D01*
X357724Y378435D01*
X358670Y378103D01*
X359627Y377808D01*
X360596Y377550D01*
X361574Y377330D01*
X362559Y377148D01*
X363551Y377003D01*
X364547Y376897D01*
X365547Y376830D01*
X366549Y376801D01*
X367551Y376810D01*
X368552Y376858D01*
X369550Y376945D01*
X370545Y377070D01*
X371533Y377234D01*
X372515Y377435D01*
X373488Y377675D01*
X374451Y377951D01*
X375403Y378264D01*
X376343Y378614D01*
X377268Y379000D01*
X378177Y379421D01*
X379069Y379877D01*
X379944Y380367D01*
X380798Y380890D01*
X381632Y381446D01*
X382444Y382033D01*
X383233Y382651D01*
X383997Y383300D01*
X384736Y383977D01*
X385448Y384682D01*
X386132Y385414D01*
X386788Y386172D01*
X387414Y386955D01*
X388009Y387761D01*
X388573Y388590D01*
X389104Y389439D01*
X389603Y390309D01*
X390067Y391197D01*
X390497Y392102D01*
X390892Y393023D01*
X391250Y393959D01*
X391573Y394908D01*
X391859Y395868D01*
X392107Y396839D01*
X392318Y397819D01*
X392491Y398806D01*
X392626Y399799D01*
X392722Y400797D01*
X392780Y401797D01*
X392799Y402799D01*
X393199Y458699D02*
X393180Y459701D01*
X393122Y460702D01*
X393026Y461699D01*
X392891Y462692D01*
X392718Y463680D01*
X392507Y464659D01*
X392259Y465630D01*
X391973Y466591D01*
X391650Y467540D01*
X391291Y468475D01*
X390897Y469396D01*
X390467Y470302D01*
X390003Y471190D01*
X389504Y472059D01*
X388973Y472909D01*
X388409Y473737D01*
X387814Y474544D01*
X387188Y475326D01*
X386532Y476084D01*
X385848Y476817D01*
X385136Y477522D01*
X384397Y478199D01*
X383633Y478847D01*
X382844Y479466D01*
X382032Y480053D01*
X381199Y480609D01*
X380344Y481132D01*
X379469Y481622D01*
X378577Y482078D01*
X377668Y482499D01*
X376743Y482885D01*
X375803Y483234D01*
X374852Y483548D01*
X373888Y483824D01*
X372915Y484063D01*
X371933Y484265D01*
X370945Y484428D01*
X369950Y484553D01*
X368952Y484640D01*
X367951Y484689D01*
X366949Y484698D01*
X365947Y484669D01*
X364947Y484602D01*
X363951Y484496D01*
X362959Y484351D01*
X361974Y484169D01*
X360996Y483949D01*
X360027Y483691D01*
X359070Y483396D01*
X358124Y483064D01*
X357192Y482696D01*
X356274Y482293D01*
X355373Y481854D01*
X354490Y481381D01*
X353625Y480875D01*
X352781Y480335D01*
X351958Y479763D01*
X351157Y479160D01*
X350380Y478527D01*
X349629Y477864D01*
X348903Y477173D01*
X348205Y476454D01*
X347535Y475708D01*
X346894Y474938D01*
X346283Y474144D01*
X345704Y473326D01*
X345156Y472487D01*
X344641Y471627D01*
X344160Y470748D01*
X343712Y469851D01*
X343300Y468938D01*
X342923Y468009D01*
X342583Y467067D01*
X342278Y466112D01*
X342011Y465146D01*
X341781Y464170D01*
X341589Y463187D01*
X341436Y462197D01*
X341320Y461201D01*
X341243Y460202D01*
X341204Y459200D01*
Y458198D01*
X341243Y457197D01*
X341320Y456198D01*
X341436Y455202D01*
X341589Y454212D01*
X341781Y453228D01*
X342011Y452253D01*
X342278Y451287D01*
X342583Y450332D01*
X342923Y449390D01*
X343300Y448461D01*
X343712Y447548D01*
X344160Y446651D01*
X344641Y445772D01*
X345156Y444912D01*
X345704Y444073D01*
X346283Y443255D01*
X346894Y442461D01*
X347535Y441690D01*
X348205Y440945D01*
X348903Y440226D01*
X349629Y439535D01*
X350380Y438872D01*
X351157Y438239D01*
X351958Y437636D01*
X352781Y437064D01*
X353625Y436524D01*
X354490Y436018D01*
X355373Y435545D01*
X356274Y435106D01*
X357192Y434702D01*
X358124Y434335D01*
X359070Y434003D01*
X360027Y433708D01*
X360996Y433450D01*
X361974Y433230D01*
X362959Y433047D01*
X363951Y432903D01*
X364947Y432797D01*
X365947Y432729D01*
X366949Y432701D01*
X367951Y432710D01*
X368952Y432759D01*
X369950Y432845D01*
X370945Y432971D01*
X371933Y433134D01*
X372915Y433335D01*
X373888Y433574D01*
X374851Y433851D01*
X375803Y434164D01*
X376743Y434514D01*
X377667Y434900D01*
X378577Y435321D01*
X379469Y435777D01*
X380344Y436267D01*
X381198Y436790D01*
X382032Y437346D01*
X382844Y437933D01*
X383633Y438552D01*
X384397Y439200D01*
X385136Y439877D01*
X385848Y440582D01*
X386532Y441314D01*
X387188Y442072D01*
X387814Y442855D01*
X388409Y443661D01*
X388973Y444490D01*
X389504Y445339D01*
X390003Y446209D01*
X390467Y447097D01*
X390897Y448002D01*
X391291Y448923D01*
X391650Y449859D01*
X391973Y450808D01*
X392259Y451768D01*
X392507Y452739D01*
X392718Y453719D01*
X392891Y454706D01*
X393026Y455699D01*
X393122Y456697D01*
X393180Y457697D01*
X393199Y458699D01*
X393367Y514300D02*
X393348Y515302D01*
X393290Y516302D01*
X393193Y517300D01*
X393058Y518293D01*
X392885Y519280D01*
X392675Y520260D01*
X392426Y521231D01*
X392140Y522191D01*
X391818Y523140D01*
X391459Y524076D01*
X391064Y524997D01*
X390635Y525902D01*
X390170Y526790D01*
X389672Y527660D01*
X389141Y528510D01*
X388577Y529338D01*
X387981Y530144D01*
X387355Y530927D01*
X386700Y531685D01*
X386016Y532417D01*
X385303Y533122D01*
X384565Y533800D01*
X383801Y534448D01*
X383012Y535066D01*
X382200Y535654D01*
X381366Y536209D01*
X380511Y536733D01*
X379637Y537223D01*
X378745Y537678D01*
X377835Y538099D01*
X376910Y538485D01*
X375971Y538835D01*
X375019Y539148D01*
X374056Y539425D01*
X373083Y539664D01*
X372101Y539865D01*
X371112Y540029D01*
X370118Y540154D01*
X369120Y540241D01*
X368119Y540289D01*
X367116Y540299D01*
X366115Y540270D01*
X365115Y540202D01*
X364118Y540096D01*
X363126Y539952D01*
X362141Y539769D01*
X361163Y539549D01*
X360195Y539291D01*
X359237Y538996D01*
X358292Y538665D01*
X357359Y538297D01*
X356442Y537893D01*
X355541Y537455D01*
X354657Y536982D01*
X353793Y536475D01*
X352948Y535936D01*
X352125Y535364D01*
X351325Y534761D01*
X350548Y534127D01*
X349797Y533464D01*
X349071Y532773D01*
X348373Y532054D01*
X347703Y531309D01*
X347062Y530539D01*
X346451Y529744D01*
X345871Y528927D01*
X345324Y528087D01*
X344809Y527228D01*
X344327Y526349D01*
X343880Y525452D01*
X343468Y524538D01*
X343091Y523610D01*
X342750Y522667D01*
X342446Y521712D01*
X342179Y520747D01*
X341949Y519771D01*
X341757Y518787D01*
X341603Y517797D01*
X341488Y516802D01*
X341410Y515802D01*
X341372Y514801D01*
Y513799D01*
X341410Y512797D01*
X341488Y511798D01*
X341603Y510803D01*
X341757Y509813D01*
X341949Y508829D01*
X342179Y507854D01*
X342446Y506888D01*
X342750Y505933D01*
X343091Y504990D01*
X343468Y504062D01*
X343880Y503148D01*
X344327Y502251D01*
X344809Y501372D01*
X345324Y500513D01*
X345871Y499673D01*
X346451Y498856D01*
X347062Y498061D01*
X347703Y497291D01*
X348373Y496546D01*
X349071Y495827D01*
X349796Y495135D01*
X350548Y494473D01*
X351325Y493839D01*
X352125Y493236D01*
X352948Y492664D01*
X353793Y492125D01*
X354657Y491618D01*
X355541Y491145D01*
X356442Y490707D01*
X357359Y490303D01*
X358292Y489935D01*
X359237Y489604D01*
X360195Y489309D01*
X361163Y489051D01*
X362141Y488831D01*
X363126Y488648D01*
X364118Y488504D01*
X365115Y488398D01*
X366115Y488330D01*
X367116Y488301D01*
X368118Y488311D01*
X369119Y488359D01*
X370118Y488446D01*
X371112Y488571D01*
X372101Y488735D01*
X373083Y488936D01*
X374056Y489175D01*
X375019Y489452D01*
X375971Y489765D01*
X376910Y490115D01*
X377835Y490500D01*
X378745Y490922D01*
X379637Y491377D01*
X380511Y491867D01*
X381366Y492390D01*
X382200Y492946D01*
X383012Y493534D01*
X383801Y494152D01*
X384565Y494800D01*
X385303Y495478D01*
X386016Y496183D01*
X386700Y496915D01*
X387355Y497673D01*
X387981Y498456D01*
X388577Y499262D01*
X389140Y500090D01*
X389672Y500940D01*
X390170Y501810D01*
X390635Y502698D01*
X391064Y503603D01*
X391459Y504524D01*
X391818Y505460D01*
X392140Y506409D01*
X392426Y507369D01*
X392675Y508340D01*
X392885Y509320D01*
X393058Y510307D01*
X393193Y511300D01*
X393290Y512297D01*
X393348Y513298D01*
X393367Y514300D01*
D11*
X57194Y584900D02*
X56406D01*
X57194D01*
X57261Y527900D02*
X56473D01*
X57261D01*
X57093Y472299D02*
X56306D01*
X57093D01*
X56693Y416399D02*
X55906D01*
X56693D01*
X57494Y360000D02*
X56706D01*
X57494D01*
X56893Y303799D02*
X56106D01*
X56893D01*
X57194Y247700D02*
X56406D01*
X57194D01*
X56494Y194800D02*
X55706D01*
X56494D01*
X160894Y585100D02*
X160106D01*
X160894D01*
X160961Y528100D02*
X160173D01*
X160961D01*
X160793Y472499D02*
X160006D01*
X160793D01*
X160393Y416599D02*
X159606D01*
X160393D01*
X161194Y360200D02*
X160406D01*
X161194D01*
X160593Y303999D02*
X159806D01*
X160593D01*
X160894Y247900D02*
X160106D01*
X160894D01*
X117794Y224200D02*
X117006D01*
X117794D01*
X577450Y577175D02*
X576911Y578010D01*
X576301Y578794D01*
X575625Y579522D01*
X574889Y580189D01*
X574097Y580789D01*
X573257Y581319D01*
X572373Y581773D01*
X571454Y582148D01*
X570505Y582443D01*
X569534Y582653D01*
X568548Y582779D01*
X567556Y582818D01*
X566563Y582771D01*
X565579Y582638D01*
X564610Y582419D01*
X563663Y582118D01*
X562746Y581735D01*
X561867Y581274D01*
X561030Y580738D01*
X560243Y580131D01*
X559512Y579459D01*
X558842Y578725D01*
X558239Y577936D01*
X557706Y577097D01*
X557248Y576216D01*
X556869Y575297D01*
X556571Y574350D01*
X556356Y573380D01*
X556227Y572395D01*
X556183Y571402D01*
X556226Y570410D01*
X556356Y569425D01*
X556570Y568455D01*
X556868Y567507D01*
X557247Y566589D01*
X557704Y565707D01*
X558237Y564868D01*
X558840Y564079D01*
X559510Y563345D01*
X560241Y562672D01*
X561027Y562066D01*
X561864Y561529D01*
X562743Y561068D01*
X563660Y560685D01*
X564606Y560383D01*
X565575Y560164D01*
X566560Y560031D01*
X567552Y559983D01*
X568545Y560022D01*
X569530Y560148D01*
X570501Y560358D01*
X571450Y560652D01*
X572370Y561027D01*
X573254Y561481D01*
X574095Y562010D01*
X574886Y562610D01*
X575623Y563277D01*
X576299Y564005D01*
X576909Y564789D01*
X577448Y565623D01*
X419950Y576875D02*
X419411Y577709D01*
X418801Y578494D01*
X418125Y579222D01*
X417389Y579889D01*
X416598Y580489D01*
X415757Y581018D01*
X414873Y581473D01*
X413953Y581848D01*
X413005Y582142D01*
X412034Y582353D01*
X411048Y582479D01*
X410056Y582518D01*
X409063Y582471D01*
X408079Y582338D01*
X407110Y582119D01*
X406163Y581817D01*
X405246Y581435D01*
X404366Y580974D01*
X403530Y580438D01*
X402743Y579831D01*
X402012Y579159D01*
X401342Y578425D01*
X400739Y577636D01*
X400206Y576797D01*
X399748Y575916D01*
X399369Y574998D01*
X399071Y574050D01*
X398856Y573080D01*
X398727Y572095D01*
X398683Y571102D01*
X398726Y570110D01*
X398856Y569125D01*
X399070Y568155D01*
X399368Y567207D01*
X399747Y566289D01*
X400204Y565407D01*
X400737Y564568D01*
X401340Y563779D01*
X402010Y563045D01*
X402740Y562372D01*
X403527Y561765D01*
X404363Y561229D01*
X405243Y560768D01*
X406160Y560385D01*
X407106Y560083D01*
X408075Y559864D01*
X409060Y559731D01*
X410052Y559683D01*
X411045Y559722D01*
X412030Y559848D01*
X413001Y560058D01*
X413950Y560352D01*
X414870Y560727D01*
X415754Y561181D01*
X416595Y561710D01*
X417386Y562310D01*
X418123Y562977D01*
X418799Y563705D01*
X419409Y564489D01*
X419948Y565323D01*
X577317Y183775D02*
X576778Y184609D01*
X576168Y185394D01*
X575492Y186122D01*
X574756Y186789D01*
X573964Y187389D01*
X573124Y187918D01*
X572240Y188373D01*
X571320Y188748D01*
X570372Y189042D01*
X569401Y189253D01*
X568415Y189379D01*
X567423Y189418D01*
X566430Y189371D01*
X565446Y189237D01*
X564477Y189019D01*
X563530Y188717D01*
X562613Y188335D01*
X561733Y187874D01*
X560897Y187338D01*
X560110Y186731D01*
X559379Y186059D01*
X558709Y185325D01*
X558106Y184536D01*
X557573Y183697D01*
X557115Y182816D01*
X556736Y181897D01*
X556438Y180950D01*
X556223Y179980D01*
X556094Y178995D01*
X556050Y178002D01*
X556093Y177010D01*
X556222Y176025D01*
X556437Y175055D01*
X556735Y174107D01*
X557114Y173189D01*
X557571Y172307D01*
X558104Y171468D01*
X558707Y170679D01*
X559377Y169945D01*
X560107Y169272D01*
X560894Y168666D01*
X561730Y168129D01*
X562610Y167668D01*
X563527Y167285D01*
X564473Y166983D01*
X565442Y166764D01*
X566427Y166631D01*
X567419Y166583D01*
X568412Y166622D01*
X569397Y166748D01*
X570368Y166958D01*
X571317Y167252D01*
X572237Y167627D01*
X573121Y168081D01*
X573961Y168610D01*
X574753Y169210D01*
X575490Y169877D01*
X576166Y170605D01*
X576776Y171389D01*
X577315Y172223D01*
X577450Y239975D02*
X576911Y240809D01*
X576301Y241594D01*
X575625Y242322D01*
X574889Y242989D01*
X574097Y243589D01*
X573257Y244118D01*
X572373Y244573D01*
X571454Y244948D01*
X570505Y245243D01*
X569534Y245453D01*
X568548Y245579D01*
X567556Y245618D01*
X566563Y245571D01*
X565579Y245438D01*
X564610Y245219D01*
X563663Y244917D01*
X562746Y244535D01*
X561867Y244074D01*
X561030Y243538D01*
X560243Y242931D01*
X559512Y242259D01*
X558842Y241525D01*
X558239Y240736D01*
X557706Y239897D01*
X557248Y239016D01*
X556869Y238098D01*
X556571Y237150D01*
X556356Y236180D01*
X556227Y235195D01*
X556183Y234202D01*
X556226Y233210D01*
X556356Y232225D01*
X556570Y231255D01*
X556868Y230307D01*
X557247Y229389D01*
X557704Y228507D01*
X558237Y227668D01*
X558840Y226879D01*
X559510Y226145D01*
X560241Y225472D01*
X561027Y224866D01*
X561864Y224329D01*
X562743Y223868D01*
X563660Y223485D01*
X564606Y223183D01*
X565575Y222964D01*
X566560Y222831D01*
X567552Y222783D01*
X568545Y222822D01*
X569530Y222948D01*
X570501Y223158D01*
X571450Y223452D01*
X572370Y223827D01*
X573254Y224281D01*
X574095Y224810D01*
X574886Y225410D01*
X575623Y226077D01*
X576299Y226805D01*
X576909Y227589D01*
X577448Y228423D01*
X577149Y296075D02*
X576610Y296909D01*
X576000Y297693D01*
X575325Y298422D01*
X574588Y299088D01*
X573797Y299689D01*
X572956Y300218D01*
X572073Y300672D01*
X571153Y301048D01*
X570204Y301342D01*
X569233Y301553D01*
X568248Y301678D01*
X567255Y301717D01*
X566263Y301670D01*
X565278Y301537D01*
X564309Y301319D01*
X563363Y301017D01*
X562446Y300634D01*
X561566Y300173D01*
X560729Y299637D01*
X559943Y299031D01*
X559211Y298358D01*
X558542Y297624D01*
X557938Y296835D01*
X557405Y295997D01*
X556948Y295115D01*
X556568Y294197D01*
X556270Y293249D01*
X556055Y292279D01*
X555926Y291294D01*
X555883Y290302D01*
X555926Y289309D01*
X556055Y288324D01*
X556269Y287354D01*
X556567Y286406D01*
X556946Y285488D01*
X557404Y284606D01*
X557936Y283768D01*
X558539Y282978D01*
X559209Y282244D01*
X559940Y281572D01*
X560726Y280965D01*
X561563Y280429D01*
X562443Y279967D01*
X563359Y279584D01*
X564306Y279282D01*
X565275Y279064D01*
X566259Y278930D01*
X567251Y278883D01*
X568244Y278922D01*
X569230Y279047D01*
X570201Y279257D01*
X571150Y279551D01*
X572069Y279927D01*
X572953Y280380D01*
X573794Y280909D01*
X574586Y281509D01*
X575322Y282176D01*
X575998Y282904D01*
X576608Y283688D01*
X577148Y284523D01*
X577750Y352275D02*
X577211Y353110D01*
X576601Y353894D01*
X575925Y354622D01*
X575189Y355289D01*
X574398Y355889D01*
X573557Y356418D01*
X572673Y356873D01*
X571754Y357248D01*
X570805Y357542D01*
X569834Y357753D01*
X568848Y357879D01*
X567856Y357918D01*
X566863Y357871D01*
X565879Y357737D01*
X564910Y357519D01*
X563963Y357218D01*
X563047Y356835D01*
X562167Y356374D01*
X561330Y355838D01*
X560543Y355231D01*
X559812Y354559D01*
X559142Y353825D01*
X558539Y353036D01*
X558006Y352197D01*
X557548Y351316D01*
X557169Y350397D01*
X556871Y349450D01*
X556656Y348480D01*
X556527Y347495D01*
X556483Y346502D01*
X556526Y345510D01*
X556656Y344525D01*
X556870Y343555D01*
X557168Y342607D01*
X557547Y341689D01*
X558004Y340807D01*
X558537Y339968D01*
X559140Y339179D01*
X559810Y338445D01*
X560540Y337772D01*
X561327Y337165D01*
X562163Y336629D01*
X563043Y336168D01*
X563960Y335785D01*
X564906Y335483D01*
X565875Y335264D01*
X566860Y335131D01*
X567852Y335083D01*
X568845Y335122D01*
X569830Y335248D01*
X570801Y335458D01*
X571750Y335752D01*
X572670Y336127D01*
X573554Y336581D01*
X574395Y337110D01*
X575186Y337710D01*
X575923Y338377D01*
X576599Y339105D01*
X577209Y339889D01*
X577748Y340723D01*
X576949Y408674D02*
X576410Y409509D01*
X575800Y410293D01*
X575125Y411022D01*
X574388Y411688D01*
X573597Y412289D01*
X572756Y412818D01*
X571873Y413272D01*
X570953Y413648D01*
X570004Y413942D01*
X569033Y414152D01*
X568048Y414278D01*
X567055Y414317D01*
X566063Y414270D01*
X565078Y414137D01*
X564109Y413919D01*
X563163Y413617D01*
X562246Y413234D01*
X561366Y412773D01*
X560529Y412237D01*
X559743Y411631D01*
X559012Y410958D01*
X558342Y410224D01*
X557738Y409435D01*
X557205Y408597D01*
X556748Y407715D01*
X556368Y406797D01*
X556070Y405849D01*
X555856Y404879D01*
X555726Y403894D01*
X555683Y402902D01*
X555726Y401909D01*
X555855Y400924D01*
X556069Y399954D01*
X556367Y399007D01*
X556746Y398088D01*
X557204Y397206D01*
X557736Y396368D01*
X558339Y395578D01*
X559009Y394845D01*
X559740Y394172D01*
X560527Y393565D01*
X561363Y393029D01*
X562243Y392567D01*
X563159Y392184D01*
X564106Y391882D01*
X565075Y391664D01*
X566059Y391530D01*
X567052Y391483D01*
X568044Y391522D01*
X569030Y391647D01*
X570001Y391857D01*
X570950Y392151D01*
X571869Y392527D01*
X572753Y392980D01*
X573594Y393509D01*
X574386Y394110D01*
X575122Y394776D01*
X575798Y395504D01*
X576408Y396288D01*
X576948Y397123D01*
X577349Y464574D02*
X576810Y465409D01*
X576200Y466193D01*
X575525Y466922D01*
X574788Y467588D01*
X573997Y468189D01*
X573156Y468718D01*
X572273Y469172D01*
X571353Y469548D01*
X570404Y469842D01*
X569433Y470052D01*
X568448Y470178D01*
X567455Y470217D01*
X566463Y470170D01*
X565478Y470037D01*
X564509Y469819D01*
X563563Y469517D01*
X562646Y469134D01*
X561766Y468673D01*
X560929Y468137D01*
X560143Y467531D01*
X559411Y466858D01*
X558742Y466124D01*
X558138Y465335D01*
X557605Y464497D01*
X557148Y463615D01*
X556768Y462697D01*
X556470Y461749D01*
X556255Y460779D01*
X556126Y459794D01*
X556083Y458802D01*
X556126Y457809D01*
X556255Y456824D01*
X556469Y455854D01*
X556767Y454907D01*
X557146Y453988D01*
X557604Y453106D01*
X558136Y452268D01*
X558739Y451478D01*
X559409Y450744D01*
X560140Y450072D01*
X560926Y449465D01*
X561763Y448929D01*
X562643Y448467D01*
X563559Y448084D01*
X564506Y447782D01*
X565475Y447564D01*
X566459Y447430D01*
X567451Y447383D01*
X568444Y447422D01*
X569430Y447547D01*
X570401Y447757D01*
X571350Y448051D01*
X572269Y448427D01*
X573153Y448880D01*
X573994Y449409D01*
X574786Y450009D01*
X575522Y450676D01*
X576198Y451404D01*
X576808Y452188D01*
X577348Y453022D01*
X577517Y520175D02*
X576978Y521009D01*
X576368Y521794D01*
X575692Y522522D01*
X574956Y523189D01*
X574164Y523789D01*
X573324Y524319D01*
X572440Y524773D01*
X571520Y525148D01*
X570572Y525443D01*
X569601Y525653D01*
X568615Y525779D01*
X567623Y525818D01*
X566630Y525771D01*
X565646Y525637D01*
X564677Y525419D01*
X563730Y525117D01*
X562813Y524735D01*
X561934Y524274D01*
X561097Y523738D01*
X560310Y523131D01*
X559579Y522459D01*
X558909Y521725D01*
X558306Y520936D01*
X557773Y520097D01*
X557315Y519216D01*
X556936Y518297D01*
X556638Y517350D01*
X556423Y516380D01*
X556294Y515395D01*
X556250Y514402D01*
X556293Y513410D01*
X556423Y512425D01*
X556637Y511455D01*
X556935Y510507D01*
X557314Y509589D01*
X557771Y508707D01*
X558304Y507868D01*
X558907Y507079D01*
X559577Y506345D01*
X560307Y505672D01*
X561094Y505065D01*
X561930Y504529D01*
X562810Y504068D01*
X563727Y503685D01*
X564673Y503383D01*
X565642Y503164D01*
X566627Y503031D01*
X567619Y502983D01*
X568612Y503022D01*
X569597Y503148D01*
X570568Y503358D01*
X571517Y503652D01*
X572437Y504027D01*
X573321Y504481D01*
X574161Y505010D01*
X574953Y505610D01*
X575690Y506277D01*
X576366Y507005D01*
X576976Y507789D01*
X577515Y508623D01*
X419817Y183475D02*
X419278Y184309D01*
X418668Y185094D01*
X417992Y185822D01*
X417256Y186489D01*
X416464Y187089D01*
X415624Y187619D01*
X414740Y188073D01*
X413820Y188448D01*
X412872Y188742D01*
X411901Y188953D01*
X410915Y189079D01*
X409923Y189118D01*
X408930Y189071D01*
X407946Y188937D01*
X406977Y188719D01*
X406030Y188417D01*
X405113Y188035D01*
X404234Y187574D01*
X403397Y187038D01*
X402610Y186431D01*
X401879Y185759D01*
X401209Y185025D01*
X400606Y184236D01*
X400073Y183397D01*
X399615Y182516D01*
X399236Y181597D01*
X398938Y180650D01*
X398723Y179680D01*
X398594Y178695D01*
X398550Y177702D01*
X398593Y176710D01*
X398723Y175725D01*
X398937Y174755D01*
X399235Y173807D01*
X399614Y172889D01*
X400071Y172007D01*
X400604Y171168D01*
X401207Y170379D01*
X401877Y169645D01*
X402607Y168972D01*
X403394Y168366D01*
X404230Y167829D01*
X405110Y167368D01*
X406027Y166985D01*
X406973Y166683D01*
X407942Y166464D01*
X408927Y166331D01*
X409919Y166283D01*
X410912Y166322D01*
X411897Y166448D01*
X412868Y166658D01*
X413817Y166952D01*
X414737Y167327D01*
X415621Y167781D01*
X416462Y168310D01*
X417253Y168910D01*
X417990Y169577D01*
X418666Y170305D01*
X419276Y171089D01*
X419815Y171923D01*
X419950Y239675D02*
X419411Y240510D01*
X418801Y241294D01*
X418125Y242022D01*
X417389Y242689D01*
X416598Y243289D01*
X415757Y243818D01*
X414873Y244273D01*
X413953Y244648D01*
X413005Y244942D01*
X412034Y245153D01*
X411048Y245279D01*
X410056Y245318D01*
X409063Y245271D01*
X408079Y245138D01*
X407110Y244919D01*
X406163Y244618D01*
X405246Y244235D01*
X404366Y243774D01*
X403530Y243238D01*
X402743Y242631D01*
X402012Y241959D01*
X401342Y241225D01*
X400739Y240436D01*
X400206Y239597D01*
X399748Y238716D01*
X399369Y237797D01*
X399071Y236850D01*
X398856Y235880D01*
X398727Y234895D01*
X398683Y233902D01*
X398726Y232910D01*
X398856Y231925D01*
X399070Y230955D01*
X399368Y230007D01*
X399747Y229089D01*
X400204Y228207D01*
X400737Y227368D01*
X401340Y226579D01*
X402010Y225845D01*
X402740Y225172D01*
X403527Y224566D01*
X404363Y224029D01*
X405243Y223568D01*
X406160Y223185D01*
X407106Y222883D01*
X408075Y222664D01*
X409060Y222531D01*
X410052Y222483D01*
X411045Y222522D01*
X412030Y222648D01*
X413001Y222858D01*
X413950Y223152D01*
X414870Y223527D01*
X415754Y223981D01*
X416595Y224510D01*
X417386Y225110D01*
X418123Y225777D01*
X418799Y226505D01*
X419409Y227289D01*
X419948Y228123D01*
X419649Y295775D02*
X419110Y296609D01*
X418500Y297393D01*
X417825Y298122D01*
X417088Y298788D01*
X416297Y299389D01*
X415456Y299918D01*
X414573Y300372D01*
X413653Y300748D01*
X412704Y301042D01*
X411733Y301253D01*
X410748Y301378D01*
X409755Y301417D01*
X408763Y301370D01*
X407778Y301237D01*
X406809Y301019D01*
X405863Y300717D01*
X404946Y300334D01*
X404066Y299873D01*
X403229Y299337D01*
X402443Y298731D01*
X401712Y298058D01*
X401042Y297324D01*
X400438Y296535D01*
X399905Y295697D01*
X399448Y294815D01*
X399068Y293897D01*
X398770Y292949D01*
X398555Y291979D01*
X398426Y290994D01*
X398383Y290002D01*
X398426Y289009D01*
X398555Y288024D01*
X398769Y287054D01*
X399067Y286106D01*
X399446Y285188D01*
X399904Y284306D01*
X400436Y283468D01*
X401039Y282678D01*
X401709Y281944D01*
X402440Y281272D01*
X403227Y280665D01*
X404063Y280129D01*
X404943Y279667D01*
X405859Y279284D01*
X406806Y278982D01*
X407775Y278764D01*
X408759Y278630D01*
X409752Y278583D01*
X410744Y278622D01*
X411730Y278747D01*
X412701Y278957D01*
X413650Y279251D01*
X414569Y279627D01*
X415453Y280080D01*
X416294Y280609D01*
X417086Y281209D01*
X417822Y281876D01*
X418498Y282604D01*
X419108Y283388D01*
X419648Y284223D01*
X420250Y351975D02*
X419711Y352810D01*
X419101Y353594D01*
X418425Y354322D01*
X417689Y354989D01*
X416897Y355589D01*
X416057Y356118D01*
X415173Y356573D01*
X414254Y356948D01*
X413305Y357242D01*
X412334Y357453D01*
X411348Y357579D01*
X410356Y357618D01*
X409363Y357571D01*
X408379Y357437D01*
X407410Y357219D01*
X406463Y356918D01*
X405547Y356535D01*
X404667Y356074D01*
X403830Y355538D01*
X403043Y354931D01*
X402312Y354259D01*
X401642Y353525D01*
X401039Y352736D01*
X400506Y351897D01*
X400048Y351016D01*
X399669Y350097D01*
X399371Y349150D01*
X399156Y348180D01*
X399027Y347195D01*
X398983Y346202D01*
X399026Y345210D01*
X399156Y344225D01*
X399370Y343255D01*
X399668Y342307D01*
X400047Y341389D01*
X400504Y340507D01*
X401037Y339668D01*
X401640Y338879D01*
X402310Y338145D01*
X403041Y337472D01*
X403827Y336865D01*
X404664Y336329D01*
X405543Y335868D01*
X406460Y335485D01*
X407406Y335183D01*
X408375Y334964D01*
X409360Y334831D01*
X410352Y334783D01*
X411345Y334822D01*
X412330Y334948D01*
X413301Y335158D01*
X414250Y335452D01*
X415170Y335827D01*
X416054Y336281D01*
X416895Y336810D01*
X417686Y337410D01*
X418423Y338077D01*
X419099Y338805D01*
X419709Y339589D01*
X420248Y340423D01*
X419449Y408375D02*
X418910Y409209D01*
X418300Y409993D01*
X417625Y410721D01*
X416888Y411388D01*
X416097Y411989D01*
X415256Y412518D01*
X414373Y412972D01*
X413453Y413348D01*
X412504Y413642D01*
X411533Y413853D01*
X410548Y413978D01*
X409555Y414017D01*
X408563Y413970D01*
X407578Y413837D01*
X406609Y413619D01*
X405663Y413317D01*
X404746Y412934D01*
X403866Y412473D01*
X403029Y411937D01*
X402243Y411331D01*
X401511Y410658D01*
X400842Y409924D01*
X400238Y409135D01*
X399705Y408297D01*
X399248Y407415D01*
X398868Y406497D01*
X398570Y405549D01*
X398356Y404579D01*
X398226Y403594D01*
X398183Y402602D01*
X398226Y401609D01*
X398355Y400624D01*
X398569Y399654D01*
X398867Y398707D01*
X399246Y397788D01*
X399704Y396906D01*
X400236Y396068D01*
X400839Y395278D01*
X401509Y394545D01*
X402240Y393872D01*
X403026Y393265D01*
X403863Y392729D01*
X404743Y392267D01*
X405659Y391884D01*
X406606Y391582D01*
X407575Y391364D01*
X408559Y391230D01*
X409551Y391183D01*
X410544Y391222D01*
X411530Y391347D01*
X412501Y391557D01*
X413450Y391851D01*
X414369Y392227D01*
X415253Y392680D01*
X416094Y393209D01*
X416886Y393810D01*
X417622Y394476D01*
X418298Y395204D01*
X418908Y395988D01*
X419448Y396823D01*
X419849Y464275D02*
X419310Y465109D01*
X418700Y465893D01*
X418025Y466621D01*
X417288Y467288D01*
X416497Y467889D01*
X415656Y468418D01*
X414773Y468872D01*
X413853Y469248D01*
X412904Y469542D01*
X411933Y469753D01*
X410948Y469878D01*
X409955Y469917D01*
X408963Y469870D01*
X407978Y469737D01*
X407009Y469519D01*
X406063Y469217D01*
X405146Y468834D01*
X404266Y468373D01*
X403429Y467837D01*
X402643Y467231D01*
X401911Y466558D01*
X401242Y465824D01*
X400638Y465035D01*
X400105Y464197D01*
X399648Y463315D01*
X399268Y462397D01*
X398970Y461449D01*
X398756Y460479D01*
X398626Y459494D01*
X398583Y458502D01*
X398626Y457509D01*
X398755Y456524D01*
X398969Y455554D01*
X399267Y454606D01*
X399646Y453688D01*
X400104Y452806D01*
X400636Y451968D01*
X401239Y451178D01*
X401909Y450445D01*
X402640Y449772D01*
X403427Y449165D01*
X404263Y448629D01*
X405143Y448168D01*
X406059Y447784D01*
X407006Y447482D01*
X407975Y447264D01*
X408959Y447130D01*
X409951Y447083D01*
X410944Y447122D01*
X411930Y447247D01*
X412901Y447457D01*
X413850Y447751D01*
X414769Y448127D01*
X415653Y448580D01*
X416494Y449109D01*
X417286Y449710D01*
X418022Y450376D01*
X418698Y451104D01*
X419308Y451888D01*
X419848Y452723D01*
X420017Y519875D02*
X419478Y520710D01*
X418868Y521494D01*
X418192Y522222D01*
X417456Y522889D01*
X416664Y523489D01*
X415824Y524018D01*
X414940Y524473D01*
X414020Y524848D01*
X413072Y525142D01*
X412101Y525353D01*
X411115Y525479D01*
X410123Y525518D01*
X409130Y525471D01*
X408146Y525338D01*
X407177Y525119D01*
X406230Y524818D01*
X405313Y524435D01*
X404433Y523974D01*
X403597Y523438D01*
X402810Y522831D01*
X402079Y522159D01*
X401409Y521425D01*
X400806Y520636D01*
X400273Y519797D01*
X399815Y518916D01*
X399436Y517998D01*
X399138Y517050D01*
X398923Y516080D01*
X398794Y515095D01*
X398750Y514102D01*
X398793Y513110D01*
X398922Y512125D01*
X399137Y511155D01*
X399435Y510207D01*
X399814Y509289D01*
X400271Y508407D01*
X400804Y507568D01*
X401407Y506779D01*
X402077Y506045D01*
X402807Y505372D01*
X403594Y504766D01*
X404430Y504229D01*
X405310Y503768D01*
X406227Y503385D01*
X407173Y503083D01*
X408142Y502864D01*
X409127Y502731D01*
X410119Y502683D01*
X411112Y502722D01*
X412097Y502848D01*
X413068Y503058D01*
X414017Y503352D01*
X414937Y503727D01*
X415821Y504181D01*
X416662Y504710D01*
X417453Y505310D01*
X418190Y505977D01*
X418866Y506705D01*
X419476Y507489D01*
X420015Y508323D01*
X206974Y32978D02*
Y80222D01*
X191226Y32978D02*
X206974D01*
X191226D02*
Y80222D01*
X206974D01*
X199100D02*
Y82702D01*
Y30498D02*
Y32978D01*
X224374D02*
Y80222D01*
X208626Y32978D02*
X224374D01*
X208626D02*
Y80222D01*
X224374D01*
X216500D02*
Y82702D01*
Y30498D02*
Y32978D01*
X102874Y32911D02*
Y80155D01*
X87126Y32911D02*
X102874D01*
X87126D02*
Y80155D01*
X102874D01*
X95000D02*
Y82635D01*
Y30431D02*
Y32911D01*
X120374Y32945D02*
Y80189D01*
X104626Y32945D02*
X120374D01*
X104626D02*
Y80189D01*
X120374D01*
X112500D02*
Y82669D01*
Y30465D02*
Y32945D01*
X137974Y32845D02*
Y80089D01*
X122226Y32845D02*
X137974D01*
X122226D02*
Y80089D01*
X137974D01*
X130100D02*
Y82569D01*
Y30365D02*
Y32845D01*
X172474Y32878D02*
Y80122D01*
X156726Y32878D02*
X172474D01*
X156726D02*
Y80122D01*
X172474D01*
X164600D02*
Y82602D01*
Y30398D02*
Y32878D01*
X155374D02*
Y80122D01*
X139626Y32878D02*
X155374D01*
X139626D02*
Y80122D01*
X155374D01*
X147500D02*
Y82602D01*
Y30398D02*
Y32878D01*
X189474Y32945D02*
Y80189D01*
X173726Y32945D02*
X189474D01*
X173726D02*
Y80189D01*
X189474D01*
X181600D02*
Y82669D01*
Y30465D02*
Y32945D01*
X208326Y136878D02*
Y184122D01*
X224074D01*
Y136878D02*
Y184122D01*
X208326Y136878D02*
X224074D01*
X216200Y134398D02*
Y136878D01*
Y184122D02*
Y186602D01*
X170078Y603374D02*
X217322D01*
Y587626D02*
Y603374D01*
X170078Y587626D02*
X217322D01*
X170078D02*
Y603374D01*
X167598Y595500D02*
X170078D01*
X217322D02*
X219802D01*
X65111Y587226D02*
X112355D01*
X65111D02*
Y602974D01*
X112355D01*
Y587226D02*
Y602974D01*
Y595100D02*
X114835D01*
X62631D02*
X65111D01*
X577443Y565626D02*
Y577175D01*
X474996Y569430D02*
Y583170D01*
X446002Y569430D02*
Y583170D01*
X479998D01*
Y569430D02*
Y583170D01*
X446002Y569430D02*
X479998D01*
X441002Y576300D02*
X446002D01*
X479998D02*
X484998D01*
X419943Y565326D02*
Y576875D01*
X577310Y172226D02*
Y183775D01*
X577443Y228426D02*
Y239975D01*
X577142Y284525D02*
Y296075D01*
X577743Y340726D02*
Y352275D01*
X576942Y397126D02*
Y408674D01*
X577343Y453025D02*
Y464574D01*
X577510Y508626D02*
Y520175D01*
X419810Y171926D02*
Y183475D01*
X419943Y228126D02*
Y239675D01*
X419642Y284226D02*
Y295775D01*
X420243Y340426D02*
Y351975D01*
X419443Y396826D02*
Y408375D01*
X419842Y452726D02*
Y464275D01*
X420010Y508326D02*
Y519875D01*
X92400Y184322D02*
Y186802D01*
Y134598D02*
Y137078D01*
X84526D02*
X100274D01*
Y184322D01*
X84526D02*
X100274D01*
X84526Y137078D02*
Y184322D01*
X109500Y184522D02*
Y187002D01*
Y134798D02*
Y137278D01*
X101626D02*
X117374D01*
Y184522D01*
X101626D02*
X117374D01*
X101626Y137278D02*
Y184522D01*
X126900D02*
Y187002D01*
Y134798D02*
Y137278D01*
X119026D02*
X134774D01*
Y184522D01*
X119026D02*
X134774D01*
X119026Y137278D02*
Y184522D01*
X144000D02*
Y187002D01*
Y134798D02*
Y137278D01*
X136126D02*
X151874D01*
Y184522D01*
X136126D02*
X151874D01*
X136126Y137278D02*
Y184522D01*
X161400Y184622D02*
Y187102D01*
Y134898D02*
Y137378D01*
X153526D02*
X169274D01*
Y184622D01*
X153526D02*
X169274D01*
X153526Y137378D02*
Y184622D01*
X179300Y184822D02*
Y187302D01*
Y135098D02*
Y137578D01*
X171426D02*
X187174D01*
Y184822D01*
X171426D02*
X187174D01*
X171426Y137578D02*
Y184822D01*
X196800Y185955D02*
Y188435D01*
Y136231D02*
Y138711D01*
X188926D02*
X204674D01*
Y185955D01*
X188926D02*
X204674D01*
X188926Y138711D02*
Y185955D01*
X217455Y204100D02*
X219935D01*
X167731D02*
X170211D01*
Y196226D02*
Y211974D01*
Y196226D02*
X217455D01*
Y211974D01*
X170211D02*
X217455D01*
X217322Y258300D02*
X219802D01*
X167598D02*
X170078D01*
Y250426D02*
Y266174D01*
Y250426D02*
X217322D01*
Y266174D01*
X170078D02*
X217322D01*
X217021Y314399D02*
X219502D01*
X167297D02*
X169777D01*
Y306525D02*
Y322273D01*
Y306525D02*
X217021D01*
Y322273D01*
X169777D02*
X217021D01*
X217622Y370600D02*
X220102D01*
X167898D02*
X170378D01*
Y362726D02*
Y378474D01*
Y362726D02*
X217622D01*
Y378474D01*
X170378D02*
X217622D01*
X216821Y426999D02*
X219302D01*
X167097D02*
X169577D01*
Y419125D02*
Y434873D01*
Y419125D02*
X216821D01*
Y434873D01*
X169577D02*
X216821D01*
X217221Y482899D02*
X219702D01*
X167497D02*
X169977D01*
Y475025D02*
Y490773D01*
Y475025D02*
X217221D01*
Y490773D01*
X169977D02*
X217221D01*
X217389Y538500D02*
X219869D01*
X167665D02*
X170145D01*
Y530626D02*
Y546374D01*
Y530626D02*
X217389D01*
Y546374D01*
X170145D02*
X217389D01*
X62331Y204600D02*
X64811D01*
X112055D02*
X114535D01*
X112055Y196726D02*
Y212474D01*
X64811D02*
X112055D01*
X64811Y196726D02*
Y212474D01*
Y196726D02*
X112055D01*
X62631Y257900D02*
X65111D01*
X112355D02*
X114835D01*
X112355Y250026D02*
Y265774D01*
X65111D02*
X112355D01*
X65111Y250026D02*
Y265774D01*
Y250026D02*
X112355D01*
X62330Y313999D02*
X64810D01*
X112055D02*
X114535D01*
X112055Y306125D02*
Y321873D01*
X64810D02*
X112055D01*
X64810Y306125D02*
Y321873D01*
Y306125D02*
X112055D01*
X62931Y370200D02*
X65411D01*
X112655D02*
X115135D01*
X112655Y362326D02*
Y378074D01*
X65411D02*
X112655D01*
X65411Y362326D02*
Y378074D01*
Y362326D02*
X112655D01*
X62130Y426599D02*
X64610D01*
X111855D02*
X114335D01*
X111855Y418725D02*
Y434473D01*
X64610D02*
X111855D01*
X64610Y418725D02*
Y434473D01*
Y418725D02*
X111855D01*
X62530Y482499D02*
X65010D01*
X112255D02*
X114735D01*
X112255Y474625D02*
Y490373D01*
X65010D02*
X112255D01*
X65010Y474625D02*
Y490373D01*
Y474625D02*
X112255D01*
X62698Y538100D02*
X65178D01*
X112422D02*
X114902D01*
X112422Y530226D02*
Y545974D01*
X65178D02*
X112422D01*
X65178Y530226D02*
Y545974D01*
Y530226D02*
X112422D01*
X25062Y144541D02*
X25255Y146510D01*
X27027D02*
X27220Y144541D01*
X25058Y144542D02*
X27224D01*
X29586Y146510D02*
Y174069D01*
X2027D02*
X7145D01*
X2027Y146510D02*
Y174069D01*
X27027Y146510D02*
X29586D01*
X2027D02*
X25255D01*
X6837Y176038D02*
X9980D01*
X6837D02*
X7145Y174069D01*
X9704D02*
X29586D01*
X9706Y174064D02*
X9980Y176038D01*
X24462Y29541D02*
X24655Y31510D01*
X26427D02*
X26620Y29541D01*
X24458Y29542D02*
X26624D01*
X28986Y31510D02*
Y59069D01*
X1427D02*
X6545D01*
X1427Y31510D02*
Y59069D01*
X26427Y31510D02*
X28986D01*
X1427D02*
X24655D01*
X6237Y61038D02*
X9380D01*
X6237D02*
X6545Y59069D01*
X9104D02*
X28986D01*
X9106Y59064D02*
X9380Y61038D01*
X24924Y105605D02*
X207876D01*
X24924D02*
Y126195D01*
X207876D01*
Y105605D02*
Y126195D01*
X231085Y484876D02*
X241715D01*
X231085Y381924D02*
Y484876D01*
Y381924D02*
X241715D01*
Y484876D01*
X231085Y378176D02*
X241715D01*
X231085Y295224D02*
Y378176D01*
Y295224D02*
X241715D01*
Y378176D01*
X2985Y405224D02*
X13615D01*
Y488176D01*
X2985D02*
X13615D01*
X2985Y405224D02*
Y488176D01*
X479497Y407799D02*
X484497D01*
X440501D02*
X445501D01*
Y400929D02*
X479497D01*
Y414669D01*
X445501D02*
X479497D01*
X445501Y400929D02*
Y414669D01*
X474495Y400929D02*
Y414669D01*
X479865Y182900D02*
X484865D01*
X440869D02*
X445869D01*
Y176030D02*
X479865D01*
Y189770D01*
X445869D02*
X479865D01*
X445869Y176030D02*
Y189770D01*
X474863Y176030D02*
Y189770D01*
X479998Y239100D02*
X484998D01*
X441002D02*
X446002D01*
Y232230D02*
X479998D01*
Y245970D01*
X446002D02*
X479998D01*
X446002Y232230D02*
Y245970D01*
X474996Y232230D02*
Y245970D01*
X481780Y364830D02*
Y378570D01*
X452786Y364830D02*
Y378570D01*
X486782D01*
Y364830D02*
Y378570D01*
X452786Y364830D02*
X486782D01*
X447786Y371700D02*
X452786D01*
X486782D02*
X491782D01*
X479697Y295199D02*
X484697D01*
X440701D02*
X445701D01*
Y288329D02*
X479697D01*
Y302069D01*
X445701D02*
X479697D01*
X445701Y288329D02*
Y302069D01*
X474695Y288329D02*
Y302069D01*
X480065Y519300D02*
X485065D01*
X441069D02*
X446069D01*
Y512430D02*
X480065D01*
Y526170D01*
X446069D02*
X480065D01*
X446069Y512430D02*
Y526170D01*
X475063Y512430D02*
Y526170D01*
X479897Y463699D02*
X484897D01*
X440901D02*
X445901D01*
Y456829D02*
X479897D01*
Y470569D01*
X445901D02*
X479897D01*
X445901Y456829D02*
Y470569D01*
X474895Y456829D02*
Y470569D01*
D12*
X255900Y118500D02*
X317000D01*
X255900Y141200D02*
X317000D01*
Y118500D02*
Y141200D01*
X255900Y118500D02*
Y141200D01*
X299858Y596795D02*
X330567D01*
Y545613D02*
Y596795D01*
X299858Y545613D02*
X330567D01*
X299858D02*
Y596795D01*
X234000Y92100D02*
X338600D01*
X299725Y152213D02*
Y203395D01*
Y152213D02*
X330434D01*
Y203395D01*
X299725D02*
X330434D01*
X299858Y208413D02*
Y259594D01*
Y208413D02*
X330567D01*
Y259594D01*
X299858D02*
X330567D01*
X299558Y315694D02*
X330266D01*
Y264513D02*
Y315694D01*
X299558Y264513D02*
X330266D01*
X299558D02*
Y315694D01*
X300158Y371895D02*
X330867D01*
Y320713D02*
Y371895D01*
X300158Y320713D02*
X330867D01*
X300158D02*
Y371895D01*
X299358Y377113D02*
Y428294D01*
Y377113D02*
X330066D01*
Y428294D01*
X299358D02*
X330066D01*
X299758Y433013D02*
Y484194D01*
Y433013D02*
X330466D01*
Y484194D01*
X299758D02*
X330466D01*
X299925Y488613D02*
Y539794D01*
Y488613D02*
X330634D01*
Y539794D01*
X299925D02*
X330634D01*
X257038Y137343D02*
X267533D01*
X262286D01*
Y121600D01*
X272781Y137343D02*
Y121600D01*
Y129472D01*
X283276D01*
Y137343D01*
Y121600D01*
X288524Y137343D02*
Y121600D01*
X293772Y126848D01*
X299019Y121600D01*
Y137343D01*
X314762Y134719D02*
X312138Y137343D01*
X306891D01*
X304267Y134719D01*
Y132095D01*
X306891Y129472D01*
X312138D01*
X314762Y126848D01*
Y124224D01*
X312138Y121600D01*
X306891D01*
X304267Y124224D01*
X242964Y79185D02*
Y85183D01*
X245963D01*
X246963Y84184D01*
Y82184D01*
X245963Y81185D01*
X242964D01*
X248962Y83184D02*
Y79185D01*
Y81185D01*
X249962Y82184D01*
X250961Y83184D01*
X251961D01*
X254960Y79185D02*
X256959D01*
X255960D01*
Y83184D01*
X254960D01*
X259958Y79185D02*
Y83184D01*
X262957D01*
X263957Y82184D01*
Y79185D01*
X269955Y83184D02*
X266956D01*
X265956Y82184D01*
Y80185D01*
X266956Y79185D01*
X269955D01*
X274954D02*
X272954D01*
X271954Y80185D01*
Y82184D01*
X272954Y83184D01*
X274954D01*
X275953Y82184D01*
Y81185D01*
X271954D01*
X287949Y84184D02*
X286950Y85183D01*
X284950D01*
X283951Y84184D01*
Y83184D01*
X284950Y82184D01*
X286950D01*
X287949Y81185D01*
Y80185D01*
X286950Y79185D01*
X284950D01*
X283951Y80185D01*
X290948Y83184D02*
X292948D01*
X293947Y82184D01*
Y79185D01*
X290948D01*
X289949Y80185D01*
X290948Y81185D01*
X293947D01*
X295947Y79185D02*
Y85183D01*
Y81185D02*
X298946Y83184D01*
X295947Y81185D02*
X298946Y79185D01*
X302944Y83184D02*
X304944D01*
X305943Y82184D01*
Y79185D01*
X302944D01*
X301945Y80185D01*
X302944Y81185D01*
X305943D01*
X307943Y83184D02*
Y79185D01*
Y81185D01*
X308943Y82184D01*
X309942Y83184D01*
X310942D01*
X313941Y79185D02*
X315940D01*
X314941D01*
Y83184D01*
X313941D01*
X318939D02*
Y80185D01*
X319939Y79185D01*
X322938D01*
Y78185D01*
X321938Y77186D01*
X320939D01*
X322938Y79185D02*
Y83184D01*
X325937D02*
X327936D01*
X328936Y82184D01*
Y79185D01*
X325937D01*
X324937Y80185D01*
X325937Y81185D01*
X328936D01*
X231468Y73586D02*
Y67588D01*
Y69587D01*
X235466Y73586D01*
X232467Y70587D01*
X235466Y67588D01*
X237466Y71587D02*
Y68588D01*
X238465Y67588D01*
X241464D01*
Y71587D01*
X243464Y67588D02*
X245463D01*
X244463D01*
Y73586D01*
X243464D01*
X252461D02*
Y67588D01*
X249462D01*
X248462Y68588D01*
Y70587D01*
X249462Y71587D01*
X252461D01*
X257459Y67588D02*
X255460D01*
X254460Y68588D01*
Y70587D01*
X255460Y71587D01*
X257459D01*
X258459Y70587D01*
Y69587D01*
X254460D01*
X263457Y67588D02*
X261458D01*
X260458Y68588D01*
Y70587D01*
X261458Y71587D01*
X263457D01*
X264457Y70587D01*
Y69587D01*
X260458D01*
X266456Y65589D02*
Y71587D01*
X269455D01*
X270455Y70587D01*
Y68588D01*
X269455Y67588D01*
X266456D01*
X278452D02*
Y73586D01*
X280452Y71587D01*
X282451Y73586D01*
Y67588D01*
X285450Y71587D02*
X287450D01*
X288449Y70587D01*
Y67588D01*
X285450D01*
X284451Y68588D01*
X285450Y69587D01*
X288449D01*
X290448Y67588D02*
Y71587D01*
X293448D01*
X294447Y70587D01*
Y67588D01*
X298446Y65589D02*
X299446D01*
X300445Y66588D01*
Y71587D01*
X297446D01*
X296447Y70587D01*
Y68588D01*
X297446Y67588D01*
X300445D01*
X303444Y71587D02*
X305444D01*
X306443Y70587D01*
Y67588D01*
X303444D01*
X302445Y68588D01*
X303444Y69587D01*
X306443D01*
X308443Y71587D02*
Y67588D01*
Y69587D01*
X309442Y70587D01*
X310442Y71587D01*
X311442D01*
X315441Y67588D02*
X317440D01*
X318440Y68588D01*
Y70587D01*
X317440Y71587D01*
X315441D01*
X314441Y70587D01*
Y68588D01*
X315441Y67588D01*
X320439D02*
X322438D01*
X321439D01*
Y73586D01*
X320439D01*
X325437Y67588D02*
X327437D01*
X326437D01*
Y71587D01*
X325437D01*
X330436D02*
Y68588D01*
X331435Y67588D01*
X334434D01*
Y66588D01*
X333435Y65589D01*
X332435D01*
X334434Y67588D02*
Y71587D01*
X337433D02*
X339433D01*
X340432Y70587D01*
Y67588D01*
X337433D01*
X336434Y68588D01*
X337433Y69587D01*
X340432D01*
X239965Y61989D02*
Y55991D01*
X242964D01*
X243964Y56991D01*
Y60989D01*
X242964Y61989D01*
X239965D01*
X245963D02*
Y55991D01*
Y58990D01*
X246963Y59990D01*
X248962D01*
X249962Y58990D01*
Y55991D01*
X251961Y59990D02*
Y55991D01*
Y57990D01*
X252961Y58990D01*
X253960Y59990D01*
X254960D01*
X257959D02*
Y56991D01*
X258959Y55991D01*
X261958D01*
Y59990D01*
X263957D02*
X265956Y55991D01*
X267956Y59990D01*
X269955Y55991D02*
X271954D01*
X270955D01*
Y59990D01*
X269955D01*
X274954Y55991D02*
Y59990D01*
X277953D01*
X278952Y58990D01*
Y55991D01*
X286950Y61989D02*
Y57990D01*
X288949Y55991D01*
X290948Y57990D01*
Y61989D01*
X295947Y55991D02*
X293947D01*
X292948Y56991D01*
Y58990D01*
X293947Y59990D01*
X295947D01*
X296947Y58990D01*
Y57990D01*
X292948D01*
X298946Y55991D02*
Y61989D01*
Y57990D02*
X301945Y59990D01*
X298946Y57990D02*
X301945Y55991D01*
X305943Y59990D02*
X307943D01*
X308943Y58990D01*
Y55991D01*
X305943D01*
X304944Y56991D01*
X305943Y57990D01*
X308943D01*
X310942Y59990D02*
Y55991D01*
Y57990D01*
X311942Y58990D01*
X312941Y59990D01*
X313941D01*
X316940Y55991D02*
X318939D01*
X317940D01*
Y59990D01*
X316940D01*
X321938D02*
Y56991D01*
X322938Y55991D01*
X325937D01*
Y54991D01*
X324937Y53992D01*
X323938D01*
X325937Y55991D02*
Y59990D01*
X328936D02*
X330935D01*
X331935Y58990D01*
Y55991D01*
X328936D01*
X327936Y56991D01*
X328936Y57990D01*
X331935D01*
X248462Y50392D02*
X252461D01*
X250462D01*
Y44394D01*
X257459D02*
X255460D01*
X254460Y45394D01*
Y47393D01*
X255460Y48393D01*
X257459D01*
X258459Y47393D01*
Y46393D01*
X254460D01*
X260458Y42395D02*
X261458D01*
X262458Y43394D01*
Y48393D01*
X267456D02*
X269455D01*
X270455Y47393D01*
Y44394D01*
X267456D01*
X266456Y45394D01*
X267456Y46393D01*
X270455D01*
X272454Y44394D02*
X275453D01*
X276453Y45394D01*
X275453Y46393D01*
X273454D01*
X272454Y47393D01*
X273454Y48393D01*
X276453D01*
X284451Y44394D02*
X287450D01*
X288449Y45394D01*
X287450Y46393D01*
X285450D01*
X284451Y47393D01*
X285450Y48393D01*
X288449D01*
X290448Y50392D02*
Y44394D01*
Y47393D01*
X291448Y48393D01*
X293448D01*
X294447Y47393D01*
Y44394D01*
X297446Y48393D02*
X299446D01*
X300445Y47393D01*
Y44394D01*
X297446D01*
X296447Y45394D01*
X297446Y46393D01*
X300445D01*
X302445Y44394D02*
X305444D01*
X306443Y45394D01*
X305444Y46393D01*
X303444D01*
X302445Y47393D01*
X303444Y48393D01*
X306443D01*
X309442Y49392D02*
Y48393D01*
X308443D01*
X310442D01*
X309442D01*
Y45394D01*
X310442Y44394D01*
X313441Y48393D02*
Y44394D01*
Y46393D01*
X314441Y47393D01*
X315441Y48393D01*
X316440D01*
X319439D02*
Y45394D01*
X320439Y44394D01*
X323438D01*
Y43394D01*
X322438Y42395D01*
X321439D01*
X323438Y44394D02*
Y48393D01*
X253461Y37795D02*
X252461Y38795D01*
X250462D01*
X249462Y37795D01*
Y36796D01*
X250462Y35796D01*
X252461D01*
X253461Y34796D01*
Y33797D01*
X252461Y32797D01*
X250462D01*
X249462Y33797D01*
X255460Y38795D02*
Y32797D01*
Y35796D01*
X256459Y36796D01*
X258459D01*
X259459Y35796D01*
Y32797D01*
X262458Y36796D02*
X264457D01*
X265457Y35796D01*
Y32797D01*
X262458D01*
X261458Y33797D01*
X262458Y34796D01*
X265457D01*
X267456Y36796D02*
Y32797D01*
Y34796D01*
X268456Y35796D01*
X269455Y36796D01*
X270455D01*
X277453Y38795D02*
Y32797D01*
X274454D01*
X273454Y33797D01*
Y35796D01*
X274454Y36796D01*
X277453D01*
X279452D02*
Y33797D01*
X280452Y32797D01*
X283451D01*
Y36796D01*
X285450Y32797D02*
X287450D01*
X286450D01*
Y38795D01*
X285450D01*
X300445D02*
X298446D01*
X299446D01*
Y33797D01*
X298446Y32797D01*
X297446D01*
X296447Y33797D01*
X303444Y32797D02*
X305444D01*
X306443Y33797D01*
Y35796D01*
X305444Y36796D01*
X303444D01*
X302445Y35796D01*
Y33797D01*
X303444Y32797D01*
X308443D02*
X311442D01*
X312441Y33797D01*
X311442Y34796D01*
X309442D01*
X308443Y35796D01*
X309442Y36796D01*
X312441D01*
X314441Y38795D02*
Y32797D01*
Y35796D01*
X315441Y36796D01*
X317440D01*
X318440Y35796D01*
Y32797D01*
X320439D02*
X322438D01*
X321439D01*
Y36796D01*
X320439D01*
X240965Y29197D02*
Y25199D01*
X242964Y23199D01*
X244963Y25199D01*
Y29197D01*
X247962Y27198D02*
X249962D01*
X250961Y26198D01*
Y23199D01*
X247962D01*
X246963Y24199D01*
X247962Y25199D01*
X250961D01*
X252961Y23199D02*
X254960D01*
X253960D01*
Y27198D01*
X252961D01*
X257959Y29197D02*
Y23199D01*
X260958D01*
X261958Y24199D01*
Y25199D01*
Y26198D01*
X260958Y27198D01*
X257959D01*
X263957Y29197D02*
Y23199D01*
Y26198D01*
X264957Y27198D01*
X266956D01*
X267956Y26198D01*
Y23199D01*
X270955Y27198D02*
X272954D01*
X273954Y26198D01*
Y23199D01*
X270955D01*
X269955Y24199D01*
X270955Y25199D01*
X273954D01*
X275953Y27198D02*
X277953Y23199D01*
X279952Y27198D01*
X291948Y28198D02*
X290948Y29197D01*
X288949D01*
X287949Y28198D01*
Y24199D01*
X288949Y23199D01*
X290948D01*
X291948Y24199D01*
Y26198D01*
X289949D01*
X293947Y27198D02*
Y24199D01*
X294947Y23199D01*
X297946D01*
Y27198D01*
X299945Y21200D02*
X300945D01*
X301945Y22200D01*
Y27198D01*
X306943D02*
X308943D01*
X309942Y26198D01*
Y23199D01*
X306943D01*
X305943Y24199D01*
X306943Y25199D01*
X309942D01*
X311942Y27198D02*
Y23199D01*
Y25199D01*
X312941Y26198D01*
X313941Y27198D01*
X314941D01*
X318939D02*
X320939D01*
X321938Y26198D01*
Y23199D01*
X318939D01*
X317940Y24199D01*
X318939Y25199D01*
X321938D01*
X324937Y28198D02*
Y27198D01*
X323938D01*
X325937D01*
X324937D01*
Y24199D01*
X325937Y23199D01*
X328936D02*
X330935D01*
X329936D01*
Y27198D01*
X328936D01*
X336502Y377499D02*
X334503D01*
X335502D01*
Y372500D01*
X334503Y371501D01*
X333503D01*
X332503Y372500D01*
X338502Y371501D02*
X340501D01*
X339501D01*
Y377499D01*
X338502Y376499D01*
X343500Y370501D02*
X347498D01*
X353497Y377499D02*
X349498D01*
Y374500D01*
X351497Y375500D01*
X352497D01*
X353497Y374500D01*
Y372500D01*
X352497Y371501D01*
X350498D01*
X349498Y372500D01*
X182004Y439501D02*
Y445499D01*
X185003D01*
X186002Y444499D01*
Y442500D01*
X185003Y441500D01*
X182004D01*
X184003D02*
X186002Y439501D01*
X188002Y444499D02*
X189001Y445499D01*
X191001D01*
X192000Y444499D01*
Y443500D01*
X191001Y442500D01*
X190001D01*
X191001D01*
X192000Y441500D01*
Y440500D01*
X191001Y439501D01*
X189001D01*
X188002Y440500D01*
X194000Y438501D02*
X197998D01*
X202997Y439501D02*
Y445499D01*
X199998Y442500D01*
X203996D01*
X18824Y443636D02*
X16200D01*
Y441668D01*
X17512Y442324D01*
X18168D01*
X18824Y441668D01*
Y440356D01*
X18168Y439700D01*
X16856D01*
X16200Y440356D01*
X20136Y443636D02*
Y441012D01*
X21448Y439700D01*
X22760Y441012D01*
Y443636D01*
X18624Y433480D02*
X17968Y434136D01*
X16656D01*
X16000Y433480D01*
Y430856D01*
X16656Y430200D01*
X17968D01*
X18624Y430856D01*
Y432168D01*
X17312D01*
X18624Y422180D02*
X17968Y422836D01*
X16656D01*
X16000Y422180D01*
Y419556D01*
X16656Y418900D01*
X17968D01*
X18624Y419556D01*
Y420868D01*
X17312D01*
X3300Y402536D02*
Y399912D01*
X4612Y398600D01*
X5924Y399912D01*
Y402536D01*
X7236D02*
X8548D01*
X7892D01*
Y398600D01*
X7236D01*
X8548D01*
X10515D02*
Y402536D01*
X13139Y398600D01*
Y402536D01*
X117600Y101880D02*
X118256Y102536D01*
X119568D01*
X120224Y101880D01*
Y101224D01*
X119568Y100568D01*
X118912D01*
X119568D01*
X120224Y99912D01*
Y99256D01*
X119568Y98600D01*
X118256D01*
X117600Y99256D01*
X124160Y102536D02*
X122848Y101880D01*
X121536Y100568D01*
Y99256D01*
X122192Y98600D01*
X123504D01*
X124160Y99256D01*
Y99912D01*
X123504Y100568D01*
X121536D01*
X127500Y102080D02*
X128156Y102736D01*
X129468D01*
X130124Y102080D01*
Y101424D01*
X129468Y100768D01*
X128812D01*
X129468D01*
X130124Y100112D01*
Y99456D01*
X129468Y98800D01*
X128156D01*
X127500Y99456D01*
X133404Y98800D02*
Y102736D01*
X131436Y100768D01*
X134060D01*
X138400Y102080D02*
X139056Y102736D01*
X140368D01*
X141024Y102080D01*
Y101424D01*
X140368Y100768D01*
X139712D01*
X140368D01*
X141024Y100112D01*
Y99456D01*
X140368Y98800D01*
X139056D01*
X138400Y99456D01*
X144960Y98800D02*
X142336D01*
X144960Y101424D01*
Y102080D01*
X144304Y102736D01*
X142992D01*
X142336Y102080D01*
X147800Y101780D02*
X148456Y102436D01*
X149768D01*
X150424Y101780D01*
Y101124D01*
X149768Y100468D01*
X149112D01*
X149768D01*
X150424Y99812D01*
Y99156D01*
X149768Y98500D01*
X148456D01*
X147800Y99156D01*
X151736Y101780D02*
X152392Y102436D01*
X153704D01*
X154360Y101780D01*
Y99156D01*
X153704Y98500D01*
X152392D01*
X151736Y99156D01*
Y101780D01*
X161924Y98600D02*
X159300D01*
X161924Y101224D01*
Y101880D01*
X161268Y102536D01*
X159956D01*
X159300Y101880D01*
X163236D02*
X163892Y102536D01*
X165204D01*
X165860Y101880D01*
Y101224D01*
X165204Y100568D01*
X165860Y99912D01*
Y99256D01*
X165204Y98600D01*
X163892D01*
X163236Y99256D01*
Y99912D01*
X163892Y100568D01*
X163236Y101224D01*
Y101880D01*
X163892Y100568D02*
X165204D01*
X172099Y98776D02*
X169476D01*
X172099Y101399D01*
Y102055D01*
X171443Y102711D01*
X170132D01*
X169476Y102055D01*
X176035Y102711D02*
X174723Y102055D01*
X173411Y100743D01*
Y99432D01*
X174067Y98776D01*
X175379D01*
X176035Y99432D01*
Y100087D01*
X175379Y100743D01*
X173411D01*
X181624Y98600D02*
X179000D01*
X181624Y101224D01*
Y101880D01*
X180968Y102536D01*
X179656D01*
X179000Y101880D01*
X184904Y98600D02*
Y102536D01*
X182936Y100568D01*
X185560D01*
X192524Y98776D02*
X189900D01*
X192524Y101399D01*
Y102055D01*
X191868Y102711D01*
X190556D01*
X189900Y102055D01*
X196460Y98776D02*
X193836D01*
X196460Y101399D01*
Y102055D01*
X195804Y102711D01*
X194492D01*
X193836Y102055D01*
X212924Y112936D02*
X210300D01*
Y110968D01*
X211612Y111624D01*
X212268D01*
X212924Y110968D01*
Y109656D01*
X212268Y109000D01*
X210956D01*
X210300Y109656D01*
X214236Y112936D02*
Y110312D01*
X215548Y109000D01*
X216860Y110312D01*
Y112936D01*
X291803Y591070D02*
Y589071D01*
Y590070D01*
X297801D01*
X296801Y591070D01*
X36936Y162904D02*
X33000D01*
Y159952D01*
X34968Y160936D01*
X35952D01*
X36936Y159952D01*
Y157984D01*
X35952Y157000D01*
X33984D01*
X33000Y157984D01*
X38904Y162904D02*
Y158968D01*
X40872Y157000D01*
X42839Y158968D01*
Y162904D01*
X31000Y47920D02*
X31984Y48904D01*
X33952D01*
X34936Y47920D01*
Y46936D01*
X33952Y45952D01*
X32968D01*
X33952D01*
X34936Y44968D01*
Y43984D01*
X33952Y43000D01*
X31984D01*
X31000Y43984D01*
X36904Y47920D02*
X37887Y48904D01*
X39855D01*
X40839Y47920D01*
Y43984D01*
X39855Y43000D01*
X37887D01*
X36904Y43984D01*
Y47920D01*
X42807Y48904D02*
Y44968D01*
X44775Y43000D01*
X46743Y44968D01*
Y48904D01*
X244400Y390680D02*
X245056Y391336D01*
X246368D01*
X247024Y390680D01*
Y390024D01*
X246368Y389368D01*
X247024Y388712D01*
Y388056D01*
X246368Y387400D01*
X245056D01*
X244400Y388056D01*
Y388712D01*
X245056Y389368D01*
X244400Y390024D01*
Y390680D01*
X245056Y389368D02*
X246368D01*
X245200Y373536D02*
X247824D01*
Y372880D01*
X245200Y370256D01*
Y369600D01*
X246224Y449980D02*
X245568Y450636D01*
X244256D01*
X243600Y449980D01*
Y447356D01*
X244256Y446700D01*
X245568D01*
X246224Y447356D01*
Y448668D01*
X244912D01*
X247536Y446700D02*
Y450636D01*
X250160Y446700D01*
Y450636D01*
X251471D02*
Y446700D01*
X253439D01*
X254095Y447356D01*
Y449980D01*
X253439Y450636D01*
X251471D01*
X243800Y434000D02*
X245112D01*
X244456D01*
Y437936D01*
X243800Y437280D01*
X247080D02*
X247736Y437936D01*
X249048D01*
X249704Y437280D01*
Y436624D01*
X249048Y435968D01*
X248392D01*
X249048D01*
X249704Y435312D01*
Y434656D01*
X249048Y434000D01*
X247736D01*
X247080Y434656D01*
X244100Y426100D02*
X245412D01*
X244756D01*
Y430036D01*
X244100Y429380D01*
X250004Y426100D02*
X247380D01*
X250004Y428724D01*
Y429380D01*
X249348Y430036D01*
X248036D01*
X247380Y429380D01*
X247124Y363636D02*
X245812Y362980D01*
X244500Y361668D01*
Y360356D01*
X245156Y359700D01*
X246468D01*
X247124Y360356D01*
Y361012D01*
X246468Y361668D01*
X244500D01*
X247124Y353636D02*
X244500D01*
Y351668D01*
X245812Y352324D01*
X246468D01*
X247124Y351668D01*
Y350356D01*
X246468Y349700D01*
X245156D01*
X244500Y350356D01*
X246368Y339500D02*
Y343436D01*
X244400Y341468D01*
X247024D01*
X244700Y333580D02*
X245356Y334236D01*
X246668D01*
X247324Y333580D01*
Y332924D01*
X246668Y332268D01*
X246012D01*
X246668D01*
X247324Y331612D01*
Y330956D01*
X246668Y330300D01*
X245356D01*
X244700Y330956D01*
X247324Y320000D02*
X244700D01*
X247324Y322624D01*
Y323280D01*
X246668Y323936D01*
X245356D01*
X244700Y323280D01*
X235735Y97512D02*
Y105383D01*
X238359Y102760D01*
X240983Y105383D01*
Y97512D01*
X243607Y105383D02*
X246231D01*
X244919D01*
Y97512D01*
X243607D01*
X246231D01*
X250166D02*
Y105383D01*
X255414Y97512D01*
Y105383D01*
X258038D02*
X260662D01*
X259350D01*
Y97512D01*
X258038D01*
X260662D01*
X264598Y96200D02*
X269845D01*
X272469Y97512D02*
Y105383D01*
X276405D01*
X277717Y104071D01*
Y101448D01*
X276405Y100136D01*
X272469D01*
X280340Y105383D02*
Y97512D01*
X285588D01*
X293460Y104071D02*
X292148Y105383D01*
X289524D01*
X288212Y104071D01*
Y98824D01*
X289524Y97512D01*
X292148D01*
X293460Y98824D01*
X296083Y96200D02*
X301331D01*
X303955Y105383D02*
X309203D01*
X306579D01*
Y97512D01*
X315762D02*
X313138D01*
X311826Y98824D01*
Y101448D01*
X313138Y102760D01*
X315762D01*
X317074Y101448D01*
Y100136D01*
X311826D01*
X321010Y102760D02*
X323634D01*
X324945Y101448D01*
Y97512D01*
X321010D01*
X319698Y98824D01*
X321010Y100136D01*
X324945D01*
X327569Y97512D02*
Y102760D01*
X328881D01*
X330193Y101448D01*
Y97512D01*
Y101448D01*
X331505Y102760D01*
X332817Y101448D01*
Y97512D01*
X335441D02*
X338065D01*
X336753D01*
Y105383D01*
X335441Y104071D01*
X39000Y37000D02*
X36376D01*
X37688Y53000D02*
Y55624D01*
X36376Y54312D02*
X39000D01*
X39200Y168500D02*
X36576D01*
X39100Y150188D02*
X36476D01*
X37788Y148876D02*
Y151500D01*
X291670Y197670D02*
Y195671D01*
Y196670D01*
X297668D01*
X296669Y197670D01*
X291803Y253870D02*
Y251871D01*
Y252870D01*
X297801D01*
X296801Y253870D01*
X291502Y309969D02*
Y307970D01*
Y308970D01*
X297501D01*
X296501Y309969D01*
X292103Y366170D02*
Y364171D01*
Y365170D01*
X298101D01*
X297101Y366170D01*
X291302Y422569D02*
Y420570D01*
Y421570D01*
X297301D01*
X296301Y422569D01*
X291703Y478469D02*
Y476470D01*
Y477470D01*
X297701D01*
X296701Y478469D01*
X291870Y534070D02*
Y532071D01*
Y533070D01*
X297868D01*
X296868Y534070D01*
X287501Y160503D02*
X286501Y159503D01*
Y157504D01*
X287501Y156504D01*
X288500D01*
X289500Y157504D01*
Y159503D01*
X290500Y160503D01*
X291499D01*
X292499Y159503D01*
Y157504D01*
X291499Y156504D01*
X286501Y162502D02*
X292499D01*
X290500Y164502D01*
X292499Y166501D01*
X286501D01*
X292499Y168500D02*
Y170500D01*
Y169500D01*
X286501D01*
X287501Y168500D01*
X293499Y173499D02*
Y177498D01*
X287501Y179497D02*
X286501Y180497D01*
Y182496D01*
X287501Y183496D01*
X288500D01*
X289500Y182496D01*
X290500Y183496D01*
X291499D01*
X292499Y182496D01*
Y180497D01*
X291499Y179497D01*
X290500D01*
X289500Y180497D01*
X288500Y179497D01*
X287501D01*
X289500Y180497D02*
Y182496D01*
X287501Y220503D02*
X286501Y219503D01*
Y217504D01*
X287501Y216504D01*
X288500D01*
X289500Y217504D01*
Y219503D01*
X290500Y220503D01*
X291499D01*
X292499Y219503D01*
Y217504D01*
X291499Y216504D01*
X286501Y222502D02*
X292499D01*
X290500Y224502D01*
X292499Y226501D01*
X286501D01*
X292499Y228501D02*
Y230500D01*
Y229500D01*
X286501D01*
X287501Y228501D01*
X293499Y233499D02*
Y237498D01*
X286501Y239497D02*
Y243496D01*
X287501D01*
X291499Y239497D01*
X292499D01*
X287501Y270503D02*
X286501Y269503D01*
Y267504D01*
X287501Y266504D01*
X288500D01*
X289500Y267504D01*
Y269503D01*
X290500Y270503D01*
X291499D01*
X292499Y269503D01*
Y267504D01*
X291499Y266504D01*
X286501Y272502D02*
X292499D01*
X290500Y274502D01*
X292499Y276501D01*
X286501D01*
X292499Y278501D02*
Y280500D01*
Y279500D01*
X286501D01*
X287501Y278501D01*
X293499Y283499D02*
Y287498D01*
X286501Y293496D02*
X287501Y291496D01*
X289500Y289497D01*
X291499D01*
X292499Y290497D01*
Y292496D01*
X291499Y293496D01*
X290500D01*
X289500Y292496D01*
Y289497D01*
X287501Y329618D02*
X286501Y328618D01*
Y326619D01*
X287501Y325619D01*
X288500D01*
X289500Y326619D01*
Y328618D01*
X290500Y329618D01*
X291499D01*
X292499Y328618D01*
Y326619D01*
X291499Y325619D01*
X286501Y331617D02*
X292499D01*
X290500Y333616D01*
X292499Y335616D01*
X286501D01*
X292499Y337615D02*
Y339614D01*
Y338615D01*
X286501D01*
X287501Y337615D01*
X293499Y342613D02*
Y346612D01*
X286501Y352610D02*
Y348611D01*
X289500D01*
X288500Y350611D01*
Y351610D01*
X289500Y352610D01*
X291499D01*
X292499Y351610D01*
Y349611D01*
X291499Y348611D01*
X287501Y390503D02*
X286501Y389503D01*
Y387504D01*
X287501Y386504D01*
X288500D01*
X289500Y387504D01*
Y389503D01*
X290500Y390503D01*
X291499D01*
X292499Y389503D01*
Y387504D01*
X291499Y386504D01*
X286501Y392502D02*
X292499D01*
X290500Y394502D01*
X292499Y396501D01*
X286501D01*
X292499Y398500D02*
Y400500D01*
Y399500D01*
X286501D01*
X287501Y398500D01*
X293499Y403499D02*
Y407498D01*
X292499Y412496D02*
X286501D01*
X289500Y409497D01*
Y413496D01*
X287501Y440503D02*
X286501Y439503D01*
Y437504D01*
X287501Y436504D01*
X288500D01*
X289500Y437504D01*
Y439503D01*
X290500Y440503D01*
X291499D01*
X292499Y439503D01*
Y437504D01*
X291499Y436504D01*
X286501Y442502D02*
X292499D01*
X290500Y444502D01*
X292499Y446501D01*
X286501D01*
X292499Y448500D02*
Y450500D01*
Y449500D01*
X286501D01*
X287501Y448500D01*
X293499Y453499D02*
Y457498D01*
X287501Y459497D02*
X286501Y460497D01*
Y462496D01*
X287501Y463496D01*
X288500D01*
X289500Y462496D01*
Y461496D01*
Y462496D01*
X290500Y463496D01*
X291499D01*
X292499Y462496D01*
Y460497D01*
X291499Y459497D01*
X287501Y500503D02*
X286501Y499503D01*
Y497504D01*
X287501Y496504D01*
X288500D01*
X289500Y497504D01*
Y499503D01*
X290500Y500503D01*
X291499D01*
X292499Y499503D01*
Y497504D01*
X291499Y496504D01*
X286501Y502502D02*
X292499D01*
X290500Y504502D01*
X292499Y506501D01*
X286501D01*
X292499Y508500D02*
Y510500D01*
Y509500D01*
X286501D01*
X287501Y508500D01*
X293499Y513499D02*
Y517498D01*
X292499Y523496D02*
Y519497D01*
X288500Y523496D01*
X287501D01*
X286501Y522496D01*
Y520497D01*
X287501Y519497D01*
Y561503D02*
X286501Y560503D01*
Y558504D01*
X287501Y557504D01*
X288500D01*
X289500Y558504D01*
Y560503D01*
X290500Y561503D01*
X291499D01*
X292499Y560503D01*
Y558504D01*
X291499Y557504D01*
X286501Y563502D02*
X292499D01*
X290500Y565501D01*
X292499Y567501D01*
X286501D01*
X292499Y569500D02*
Y571499D01*
Y570500D01*
X286501D01*
X287501Y569500D01*
X293499Y574499D02*
Y578497D01*
X292499Y580497D02*
Y582496D01*
Y581496D01*
X286501D01*
X287501Y580497D01*
X79499Y148804D02*
X73501D01*
Y151803D01*
X74501Y152802D01*
X76500D01*
X77500Y151803D01*
Y148804D01*
Y150803D02*
X79499Y152802D01*
Y157801D02*
X73501D01*
X76500Y154802D01*
Y158800D01*
X80499Y160800D02*
Y164798D01*
X74501Y166798D02*
X73501Y167797D01*
Y169797D01*
X74501Y170797D01*
X75501D01*
X76500Y169797D01*
X77500Y170797D01*
X78500D01*
X79499Y169797D01*
Y167797D01*
X78500Y166798D01*
X77500D01*
X76500Y167797D01*
X75501Y166798D01*
X74501D01*
X76500Y167797D02*
Y169797D01*
X95899Y148804D02*
X89901D01*
Y151803D01*
X90901Y152802D01*
X92900D01*
X93900Y151803D01*
Y148804D01*
Y150803D02*
X95899Y152802D01*
Y157801D02*
X89901D01*
X92900Y154802D01*
Y158800D01*
X96899Y160800D02*
Y164798D01*
X89901Y166798D02*
Y170797D01*
X90901D01*
X94899Y166798D01*
X95899D01*
X112299Y148204D02*
X106301D01*
Y151203D01*
X107301Y152202D01*
X109300D01*
X110300Y151203D01*
Y148204D01*
Y150203D02*
X112299Y152202D01*
Y157201D02*
X106301D01*
X109300Y154202D01*
Y158200D01*
X113299Y160200D02*
Y164198D01*
X106301Y170196D02*
X107301Y168197D01*
X109300Y166198D01*
X111300D01*
X112299Y167197D01*
Y169197D01*
X111300Y170196D01*
X110300D01*
X109300Y169197D01*
Y166198D01*
X129799Y148004D02*
X123801D01*
Y151003D01*
X124801Y152002D01*
X126800D01*
X127800Y151003D01*
Y148004D01*
Y150003D02*
X129799Y152002D01*
Y157001D02*
X123801D01*
X126800Y154002D01*
Y158000D01*
X130799Y160000D02*
Y163998D01*
X123801Y169997D02*
Y165998D01*
X126800D01*
X125801Y167997D01*
Y168997D01*
X126800Y169997D01*
X128799D01*
X129799Y168997D01*
Y166997D01*
X128799Y165998D01*
X147199Y148304D02*
X141201D01*
Y151303D01*
X142201Y152302D01*
X144200D01*
X145200Y151303D01*
Y148304D01*
Y150303D02*
X147199Y152302D01*
Y157301D02*
X141201D01*
X144200Y154302D01*
Y158300D01*
X148199Y160300D02*
Y164298D01*
X147199Y169297D02*
X141201D01*
X144200Y166298D01*
Y170297D01*
X165099Y147804D02*
X159101D01*
Y150803D01*
X160101Y151802D01*
X162100D01*
X163100Y150803D01*
Y147804D01*
Y149803D02*
X165099Y151802D01*
Y156801D02*
X159101D01*
X162100Y153802D01*
Y157800D01*
X166099Y159800D02*
Y163798D01*
X160101Y165798D02*
X159101Y166797D01*
Y168797D01*
X160101Y169797D01*
X161100D01*
X162100Y168797D01*
Y167797D01*
Y168797D01*
X163100Y169797D01*
X164100D01*
X165099Y168797D01*
Y166797D01*
X164100Y165798D01*
X181899Y147904D02*
X175901D01*
Y150903D01*
X176901Y151902D01*
X178900D01*
X179900Y150903D01*
Y147904D01*
Y149903D02*
X181899Y151902D01*
Y156901D02*
X175901D01*
X178900Y153902D01*
Y157900D01*
X182899Y159900D02*
Y163898D01*
X181899Y169896D02*
Y165898D01*
X177901Y169896D01*
X176901D01*
X175901Y168897D01*
Y166897D01*
X176901Y165898D01*
X199499Y149003D02*
X193501D01*
Y152002D01*
X194501Y153002D01*
X196500D01*
X197500Y152002D01*
Y149003D01*
Y151003D02*
X199499Y153002D01*
Y158000D02*
X193501D01*
X196500Y155001D01*
Y159000D01*
X200499Y160999D02*
Y164998D01*
X199499Y166997D02*
Y168997D01*
Y167997D01*
X193501D01*
X194501Y166997D01*
X184004Y214501D02*
Y220499D01*
X187003D01*
X188002Y219499D01*
Y217500D01*
X187003Y216500D01*
X184004D01*
X186003D02*
X188002Y214501D01*
X190002Y219499D02*
X191001Y220499D01*
X193001D01*
X194000Y219499D01*
Y218499D01*
X193001Y217500D01*
X192001D01*
X193001D01*
X194000Y216500D01*
Y215500D01*
X193001Y214501D01*
X191001D01*
X190002Y215500D01*
X196000Y213501D02*
X199998D01*
X201998Y219499D02*
X202997Y220499D01*
X204997D01*
X205996Y219499D01*
Y218499D01*
X204997Y217500D01*
X205996Y216500D01*
Y215500D01*
X204997Y214501D01*
X202997D01*
X201998Y215500D01*
Y216500D01*
X202997Y217500D01*
X201998Y218499D01*
Y219499D01*
X202997Y217500D02*
X204997D01*
X181004Y272501D02*
Y278499D01*
X184003D01*
X185002Y277499D01*
Y275500D01*
X184003Y274500D01*
X181004D01*
X183003D02*
X185002Y272501D01*
X187002Y277499D02*
X188001Y278499D01*
X190001D01*
X191000Y277499D01*
Y276500D01*
X190001Y275500D01*
X189001D01*
X190001D01*
X191000Y274500D01*
Y273500D01*
X190001Y272501D01*
X188001D01*
X187002Y273500D01*
X193000Y271501D02*
X196998D01*
X198998Y278499D02*
X202996D01*
Y277499D01*
X198998Y273500D01*
Y272501D01*
X183004Y328501D02*
Y334499D01*
X186003D01*
X187002Y333499D01*
Y331500D01*
X186003Y330500D01*
X183004D01*
X185003D02*
X187002Y328501D01*
X189002Y333499D02*
X190001Y334499D01*
X192001D01*
X193000Y333499D01*
Y332500D01*
X192001Y331500D01*
X191001D01*
X192001D01*
X193000Y330500D01*
Y329501D01*
X192001Y328501D01*
X190001D01*
X189002Y329501D01*
X195000Y327501D02*
X198998D01*
X204996Y334499D02*
X202997Y333499D01*
X200998Y331500D01*
Y329501D01*
X201997Y328501D01*
X203997D01*
X204996Y329501D01*
Y330500D01*
X203997Y331500D01*
X200998D01*
X181004Y381501D02*
Y387499D01*
X184003D01*
X185002Y386499D01*
Y384500D01*
X184003Y383500D01*
X181004D01*
X183003D02*
X185002Y381501D01*
X187002Y386499D02*
X188001Y387499D01*
X190001D01*
X191000Y386499D01*
Y385500D01*
X190001Y384500D01*
X189001D01*
X190001D01*
X191000Y383500D01*
Y382501D01*
X190001Y381501D01*
X188001D01*
X187002Y382501D01*
X193000Y380501D02*
X196998D01*
X202996Y387499D02*
X198998D01*
Y384500D01*
X200997Y385500D01*
X201997D01*
X202996Y384500D01*
Y382501D01*
X201997Y381501D01*
X199997D01*
X198998Y382501D01*
X180004Y495501D02*
Y501499D01*
X183003D01*
X184002Y500499D01*
Y498500D01*
X183003Y497500D01*
X180004D01*
X182003D02*
X184002Y495501D01*
X186002Y500499D02*
X187001Y501499D01*
X189001D01*
X190000Y500499D01*
Y499500D01*
X189001Y498500D01*
X188001D01*
X189001D01*
X190000Y497500D01*
Y496500D01*
X189001Y495501D01*
X187001D01*
X186002Y496500D01*
X192000Y494501D02*
X195998D01*
X197998Y500499D02*
X198997Y501499D01*
X200997D01*
X201996Y500499D01*
Y499500D01*
X200997Y498500D01*
X199997D01*
X200997D01*
X201996Y497500D01*
Y496500D01*
X200997Y495501D01*
X198997D01*
X197998Y496500D01*
X182004Y549501D02*
Y555499D01*
X185003D01*
X186002Y554499D01*
Y552500D01*
X185003Y551500D01*
X182004D01*
X184003D02*
X186002Y549501D01*
X188002Y554499D02*
X189001Y555499D01*
X191001D01*
X192000Y554499D01*
Y553500D01*
X191001Y552500D01*
X190001D01*
X191001D01*
X192000Y551500D01*
Y550500D01*
X191001Y549501D01*
X189001D01*
X188002Y550500D01*
X194000Y548501D02*
X197998D01*
X203996Y549501D02*
X199998D01*
X203996Y553500D01*
Y554499D01*
X202997Y555499D01*
X200997D01*
X199998Y554499D01*
X183003Y606501D02*
Y612499D01*
X186002D01*
X187002Y611499D01*
Y609500D01*
X186002Y608500D01*
X183003D01*
X185003D02*
X187002Y606501D01*
X189001Y611499D02*
X190001Y612499D01*
X192000D01*
X193000Y611499D01*
Y610499D01*
X192000Y609500D01*
X191001D01*
X192000D01*
X193000Y608500D01*
Y607501D01*
X192000Y606501D01*
X190001D01*
X189001Y607501D01*
X194999Y605501D02*
X198998D01*
X200997Y606501D02*
X202997D01*
X201997D01*
Y612499D01*
X200997Y611499D01*
X77304Y202601D02*
Y208599D01*
X80303D01*
X81302Y207599D01*
Y205600D01*
X80303Y204600D01*
X77304D01*
X79303D02*
X81302Y202601D01*
X87300D02*
X83302D01*
X87300Y206599D01*
Y207599D01*
X86301Y208599D01*
X84301D01*
X83302Y207599D01*
X89300Y201601D02*
X93298D01*
X95298Y207599D02*
X96297Y208599D01*
X98297D01*
X99296Y207599D01*
Y206599D01*
X98297Y205600D01*
X99296Y204600D01*
Y203601D01*
X98297Y202601D01*
X96297D01*
X95298Y203601D01*
Y204600D01*
X96297Y205600D01*
X95298Y206599D01*
Y207599D01*
X96297Y205600D02*
X98297D01*
X73608Y272401D02*
Y278399D01*
X76607D01*
X77607Y277399D01*
Y275400D01*
X76607Y274400D01*
X73608D01*
X75608D02*
X77607Y272401D01*
X83605D02*
X79606D01*
X83605Y276399D01*
Y277399D01*
X82605Y278399D01*
X80606D01*
X79606Y277399D01*
X85604Y271401D02*
X89603D01*
X91602Y278399D02*
X95601D01*
Y277399D01*
X91602Y273400D01*
Y272401D01*
X75004Y327501D02*
Y333499D01*
X78003D01*
X79002Y332499D01*
Y330500D01*
X78003Y329500D01*
X75004D01*
X77003D02*
X79002Y327501D01*
X85000D02*
X81002D01*
X85000Y331500D01*
Y332499D01*
X84001Y333499D01*
X82001D01*
X81002Y332499D01*
X87000Y326501D02*
X90998D01*
X96996Y333499D02*
X94997Y332499D01*
X92998Y330500D01*
Y328501D01*
X93997Y327501D01*
X95997D01*
X96996Y328501D01*
Y329500D01*
X95997Y330500D01*
X92998D01*
X77004Y380501D02*
Y386499D01*
X80003D01*
X81002Y385499D01*
Y383500D01*
X80003Y382500D01*
X77004D01*
X79003D02*
X81002Y380501D01*
X87000D02*
X83002D01*
X87000Y384500D01*
Y385499D01*
X86001Y386499D01*
X84001D01*
X83002Y385499D01*
X89000Y379501D02*
X92998D01*
X98997Y386499D02*
X94998D01*
Y383500D01*
X96997Y384500D01*
X97997D01*
X98997Y383500D01*
Y381501D01*
X97997Y380501D01*
X95997D01*
X94998Y381501D01*
X74004Y438501D02*
Y444499D01*
X77003D01*
X78002Y443499D01*
Y441500D01*
X77003Y440500D01*
X74004D01*
X76003D02*
X78002Y438501D01*
X84000D02*
X80002D01*
X84000Y442499D01*
Y443499D01*
X83001Y444499D01*
X81001D01*
X80002Y443499D01*
X86000Y437501D02*
X89998D01*
X94997Y438501D02*
Y444499D01*
X91998Y441500D01*
X95996D01*
X76706Y494206D02*
Y500204D01*
X79705D01*
X80704Y499204D01*
Y497205D01*
X79705Y496205D01*
X76706D01*
X78705D02*
X80704Y494206D01*
X86702D02*
X82704D01*
X86702Y498204D01*
Y499204D01*
X85703Y500204D01*
X83703D01*
X82704Y499204D01*
X88702Y493206D02*
X92700D01*
X94700Y499204D02*
X95700Y500204D01*
X97699D01*
X98699Y499204D01*
Y498204D01*
X97699Y497205D01*
X96699D01*
X97699D01*
X98699Y496205D01*
Y495205D01*
X97699Y494206D01*
X95700D01*
X94700Y495205D01*
X76873Y549806D02*
Y555804D01*
X79872D01*
X80872Y554805D01*
Y552805D01*
X79872Y551806D01*
X76873D01*
X78873D02*
X80872Y549806D01*
X86870D02*
X82871D01*
X86870Y553805D01*
Y554805D01*
X85870Y555804D01*
X83871D01*
X82871Y554805D01*
X88869Y548807D02*
X92868D01*
X98866Y549806D02*
X94867D01*
X98866Y553805D01*
Y554805D01*
X97866Y555804D01*
X95867D01*
X94867Y554805D01*
X76806Y606806D02*
Y612804D01*
X79805D01*
X80805Y611805D01*
Y609805D01*
X79805Y608806D01*
X76806D01*
X78806D02*
X80805Y606806D01*
X86803D02*
X82804D01*
X86803Y610805D01*
Y611805D01*
X85803Y612804D01*
X83804D01*
X82804Y611805D01*
X88802Y605807D02*
X92801D01*
X94801Y606806D02*
X96800D01*
X95800D01*
Y612804D01*
X94801Y611805D01*
X80699Y45703D02*
X74701D01*
Y48702D01*
X75701Y49702D01*
X77700D01*
X78700Y48702D01*
Y45703D01*
Y47703D02*
X80699Y49702D01*
Y51701D02*
Y53701D01*
Y52701D01*
X74701D01*
X75701Y51701D01*
X81699Y56700D02*
Y60699D01*
X75701Y62698D02*
X74701Y63698D01*
Y65697D01*
X75701Y66697D01*
X76701D01*
X77700Y65697D01*
X78700Y66697D01*
X79699D01*
X80699Y65697D01*
Y63698D01*
X79699Y62698D01*
X78700D01*
X77700Y63698D01*
X76701Y62698D01*
X75701D01*
X77700Y63698D02*
Y65697D01*
X99199Y45503D02*
X93201D01*
Y48502D01*
X94201Y49502D01*
X96200D01*
X97200Y48502D01*
Y45503D01*
Y47503D02*
X99199Y49502D01*
Y51502D02*
Y53501D01*
Y52501D01*
X93201D01*
X94201Y51502D01*
X100199Y56500D02*
Y60499D01*
X93201Y62498D02*
Y66497D01*
X94201D01*
X98199Y62498D01*
X99199D01*
X116399Y44703D02*
X110401D01*
Y47702D01*
X111401Y48702D01*
X113400D01*
X114400Y47702D01*
Y44703D01*
Y46703D02*
X116399Y48702D01*
Y50701D02*
Y52701D01*
Y51701D01*
X110401D01*
X111401Y50701D01*
X117399Y55700D02*
Y59699D01*
X110401Y65697D02*
X111401Y63697D01*
X113400Y61698D01*
X115400D01*
X116399Y62698D01*
Y64697D01*
X115400Y65697D01*
X114400D01*
X113400Y64697D01*
Y61698D01*
X132699Y45003D02*
X126701D01*
Y48002D01*
X127701Y49002D01*
X129700D01*
X130700Y48002D01*
Y45003D01*
Y47003D02*
X132699Y49002D01*
Y51002D02*
Y53001D01*
Y52001D01*
X126701D01*
X127701Y51002D01*
X133699Y56000D02*
Y59999D01*
X126701Y65997D02*
Y61998D01*
X129700D01*
X128700Y63997D01*
Y64997D01*
X129700Y65997D01*
X131700D01*
X132699Y64997D01*
Y62998D01*
X131700Y61998D01*
X149399Y45503D02*
X143401D01*
Y48502D01*
X144401Y49502D01*
X146400D01*
X147400Y48502D01*
Y45503D01*
Y47503D02*
X149399Y49502D01*
Y51502D02*
Y53501D01*
Y52501D01*
X143401D01*
X144401Y51502D01*
X150399Y56500D02*
Y60499D01*
X149399Y65497D02*
X143401D01*
X146400Y62498D01*
Y66497D01*
X166899Y45903D02*
X160901D01*
Y48902D01*
X161901Y49902D01*
X163900D01*
X164900Y48902D01*
Y45903D01*
Y47903D02*
X166899Y49902D01*
Y51902D02*
Y53901D01*
Y52901D01*
X160901D01*
X161901Y51902D01*
X167899Y56900D02*
Y60899D01*
X161901Y62898D02*
X160901Y63898D01*
Y65897D01*
X161901Y66897D01*
X162900D01*
X163900Y65897D01*
Y64897D01*
Y65897D01*
X164900Y66897D01*
X165900D01*
X166899Y65897D01*
Y63898D01*
X165900Y62898D01*
X185099Y44403D02*
X179101D01*
Y47402D01*
X180101Y48402D01*
X182100D01*
X183100Y47402D01*
Y44403D01*
Y46403D02*
X185099Y48402D01*
Y50402D02*
Y52401D01*
Y51401D01*
X179101D01*
X180101Y50402D01*
X186099Y55400D02*
Y59399D01*
X185099Y65397D02*
Y61398D01*
X181100Y65397D01*
X180101D01*
X179101Y64397D01*
Y62398D01*
X180101Y61398D01*
X202999Y45603D02*
X197001D01*
Y48602D01*
X198001Y49602D01*
X200000D01*
X201000Y48602D01*
Y45603D01*
Y47602D02*
X202999Y49602D01*
Y51601D02*
Y53601D01*
Y52601D01*
X197001D01*
X198001Y51601D01*
X203999Y56599D02*
Y60598D01*
X202999Y62598D02*
Y64597D01*
Y63597D01*
X197001D01*
X198001Y62598D01*
X90002Y242500D02*
Y246499D01*
X89003Y247499D01*
X87003D01*
X86004Y246499D01*
Y242500D01*
X87003Y241501D01*
X89003D01*
X88003Y243500D02*
X90002Y241501D01*
X89003D02*
X90002Y242500D01*
X92002Y246499D02*
X93001Y247499D01*
X95001D01*
X96000Y246499D01*
Y245499D01*
X95001Y244500D01*
X94001D01*
X95001D01*
X96000Y243500D01*
Y242500D01*
X95001Y241501D01*
X93001D01*
X92002Y242500D01*
X98000Y240501D02*
X101998D01*
X103998Y246499D02*
X104997Y247499D01*
X106997D01*
X107996Y246499D01*
Y245499D01*
X106997Y244500D01*
X107996Y243500D01*
Y242500D01*
X106997Y241501D01*
X104997D01*
X103998Y242500D01*
Y243500D01*
X104997Y244500D01*
X103998Y245499D01*
Y246499D01*
X104997Y244500D02*
X106997D01*
X133002Y268500D02*
Y272499D01*
X132003Y273499D01*
X130003D01*
X129004Y272499D01*
Y268500D01*
X130003Y267501D01*
X132003D01*
X131003Y269500D02*
X133002Y267501D01*
X132003D02*
X133002Y268500D01*
X135002Y272499D02*
X136001Y273499D01*
X138001D01*
X139000Y272499D01*
Y271499D01*
X138001Y270500D01*
X137001D01*
X138001D01*
X139000Y269500D01*
Y268500D01*
X138001Y267501D01*
X136001D01*
X135002Y268500D01*
X141000Y266501D02*
X144998D01*
X146998Y273499D02*
X150996D01*
Y272499D01*
X146998Y268500D01*
Y267501D01*
X132002Y323500D02*
Y327499D01*
X131003Y328499D01*
X129003D01*
X128004Y327499D01*
Y323500D01*
X129003Y322501D01*
X131003D01*
X130003Y324500D02*
X132002Y322501D01*
X131003D02*
X132002Y323500D01*
X134002Y327499D02*
X135001Y328499D01*
X137001D01*
X138000Y327499D01*
Y326500D01*
X137001Y325500D01*
X136001D01*
X137001D01*
X138000Y324500D01*
Y323500D01*
X137001Y322501D01*
X135001D01*
X134002Y323500D01*
X140000Y321501D02*
X143998D01*
X149996Y328499D02*
X147997Y327499D01*
X145998Y325500D01*
Y323500D01*
X146997Y322501D01*
X148997D01*
X149996Y323500D01*
Y324500D01*
X148997Y325500D01*
X145998D01*
X133002Y379501D02*
Y383499D01*
X132003Y384499D01*
X130003D01*
X129004Y383499D01*
Y379501D01*
X130003Y378501D01*
X132003D01*
X131003Y380500D02*
X133002Y378501D01*
X132003D02*
X133002Y379501D01*
X135002Y383499D02*
X136001Y384499D01*
X138001D01*
X139000Y383499D01*
Y382500D01*
X138001Y381500D01*
X137001D01*
X138001D01*
X139000Y380500D01*
Y379501D01*
X138001Y378501D01*
X136001D01*
X135002Y379501D01*
X141000Y377501D02*
X144998D01*
X150996Y384499D02*
X146998D01*
Y381500D01*
X148997Y382500D01*
X149997D01*
X150996Y381500D01*
Y379501D01*
X149997Y378501D01*
X147997D01*
X146998Y379501D01*
X132002Y436501D02*
Y440499D01*
X131003Y441499D01*
X129003D01*
X128004Y440499D01*
Y436501D01*
X129003Y435501D01*
X131003D01*
X130003Y437500D02*
X132002Y435501D01*
X131003D02*
X132002Y436501D01*
X134002Y440499D02*
X135001Y441499D01*
X137001D01*
X138000Y440499D01*
Y439500D01*
X137001Y438500D01*
X136001D01*
X137001D01*
X138000Y437500D01*
Y436501D01*
X137001Y435501D01*
X135001D01*
X134002Y436501D01*
X140000Y434501D02*
X143998D01*
X148997Y435501D02*
Y441499D01*
X145998Y438500D01*
X149996D01*
X132002Y491501D02*
Y495499D01*
X131003Y496499D01*
X129003D01*
X128004Y495499D01*
Y491501D01*
X129003Y490501D01*
X131003D01*
X130003Y492500D02*
X132002Y490501D01*
X131003D02*
X132002Y491501D01*
X134002Y495499D02*
X135001Y496499D01*
X137001D01*
X138000Y495499D01*
Y494499D01*
X137001Y493500D01*
X136001D01*
X137001D01*
X138000Y492500D01*
Y491501D01*
X137001Y490501D01*
X135001D01*
X134002Y491501D01*
X140000Y489501D02*
X143998D01*
X145998Y495499D02*
X146997Y496499D01*
X148997D01*
X149996Y495499D01*
Y494499D01*
X148997Y493500D01*
X147997D01*
X148997D01*
X149996Y492500D01*
Y491501D01*
X148997Y490501D01*
X146997D01*
X145998Y491501D01*
X132002Y546500D02*
Y550499D01*
X131003Y551499D01*
X129003D01*
X128004Y550499D01*
Y546500D01*
X129003Y545501D01*
X131003D01*
X130003Y547500D02*
X132002Y545501D01*
X131003D02*
X132002Y546500D01*
X134002Y550499D02*
X135001Y551499D01*
X137001D01*
X138000Y550499D01*
Y549500D01*
X137001Y548500D01*
X136001D01*
X137001D01*
X138000Y547500D01*
Y546500D01*
X137001Y545501D01*
X135001D01*
X134002Y546500D01*
X140000Y544501D02*
X143998D01*
X149996Y545501D02*
X145998D01*
X149996Y549500D01*
Y550499D01*
X148997Y551499D01*
X146997D01*
X145998Y550499D01*
X134002Y604500D02*
Y608499D01*
X133002Y609499D01*
X131003D01*
X130003Y608499D01*
Y604500D01*
X131003Y603501D01*
X133002D01*
X132003Y605500D02*
X134002Y603501D01*
X133002D02*
X134002Y604500D01*
X136001Y608499D02*
X137001Y609499D01*
X139000D01*
X140000Y608499D01*
Y607500D01*
X139000Y606500D01*
X138001D01*
X139000D01*
X140000Y605500D01*
Y604500D01*
X139000Y603501D01*
X137001D01*
X136001Y604500D01*
X141999Y602501D02*
X145998D01*
X147997Y603501D02*
X149997D01*
X148997D01*
Y609499D01*
X147997Y608499D01*
X29502Y213500D02*
Y217499D01*
X28502Y218499D01*
X26503D01*
X25503Y217499D01*
Y213500D01*
X26503Y212501D01*
X28502D01*
X27503Y214500D02*
X29502Y212501D01*
X28502D02*
X29502Y213500D01*
X31501Y212501D02*
X33501D01*
X32501D01*
Y218499D01*
X31501Y217499D01*
X36500Y211501D02*
X40499D01*
X42498Y217499D02*
X43498Y218499D01*
X45497D01*
X46497Y217499D01*
Y216499D01*
X45497Y215500D01*
X46497Y214500D01*
Y213500D01*
X45497Y212501D01*
X43498D01*
X42498Y213500D01*
Y214500D01*
X43498Y215500D01*
X42498Y216499D01*
Y217499D01*
X43498Y215500D02*
X45497D01*
X30502Y268500D02*
Y272499D01*
X29502Y273499D01*
X27503D01*
X26503Y272499D01*
Y268500D01*
X27503Y267501D01*
X29502D01*
X28503Y269500D02*
X30502Y267501D01*
X29502D02*
X30502Y268500D01*
X32502Y267501D02*
X34501D01*
X33501D01*
Y273499D01*
X32502Y272499D01*
X37500Y266501D02*
X41499D01*
X43498Y273499D02*
X47497D01*
Y272499D01*
X43498Y268500D01*
Y267501D01*
X28502Y323500D02*
Y327499D01*
X27502Y328499D01*
X25503D01*
X24503Y327499D01*
Y323500D01*
X25503Y322501D01*
X27502D01*
X26503Y324500D02*
X28502Y322501D01*
X27502D02*
X28502Y323500D01*
X30501Y322501D02*
X32501D01*
X31501D01*
Y328499D01*
X30501Y327499D01*
X35500Y321501D02*
X39499D01*
X45497Y328499D02*
X43497Y327499D01*
X41498Y325500D01*
Y323500D01*
X42498Y322501D01*
X44497D01*
X45497Y323500D01*
Y324500D01*
X44497Y325500D01*
X41498D01*
X30502Y380501D02*
Y384499D01*
X29502Y385499D01*
X27503D01*
X26503Y384499D01*
Y380501D01*
X27503Y379501D01*
X29502D01*
X28503Y381500D02*
X30502Y379501D01*
X29502D02*
X30502Y380501D01*
X32502Y379501D02*
X34501D01*
X33501D01*
Y385499D01*
X32502Y384499D01*
X37500Y378501D02*
X41499D01*
X47497Y385499D02*
X43498D01*
Y382500D01*
X45497Y383500D01*
X46497D01*
X47497Y382500D01*
Y380501D01*
X46497Y379501D01*
X44498D01*
X43498Y380501D01*
X28502Y436501D02*
Y440499D01*
X27502Y441499D01*
X25503D01*
X24503Y440499D01*
Y436501D01*
X25503Y435501D01*
X27502D01*
X26503Y437500D02*
X28502Y435501D01*
X27502D02*
X28502Y436501D01*
X30501Y435501D02*
X32501D01*
X31501D01*
Y441499D01*
X30501Y440499D01*
X35500Y434501D02*
X39499D01*
X44497Y435501D02*
Y441499D01*
X41498Y438500D01*
X45497D01*
X30104Y490405D02*
Y494404D01*
X29105Y495404D01*
X27105D01*
X26106Y494404D01*
Y490405D01*
X27105Y489406D01*
X29105D01*
X28105Y491405D02*
X30104Y489406D01*
X29105D02*
X30104Y490405D01*
X32104Y489406D02*
X34103D01*
X33103D01*
Y495404D01*
X32104Y494404D01*
X37102Y488406D02*
X41101D01*
X43100Y494404D02*
X44100Y495404D01*
X46099D01*
X47099Y494404D01*
Y493404D01*
X46099Y492405D01*
X45099D01*
X46099D01*
X47099Y491405D01*
Y490405D01*
X46099Y489406D01*
X44100D01*
X43100Y490405D01*
X30272Y546006D02*
Y550005D01*
X29272Y551004D01*
X27273D01*
X26273Y550005D01*
Y546006D01*
X27273Y545006D01*
X29272D01*
X28273Y547006D02*
X30272Y545006D01*
X29272D02*
X30272Y546006D01*
X32271Y545006D02*
X34271D01*
X33271D01*
Y551004D01*
X32271Y550005D01*
X37270Y544007D02*
X41268D01*
X47266Y545006D02*
X43268D01*
X47266Y549005D01*
Y550005D01*
X46267Y551004D01*
X44267D01*
X43268Y550005D01*
X30205Y603006D02*
Y607005D01*
X29205Y608004D01*
X27206D01*
X26206Y607005D01*
Y603006D01*
X27206Y602006D01*
X29205D01*
X28206Y604006D02*
X30205Y602006D01*
X29205D02*
X30205Y603006D01*
X32204Y602006D02*
X34204D01*
X33204D01*
Y608004D01*
X32204Y607005D01*
X37203Y601007D02*
X41201D01*
X43201Y602006D02*
X45200D01*
X44201D01*
Y608004D01*
X43201Y607005D01*
X28701Y133299D02*
X26702D01*
X27702D01*
Y128301D01*
X26702Y127301D01*
X25702D01*
X24702Y128301D01*
X30700Y127301D02*
X32700D01*
X31700D01*
Y133299D01*
X30700Y132299D01*
X35699D02*
X36699Y133299D01*
X38698D01*
X39698Y132299D01*
Y131300D01*
X38698Y130300D01*
X37698D01*
X38698D01*
X39698Y129300D01*
Y128301D01*
X38698Y127301D01*
X36699D01*
X35699Y128301D01*
X223601Y355701D02*
Y353702D01*
Y354701D01*
X228599D01*
X229599Y353702D01*
Y352702D01*
X228599Y351702D01*
X229599Y357700D02*
Y359700D01*
Y358700D01*
X223601D01*
X224601Y357700D01*
X229599Y366698D02*
Y362699D01*
X225600Y366698D01*
X224601D01*
X223601Y365698D01*
Y363699D01*
X224601Y362699D01*
X5801Y501299D02*
X3802D01*
X4801D01*
Y496301D01*
X3802Y495301D01*
X2802D01*
X1802Y496301D01*
X7800Y495301D02*
X9799D01*
X8800D01*
Y501299D01*
X7800Y500299D01*
X12799Y495301D02*
X14798D01*
X13798D01*
Y501299D01*
X12799Y500299D01*
X222601Y461801D02*
Y459802D01*
Y460802D01*
X227599D01*
X228599Y459802D01*
Y458802D01*
X227599Y457802D01*
X228599Y463800D02*
Y465800D01*
Y464800D01*
X222601D01*
X223601Y463800D01*
Y468799D02*
X222601Y469799D01*
Y471798D01*
X223601Y472798D01*
X227599D01*
X228599Y471798D01*
Y469799D01*
X227599Y468799D01*
X223601D01*
X6105Y185904D02*
X4106D01*
X5105D01*
Y180906D01*
X4106Y179906D01*
X3106D01*
X2106Y180906D01*
X8104D02*
X9104Y179906D01*
X11103D01*
X12103Y180906D01*
Y184905D01*
X11103Y185904D01*
X9104D01*
X8104Y184905D01*
Y183905D01*
X9104Y182905D01*
X12103D01*
X496000Y148999D02*
X494001D01*
X495001D01*
Y144001D01*
X494001Y143001D01*
X493001D01*
X492002Y144001D01*
X501998Y148999D02*
X499999Y147999D01*
X498000Y146000D01*
Y144001D01*
X498999Y143001D01*
X500999D01*
X501998Y144001D01*
Y145000D01*
X500999Y146000D01*
X498000D01*
X5505Y70904D02*
X3506D01*
X4505D01*
Y65906D01*
X3506Y64906D01*
X2506D01*
X1506Y65906D01*
X11503Y70904D02*
X7504D01*
Y67905D01*
X9504Y68905D01*
X10503D01*
X11503Y67905D01*
Y65906D01*
X10503Y64906D01*
X8504D01*
X7504Y65906D01*
X363600Y76599D02*
X361601D01*
X362601D01*
Y71601D01*
X361601Y70601D01*
X360601D01*
X359602Y71601D01*
X368599Y70601D02*
Y76599D01*
X365600Y73600D01*
X369598D01*
X522300Y75099D02*
X520301D01*
X521301D01*
Y70101D01*
X520301Y69101D01*
X519301D01*
X518302Y70101D01*
X524300Y74099D02*
X525299Y75099D01*
X527299D01*
X528298Y74099D01*
Y73100D01*
X527299Y72100D01*
X526299D01*
X527299D01*
X528298Y71100D01*
Y70101D01*
X527299Y69101D01*
X525299D01*
X524300Y70101D01*
X495002Y207499D02*
X493003D01*
X494003D01*
Y202501D01*
X493003Y201501D01*
X492003D01*
X491004Y202501D01*
X501000Y201501D02*
X497002D01*
X501000Y205500D01*
Y206499D01*
X500001Y207499D01*
X498001D01*
X497002Y206499D01*
X503000Y200501D02*
X506998D01*
X508998Y206499D02*
X509997Y207499D01*
X511997D01*
X512996Y206499D01*
Y205500D01*
X511997Y204500D01*
X512996Y203500D01*
Y202501D01*
X511997Y201501D01*
X509997D01*
X508998Y202501D01*
Y203500D01*
X509997Y204500D01*
X508998Y205500D01*
Y206499D01*
X509997Y204500D02*
X511997D01*
X494002Y264499D02*
X492003D01*
X493003D01*
Y259501D01*
X492003Y258501D01*
X491003D01*
X490004Y259501D01*
X500000Y258501D02*
X496002D01*
X500000Y262499D01*
Y263499D01*
X499001Y264499D01*
X497001D01*
X496002Y263499D01*
X502000Y257501D02*
X505998D01*
X507998Y264499D02*
X511997D01*
Y263499D01*
X507998Y259501D01*
Y258501D01*
X493902Y321999D02*
X491903D01*
X492903D01*
Y317001D01*
X491903Y316001D01*
X490903D01*
X489904Y317001D01*
X499900Y316001D02*
X495902D01*
X499900Y320000D01*
Y320999D01*
X498901Y321999D01*
X496901D01*
X495902Y320999D01*
X501900Y315001D02*
X505898D01*
X511897Y321999D02*
X509897Y320999D01*
X507898Y319000D01*
Y317001D01*
X508897Y316001D01*
X510897D01*
X511897Y317001D01*
Y318000D01*
X510897Y319000D01*
X507898D01*
X477002Y351499D02*
X475003D01*
X476003D01*
Y346500D01*
X475003Y345501D01*
X474003D01*
X473004Y346500D01*
X483000Y345501D02*
X479002D01*
X483000Y349500D01*
Y350499D01*
X482001Y351499D01*
X480001D01*
X479002Y350499D01*
X485000Y344501D02*
X488998D01*
X494997Y351499D02*
X490998D01*
Y348500D01*
X492997Y349500D01*
X493997D01*
X494997Y348500D01*
Y346500D01*
X493997Y345501D01*
X491997D01*
X490998Y346500D01*
X491802Y435599D02*
X489803D01*
X490803D01*
Y430601D01*
X489803Y429601D01*
X488803D01*
X487804Y430601D01*
X497800Y429601D02*
X493802D01*
X497800Y433600D01*
Y434599D01*
X496801Y435599D01*
X494801D01*
X493802Y434599D01*
X499800Y428601D02*
X503798D01*
X508797Y429601D02*
Y435599D01*
X505798Y432600D01*
X509796D01*
X491002Y491499D02*
X489003D01*
X490003D01*
Y486501D01*
X489003Y485501D01*
X488003D01*
X487004Y486501D01*
X497000Y485501D02*
X493002D01*
X497000Y489500D01*
Y490499D01*
X496001Y491499D01*
X494001D01*
X493002Y490499D01*
X499000Y484501D02*
X502998D01*
X504998Y490499D02*
X505997Y491499D01*
X507997D01*
X508996Y490499D01*
Y489500D01*
X507997Y488500D01*
X506997D01*
X507997D01*
X508996Y487500D01*
Y486501D01*
X507997Y485501D01*
X505997D01*
X504998Y486501D01*
X492002Y548499D02*
X490003D01*
X491003D01*
Y543501D01*
X490003Y542501D01*
X489003D01*
X488004Y543501D01*
X498000Y542501D02*
X494002D01*
X498000Y546499D01*
Y547499D01*
X497001Y548499D01*
X495001D01*
X494002Y547499D01*
X500000Y541501D02*
X503998D01*
X509997Y542501D02*
X505998D01*
X509997Y546499D01*
Y547499D01*
X508997Y548499D01*
X506997D01*
X505998Y547499D01*
X492002Y601499D02*
X490003D01*
X491002D01*
Y596500D01*
X490003Y595501D01*
X489003D01*
X488003Y596500D01*
X498000Y595501D02*
X494001D01*
X498000Y599500D01*
Y600499D01*
X497000Y601499D01*
X495001D01*
X494001Y600499D01*
X499999Y594501D02*
X503998D01*
X505997Y595501D02*
X507997D01*
X506997D01*
Y601499D01*
X505997Y600499D01*
X336602Y209699D02*
X334603D01*
X335602D01*
Y204700D01*
X334603Y203701D01*
X333603D01*
X332603Y204700D01*
X338601Y203701D02*
X340601D01*
X339601D01*
Y209699D01*
X338601Y208699D01*
X343600Y202701D02*
X347599D01*
X349598Y208699D02*
X350598Y209699D01*
X352597D01*
X353597Y208699D01*
Y207699D01*
X352597Y206700D01*
X353597Y205700D01*
Y204700D01*
X352597Y203701D01*
X350598D01*
X349598Y204700D01*
Y205700D01*
X350598Y206700D01*
X349598Y207699D01*
Y208699D01*
X350598Y206700D02*
X352597D01*
X338502Y263499D02*
X336503D01*
X337502D01*
Y258501D01*
X336503Y257501D01*
X335503D01*
X334503Y258501D01*
X340501Y257501D02*
X342501D01*
X341501D01*
Y263499D01*
X340501Y262499D01*
X345500Y256501D02*
X349499D01*
X351498Y263499D02*
X355497D01*
Y262499D01*
X351498Y258501D01*
Y257501D01*
X336502Y322499D02*
X334503D01*
X335502D01*
Y317500D01*
X334503Y316501D01*
X333503D01*
X332503Y317500D01*
X338502Y316501D02*
X340501D01*
X339501D01*
Y322499D01*
X338502Y321499D01*
X343500Y315501D02*
X347498D01*
X353497Y322499D02*
X351497Y321499D01*
X349498Y319500D01*
Y317500D01*
X350498Y316501D01*
X352497D01*
X353497Y317500D01*
Y318500D01*
X352497Y319500D01*
X349498D01*
X336502Y433499D02*
X334503D01*
X335502D01*
Y428501D01*
X334503Y427501D01*
X333503D01*
X332503Y428501D01*
X338502Y427501D02*
X340501D01*
X339501D01*
Y433499D01*
X338502Y432499D01*
X343500Y426501D02*
X347498D01*
X352497Y427501D02*
Y433499D01*
X349498Y430500D01*
X353497D01*
X336502Y490499D02*
X334503D01*
X335502D01*
Y485500D01*
X334503Y484501D01*
X333503D01*
X332503Y485500D01*
X338502Y484501D02*
X340501D01*
X339501D01*
Y490499D01*
X338502Y489499D01*
X343500Y483501D02*
X347498D01*
X349498Y489499D02*
X350498Y490499D01*
X352497D01*
X353497Y489499D01*
Y488499D01*
X352497Y487500D01*
X351497D01*
X352497D01*
X353497Y486500D01*
Y485500D01*
X352497Y484501D01*
X350498D01*
X349498Y485500D01*
X337502Y546499D02*
X335503D01*
X336502D01*
Y541501D01*
X335503Y540501D01*
X334503D01*
X333503Y541501D01*
X339502Y540501D02*
X341501D01*
X340501D01*
Y546499D01*
X339502Y545499D01*
X344500Y539501D02*
X348499D01*
X354497Y540501D02*
X350498D01*
X354497Y544499D01*
Y545499D01*
X353497Y546499D01*
X351498D01*
X350498Y545499D01*
X337502Y601499D02*
X335502D01*
X336502D01*
Y596500D01*
X335502Y595501D01*
X334503D01*
X333503Y596500D01*
X339501Y595501D02*
X341500D01*
X340501D01*
Y601499D01*
X339501Y600499D01*
X344499Y594501D02*
X348498D01*
X350498Y595501D02*
X352497D01*
X351497D01*
Y601499D01*
X350498Y600499D01*
X552906Y200304D02*
Y194306D01*
X555905D01*
X556905Y195306D01*
Y199305D01*
X555905Y200304D01*
X552906D01*
X558904Y199305D02*
X559904Y200304D01*
X561903D01*
X562903Y199305D01*
Y198305D01*
X561903Y197305D01*
X560904D01*
X561903D01*
X562903Y196306D01*
Y195306D01*
X561903Y194306D01*
X559904D01*
X558904Y195306D01*
X564902Y193307D02*
X568901D01*
X570900Y199305D02*
X571900Y200304D01*
X573900D01*
X574899Y199305D01*
Y198305D01*
X573900Y197305D01*
X574899Y196306D01*
Y195306D01*
X573900Y194306D01*
X571900D01*
X570900Y195306D01*
Y196306D01*
X571900Y197305D01*
X570900Y198305D01*
Y199305D01*
X571900Y197305D02*
X573900D01*
X553006Y256504D02*
Y250506D01*
X556005D01*
X557005Y251506D01*
Y255505D01*
X556005Y256504D01*
X553006D01*
X559004Y255505D02*
X560004Y256504D01*
X562003D01*
X563003Y255505D01*
Y254505D01*
X562003Y253505D01*
X561004D01*
X562003D01*
X563003Y252506D01*
Y251506D01*
X562003Y250506D01*
X560004D01*
X559004Y251506D01*
X565002Y249507D02*
X569001D01*
X571000Y256504D02*
X574999D01*
Y255505D01*
X571000Y251506D01*
Y250506D01*
X552706Y312604D02*
Y306606D01*
X555705D01*
X556704Y307605D01*
Y311604D01*
X555705Y312604D01*
X552706D01*
X558704Y311604D02*
X559703Y312604D01*
X561703D01*
X562702Y311604D01*
Y310604D01*
X561703Y309605D01*
X560703D01*
X561703D01*
X562702Y308605D01*
Y307605D01*
X561703Y306606D01*
X559703D01*
X558704Y307605D01*
X564702Y305606D02*
X568701D01*
X574698Y312604D02*
X572699Y311604D01*
X570700Y309605D01*
Y307605D01*
X571699Y306606D01*
X573699D01*
X574698Y307605D01*
Y308605D01*
X573699Y309605D01*
X570700D01*
X553306Y368804D02*
Y362806D01*
X556305D01*
X557305Y363806D01*
Y367805D01*
X556305Y368804D01*
X553306D01*
X559304Y367805D02*
X560304Y368804D01*
X562303D01*
X563303Y367805D01*
Y366805D01*
X562303Y365805D01*
X561304D01*
X562303D01*
X563303Y364806D01*
Y363806D01*
X562303Y362806D01*
X560304D01*
X559304Y363806D01*
X565302Y361807D02*
X569301D01*
X575299Y368804D02*
X571301D01*
Y365805D01*
X573300Y366805D01*
X574299D01*
X575299Y365805D01*
Y363806D01*
X574299Y362806D01*
X572300D01*
X571301Y363806D01*
X552506Y425204D02*
Y419206D01*
X555505D01*
X556504Y420205D01*
Y424204D01*
X555505Y425204D01*
X552506D01*
X558504Y424204D02*
X559503Y425204D01*
X561503D01*
X562502Y424204D01*
Y423204D01*
X561503Y422205D01*
X560503D01*
X561503D01*
X562502Y421205D01*
Y420205D01*
X561503Y419206D01*
X559503D01*
X558504Y420205D01*
X564502Y418206D02*
X568501D01*
X573499Y419206D02*
Y425204D01*
X570500Y422205D01*
X574499D01*
X552906Y481104D02*
Y475106D01*
X555905D01*
X556904Y476105D01*
Y480104D01*
X555905Y481104D01*
X552906D01*
X558904Y480104D02*
X559903Y481104D01*
X561903D01*
X562902Y480104D01*
Y479104D01*
X561903Y478105D01*
X560903D01*
X561903D01*
X562902Y477105D01*
Y476105D01*
X561903Y475106D01*
X559903D01*
X558904Y476105D01*
X564902Y474106D02*
X568900D01*
X570900Y480104D02*
X571900Y481104D01*
X573899D01*
X574898Y480104D01*
Y479104D01*
X573899Y478105D01*
X572899D01*
X573899D01*
X574898Y477105D01*
Y476105D01*
X573899Y475106D01*
X571900D01*
X570900Y476105D01*
X553073Y536704D02*
Y530706D01*
X556072D01*
X557072Y531706D01*
Y535705D01*
X556072Y536704D01*
X553073D01*
X559071Y535705D02*
X560071Y536704D01*
X562070D01*
X563070Y535705D01*
Y534705D01*
X562070Y533705D01*
X561071D01*
X562070D01*
X563070Y532706D01*
Y531706D01*
X562070Y530706D01*
X560071D01*
X559071Y531706D01*
X565069Y529707D02*
X569068D01*
X575066Y530706D02*
X571067D01*
X575066Y534705D01*
Y535705D01*
X574066Y536704D01*
X572067D01*
X571067Y535705D01*
X553006Y593704D02*
Y587706D01*
X556005D01*
X557005Y588706D01*
Y592705D01*
X556005Y593704D01*
X553006D01*
X559004Y592705D02*
X560004Y593704D01*
X562003D01*
X563003Y592705D01*
Y591705D01*
X562003Y590705D01*
X561004D01*
X562003D01*
X563003Y589706D01*
Y588706D01*
X562003Y587706D01*
X560004D01*
X559004Y588706D01*
X565002Y586707D02*
X569001D01*
X571000Y587706D02*
X573000D01*
X572000D01*
Y593704D01*
X571000Y592705D01*
X450806Y200452D02*
Y194454D01*
X453805D01*
X454805Y195454D01*
Y199453D01*
X453805Y200452D01*
X450806D01*
X460803Y194454D02*
X456804D01*
X460803Y198453D01*
Y199453D01*
X459803Y200452D01*
X457804D01*
X456804Y199453D01*
X462802Y193455D02*
X466801D01*
X468800Y199453D02*
X469800Y200452D01*
X471800D01*
X472799Y199453D01*
Y198453D01*
X471800Y197453D01*
X472799Y196454D01*
Y195454D01*
X471800Y194454D01*
X469800D01*
X468800Y195454D01*
Y196454D01*
X469800Y197453D01*
X468800Y198453D01*
Y199453D01*
X469800Y197453D02*
X471800D01*
X450906Y256652D02*
Y250654D01*
X453905D01*
X454905Y251654D01*
Y255653D01*
X453905Y256652D01*
X450906D01*
X460903Y250654D02*
X456904D01*
X460903Y254653D01*
Y255653D01*
X459903Y256652D01*
X457904D01*
X456904Y255653D01*
X462902Y249655D02*
X466901D01*
X468900Y256652D02*
X472899D01*
Y255653D01*
X468900Y251654D01*
Y250654D01*
X448004Y311499D02*
Y305501D01*
X451003D01*
X452002Y306501D01*
Y310499D01*
X451003Y311499D01*
X448004D01*
X458000Y305501D02*
X454002D01*
X458000Y309500D01*
Y310499D01*
X457001Y311499D01*
X455001D01*
X454002Y310499D01*
X460000Y304501D02*
X463998D01*
X469997Y311499D02*
X467997Y310499D01*
X465998Y308500D01*
Y306501D01*
X466997Y305501D01*
X468997D01*
X469997Y306501D01*
Y307500D01*
X468997Y308500D01*
X465998D01*
X457004Y386499D02*
Y380501D01*
X460003D01*
X461002Y381501D01*
Y385499D01*
X460003Y386499D01*
X457004D01*
X467000Y380501D02*
X463002D01*
X467000Y384500D01*
Y385499D01*
X466001Y386499D01*
X464001D01*
X463002Y385499D01*
X469000Y379501D02*
X472998D01*
X478997Y386499D02*
X474998D01*
Y383500D01*
X476997Y384500D01*
X477997D01*
X478997Y383500D01*
Y381501D01*
X477997Y380501D01*
X475997D01*
X474998Y381501D01*
X451004Y425499D02*
Y419501D01*
X454003D01*
X455002Y420501D01*
Y424499D01*
X454003Y425499D01*
X451004D01*
X461000Y419501D02*
X457002D01*
X461000Y423499D01*
Y424499D01*
X460001Y425499D01*
X458001D01*
X457002Y424499D01*
X463000Y418501D02*
X466998D01*
X471997Y419501D02*
Y425499D01*
X468998Y422500D01*
X472997D01*
X448806Y481004D02*
Y475006D01*
X451805D01*
X452804Y476005D01*
Y480004D01*
X451805Y481004D01*
X448806D01*
X458802Y475006D02*
X454804D01*
X458802Y479004D01*
Y480004D01*
X457803Y481004D01*
X455803D01*
X454804Y480004D01*
X460802Y474006D02*
X464801D01*
X466800Y480004D02*
X467800Y481004D01*
X469799D01*
X470798Y480004D01*
Y479004D01*
X469799Y478005D01*
X468799D01*
X469799D01*
X470798Y477005D01*
Y476005D01*
X469799Y475006D01*
X467800D01*
X466800Y476005D01*
X448973Y536604D02*
Y530606D01*
X451972D01*
X452972Y531606D01*
Y535605D01*
X451972Y536604D01*
X448973D01*
X458970Y530606D02*
X454971D01*
X458970Y534605D01*
Y535605D01*
X457970Y536604D01*
X455971D01*
X454971Y535605D01*
X460969Y529607D02*
X464968D01*
X470966Y530606D02*
X466967D01*
X470966Y534605D01*
Y535605D01*
X469966Y536604D01*
X467967D01*
X466967Y535605D01*
X448906Y593604D02*
Y587606D01*
X451905D01*
X452905Y588606D01*
Y592605D01*
X451905Y593604D01*
X448906D01*
X458903Y587606D02*
X454904D01*
X458903Y591605D01*
Y592605D01*
X457903Y593604D01*
X455904D01*
X454904Y592605D01*
X460902Y586607D02*
X464901D01*
X466900Y587606D02*
X468900D01*
X467900D01*
Y593604D01*
X466900Y592605D01*
X395406Y200004D02*
Y194006D01*
X398405D01*
X399405Y195006D01*
Y199005D01*
X398405Y200004D01*
X395406D01*
X401404Y194006D02*
X403404D01*
X402404D01*
Y200004D01*
X401404Y199005D01*
X406403Y193007D02*
X410401D01*
X412401Y199005D02*
X413401Y200004D01*
X415400D01*
X416399Y199005D01*
Y198005D01*
X415400Y197005D01*
X416399Y196006D01*
Y195006D01*
X415400Y194006D01*
X413401D01*
X412401Y195006D01*
Y196006D01*
X413401Y197005D01*
X412401Y198005D01*
Y199005D01*
X413401Y197005D02*
X415400D01*
X395506Y256204D02*
Y250206D01*
X398505D01*
X399505Y251206D01*
Y255205D01*
X398505Y256204D01*
X395506D01*
X401504Y250206D02*
X403504D01*
X402504D01*
Y256204D01*
X401504Y255205D01*
X406503Y249207D02*
X410501D01*
X412501Y256204D02*
X416500D01*
Y255205D01*
X412501Y251206D01*
Y250206D01*
X395206Y312304D02*
Y306306D01*
X398205D01*
X399204Y307305D01*
Y311304D01*
X398205Y312304D01*
X395206D01*
X401204Y306306D02*
X403203D01*
X402203D01*
Y312304D01*
X401204Y311304D01*
X406202Y305306D02*
X410201D01*
X416199Y312304D02*
X414199Y311304D01*
X412200Y309305D01*
Y307305D01*
X413200Y306306D01*
X415199D01*
X416199Y307305D01*
Y308305D01*
X415199Y309305D01*
X412200D01*
X395806Y368504D02*
Y362506D01*
X398805D01*
X399805Y363506D01*
Y367505D01*
X398805Y368504D01*
X395806D01*
X401804Y362506D02*
X403804D01*
X402804D01*
Y368504D01*
X401804Y367505D01*
X406803Y361507D02*
X410802D01*
X416799Y368504D02*
X412801D01*
Y365505D01*
X414800Y366505D01*
X415800D01*
X416799Y365505D01*
Y363506D01*
X415800Y362506D01*
X413800D01*
X412801Y363506D01*
X395006Y424904D02*
Y418906D01*
X398005D01*
X399004Y419905D01*
Y423904D01*
X398005Y424904D01*
X395006D01*
X401004Y418906D02*
X403003D01*
X402003D01*
Y424904D01*
X401004Y423904D01*
X406002Y417906D02*
X410001D01*
X414999Y418906D02*
Y424904D01*
X412000Y421905D01*
X415999D01*
X395406Y480804D02*
Y474806D01*
X398405D01*
X399404Y475805D01*
Y479804D01*
X398405Y480804D01*
X395406D01*
X401404Y474806D02*
X403403D01*
X402403D01*
Y480804D01*
X401404Y479804D01*
X406402Y473806D02*
X410401D01*
X412400Y479804D02*
X413400Y480804D01*
X415399D01*
X416399Y479804D01*
Y478804D01*
X415399Y477805D01*
X414399D01*
X415399D01*
X416399Y476805D01*
Y475805D01*
X415399Y474806D01*
X413400D01*
X412400Y475805D01*
X395573Y536404D02*
Y530406D01*
X398572D01*
X399572Y531406D01*
Y535405D01*
X398572Y536404D01*
X395573D01*
X401571Y530406D02*
X403571D01*
X402571D01*
Y536404D01*
X401571Y535405D01*
X406570Y529407D02*
X410568D01*
X416566Y530406D02*
X412568D01*
X416566Y534405D01*
Y535405D01*
X415567Y536404D01*
X413567D01*
X412568Y535405D01*
X395506Y593404D02*
Y587406D01*
X398505D01*
X399505Y588406D01*
Y592405D01*
X398505Y593404D01*
X395506D01*
X401504Y587406D02*
X403504D01*
X402504D01*
Y593404D01*
X401504Y592405D01*
X406503Y586407D02*
X410501D01*
X412501Y587406D02*
X414500D01*
X413500D01*
Y593404D01*
X412501Y592405D01*
D13*
X24005Y599900D02*
X49595D01*
X24005Y579900D02*
X49595D01*
X24072Y542900D02*
X49662D01*
X24072Y522900D02*
X49662D01*
X23904Y487299D02*
X49495D01*
X23904Y467299D02*
X49495D01*
X23504Y411399D02*
X49095D01*
X23504Y431399D02*
X49095D01*
X24305Y375000D02*
X49895D01*
X24305Y355000D02*
X49895D01*
X23704Y318799D02*
X49295D01*
X23704Y298799D02*
X49295D01*
X24005Y262700D02*
X49595D01*
X24005Y242700D02*
X49595D01*
X23305Y209800D02*
X48895D01*
X23305Y189800D02*
X48895D01*
X127705Y600100D02*
X153295D01*
X127705Y580100D02*
X153295D01*
X127772Y543100D02*
X153362D01*
X127772Y523100D02*
X153362D01*
X127604Y487499D02*
X153195D01*
X127604Y467499D02*
X153195D01*
X127204Y431599D02*
X152795D01*
X127204Y411599D02*
X152795D01*
X128005Y375200D02*
X153595D01*
X128005Y355200D02*
X153595D01*
X127404Y318999D02*
X152995D01*
X127404Y298999D02*
X152995D01*
X127705Y242900D02*
X153295D01*
X127705Y262900D02*
X153295D01*
X84605Y219200D02*
X110195D01*
X84605Y239200D02*
X110195D01*
D14*
X553792Y572721D02*
Y570022D01*
X552443Y571372D02*
X555142D01*
X396292Y572421D02*
Y569722D01*
X394942Y571072D02*
X397642D01*
X553659Y179321D02*
Y176622D01*
X552310Y177972D02*
X555009D01*
X553792Y235521D02*
Y232822D01*
X552443Y234172D02*
X555142D01*
X553491Y291620D02*
Y288921D01*
X552142Y290271D02*
X554841D01*
X554092Y347821D02*
Y345122D01*
X552742Y346472D02*
X555442D01*
X553291Y404220D02*
Y401521D01*
X551942Y402871D02*
X554641D01*
X553691Y460120D02*
Y457421D01*
X552342Y458771D02*
X555041D01*
X553859Y515721D02*
Y513022D01*
X552509Y514372D02*
X555208D01*
X396159Y179021D02*
Y176322D01*
X394810Y177672D02*
X397509D01*
X396292Y235221D02*
Y232522D01*
X394942Y233872D02*
X397642D01*
X395991Y291320D02*
Y288621D01*
X394642Y289971D02*
X397341D01*
X396592Y347521D02*
Y344822D01*
X395243Y346172D02*
X397942D01*
X395791Y403921D02*
Y401221D01*
X394442Y402571D02*
X397141D01*
X396191Y459821D02*
Y457121D01*
X394842Y458471D02*
X397541D01*
X396359Y515421D02*
Y512722D01*
X395009Y514072D02*
X397709D01*
D15*
X14866Y121832D02*
X14199Y122499D01*
X12867D01*
X12200Y121832D01*
Y119167D01*
X12867Y118500D01*
X14199D01*
X14866Y119167D01*
Y120499D01*
X13533D01*
X16199Y118500D02*
Y122499D01*
X18865Y118500D01*
Y122499D01*
X20197D02*
Y118500D01*
X22197D01*
X22863Y119167D01*
Y121832D01*
X22197Y122499D01*
X20197D01*
X14465Y112232D02*
X13798Y112899D01*
X12465D01*
X11799Y112232D01*
Y109566D01*
X12465Y108900D01*
X13798D01*
X14465Y109566D01*
Y110899D01*
X13132D01*
X15797Y108900D02*
Y112899D01*
X18463Y108900D01*
Y112899D01*
X19796D02*
Y108900D01*
X21795D01*
X22462Y109566D01*
Y112232D01*
X21795Y112899D01*
X19796D01*
X212466Y122299D02*
X209800D01*
Y120299D01*
X211133Y120966D01*
X211799D01*
X212466Y120299D01*
Y118966D01*
X211799Y118300D01*
X210466D01*
X209800Y118966D01*
X213799Y122299D02*
Y119633D01*
X215132Y118300D01*
X216464Y119633D01*
Y122299D01*
M02*
