G04*
G04 #@! TF.GenerationSoftware,Altium Limited,Altium Designer,24.4.1 (13)*
G04*
G04 Layer_Physical_Order=1*
G04 Layer_Color=255*
%FSLAX25Y25*%
%MOIN*%
G70*
G04*
G04 #@! TF.SameCoordinates,870DF38A-AD74-42CB-99D2-8A797F58AB83*
G04*
G04*
G04 #@! TF.FilePolarity,Positive*
G04*
G01*
G75*
%ADD12C,0.01000*%
%ADD16C,0.38976*%
%ADD18R,0.05512X0.05512*%
%ADD19C,0.05512*%
%ADD22R,0.05512X0.05512*%
%ADD32C,0.01181*%
%ADD33C,0.02362*%
%ADD34C,0.03937*%
%ADD35O,0.10630X0.11811*%
%ADD36C,0.04961*%
%ADD37R,0.04961X0.04961*%
%ADD38C,0.05906*%
%ADD39C,0.07087*%
G04:AMPARAMS|DCode=40|XSize=70.87mil|YSize=70.87mil|CornerRadius=17.72mil|HoleSize=0mil|Usage=FLASHONLY|Rotation=270.000|XOffset=0mil|YOffset=0mil|HoleType=Round|Shape=RoundedRectangle|*
%AMROUNDEDRECTD40*
21,1,0.07087,0.03543,0,0,270.0*
21,1,0.03543,0.07087,0,0,270.0*
1,1,0.03543,-0.01772,-0.01772*
1,1,0.03543,-0.01772,0.01772*
1,1,0.03543,0.01772,0.01772*
1,1,0.03543,0.01772,-0.01772*
%
%ADD40ROUNDEDRECTD40*%
G04:AMPARAMS|DCode=41|XSize=59.06mil|YSize=59.06mil|CornerRadius=14.76mil|HoleSize=0mil|Usage=FLASHONLY|Rotation=180.000|XOffset=0mil|YOffset=0mil|HoleType=Round|Shape=RoundedRectangle|*
%AMROUNDEDRECTD41*
21,1,0.05906,0.02953,0,0,180.0*
21,1,0.02953,0.05906,0,0,180.0*
1,1,0.02953,-0.01476,0.01476*
1,1,0.02953,0.01476,0.01476*
1,1,0.02953,0.01476,-0.01476*
1,1,0.02953,-0.01476,-0.01476*
%
%ADD41ROUNDEDRECTD41*%
%ADD42C,0.05984*%
G04:AMPARAMS|DCode=43|XSize=59.84mil|YSize=59.84mil|CornerRadius=14.96mil|HoleSize=0mil|Usage=FLASHONLY|Rotation=270.000|XOffset=0mil|YOffset=0mil|HoleType=Round|Shape=RoundedRectangle|*
%AMROUNDEDRECTD43*
21,1,0.05984,0.02992,0,0,270.0*
21,1,0.02992,0.05984,0,0,270.0*
1,1,0.02992,-0.01496,-0.01496*
1,1,0.02992,-0.01496,0.01496*
1,1,0.02992,0.01496,0.01496*
1,1,0.02992,0.01496,-0.01496*
%
%ADD43ROUNDEDRECTD43*%
%ADD44C,0.06000*%
%ADD45C,0.05000*%
%ADD46C,0.04724*%
D12*
X191400Y110900D02*
X191750D01*
D16*
X367600Y346400D02*
D03*
X524700Y571100D02*
D03*
X367300Y571300D02*
D03*
X524199Y402599D02*
D03*
X525100Y121300D02*
D03*
X524567Y177700D02*
D03*
X524767Y514100D02*
D03*
X524599Y458499D02*
D03*
X524399Y289999D02*
D03*
X524700Y233900D02*
D03*
X525000Y346200D02*
D03*
X525100Y39500D02*
D03*
X367300Y39600D02*
D03*
X367167Y177900D02*
D03*
X367300Y234100D02*
D03*
X366999Y290199D02*
D03*
X366799Y402799D02*
D03*
X367199Y458699D02*
D03*
X367367Y514300D02*
D03*
D18*
X199100Y87033D02*
D03*
X216500D02*
D03*
X95000Y86966D02*
D03*
X112500Y87000D02*
D03*
X130100Y86900D02*
D03*
X164600Y86933D02*
D03*
X147500D02*
D03*
X181600Y87000D02*
D03*
X216200Y130067D02*
D03*
X92400Y130267D02*
D03*
X109500Y130467D02*
D03*
X126900D02*
D03*
X144000D02*
D03*
X161400Y130567D02*
D03*
X179300Y130767D02*
D03*
X196800Y131900D02*
D03*
D19*
X199100Y26167D02*
D03*
X216500D02*
D03*
X95000Y26100D02*
D03*
X112500Y26134D02*
D03*
X130100Y26034D02*
D03*
X164600Y26067D02*
D03*
X147500D02*
D03*
X181600Y26134D02*
D03*
X216200Y190933D02*
D03*
X224133Y595500D02*
D03*
X58300Y595100D02*
D03*
X92400Y191133D02*
D03*
X109500Y191333D02*
D03*
X126900D02*
D03*
X144000D02*
D03*
X161400Y191433D02*
D03*
X179300Y191633D02*
D03*
X196800Y192766D02*
D03*
X224266Y204100D02*
D03*
X224133Y258300D02*
D03*
X223832Y314399D02*
D03*
X224433Y370600D02*
D03*
X223632Y426999D02*
D03*
X224032Y482899D02*
D03*
X224200Y538500D02*
D03*
X58000Y204600D02*
D03*
X58300Y257900D02*
D03*
X57999Y313999D02*
D03*
X58600Y370200D02*
D03*
X57799Y426599D02*
D03*
X58199Y482499D02*
D03*
X58367Y538100D02*
D03*
D22*
X163267Y595500D02*
D03*
X119166Y595100D02*
D03*
X163400Y204100D02*
D03*
X163267Y258300D02*
D03*
X162966Y314399D02*
D03*
X163567Y370600D02*
D03*
X162766Y426999D02*
D03*
X163166Y482899D02*
D03*
X163334Y538500D02*
D03*
X118866Y204600D02*
D03*
X119166Y257900D02*
D03*
X118866Y313999D02*
D03*
X119466Y370200D02*
D03*
X118666Y426599D02*
D03*
X119065Y482499D02*
D03*
X119233Y538100D02*
D03*
D32*
X430249Y407794D02*
X430249Y407791D01*
X430617Y182892D02*
X430618Y182812D01*
X21100Y204800D02*
X41200Y184700D01*
Y152600D02*
X46200Y147600D01*
X41200Y152600D02*
Y184700D01*
X46200Y104800D02*
Y147600D01*
X155298Y126425D02*
Y127236D01*
X115644Y159259D02*
X123275D01*
X155298Y127236D01*
Y126425D02*
X155731Y125992D01*
Y120369D02*
Y125992D01*
X160645Y115455D02*
X176845D01*
X155731Y120369D02*
X160645Y115455D01*
X216943Y369513D02*
X235830Y388400D01*
X216943Y286957D02*
Y369513D01*
Y286957D02*
X235900Y268000D01*
X214580Y285520D02*
Y406580D01*
X233000Y184467D02*
Y267100D01*
X214580Y285520D02*
X233000Y267100D01*
X235830Y388400D02*
X236400D01*
X231817Y433817D02*
X236400Y438400D01*
X211700Y423766D02*
X221751Y433817D01*
X231817D01*
X211700Y284200D02*
Y423766D01*
X214580Y406580D02*
X236400Y428400D01*
X211700Y284200D02*
X230000Y265900D01*
X407000Y63600D02*
X411000Y67600D01*
Y173733D02*
X414968Y177701D01*
X411000Y67600D02*
Y173733D01*
X144000Y130467D02*
X144784Y129683D01*
X147836D02*
X151400Y126119D01*
Y120900D02*
Y126119D01*
X144784Y129683D02*
X147836D01*
X194967Y130067D02*
X196800Y131900D01*
X181400Y120900D02*
X190567Y130067D01*
X194967D01*
X71400Y79600D02*
X95300D01*
X46200Y104800D02*
X71400Y79600D01*
X75300Y191706D02*
X140673Y126333D01*
X21699Y482299D02*
X75300Y428699D01*
Y191706D02*
Y428699D01*
X78542Y196361D02*
X115644Y159259D01*
X78542Y196361D02*
Y481225D01*
X21867Y537900D02*
X78542Y481225D01*
X66000Y95700D02*
Y269299D01*
X21499Y313799D02*
X66000Y269299D01*
X55665Y103465D02*
X55731Y103531D01*
X55600Y103400D02*
X55665Y103465D01*
X55731Y103531D02*
Y163139D01*
X47242Y171628D02*
X55731Y163139D01*
X47242Y171628D02*
Y232258D01*
X21800Y257700D02*
X47242Y232258D01*
X75733Y87033D02*
Y125167D01*
Y87033D02*
X75800Y86966D01*
X95300Y79600D02*
X121400Y105700D01*
Y110900D01*
X69000Y131900D02*
X75733Y125167D01*
X69000Y131900D02*
Y323100D01*
X22100Y370000D02*
X69000Y323100D01*
X136600Y93531D02*
Y111825D01*
X131855Y116569D02*
X136600Y111825D01*
X89606Y116569D02*
X131855D01*
X85731Y120445D02*
X89606Y116569D01*
X71800Y136625D02*
X85731Y122694D01*
X71800Y136625D02*
Y375899D01*
X85731Y120445D02*
Y122694D01*
X21299Y426399D02*
X71800Y375899D01*
X147069Y93531D02*
Y121355D01*
X142092Y126333D02*
X147069Y121355D01*
Y93531D02*
X147500Y93100D01*
X140673Y126333D02*
X142092D01*
X176845Y115455D02*
X181400Y110900D01*
X159276Y125231D02*
X173194D01*
X175731Y120344D02*
X179950Y116124D01*
X175731Y120344D02*
Y122694D01*
X179950Y116124D02*
X186176D01*
X173194Y125231D02*
X175731Y122694D01*
X123589Y162611D02*
X157266Y128934D01*
Y127240D02*
Y128934D01*
X115076Y162611D02*
X123589D01*
X157266Y127240D02*
X159276Y125231D01*
X86258Y191429D02*
Y542542D01*
X33900Y594900D02*
X86258Y542542D01*
X21800Y594900D02*
X33900D01*
X186176Y116124D02*
X191400Y110900D01*
X86258Y191429D02*
X115076Y162611D01*
X256400Y92492D02*
Y339500D01*
X237093Y358807D02*
X256400Y339500D01*
X169400Y91800D02*
X255708D01*
X256400Y92492D01*
X247484Y94413D02*
X252200Y99129D01*
X236400Y351700D02*
X252200Y335900D01*
Y99129D02*
Y335900D01*
X236400Y341700D02*
X248700Y329400D01*
Y100384D02*
Y329400D01*
X246092Y97776D02*
X248700Y100384D01*
X236400Y331700D02*
X246000Y322100D01*
Y103301D02*
Y322100D01*
X243837Y101138D02*
X246000Y103301D01*
X220500Y355800D02*
X236400Y371700D01*
X219305Y312524D02*
Y316275D01*
X220500Y287700D02*
X238900Y269300D01*
X220500Y287700D02*
Y311329D01*
X219305Y316275D02*
X220500Y317470D01*
Y355800D01*
X219305Y312524D02*
X220500Y311329D01*
X151400Y109800D02*
Y110900D01*
Y109800D02*
X169400Y91800D01*
X181400Y110900D02*
X191162Y101138D01*
X243837D01*
X183324Y97776D02*
X246092D01*
X171400Y109700D02*
Y110900D01*
Y109700D02*
X183324Y97776D01*
X161400Y110065D02*
X177052Y94413D01*
X161400Y110065D02*
Y110900D01*
X177052Y94413D02*
X247484D01*
X191750Y110900D02*
X198150Y104500D01*
X430249Y407791D02*
X430617Y182892D01*
X430618Y182812D02*
X431800Y113500D01*
X430100Y556101D02*
X430249Y407794D01*
X198150Y104500D02*
X242316D01*
X430094Y556108D02*
X430100Y556101D01*
X415101Y571101D02*
X430094Y556108D01*
X243700Y105884D02*
Y315200D01*
X242316Y104500D02*
X243700Y105884D01*
X415100Y171408D02*
X419944Y176252D01*
X415100Y90400D02*
Y171408D01*
X420300Y97700D02*
Y173523D01*
X424400Y177623D01*
X426600Y106000D02*
Y502668D01*
X426400Y105800D02*
X426600Y106000D01*
X415168Y514101D02*
X426600Y502668D01*
X236400Y361700D02*
X237093Y361007D01*
Y358807D02*
Y361007D01*
X106070Y126035D02*
X116265D01*
X121400Y120900D01*
X92400Y130267D02*
X101839D01*
X106070Y126035D01*
X405200Y571200D02*
Y604300D01*
X405101Y571101D02*
X405200Y571200D01*
Y604300D02*
X405300Y604400D01*
X395519Y270719D02*
X414800Y290000D01*
X395519Y75981D02*
Y270719D01*
X389500Y82000D02*
Y310172D01*
X415401Y336072D01*
X16200Y153400D02*
X16200D01*
X236400Y321700D02*
X237206Y320895D01*
X237200Y321700D02*
X243700Y315200D01*
X424400Y177623D02*
Y449100D01*
X401700Y69500D02*
Y70533D01*
X400200Y72033D02*
X401700Y70533D01*
X400200Y72033D02*
Y219000D01*
X415101Y233901D01*
X419944Y176252D02*
Y397256D01*
X414600Y402600D02*
X419944Y397256D01*
X395519Y75981D02*
X396000Y75500D01*
X415401Y336072D02*
Y346201D01*
X415000Y458500D02*
X424400Y449100D01*
X161400Y130567D02*
X167133Y136300D01*
X180800D01*
X230000Y185500D01*
Y265900D01*
X179300Y130767D02*
X233000Y184467D01*
X235900Y183100D02*
Y268000D01*
X196800Y144000D02*
X235900Y183100D01*
X196800Y131900D02*
Y144000D01*
X238900Y152767D02*
Y269300D01*
X216200Y130067D02*
X238900Y152767D01*
X236400Y321700D02*
X237200D01*
X201400Y120900D02*
X201900Y121400D01*
Y142000D01*
X201400Y110900D02*
Y120900D01*
X201900Y142000D02*
X202400Y142500D01*
X404734Y146734D02*
Y177467D01*
X404500Y146500D02*
X404734Y146734D01*
Y177467D02*
X404968Y177701D01*
X109400Y130467D02*
X116933D01*
X121280Y126120D01*
X405101Y233901D02*
Y263400D01*
X131966Y130334D02*
X141400Y120900D01*
X126800Y130334D02*
X131966D01*
X404600Y319487D02*
X404800Y319287D01*
Y290000D02*
Y319287D01*
X402900Y349255D02*
Y374400D01*
X405401Y346201D02*
Y346754D01*
X402900Y349255D02*
X405401Y346754D01*
X228531Y441731D02*
X230555D01*
X227800Y441000D02*
X228531Y441731D01*
X230555D02*
X231807Y442983D01*
X248384D01*
X249667Y441700D01*
X250700D01*
X404600Y402600D02*
Y430272D01*
X121280Y126120D02*
X127458D01*
X131400Y122178D01*
Y120900D02*
Y122178D01*
X177135Y128602D02*
X179300Y130767D01*
X405000Y458500D02*
Y487999D01*
X405168Y514101D02*
Y543600D01*
D33*
X13500Y351500D02*
Y408600D01*
X21299Y416399D01*
X13500Y408600D02*
Y436500D01*
Y519600D02*
Y576600D01*
Y436500D02*
Y463999D01*
Y519600D01*
X31400Y110900D02*
X74500Y67800D01*
X235327D01*
X260700Y93173D02*
Y444600D01*
X236400Y448400D02*
X256900D01*
X260700Y444600D01*
X235327Y67800D02*
X260700Y93173D01*
X13500Y295499D02*
X21499Y303499D01*
X13500Y239400D02*
Y295499D01*
Y351500D01*
X21499Y303499D02*
Y303799D01*
X13500Y202400D02*
Y239400D01*
Y351500D02*
X21800Y359800D01*
X13500Y239400D02*
X21800Y247700D01*
X13500Y202400D02*
X21100Y194800D01*
X13500Y576600D02*
X21800Y584900D01*
X13399Y463999D02*
X21699Y472299D01*
X13567Y519600D02*
X21867Y527900D01*
X8300Y441700D02*
X13500Y436500D01*
X165300Y465600D02*
X179500D01*
D34*
X155399Y463394D02*
Y472499D01*
Y463394D02*
X191300Y427493D01*
X180200Y233700D02*
Y357894D01*
X144787Y198287D02*
X180200Y233700D01*
X144787Y193234D02*
Y198287D01*
X144301Y192748D02*
X144787Y193234D01*
X144301Y191634D02*
Y192748D01*
X144000Y191333D02*
X144301Y191634D01*
X172000Y236433D02*
Y301693D01*
X126900Y191333D02*
X172000Y236433D01*
X315699Y308607D02*
X316753Y309661D01*
X314419Y307327D02*
X315699Y308607D01*
X185600Y215633D02*
Y385999D01*
X161400Y191433D02*
X185600Y215633D01*
X154999Y416599D02*
X185600Y385999D01*
X155199Y303999D02*
X169694D01*
X172000Y301693D01*
X119166Y257900D02*
Y595100D01*
X572601Y234201D02*
Y571401D01*
X435817Y363738D02*
Y576233D01*
X204100Y201700D02*
X214566Y191234D01*
X204100Y201700D02*
Y536500D01*
X215899Y191234D02*
X216200Y190933D01*
X214566Y191234D02*
X215899D01*
X177894Y360200D02*
X180200Y357894D01*
X155800Y360200D02*
X177894D01*
X191300Y203633D02*
Y427493D01*
X179300Y191633D02*
X191300Y203633D01*
X155567Y528100D02*
X196800Y486867D01*
Y192766D02*
Y486867D01*
X155500Y585100D02*
X204100Y536500D01*
X155500Y234200D02*
Y247900D01*
X124591Y200615D02*
Y203291D01*
X155500Y234200D01*
X109500Y191333D02*
X109801Y191634D01*
X115610D01*
X124591Y200615D01*
X119166Y204900D02*
Y257900D01*
X314586Y195027D02*
X315867Y196308D01*
X305490Y189402D02*
X311115Y195027D01*
X315867Y196308D02*
X345288D01*
X305490Y165139D02*
X311329Y159300D01*
X345288Y196308D02*
X363696Y177900D01*
X367167D01*
X305490Y165139D02*
Y189402D01*
X311115Y195027D02*
X314586D01*
X306612Y153600D02*
X312312Y159300D01*
X290300Y153600D02*
X306612D01*
X312312Y159300D02*
X315867D01*
X314719Y251227D02*
X316000Y252508D01*
X312770Y251227D02*
X314719D01*
X305500Y222698D02*
X310352Y217846D01*
X363998Y234100D02*
X367300D01*
X305500Y243957D02*
X312770Y251227D01*
X316676Y251832D02*
X346266D01*
X310352Y217846D02*
X311843D01*
X346266Y251832D02*
X363998Y234100D01*
X305500Y222698D02*
Y243957D01*
X314189Y215500D02*
X316000D01*
Y252508D02*
X316676Y251832D01*
X311843Y217846D02*
X314189Y215500D01*
X305500Y301787D02*
X311040Y307327D01*
X365728Y290199D02*
X366999D01*
X316753Y309661D02*
X346266D01*
X365728Y290199D01*
X311040Y307327D02*
X314419D01*
X305500Y280527D02*
X314428Y271599D01*
X315699D01*
X305500Y280527D02*
Y301787D01*
X306500Y337600D02*
Y355008D01*
X316300Y364808D01*
X306500Y337600D02*
X316300Y327800D01*
X346818Y421207D02*
X365226Y402799D01*
X306052Y392073D02*
Y413333D01*
X365226Y402799D02*
X366799D01*
X313926Y421207D02*
X346818D01*
X313926Y384199D02*
X315499D01*
X306052Y392073D02*
X313926Y384199D01*
X306052Y413333D02*
X313926Y421207D01*
X314619Y475827D02*
X315899Y477107D01*
X309844Y475827D02*
X314619D01*
X303251Y469233D02*
X309844Y475827D01*
Y441380D02*
X314619D01*
X344017Y477107D02*
X362425Y458699D01*
X303251Y447973D02*
X309844Y441380D01*
X303251Y447973D02*
Y469233D01*
X314619Y441380D02*
X315899Y440099D01*
Y477107D02*
X344017D01*
X362425Y458699D02*
X367199D01*
X314786Y531427D02*
X316067Y532708D01*
X312867Y531427D02*
X314786D01*
X311110Y498738D02*
X311218D01*
X314256Y495700D01*
X347040Y532708D02*
X365448Y514300D01*
X306274Y503574D02*
X311110Y498738D01*
X306274Y503574D02*
Y524834D01*
X365448Y514300D02*
X367367D01*
X306274Y524834D02*
X312867Y531427D01*
X314256Y495700D02*
X316067D01*
Y532708D02*
X347040D01*
X306300Y580008D02*
X316000Y589708D01*
X306300Y562400D02*
Y580008D01*
Y562400D02*
X316000Y552700D01*
X315867Y177804D02*
X367300Y126371D01*
Y39600D02*
Y126371D01*
X8300Y161300D02*
Y411700D01*
Y161300D02*
X16200Y153400D01*
X279116Y300733D02*
Y356634D01*
X435817Y239034D02*
Y295199D01*
Y182966D02*
Y239034D01*
X525100Y39500D02*
Y121300D01*
X279000Y190200D02*
X279058Y190258D01*
Y244576D02*
X279116Y244634D01*
X279058Y190258D02*
Y244576D01*
X278966Y245834D02*
Y300583D01*
X278816Y300733D02*
X278966Y300583D01*
Y245834D02*
X279400Y245400D01*
X279116Y356634D02*
X279416Y356934D01*
X279016Y357334D02*
X279416Y356934D01*
X278616Y413333D02*
X279016Y412933D01*
Y357334D02*
Y412933D01*
X278816Y469033D02*
X279016Y469233D01*
X278816Y413533D02*
Y469033D01*
X278616Y413333D02*
X278816Y413533D01*
X279099Y524750D02*
X279183Y524834D01*
X279099Y469317D02*
Y524750D01*
X279016Y469233D02*
X279099Y469317D01*
X279150Y524867D02*
Y581800D01*
X279116Y581834D02*
X279150Y581800D01*
Y524867D02*
X279183Y524834D01*
X572284Y177684D02*
X572601Y178001D01*
X572284Y99584D02*
Y177684D01*
X572100Y99400D02*
X572284Y99584D01*
X572601Y178001D02*
Y234201D01*
X435817Y239034D02*
X435884Y239100D01*
X435517Y295133D02*
X435583Y295199D01*
Y363700D01*
X435780D02*
X435817Y363738D01*
X316300Y364808D02*
X349192D01*
X367600Y346400D01*
X435317Y407733D02*
X435383Y407799D01*
X92400Y191133D02*
X112400Y211133D01*
Y224200D01*
X31400Y120900D02*
Y151979D01*
X16200Y167180D02*
X31400Y151979D01*
X316000Y589708D02*
X348892D01*
X367300Y571300D01*
X435717Y463633D02*
X435783Y463699D01*
X435884Y519234D02*
X435951Y519300D01*
X118866Y204600D02*
X119166Y204900D01*
X435751Y182900D02*
X497351Y121300D01*
X525100D01*
X435817Y576233D02*
X435884Y576300D01*
X435751Y182900D02*
X435817Y182966D01*
D35*
X315867Y159300D02*
D03*
Y177804D02*
D03*
Y196308D02*
D03*
X316000Y215500D02*
D03*
Y234004D02*
D03*
Y252508D02*
D03*
X315699Y271599D02*
D03*
Y290103D02*
D03*
Y308607D02*
D03*
X316300Y327800D02*
D03*
Y346304D02*
D03*
Y364808D02*
D03*
X315499Y384199D02*
D03*
Y402703D02*
D03*
Y421207D02*
D03*
X315899Y440099D02*
D03*
Y458603D02*
D03*
Y477107D02*
D03*
X316067Y495700D02*
D03*
Y514204D02*
D03*
Y532708D02*
D03*
X316000Y552700D02*
D03*
Y571204D02*
D03*
Y589708D02*
D03*
D36*
X21800Y584900D02*
D03*
Y594900D02*
D03*
X51800D02*
D03*
X21867Y527900D02*
D03*
Y537900D02*
D03*
X51867D02*
D03*
X21699Y472299D02*
D03*
Y482299D02*
D03*
X51699D02*
D03*
X51299Y426399D02*
D03*
X21299D02*
D03*
Y416399D02*
D03*
X22100Y360000D02*
D03*
Y370000D02*
D03*
X52100D02*
D03*
X21499Y303799D02*
D03*
Y313799D02*
D03*
X51499D02*
D03*
X21800Y247700D02*
D03*
Y257700D02*
D03*
X51800D02*
D03*
X21100Y194800D02*
D03*
Y204800D02*
D03*
X51100D02*
D03*
X125500Y585100D02*
D03*
Y595100D02*
D03*
X155500D02*
D03*
X125567Y528100D02*
D03*
Y538100D02*
D03*
X155567D02*
D03*
X125399Y472499D02*
D03*
Y482499D02*
D03*
X155399D02*
D03*
X124999Y416599D02*
D03*
Y426599D02*
D03*
X154999D02*
D03*
X125800Y360200D02*
D03*
Y370200D02*
D03*
X155800D02*
D03*
X125199Y303999D02*
D03*
Y313999D02*
D03*
X155199D02*
D03*
X155500Y257900D02*
D03*
X125500D02*
D03*
Y247900D02*
D03*
X112400Y234200D02*
D03*
X82400D02*
D03*
Y224200D02*
D03*
D37*
X51800Y584900D02*
D03*
X51867Y527900D02*
D03*
X51699Y472299D02*
D03*
X51299Y416399D02*
D03*
X52100Y360000D02*
D03*
X51499Y303799D02*
D03*
X51800Y247700D02*
D03*
X51100Y194800D02*
D03*
X155500Y585100D02*
D03*
X155567Y528100D02*
D03*
X155399Y472499D02*
D03*
X154999Y416599D02*
D03*
X155800Y360200D02*
D03*
X155199Y303999D02*
D03*
X155500Y247900D02*
D03*
X112400Y224200D02*
D03*
D38*
X572601Y571401D02*
D03*
X562601D02*
D03*
X415101Y571101D02*
D03*
X405101D02*
D03*
X562468Y178001D02*
D03*
X572468D02*
D03*
X562601Y234201D02*
D03*
X572601D02*
D03*
X562300Y290300D02*
D03*
X572300D02*
D03*
X562901Y346501D02*
D03*
X572901D02*
D03*
X562100Y402900D02*
D03*
X572100D02*
D03*
X562500Y458800D02*
D03*
X572500D02*
D03*
X562668Y514401D02*
D03*
X572668D02*
D03*
X404968Y177701D02*
D03*
X414968D02*
D03*
X405101Y233901D02*
D03*
X415101D02*
D03*
X404800Y290000D02*
D03*
X414800D02*
D03*
X405401Y346201D02*
D03*
X415401D02*
D03*
X404600Y402600D02*
D03*
X414600D02*
D03*
X405000Y458500D02*
D03*
X415000D02*
D03*
X405168Y514101D02*
D03*
X415168D02*
D03*
X61400Y110900D02*
D03*
Y120900D02*
D03*
X81400Y110900D02*
D03*
Y120900D02*
D03*
X91400Y110900D02*
D03*
Y120900D02*
D03*
X101400Y110900D02*
D03*
Y120900D02*
D03*
X111400Y110900D02*
D03*
Y120900D02*
D03*
X131400Y110900D02*
D03*
Y120900D02*
D03*
X151400Y110900D02*
D03*
Y120900D02*
D03*
X171400Y110900D02*
D03*
Y120900D02*
D03*
X201400Y110900D02*
D03*
X191400Y120900D02*
D03*
Y110900D02*
D03*
X181400Y120900D02*
D03*
Y110900D02*
D03*
X161400Y120900D02*
D03*
Y110900D02*
D03*
X141400Y120900D02*
D03*
Y110900D02*
D03*
X121400Y120900D02*
D03*
Y110900D02*
D03*
X71400Y120900D02*
D03*
Y110900D02*
D03*
X51400Y120900D02*
D03*
Y110900D02*
D03*
X41400Y120900D02*
D03*
X31400D02*
D03*
X41400Y110900D02*
D03*
X31400D02*
D03*
D39*
X435884Y576300D02*
D03*
X490116D02*
D03*
X16200Y153400D02*
D03*
X15600Y38400D02*
D03*
X489615Y407799D02*
D03*
X435383D02*
D03*
X489983Y182900D02*
D03*
X435751D02*
D03*
X490116Y239100D02*
D03*
X435884D02*
D03*
X442668Y371700D02*
D03*
X496900D02*
D03*
X489816Y295199D02*
D03*
X435583D02*
D03*
X490183Y519300D02*
D03*
X435951D02*
D03*
X490016Y463699D02*
D03*
X435783D02*
D03*
D40*
X16200Y167180D02*
D03*
X15600Y52179D02*
D03*
D41*
X201400Y120900D02*
D03*
D42*
X236400Y418400D02*
D03*
Y458400D02*
D03*
Y468400D02*
D03*
Y448400D02*
D03*
Y438400D02*
D03*
Y428400D02*
D03*
Y408400D02*
D03*
Y398400D02*
D03*
Y388400D02*
D03*
Y301700D02*
D03*
Y311700D02*
D03*
Y351700D02*
D03*
Y361700D02*
D03*
Y341700D02*
D03*
Y331700D02*
D03*
Y321700D02*
D03*
X8300Y481700D02*
D03*
Y471700D02*
D03*
Y431700D02*
D03*
Y421700D02*
D03*
Y441700D02*
D03*
Y451700D02*
D03*
Y461700D02*
D03*
D43*
X236400Y478400D02*
D03*
Y371700D02*
D03*
X8300Y411700D02*
D03*
D44*
X465600Y340780D02*
D03*
X579773Y620307D02*
D03*
Y14008D02*
D03*
X16781D02*
D03*
Y616370D02*
D03*
X268750Y340780D02*
D03*
D45*
X66000Y95700D02*
D03*
X55665Y103465D02*
D03*
X75800Y86966D02*
D03*
X136600Y93531D02*
D03*
X147500Y93100D02*
D03*
D46*
X415100Y90400D02*
D03*
X420300Y97700D02*
D03*
X426400Y105800D02*
D03*
X431800Y113500D02*
D03*
X405300Y604400D02*
D03*
X572100Y99400D02*
D03*
X407000Y63600D02*
D03*
X279000Y190200D02*
D03*
X279116Y244634D02*
D03*
X278816Y300733D02*
D03*
X279416Y356934D02*
D03*
X278616Y413333D02*
D03*
X279016Y469233D02*
D03*
X279183Y524834D02*
D03*
X279116Y581834D02*
D03*
X396000Y75500D02*
D03*
X401700Y69500D02*
D03*
X389500Y82000D02*
D03*
X290300Y153600D02*
D03*
X202400Y142500D02*
D03*
X404500Y146500D02*
D03*
X405101Y263400D02*
D03*
X404600Y319487D02*
D03*
X402900Y374400D02*
D03*
X227800Y441000D02*
D03*
X250700Y441700D02*
D03*
X404600Y430272D02*
D03*
X179500Y465600D02*
D03*
X165300D02*
D03*
X405000Y487999D02*
D03*
X405168Y543600D02*
D03*
M02*
