G04*
G04 #@! TF.GenerationSoftware,Altium Limited,Altium Designer,24.4.1 (13)*
G04*
G04 Layer_Color=16711935*
%FSLAX25Y25*%
%MOIN*%
G70*
G04*
G04 #@! TF.SameCoordinates,870DF38A-AD74-42CB-99D2-8A797F58AB83*
G04*
G04*
G04 #@! TF.FilePolarity,Positive*
G04*
G01*
G75*
%ADD52C,0.00050*%
D52*
X471309Y340780D02*
X471222Y341771D01*
X470964Y342732D01*
X470544Y343634D01*
X469973Y344449D01*
X469269Y345153D01*
X468454Y345724D01*
X467552Y346144D01*
X466591Y346402D01*
X465600Y346488D01*
X464609Y346402D01*
X463648Y346144D01*
X462746Y345724D01*
X461931Y345153D01*
X461227Y344449D01*
X460656Y343634D01*
X460236Y342732D01*
X459978Y341771D01*
X459891Y340780D01*
X459978Y339788D01*
X460236Y338827D01*
X460656Y337925D01*
X461227Y337110D01*
X461931Y336407D01*
X462746Y335836D01*
X463648Y335415D01*
X464609Y335158D01*
X465600Y335071D01*
X466591Y335158D01*
X467552Y335415D01*
X468454Y335836D01*
X469269Y336407D01*
X469973Y337110D01*
X470544Y337925D01*
X470964Y338827D01*
X471222Y339788D01*
X471309Y340780D01*
X274458D02*
X274372Y341771D01*
X274114Y342732D01*
X273693Y343634D01*
X273123Y344449D01*
X272419Y345153D01*
X271604Y345724D01*
X270702Y346144D01*
X269741Y346402D01*
X268750Y346488D01*
X267758Y346402D01*
X266797Y346144D01*
X265895Y345724D01*
X265080Y345153D01*
X264376Y344449D01*
X263806Y343634D01*
X263385Y342732D01*
X263128Y341771D01*
X263041Y340780D01*
X263128Y339788D01*
X263385Y338827D01*
X263806Y337925D01*
X264376Y337110D01*
X265080Y336407D01*
X265895Y335836D01*
X266797Y335415D01*
X267758Y335158D01*
X268750Y335071D01*
X269741Y335158D01*
X270702Y335415D01*
X271604Y335836D01*
X272419Y336407D01*
X273123Y337110D01*
X273693Y337925D01*
X274114Y338827D01*
X274372Y339788D01*
X274458Y340780D01*
X585482Y620307D02*
X585395Y621299D01*
X585138Y622260D01*
X584717Y623162D01*
X584146Y623977D01*
X583443Y624680D01*
X582627Y625251D01*
X581726Y625672D01*
X580764Y625929D01*
X579773Y626016D01*
X578782Y625929D01*
X577821Y625672D01*
X576919Y625251D01*
X576104Y624680D01*
X575400Y623977D01*
X574829Y623162D01*
X574409Y622260D01*
X574151Y621299D01*
X574064Y620307D01*
X574151Y619316D01*
X574409Y618355D01*
X574829Y617453D01*
X575400Y616638D01*
X576104Y615934D01*
X576919Y615363D01*
X577821Y614943D01*
X578782Y614685D01*
X579773Y614599D01*
X580764Y614685D01*
X581726Y614943D01*
X582627Y615363D01*
X583443Y615934D01*
X584146Y616638D01*
X584717Y617453D01*
X585138Y618355D01*
X585395Y619316D01*
X585482Y620307D01*
Y14008D02*
X585395Y14999D01*
X585138Y15960D01*
X584717Y16862D01*
X584146Y17677D01*
X583443Y18381D01*
X582627Y18952D01*
X581726Y19372D01*
X580764Y19630D01*
X579773Y19717D01*
X578782Y19630D01*
X577821Y19372D01*
X576919Y18952D01*
X576104Y18381D01*
X575400Y17677D01*
X574829Y16862D01*
X574409Y15960D01*
X574151Y14999D01*
X574064Y14008D01*
X574151Y13017D01*
X574409Y12055D01*
X574829Y11154D01*
X575400Y10339D01*
X576104Y9635D01*
X576919Y9064D01*
X577821Y8644D01*
X578782Y8386D01*
X579773Y8299D01*
X580764Y8386D01*
X581726Y8644D01*
X582627Y9064D01*
X583443Y9635D01*
X584146Y10339D01*
X584717Y11154D01*
X585138Y12055D01*
X585395Y13017D01*
X585482Y14008D01*
X22490D02*
X22403Y14999D01*
X22145Y15960D01*
X21725Y16862D01*
X21154Y17677D01*
X20450Y18381D01*
X19635Y18952D01*
X18733Y19372D01*
X17772Y19630D01*
X16781Y19717D01*
X15790Y19630D01*
X14829Y19372D01*
X13927Y18952D01*
X13112Y18381D01*
X12408Y17677D01*
X11837Y16862D01*
X11417Y15960D01*
X11159Y14999D01*
X11072Y14008D01*
X11159Y13017D01*
X11417Y12055D01*
X11837Y11154D01*
X12408Y10339D01*
X13112Y9635D01*
X13927Y9064D01*
X14829Y8644D01*
X15790Y8386D01*
X16781Y8299D01*
X17772Y8386D01*
X18733Y8644D01*
X19635Y9064D01*
X20450Y9635D01*
X21154Y10339D01*
X21725Y11154D01*
X22145Y12055D01*
X22403Y13017D01*
X22490Y14008D01*
Y616370D02*
X22403Y617361D01*
X22145Y618323D01*
X21725Y619225D01*
X21154Y620040D01*
X20450Y620743D01*
X19635Y621314D01*
X18733Y621735D01*
X17772Y621992D01*
X16781Y622079D01*
X15790Y621992D01*
X14829Y621735D01*
X13927Y621314D01*
X13112Y620743D01*
X12408Y620040D01*
X11837Y619225D01*
X11417Y618323D01*
X11159Y617361D01*
X11072Y616370D01*
X11159Y615379D01*
X11417Y614418D01*
X11837Y613516D01*
X12408Y612701D01*
X13112Y611997D01*
X13927Y611426D01*
X14829Y611006D01*
X15790Y610748D01*
X16781Y610662D01*
X17772Y610748D01*
X18733Y611006D01*
X19635Y611426D01*
X20450Y611997D01*
X21154Y612701D01*
X21725Y613516D01*
X22145Y614418D01*
X22403Y615379D01*
X22490Y616370D01*
X419768Y177521D02*
X419718Y178516D01*
X419567Y179502D01*
X419317Y180467D01*
X418971Y181402D01*
X418532Y182297D01*
X418004Y183143D01*
X417394Y183932D01*
X416707Y184654D01*
X415951Y185304D01*
X415132Y185873D01*
X414261Y186357D01*
X413344Y186750D01*
X412393Y187049D01*
X411416Y187250D01*
X410425Y187350D01*
X409427D01*
X408435Y187250D01*
X407459Y187049D01*
X406508Y186750D01*
X405591Y186357D01*
X404720Y185873D01*
X403901Y185304D01*
X403145Y184654D01*
X402458Y183932D01*
X401848Y183143D01*
X401320Y182297D01*
X400881Y181402D01*
X400535Y180467D01*
X400285Y179502D01*
X400134Y178516D01*
X400083Y177521D01*
X400134Y176525D01*
X400285Y175539D01*
X400535Y174574D01*
X400881Y173639D01*
X401320Y172744D01*
X401848Y171898D01*
X402458Y171109D01*
X403145Y170387D01*
X403901Y169737D01*
X404720Y169168D01*
X405591Y168684D01*
X406508Y168291D01*
X407459Y167992D01*
X408436Y167791D01*
X409427Y167691D01*
X410425D01*
X411416Y167791D01*
X412393Y167992D01*
X413344Y168291D01*
X414261Y168684D01*
X415132Y169168D01*
X415951Y169737D01*
X416707Y170387D01*
X417394Y171109D01*
X418004Y171898D01*
X418532Y172744D01*
X418971Y173639D01*
X419317Y174574D01*
X419567Y175539D01*
X419718Y176525D01*
X419768Y177521D01*
X577249D02*
X577198Y178516D01*
X577047Y179502D01*
X576797Y180467D01*
X576451Y181402D01*
X576012Y182297D01*
X575485Y183143D01*
X574874Y183932D01*
X574187Y184654D01*
X573431Y185304D01*
X572613Y185873D01*
X571741Y186357D01*
X570825Y186750D01*
X569873Y187049D01*
X568897Y187250D01*
X567905Y187350D01*
X566908D01*
X565916Y187250D01*
X564939Y187049D01*
X563988Y186750D01*
X563072Y186357D01*
X562200Y185873D01*
X561382Y185304D01*
X560625Y184654D01*
X559938Y183932D01*
X559328Y183143D01*
X558801Y182297D01*
X558361Y181402D01*
X558015Y180467D01*
X557765Y179502D01*
X557614Y178516D01*
X557564Y177521D01*
X557614Y176525D01*
X557765Y175539D01*
X558015Y174574D01*
X558361Y173639D01*
X558801Y172744D01*
X559328Y171898D01*
X559938Y171109D01*
X560625Y170387D01*
X561382Y169737D01*
X562200Y169168D01*
X563072Y168684D01*
X563988Y168291D01*
X564939Y167992D01*
X565916Y167791D01*
X566908Y167691D01*
X567905D01*
X568897Y167791D01*
X569873Y167992D01*
X570825Y168291D01*
X571741Y168684D01*
X572613Y169168D01*
X573431Y169737D01*
X574188Y170387D01*
X574874Y171109D01*
X575485Y171898D01*
X576012Y172744D01*
X576451Y173639D01*
X576797Y174574D01*
X577047Y175539D01*
X577198Y176525D01*
X577249Y177521D01*
X419768Y233763D02*
X419718Y234759D01*
X419567Y235745D01*
X419317Y236710D01*
X418971Y237645D01*
X418532Y238540D01*
X418004Y239386D01*
X417394Y240175D01*
X416707Y240897D01*
X415951Y241547D01*
X415132Y242116D01*
X414261Y242600D01*
X413344Y242993D01*
X412393Y243292D01*
X411416Y243493D01*
X410425Y243593D01*
X409427D01*
X408435Y243493D01*
X407459Y243292D01*
X406508Y242993D01*
X405591Y242600D01*
X404720Y242116D01*
X403901Y241547D01*
X403145Y240897D01*
X402458Y240175D01*
X401848Y239386D01*
X401320Y238540D01*
X400881Y237645D01*
X400535Y236710D01*
X400285Y235745D01*
X400134Y234759D01*
X400083Y233763D01*
X400134Y232768D01*
X400285Y231782D01*
X400535Y230817D01*
X400881Y229882D01*
X401320Y228987D01*
X401848Y228141D01*
X402458Y227352D01*
X403145Y226630D01*
X403901Y225980D01*
X404720Y225411D01*
X405591Y224927D01*
X406508Y224534D01*
X407459Y224235D01*
X408436Y224034D01*
X409427Y223934D01*
X410425D01*
X411416Y224034D01*
X412393Y224235D01*
X413344Y224534D01*
X414261Y224927D01*
X415132Y225411D01*
X415951Y225980D01*
X416707Y226630D01*
X417394Y227352D01*
X418004Y228141D01*
X418532Y228987D01*
X418971Y229882D01*
X419317Y230817D01*
X419567Y231782D01*
X419718Y232768D01*
X419768Y233763D01*
X577249D02*
X577198Y234759D01*
X577047Y235745D01*
X576797Y236710D01*
X576451Y237645D01*
X576012Y238540D01*
X575485Y239386D01*
X574874Y240175D01*
X574187Y240897D01*
X573431Y241547D01*
X572613Y242116D01*
X571741Y242600D01*
X570825Y242993D01*
X569873Y243292D01*
X568897Y243493D01*
X567905Y243593D01*
X566908D01*
X565916Y243493D01*
X564939Y243292D01*
X563988Y242993D01*
X563072Y242600D01*
X562200Y242116D01*
X561382Y241547D01*
X560625Y240897D01*
X559938Y240175D01*
X559328Y239386D01*
X558801Y238540D01*
X558361Y237645D01*
X558015Y236710D01*
X557765Y235745D01*
X557614Y234759D01*
X557564Y233763D01*
X557614Y232768D01*
X557765Y231782D01*
X558015Y230817D01*
X558361Y229882D01*
X558801Y228987D01*
X559328Y228141D01*
X559938Y227352D01*
X560625Y226630D01*
X561382Y225980D01*
X562200Y225411D01*
X563072Y224927D01*
X563988Y224534D01*
X564939Y224235D01*
X565916Y224034D01*
X566908Y223934D01*
X567905D01*
X568897Y224034D01*
X569873Y224235D01*
X570825Y224534D01*
X571741Y224927D01*
X572613Y225411D01*
X573431Y225980D01*
X574188Y226630D01*
X574874Y227352D01*
X575485Y228141D01*
X576012Y228987D01*
X576451Y229882D01*
X576797Y230817D01*
X577047Y231782D01*
X577198Y232768D01*
X577249Y233763D01*
X419768Y290006D02*
X419718Y291002D01*
X419567Y291988D01*
X419317Y292953D01*
X418971Y293888D01*
X418532Y294783D01*
X418004Y295629D01*
X417394Y296417D01*
X416707Y297140D01*
X415951Y297790D01*
X415132Y298359D01*
X414261Y298843D01*
X413344Y299236D01*
X412393Y299535D01*
X411416Y299735D01*
X410425Y299836D01*
X409427D01*
X408435Y299735D01*
X407459Y299535D01*
X406508Y299236D01*
X405591Y298843D01*
X404720Y298359D01*
X403901Y297790D01*
X403145Y297140D01*
X402458Y296417D01*
X401848Y295629D01*
X401320Y294783D01*
X400881Y293888D01*
X400535Y292953D01*
X400285Y291988D01*
X400134Y291002D01*
X400083Y290006D01*
X400134Y289011D01*
X400285Y288025D01*
X400535Y287060D01*
X400881Y286125D01*
X401320Y285230D01*
X401848Y284384D01*
X402458Y283595D01*
X403145Y282873D01*
X403901Y282223D01*
X404720Y281654D01*
X405591Y281170D01*
X406508Y280777D01*
X407459Y280478D01*
X408436Y280277D01*
X409427Y280176D01*
X410425D01*
X411416Y280277D01*
X412393Y280478D01*
X413344Y280777D01*
X414261Y281170D01*
X415132Y281654D01*
X415951Y282223D01*
X416707Y282873D01*
X417394Y283595D01*
X418004Y284384D01*
X418532Y285230D01*
X418971Y286125D01*
X419317Y287060D01*
X419567Y288025D01*
X419718Y289011D01*
X419768Y290006D01*
X577249D02*
X577198Y291002D01*
X577047Y291988D01*
X576797Y292953D01*
X576451Y293888D01*
X576012Y294783D01*
X575485Y295629D01*
X574874Y296417D01*
X574187Y297140D01*
X573431Y297790D01*
X572613Y298359D01*
X571741Y298843D01*
X570825Y299236D01*
X569873Y299535D01*
X568897Y299735D01*
X567905Y299836D01*
X566908D01*
X565916Y299735D01*
X564939Y299535D01*
X563988Y299236D01*
X563072Y298843D01*
X562200Y298359D01*
X561382Y297790D01*
X560625Y297140D01*
X559938Y296417D01*
X559328Y295629D01*
X558801Y294783D01*
X558361Y293888D01*
X558015Y292953D01*
X557765Y291988D01*
X557614Y291002D01*
X557564Y290006D01*
X557614Y289011D01*
X557765Y288025D01*
X558015Y287060D01*
X558361Y286125D01*
X558801Y285230D01*
X559328Y284384D01*
X559938Y283595D01*
X560625Y282873D01*
X561382Y282223D01*
X562200Y281654D01*
X563072Y281170D01*
X563988Y280777D01*
X564939Y280478D01*
X565916Y280277D01*
X566908Y280176D01*
X567905D01*
X568897Y280277D01*
X569873Y280478D01*
X570825Y280777D01*
X571741Y281170D01*
X572613Y281654D01*
X573431Y282223D01*
X574188Y282873D01*
X574874Y283595D01*
X575485Y284384D01*
X576012Y285230D01*
X576451Y286125D01*
X576797Y287060D01*
X577047Y288025D01*
X577198Y289011D01*
X577249Y290006D01*
X419768Y346249D02*
X419718Y347245D01*
X419567Y348231D01*
X419317Y349196D01*
X418971Y350131D01*
X418532Y351026D01*
X418004Y351872D01*
X417394Y352660D01*
X416707Y353383D01*
X415951Y354033D01*
X415132Y354602D01*
X414261Y355086D01*
X413344Y355479D01*
X412393Y355778D01*
X411416Y355978D01*
X410425Y356079D01*
X409427D01*
X408435Y355978D01*
X407459Y355778D01*
X406508Y355479D01*
X405591Y355086D01*
X404720Y354602D01*
X403901Y354033D01*
X403145Y353383D01*
X402458Y352660D01*
X401848Y351872D01*
X401320Y351026D01*
X400881Y350131D01*
X400535Y349196D01*
X400285Y348231D01*
X400134Y347245D01*
X400083Y346249D01*
X400134Y345254D01*
X400285Y344268D01*
X400535Y343303D01*
X400881Y342368D01*
X401320Y341473D01*
X401848Y340627D01*
X402458Y339838D01*
X403145Y339116D01*
X403901Y338466D01*
X404720Y337897D01*
X405591Y337413D01*
X406508Y337019D01*
X407459Y336721D01*
X408436Y336520D01*
X409427Y336420D01*
X410425D01*
X411416Y336520D01*
X412393Y336721D01*
X413344Y337019D01*
X414261Y337413D01*
X415132Y337897D01*
X415951Y338466D01*
X416707Y339116D01*
X417394Y339838D01*
X418004Y340627D01*
X418532Y341473D01*
X418971Y342368D01*
X419317Y343303D01*
X419567Y344268D01*
X419718Y345254D01*
X419768Y346249D01*
X577249D02*
X577198Y347245D01*
X577047Y348231D01*
X576797Y349196D01*
X576451Y350131D01*
X576012Y351026D01*
X575485Y351872D01*
X574874Y352660D01*
X574187Y353383D01*
X573431Y354033D01*
X572613Y354602D01*
X571741Y355086D01*
X570825Y355479D01*
X569873Y355778D01*
X568897Y355978D01*
X567905Y356079D01*
X566908D01*
X565916Y355978D01*
X564939Y355778D01*
X563988Y355479D01*
X563072Y355086D01*
X562200Y354602D01*
X561382Y354033D01*
X560625Y353383D01*
X559938Y352660D01*
X559328Y351872D01*
X558801Y351026D01*
X558361Y350131D01*
X558015Y349196D01*
X557765Y348231D01*
X557614Y347245D01*
X557564Y346249D01*
X557614Y345254D01*
X557765Y344268D01*
X558015Y343303D01*
X558361Y342368D01*
X558801Y341473D01*
X559328Y340627D01*
X559938Y339838D01*
X560625Y339116D01*
X561382Y338466D01*
X562200Y337897D01*
X563072Y337413D01*
X563988Y337019D01*
X564939Y336721D01*
X565916Y336520D01*
X566908Y336420D01*
X567905D01*
X568897Y336520D01*
X569873Y336721D01*
X570825Y337019D01*
X571741Y337413D01*
X572613Y337897D01*
X573431Y338466D01*
X574188Y339116D01*
X574874Y339838D01*
X575485Y340627D01*
X576012Y341473D01*
X576451Y342368D01*
X576797Y343303D01*
X577047Y344268D01*
X577198Y345254D01*
X577249Y346249D01*
X419768Y402492D02*
X419718Y403488D01*
X419567Y404474D01*
X419317Y405439D01*
X418971Y406374D01*
X418532Y407269D01*
X418004Y408115D01*
X417394Y408904D01*
X416707Y409626D01*
X415951Y410276D01*
X415132Y410845D01*
X414261Y411329D01*
X413344Y411722D01*
X412393Y412021D01*
X411416Y412221D01*
X410425Y412322D01*
X409427D01*
X408435Y412221D01*
X407459Y412021D01*
X406508Y411722D01*
X405591Y411329D01*
X404720Y410845D01*
X403901Y410276D01*
X403145Y409626D01*
X402458Y408904D01*
X401848Y408115D01*
X401320Y407269D01*
X400881Y406374D01*
X400535Y405439D01*
X400285Y404474D01*
X400134Y403488D01*
X400083Y402492D01*
X400134Y401497D01*
X400285Y400511D01*
X400535Y399546D01*
X400881Y398611D01*
X401320Y397716D01*
X401848Y396870D01*
X402458Y396081D01*
X403145Y395358D01*
X403901Y394709D01*
X404720Y394140D01*
X405591Y393656D01*
X406508Y393263D01*
X407459Y392964D01*
X408436Y392763D01*
X409427Y392662D01*
X410425D01*
X411416Y392763D01*
X412393Y392964D01*
X413344Y393263D01*
X414261Y393656D01*
X415132Y394140D01*
X415951Y394709D01*
X416707Y395359D01*
X417394Y396081D01*
X418004Y396870D01*
X418532Y397716D01*
X418971Y398611D01*
X419317Y399546D01*
X419567Y400511D01*
X419718Y401497D01*
X419768Y402492D01*
X577249D02*
X577198Y403488D01*
X577047Y404474D01*
X576797Y405439D01*
X576451Y406374D01*
X576012Y407269D01*
X575485Y408115D01*
X574874Y408904D01*
X574187Y409626D01*
X573431Y410276D01*
X572613Y410845D01*
X571741Y411329D01*
X570825Y411722D01*
X569873Y412021D01*
X568897Y412221D01*
X567905Y412322D01*
X566908D01*
X565916Y412221D01*
X564939Y412021D01*
X563988Y411722D01*
X563072Y411329D01*
X562200Y410845D01*
X561382Y410276D01*
X560625Y409626D01*
X559938Y408904D01*
X559328Y408115D01*
X558801Y407269D01*
X558361Y406374D01*
X558015Y405439D01*
X557765Y404474D01*
X557614Y403488D01*
X557564Y402492D01*
X557614Y401497D01*
X557765Y400511D01*
X558015Y399546D01*
X558361Y398611D01*
X558801Y397716D01*
X559328Y396870D01*
X559938Y396081D01*
X560625Y395358D01*
X561382Y394709D01*
X562200Y394140D01*
X563072Y393656D01*
X563988Y393263D01*
X564939Y392964D01*
X565916Y392763D01*
X566908Y392662D01*
X567905D01*
X568897Y392763D01*
X569873Y392964D01*
X570825Y393263D01*
X571741Y393656D01*
X572613Y394140D01*
X573431Y394709D01*
X574188Y395359D01*
X574874Y396081D01*
X575485Y396870D01*
X576012Y397716D01*
X576451Y398611D01*
X576797Y399546D01*
X577047Y400511D01*
X577198Y401497D01*
X577249Y402492D01*
X419768Y458735D02*
X419718Y459731D01*
X419567Y460717D01*
X419317Y461682D01*
X418971Y462617D01*
X418532Y463512D01*
X418004Y464358D01*
X417394Y465146D01*
X416707Y465869D01*
X415951Y466518D01*
X415132Y467088D01*
X414261Y467572D01*
X413344Y467965D01*
X412393Y468264D01*
X411416Y468464D01*
X410425Y468565D01*
X409427D01*
X408435Y468464D01*
X407459Y468264D01*
X406508Y467965D01*
X405591Y467572D01*
X404720Y467088D01*
X403901Y466518D01*
X403145Y465869D01*
X402458Y465146D01*
X401848Y464358D01*
X401320Y463512D01*
X400881Y462617D01*
X400535Y461682D01*
X400285Y460717D01*
X400134Y459731D01*
X400083Y458735D01*
X400134Y457739D01*
X400285Y456754D01*
X400535Y455789D01*
X400881Y454854D01*
X401320Y453959D01*
X401848Y453113D01*
X402458Y452324D01*
X403145Y451602D01*
X403901Y450952D01*
X404720Y450383D01*
X405591Y449899D01*
X406508Y449506D01*
X407459Y449207D01*
X408436Y449006D01*
X409427Y448905D01*
X410425D01*
X411416Y449006D01*
X412393Y449207D01*
X413344Y449506D01*
X414261Y449899D01*
X415132Y450383D01*
X415951Y450952D01*
X416707Y451602D01*
X417394Y452324D01*
X418004Y453113D01*
X418532Y453959D01*
X418971Y454854D01*
X419317Y455789D01*
X419567Y456754D01*
X419718Y457740D01*
X419768Y458735D01*
X577249D02*
X577198Y459731D01*
X577047Y460717D01*
X576797Y461682D01*
X576451Y462617D01*
X576012Y463512D01*
X575485Y464358D01*
X574874Y465146D01*
X574187Y465869D01*
X573431Y466518D01*
X572613Y467088D01*
X571741Y467572D01*
X570825Y467965D01*
X569873Y468264D01*
X568897Y468464D01*
X567905Y468565D01*
X566908D01*
X565916Y468464D01*
X564939Y468264D01*
X563988Y467965D01*
X563072Y467572D01*
X562200Y467088D01*
X561382Y466518D01*
X560625Y465869D01*
X559938Y465146D01*
X559328Y464358D01*
X558801Y463512D01*
X558361Y462617D01*
X558015Y461682D01*
X557765Y460717D01*
X557614Y459731D01*
X557564Y458735D01*
X557614Y457739D01*
X557765Y456754D01*
X558015Y455789D01*
X558361Y454854D01*
X558801Y453959D01*
X559328Y453113D01*
X559938Y452324D01*
X560625Y451602D01*
X561382Y450952D01*
X562200Y450383D01*
X563072Y449899D01*
X563988Y449506D01*
X564939Y449207D01*
X565916Y449006D01*
X566908Y448905D01*
X567905D01*
X568897Y449006D01*
X569873Y449207D01*
X570825Y449506D01*
X571741Y449899D01*
X572613Y450383D01*
X573431Y450952D01*
X574188Y451602D01*
X574874Y452324D01*
X575485Y453113D01*
X576012Y453959D01*
X576451Y454854D01*
X576797Y455789D01*
X577047Y456754D01*
X577198Y457740D01*
X577249Y458735D01*
X419768Y514978D02*
X419718Y515974D01*
X419567Y516960D01*
X419317Y517925D01*
X418971Y518860D01*
X418532Y519755D01*
X418004Y520601D01*
X417394Y521389D01*
X416707Y522112D01*
X415951Y522761D01*
X415132Y523331D01*
X414261Y523815D01*
X413344Y524208D01*
X412393Y524507D01*
X411416Y524707D01*
X410425Y524808D01*
X409427D01*
X408435Y524707D01*
X407459Y524507D01*
X406508Y524208D01*
X405591Y523815D01*
X404720Y523331D01*
X403901Y522761D01*
X403145Y522112D01*
X402458Y521389D01*
X401848Y520601D01*
X401320Y519755D01*
X400881Y518860D01*
X400535Y517925D01*
X400285Y516960D01*
X400134Y515974D01*
X400083Y514978D01*
X400134Y513982D01*
X400285Y512997D01*
X400535Y512032D01*
X400881Y511097D01*
X401320Y510202D01*
X401848Y509356D01*
X402458Y508567D01*
X403145Y507844D01*
X403901Y507195D01*
X404720Y506626D01*
X405591Y506142D01*
X406508Y505748D01*
X407459Y505450D01*
X408436Y505249D01*
X409427Y505148D01*
X410425D01*
X411416Y505249D01*
X412393Y505450D01*
X413344Y505748D01*
X414261Y506142D01*
X415132Y506626D01*
X415951Y507195D01*
X416707Y507844D01*
X417394Y508567D01*
X418004Y509356D01*
X418532Y510202D01*
X418971Y511097D01*
X419317Y512032D01*
X419567Y512997D01*
X419718Y513983D01*
X419768Y514978D01*
X577249D02*
X577198Y515974D01*
X577047Y516960D01*
X576797Y517925D01*
X576451Y518860D01*
X576012Y519755D01*
X575485Y520601D01*
X574874Y521389D01*
X574187Y522112D01*
X573431Y522761D01*
X572613Y523331D01*
X571741Y523815D01*
X570825Y524208D01*
X569873Y524507D01*
X568897Y524707D01*
X567905Y524808D01*
X566908D01*
X565916Y524707D01*
X564939Y524507D01*
X563988Y524208D01*
X563072Y523815D01*
X562200Y523331D01*
X561382Y522761D01*
X560625Y522112D01*
X559938Y521389D01*
X559328Y520601D01*
X558801Y519755D01*
X558361Y518860D01*
X558015Y517925D01*
X557765Y516960D01*
X557614Y515974D01*
X557564Y514978D01*
X557614Y513982D01*
X557765Y512997D01*
X558015Y512032D01*
X558361Y511097D01*
X558801Y510202D01*
X559328Y509356D01*
X559938Y508567D01*
X560625Y507844D01*
X561382Y507195D01*
X562200Y506626D01*
X563072Y506142D01*
X563988Y505748D01*
X564939Y505450D01*
X565916Y505249D01*
X566908Y505148D01*
X567905D01*
X568897Y505249D01*
X569873Y505450D01*
X570825Y505748D01*
X571741Y506142D01*
X572613Y506626D01*
X573431Y507195D01*
X574188Y507844D01*
X574874Y508567D01*
X575485Y509356D01*
X576012Y510202D01*
X576451Y511097D01*
X576797Y512032D01*
X577047Y512997D01*
X577198Y513983D01*
X577249Y514978D01*
X419768Y571221D02*
X419718Y572217D01*
X419567Y573203D01*
X419317Y574168D01*
X418971Y575103D01*
X418532Y575998D01*
X418004Y576844D01*
X417394Y577632D01*
X416707Y578355D01*
X415951Y579004D01*
X415132Y579574D01*
X414261Y580058D01*
X413344Y580451D01*
X412393Y580750D01*
X411416Y580950D01*
X410425Y581051D01*
X409427D01*
X408435Y580950D01*
X407459Y580750D01*
X406508Y580451D01*
X405591Y580058D01*
X404720Y579574D01*
X403901Y579004D01*
X403145Y578355D01*
X402458Y577632D01*
X401848Y576844D01*
X401320Y575998D01*
X400881Y575103D01*
X400535Y574168D01*
X400285Y573203D01*
X400134Y572217D01*
X400083Y571221D01*
X400134Y570225D01*
X400285Y569240D01*
X400535Y568275D01*
X400881Y567340D01*
X401320Y566445D01*
X401848Y565598D01*
X402458Y564810D01*
X403145Y564087D01*
X403901Y563438D01*
X404720Y562868D01*
X405591Y562385D01*
X406508Y561991D01*
X407459Y561693D01*
X408436Y561492D01*
X409427Y561391D01*
X410425D01*
X411416Y561492D01*
X412393Y561693D01*
X413344Y561991D01*
X414261Y562385D01*
X415132Y562868D01*
X415951Y563438D01*
X416707Y564087D01*
X417394Y564810D01*
X418004Y565599D01*
X418532Y566445D01*
X418971Y567340D01*
X419317Y568275D01*
X419567Y569240D01*
X419718Y570225D01*
X419768Y571221D01*
X577249D02*
X577198Y572217D01*
X577047Y573203D01*
X576797Y574168D01*
X576451Y575103D01*
X576012Y575998D01*
X575485Y576844D01*
X574874Y577632D01*
X574187Y578355D01*
X573431Y579004D01*
X572613Y579574D01*
X571741Y580058D01*
X570825Y580451D01*
X569873Y580750D01*
X568897Y580950D01*
X567905Y581051D01*
X566908D01*
X565916Y580950D01*
X564939Y580750D01*
X563988Y580451D01*
X563072Y580058D01*
X562200Y579574D01*
X561382Y579004D01*
X560625Y578355D01*
X559938Y577632D01*
X559328Y576844D01*
X558801Y575998D01*
X558361Y575103D01*
X558015Y574168D01*
X557765Y573203D01*
X557614Y572217D01*
X557564Y571221D01*
X557614Y570225D01*
X557765Y569240D01*
X558015Y568275D01*
X558361Y567340D01*
X558801Y566445D01*
X559328Y565598D01*
X559938Y564810D01*
X560625Y564087D01*
X561382Y563438D01*
X562200Y562868D01*
X563072Y562385D01*
X563988Y561991D01*
X564939Y561693D01*
X565916Y561492D01*
X566908Y561391D01*
X567905D01*
X568897Y561492D01*
X569873Y561693D01*
X570825Y561991D01*
X571741Y562385D01*
X572613Y562868D01*
X573431Y563438D01*
X574188Y564087D01*
X574874Y564810D01*
X575485Y565599D01*
X576012Y566445D01*
X576451Y567340D01*
X576797Y568275D01*
X577047Y569240D01*
X577198Y570225D01*
X577249Y571221D01*
X546540Y121300D02*
X546517Y122300D01*
X546448Y123298D01*
X546333Y124292D01*
X546172Y125279D01*
X545965Y126258D01*
X545714Y127226D01*
X545418Y128181D01*
X545078Y129122D01*
X544695Y130046D01*
X544270Y130952D01*
X543804Y131837D01*
X543297Y132699D01*
X542751Y133537D01*
X542167Y134349D01*
X541545Y135133D01*
X540889Y135888D01*
X540198Y136611D01*
X539474Y137302D01*
X538720Y137959D01*
X537936Y138580D01*
X537124Y139164D01*
X536286Y139710D01*
X535423Y140217D01*
X534538Y140683D01*
X533633Y141109D01*
X532709Y141491D01*
X531768Y141831D01*
X530812Y142127D01*
X529844Y142378D01*
X528865Y142585D01*
X527878Y142746D01*
X526885Y142861D01*
X525887Y142930D01*
X524887Y142954D01*
X523887Y142930D01*
X522889Y142861D01*
X521895Y142746D01*
X520908Y142585D01*
X519929Y142378D01*
X518961Y142127D01*
X518005Y141831D01*
X517065Y141491D01*
X516140Y141109D01*
X515235Y140683D01*
X514350Y140217D01*
X513487Y139710D01*
X512649Y139164D01*
X511837Y138580D01*
X511053Y137959D01*
X510299Y137302D01*
X509575Y136611D01*
X508884Y135888D01*
X508228Y135133D01*
X507607Y134349D01*
X507022Y133537D01*
X506476Y132699D01*
X505970Y131837D01*
X505503Y130952D01*
X505078Y130046D01*
X504695Y129122D01*
X504356Y128181D01*
X504060Y127226D01*
X503808Y126258D01*
X503602Y125279D01*
X503441Y124292D01*
X503325Y123298D01*
X503256Y122300D01*
X503233Y121300D01*
X503256Y120300D01*
X503325Y119302D01*
X503441Y118308D01*
X503602Y117321D01*
X503808Y116342D01*
X504060Y115374D01*
X504356Y114419D01*
X504695Y113478D01*
X505078Y112554D01*
X505503Y111648D01*
X505970Y110763D01*
X506476Y109901D01*
X507022Y109063D01*
X507607Y108251D01*
X508228Y107467D01*
X508884Y106712D01*
X509575Y105989D01*
X510299Y105298D01*
X511053Y104641D01*
X511837Y104020D01*
X512649Y103436D01*
X513487Y102890D01*
X514350Y102383D01*
X515235Y101917D01*
X516140Y101491D01*
X517065Y101109D01*
X518005Y100769D01*
X518961Y100473D01*
X519929Y100222D01*
X520908Y100015D01*
X521895Y99854D01*
X522889Y99739D01*
X523887Y99670D01*
X524887Y99647D01*
X525887Y99670D01*
X526885Y99739D01*
X527878Y99854D01*
X528865Y100015D01*
X529844Y100222D01*
X530813Y100473D01*
X531768Y100769D01*
X532709Y101109D01*
X533633Y101491D01*
X534539Y101917D01*
X535423Y102383D01*
X536286Y102890D01*
X537124Y103436D01*
X537936Y104020D01*
X538720Y104641D01*
X539475Y105298D01*
X540198Y105989D01*
X540889Y106712D01*
X541545Y107467D01*
X542167Y108251D01*
X542751Y109063D01*
X543297Y109901D01*
X543804Y110763D01*
X544270Y111648D01*
X544695Y112554D01*
X545078Y113478D01*
X545418Y114419D01*
X545714Y115374D01*
X545965Y116343D01*
X546172Y117321D01*
X546333Y118309D01*
X546448Y119302D01*
X546517Y120300D01*
X546540Y121300D01*
Y177521D02*
X546517Y178521D01*
X546448Y179518D01*
X546333Y180512D01*
X546172Y181499D01*
X545965Y182478D01*
X545714Y183446D01*
X545418Y184402D01*
X545078Y185343D01*
X544695Y186267D01*
X544270Y187172D01*
X543804Y188057D01*
X543297Y188920D01*
X542751Y189758D01*
X542167Y190570D01*
X541545Y191354D01*
X540889Y192108D01*
X540198Y192832D01*
X539474Y193523D01*
X538720Y194179D01*
X537936Y194800D01*
X537124Y195385D01*
X536286Y195931D01*
X535423Y196438D01*
X534538Y196904D01*
X533633Y197329D01*
X532709Y197712D01*
X531768Y198052D01*
X530812Y198347D01*
X529844Y198599D01*
X528865Y198805D01*
X527878Y198966D01*
X526885Y199082D01*
X525887Y199151D01*
X524887Y199174D01*
X523887Y199151D01*
X522889Y199082D01*
X521895Y198966D01*
X520908Y198805D01*
X519929Y198599D01*
X518961Y198347D01*
X518005Y198052D01*
X517065Y197712D01*
X516140Y197329D01*
X515235Y196904D01*
X514350Y196438D01*
X513487Y195931D01*
X512649Y195385D01*
X511837Y194800D01*
X511053Y194179D01*
X510299Y193523D01*
X509575Y192832D01*
X508884Y192108D01*
X508228Y191354D01*
X507607Y190570D01*
X507022Y189758D01*
X506476Y188920D01*
X505970Y188057D01*
X505503Y187172D01*
X505078Y186267D01*
X504695Y185343D01*
X504356Y184402D01*
X504060Y183446D01*
X503808Y182478D01*
X503602Y181499D01*
X503441Y180512D01*
X503325Y179518D01*
X503256Y178521D01*
X503233Y177520D01*
X503256Y176520D01*
X503325Y175522D01*
X503441Y174529D01*
X503602Y173542D01*
X503808Y172563D01*
X504060Y171595D01*
X504356Y170639D01*
X504695Y169698D01*
X505078Y168774D01*
X505503Y167869D01*
X505970Y166984D01*
X506476Y166121D01*
X507022Y165283D01*
X507607Y164471D01*
X508228Y163687D01*
X508884Y162933D01*
X509575Y162209D01*
X510299Y161518D01*
X511053Y160862D01*
X511837Y160240D01*
X512649Y159656D01*
X513487Y159110D01*
X514350Y158603D01*
X515235Y158137D01*
X516140Y157712D01*
X517065Y157329D01*
X518005Y156989D01*
X518961Y156693D01*
X519929Y156442D01*
X520908Y156236D01*
X521895Y156075D01*
X522889Y155959D01*
X523887Y155890D01*
X524887Y155867D01*
X525887Y155890D01*
X526885Y155959D01*
X527878Y156075D01*
X528865Y156236D01*
X529844Y156442D01*
X530813Y156694D01*
X531768Y156990D01*
X532709Y157329D01*
X533633Y157712D01*
X534539Y158137D01*
X535423Y158604D01*
X536286Y159110D01*
X537124Y159656D01*
X537936Y160241D01*
X538720Y160862D01*
X539475Y161518D01*
X540198Y162209D01*
X540889Y162933D01*
X541545Y163687D01*
X542167Y164471D01*
X542751Y165283D01*
X543297Y166121D01*
X543804Y166984D01*
X544270Y167869D01*
X544695Y168774D01*
X545078Y169698D01*
X545418Y170639D01*
X545714Y171595D01*
X545965Y172563D01*
X546172Y173542D01*
X546333Y174529D01*
X546448Y175523D01*
X546517Y176521D01*
X546540Y177521D01*
X546517Y178521D01*
X546448Y179518D01*
X546333Y180512D01*
X546172Y181499D01*
X545965Y182478D01*
X545714Y183446D01*
X545418Y184402D01*
X545078Y185343D01*
X544695Y186267D01*
X544270Y187172D01*
X543804Y188057D01*
X543297Y188920D01*
X542751Y189758D01*
X542167Y190570D01*
X541545Y191354D01*
X540889Y192108D01*
X540198Y192832D01*
X539474Y193523D01*
X538720Y194179D01*
X537936Y194800D01*
X537124Y195385D01*
X536286Y195931D01*
X535423Y196438D01*
X534538Y196904D01*
X533633Y197329D01*
X532709Y197712D01*
X531768Y198052D01*
X530812Y198347D01*
X529844Y198599D01*
X528865Y198805D01*
X527878Y198966D01*
X526885Y199082D01*
X525887Y199151D01*
X524887Y199174D01*
X523887Y199151D01*
X522889Y199082D01*
X521895Y198966D01*
X520908Y198805D01*
X519929Y198599D01*
X518961Y198347D01*
X518005Y198052D01*
X517065Y197712D01*
X516140Y197329D01*
X515235Y196904D01*
X514350Y196438D01*
X513487Y195931D01*
X512649Y195385D01*
X511837Y194800D01*
X511053Y194179D01*
X510299Y193523D01*
X509575Y192832D01*
X508884Y192108D01*
X508228Y191354D01*
X507607Y190570D01*
X507022Y189758D01*
X506476Y188920D01*
X505970Y188057D01*
X505503Y187172D01*
X505078Y186267D01*
X504695Y185343D01*
X504356Y184402D01*
X504060Y183446D01*
X503808Y182478D01*
X503602Y181499D01*
X503441Y180512D01*
X503325Y179518D01*
X503256Y178521D01*
X503233Y177520D01*
X503256Y176520D01*
X503325Y175522D01*
X503441Y174529D01*
X503602Y173542D01*
X503808Y172563D01*
X504060Y171595D01*
X504356Y170639D01*
X504695Y169698D01*
X505078Y168774D01*
X505503Y167869D01*
X505970Y166984D01*
X506476Y166121D01*
X507022Y165283D01*
X507607Y164471D01*
X508228Y163687D01*
X508884Y162933D01*
X509575Y162209D01*
X510299Y161518D01*
X511053Y160862D01*
X511837Y160240D01*
X512649Y159656D01*
X513487Y159110D01*
X514350Y158603D01*
X515235Y158137D01*
X516140Y157712D01*
X517065Y157329D01*
X518005Y156989D01*
X518961Y156693D01*
X519929Y156442D01*
X520908Y156236D01*
X521895Y156075D01*
X522889Y155959D01*
X523887Y155890D01*
X524887Y155867D01*
X525887Y155890D01*
X526885Y155959D01*
X527878Y156075D01*
X528865Y156236D01*
X529844Y156442D01*
X530813Y156694D01*
X531768Y156990D01*
X532709Y157329D01*
X533633Y157712D01*
X534539Y158137D01*
X535423Y158604D01*
X536286Y159110D01*
X537124Y159656D01*
X537936Y160241D01*
X538720Y160862D01*
X539475Y161518D01*
X540198Y162209D01*
X540889Y162933D01*
X541545Y163687D01*
X542167Y164471D01*
X542751Y165283D01*
X543297Y166121D01*
X543804Y166984D01*
X544270Y167869D01*
X544695Y168774D01*
X545078Y169698D01*
X545418Y170639D01*
X545714Y171595D01*
X545965Y172563D01*
X546172Y173542D01*
X546333Y174529D01*
X546448Y175523D01*
X546517Y176521D01*
X546540Y177521D01*
Y39725D02*
X546517Y40725D01*
X546448Y41723D01*
X546333Y42717D01*
X546172Y43704D01*
X545965Y44683D01*
X545714Y45651D01*
X545418Y46606D01*
X545078Y47547D01*
X544695Y48472D01*
X544270Y49377D01*
X543804Y50262D01*
X543297Y51124D01*
X542751Y51962D01*
X542167Y52774D01*
X541545Y53558D01*
X540889Y54313D01*
X540198Y55037D01*
X539474Y55727D01*
X538720Y56384D01*
X537936Y57005D01*
X537124Y57589D01*
X536286Y58135D01*
X535423Y58642D01*
X534538Y59109D01*
X533633Y59534D01*
X532709Y59917D01*
X531768Y60256D01*
X530812Y60552D01*
X529844Y60804D01*
X528865Y61010D01*
X527878Y61171D01*
X526885Y61286D01*
X525887Y61356D01*
X524887Y61379D01*
X523887Y61356D01*
X522889Y61286D01*
X521895Y61171D01*
X520908Y61010D01*
X519929Y60804D01*
X518961Y60552D01*
X518005Y60256D01*
X517065Y59917D01*
X516140Y59534D01*
X515235Y59109D01*
X514350Y58642D01*
X513487Y58135D01*
X512649Y57589D01*
X511837Y57005D01*
X511053Y56384D01*
X510299Y55727D01*
X509575Y55037D01*
X508884Y54313D01*
X508228Y53558D01*
X507607Y52774D01*
X507022Y51962D01*
X506476Y51124D01*
X505970Y50262D01*
X505503Y49377D01*
X505078Y48472D01*
X504695Y47547D01*
X504356Y46606D01*
X504060Y45651D01*
X503808Y44683D01*
X503602Y43704D01*
X503441Y42717D01*
X503325Y41723D01*
X503256Y40725D01*
X503233Y39725D01*
X503256Y38725D01*
X503325Y37727D01*
X503441Y36734D01*
X503602Y35746D01*
X503808Y34768D01*
X504060Y33799D01*
X504356Y32844D01*
X504695Y31903D01*
X505078Y30979D01*
X505503Y30073D01*
X505970Y29188D01*
X506476Y28326D01*
X507022Y27488D01*
X507607Y26676D01*
X508228Y25892D01*
X508884Y25137D01*
X509575Y24414D01*
X510299Y23723D01*
X511053Y23066D01*
X511837Y22445D01*
X512649Y21861D01*
X513487Y21315D01*
X514350Y20808D01*
X515235Y20342D01*
X516140Y19917D01*
X517065Y19534D01*
X518005Y19194D01*
X518961Y18898D01*
X519929Y18647D01*
X520908Y18440D01*
X521895Y18279D01*
X522889Y18164D01*
X523887Y18095D01*
X524887Y18072D01*
X525887Y18095D01*
X526885Y18164D01*
X527878Y18279D01*
X528865Y18440D01*
X529844Y18647D01*
X530813Y18898D01*
X531768Y19194D01*
X532709Y19534D01*
X533633Y19917D01*
X534539Y20342D01*
X535423Y20808D01*
X536286Y21315D01*
X537124Y21861D01*
X537936Y22445D01*
X538720Y23066D01*
X539475Y23723D01*
X540198Y24414D01*
X540889Y25137D01*
X541545Y25892D01*
X542167Y26676D01*
X542751Y27488D01*
X543297Y28326D01*
X543804Y29189D01*
X544270Y30073D01*
X544695Y30979D01*
X545078Y31903D01*
X545418Y32844D01*
X545714Y33800D01*
X545965Y34768D01*
X546172Y35746D01*
X546333Y36734D01*
X546448Y37727D01*
X546517Y38725D01*
X546540Y39725D01*
X389060D02*
X389037Y40725D01*
X388967Y41723D01*
X388852Y42717D01*
X388691Y43704D01*
X388485Y44683D01*
X388233Y45651D01*
X387937Y46606D01*
X387598Y47547D01*
X387215Y48472D01*
X386790Y49377D01*
X386323Y50262D01*
X385817Y51124D01*
X385270Y51962D01*
X384686Y52774D01*
X384065Y53558D01*
X383408Y54313D01*
X382718Y55037D01*
X381994Y55727D01*
X381240Y56384D01*
X380455Y57005D01*
X379644Y57589D01*
X378805Y58135D01*
X377943Y58642D01*
X377058Y59109D01*
X376153Y59534D01*
X375229Y59917D01*
X374288Y60256D01*
X373332Y60552D01*
X372364Y60804D01*
X371385Y61010D01*
X370398Y61171D01*
X369404Y61286D01*
X368406Y61356D01*
X367406Y61379D01*
X366406Y61356D01*
X365408Y61286D01*
X364415Y61171D01*
X363427Y61010D01*
X362449Y60804D01*
X361480Y60552D01*
X360525Y60256D01*
X359584Y59917D01*
X358660Y59534D01*
X357754Y59109D01*
X356870Y58642D01*
X356007Y58135D01*
X355169Y57589D01*
X354357Y57005D01*
X353573Y56384D01*
X352818Y55727D01*
X352095Y55037D01*
X351404Y54313D01*
X350747Y53558D01*
X350126Y52774D01*
X349542Y51962D01*
X348996Y51124D01*
X348489Y50262D01*
X348023Y49377D01*
X347598Y48472D01*
X347215Y47547D01*
X346875Y46606D01*
X346579Y45651D01*
X346328Y44683D01*
X346121Y43704D01*
X345960Y42717D01*
X345845Y41723D01*
X345776Y40725D01*
X345753Y39725D01*
X345776Y38725D01*
X345845Y37727D01*
X345960Y36734D01*
X346122Y35746D01*
X346328Y34768D01*
X346579Y33799D01*
X346875Y32844D01*
X347215Y31903D01*
X347598Y30979D01*
X348023Y30073D01*
X348489Y29188D01*
X348996Y28326D01*
X349542Y27488D01*
X350126Y26676D01*
X350747Y25892D01*
X351404Y25137D01*
X352095Y24414D01*
X352818Y23723D01*
X353573Y23066D01*
X354357Y22445D01*
X355169Y21861D01*
X356007Y21315D01*
X356870Y20808D01*
X357754Y20342D01*
X358660Y19917D01*
X359584Y19534D01*
X360525Y19194D01*
X361481Y18898D01*
X362449Y18647D01*
X363428Y18440D01*
X364415Y18279D01*
X365408Y18164D01*
X366406Y18095D01*
X367406Y18072D01*
X368406Y18095D01*
X369404Y18164D01*
X370398Y18279D01*
X371385Y18440D01*
X372364Y18647D01*
X373332Y18898D01*
X374288Y19194D01*
X375229Y19534D01*
X376153Y19917D01*
X377058Y20342D01*
X377943Y20808D01*
X378805Y21315D01*
X379644Y21861D01*
X380456Y22445D01*
X381240Y23066D01*
X381994Y23723D01*
X382718Y24414D01*
X383408Y25137D01*
X384065Y25892D01*
X384686Y26676D01*
X385271Y27488D01*
X385817Y28326D01*
X386323Y29189D01*
X386790Y30073D01*
X387215Y30979D01*
X387598Y31903D01*
X387937Y32844D01*
X388233Y33800D01*
X388485Y34768D01*
X388691Y35746D01*
X388852Y36734D01*
X388967Y37727D01*
X389037Y38725D01*
X389060Y39725D01*
X546540Y177521D02*
X546517Y178521D01*
X546448Y179518D01*
X546333Y180512D01*
X546172Y181499D01*
X545965Y182478D01*
X545714Y183446D01*
X545418Y184402D01*
X545078Y185343D01*
X544695Y186267D01*
X544270Y187172D01*
X543804Y188057D01*
X543297Y188920D01*
X542751Y189758D01*
X542167Y190570D01*
X541545Y191354D01*
X540889Y192108D01*
X540198Y192832D01*
X539474Y193523D01*
X538720Y194179D01*
X537936Y194800D01*
X537124Y195385D01*
X536286Y195931D01*
X535423Y196438D01*
X534538Y196904D01*
X533633Y197329D01*
X532709Y197712D01*
X531768Y198052D01*
X530812Y198347D01*
X529844Y198599D01*
X528865Y198805D01*
X527878Y198966D01*
X526885Y199082D01*
X525887Y199151D01*
X524887Y199174D01*
X523887Y199151D01*
X522889Y199082D01*
X521895Y198966D01*
X520908Y198805D01*
X519929Y198599D01*
X518961Y198347D01*
X518005Y198052D01*
X517065Y197712D01*
X516140Y197329D01*
X515235Y196904D01*
X514350Y196438D01*
X513487Y195931D01*
X512649Y195385D01*
X511837Y194800D01*
X511053Y194179D01*
X510299Y193523D01*
X509575Y192832D01*
X508884Y192108D01*
X508228Y191354D01*
X507607Y190570D01*
X507022Y189758D01*
X506476Y188920D01*
X505970Y188057D01*
X505503Y187172D01*
X505078Y186267D01*
X504695Y185343D01*
X504356Y184402D01*
X504060Y183446D01*
X503808Y182478D01*
X503602Y181499D01*
X503441Y180512D01*
X503325Y179518D01*
X503256Y178521D01*
X503233Y177520D01*
X503256Y176520D01*
X503325Y175522D01*
X503441Y174529D01*
X503602Y173542D01*
X503808Y172563D01*
X504060Y171595D01*
X504356Y170639D01*
X504695Y169698D01*
X505078Y168774D01*
X505503Y167869D01*
X505970Y166984D01*
X506476Y166121D01*
X507022Y165283D01*
X507607Y164471D01*
X508228Y163687D01*
X508884Y162933D01*
X509575Y162209D01*
X510299Y161518D01*
X511053Y160862D01*
X511837Y160240D01*
X512649Y159656D01*
X513487Y159110D01*
X514350Y158603D01*
X515235Y158137D01*
X516140Y157712D01*
X517065Y157329D01*
X518005Y156989D01*
X518961Y156693D01*
X519929Y156442D01*
X520908Y156236D01*
X521895Y156075D01*
X522889Y155959D01*
X523887Y155890D01*
X524887Y155867D01*
X525887Y155890D01*
X526885Y155959D01*
X527878Y156075D01*
X528865Y156236D01*
X529844Y156442D01*
X530813Y156694D01*
X531768Y156990D01*
X532709Y157329D01*
X533633Y157712D01*
X534539Y158137D01*
X535423Y158604D01*
X536286Y159110D01*
X537124Y159656D01*
X537936Y160241D01*
X538720Y160862D01*
X539475Y161518D01*
X540198Y162209D01*
X540889Y162933D01*
X541545Y163687D01*
X542167Y164471D01*
X542751Y165283D01*
X543297Y166121D01*
X543804Y166984D01*
X544270Y167869D01*
X544695Y168774D01*
X545078Y169698D01*
X545418Y170639D01*
X545714Y171595D01*
X545965Y172563D01*
X546172Y173542D01*
X546333Y174529D01*
X546448Y175523D01*
X546517Y176521D01*
X546540Y177521D01*
X389060D02*
X389037Y178521D01*
X388967Y179518D01*
X388852Y180512D01*
X388691Y181499D01*
X388485Y182478D01*
X388233Y183446D01*
X387937Y184402D01*
X387598Y185343D01*
X387215Y186267D01*
X386790Y187172D01*
X386323Y188057D01*
X385817Y188920D01*
X385270Y189758D01*
X384686Y190570D01*
X384065Y191354D01*
X383408Y192108D01*
X382718Y192832D01*
X381994Y193523D01*
X381240Y194179D01*
X380455Y194800D01*
X379644Y195385D01*
X378805Y195931D01*
X377943Y196438D01*
X377058Y196904D01*
X376153Y197329D01*
X375229Y197712D01*
X374288Y198052D01*
X373332Y198347D01*
X372364Y198599D01*
X371385Y198805D01*
X370398Y198966D01*
X369404Y199082D01*
X368406Y199151D01*
X367406Y199174D01*
X366406Y199151D01*
X365408Y199082D01*
X364415Y198966D01*
X363427Y198805D01*
X362449Y198599D01*
X361480Y198347D01*
X360525Y198052D01*
X359584Y197712D01*
X358660Y197329D01*
X357754Y196904D01*
X356870Y196438D01*
X356007Y195931D01*
X355169Y195385D01*
X354357Y194800D01*
X353573Y194179D01*
X352818Y193523D01*
X352095Y192832D01*
X351404Y192108D01*
X350747Y191354D01*
X350126Y190570D01*
X349542Y189758D01*
X348996Y188920D01*
X348489Y188057D01*
X348023Y187172D01*
X347598Y186267D01*
X347215Y185343D01*
X346875Y184402D01*
X346579Y183446D01*
X346328Y182478D01*
X346121Y181499D01*
X345960Y180512D01*
X345845Y179518D01*
X345776Y178521D01*
X345753Y177520D01*
X345776Y176520D01*
X345845Y175522D01*
X345960Y174529D01*
X346122Y173542D01*
X346328Y172563D01*
X346579Y171595D01*
X346875Y170639D01*
X347215Y169698D01*
X347598Y168774D01*
X348023Y167869D01*
X348489Y166984D01*
X348996Y166121D01*
X349542Y165283D01*
X350126Y164471D01*
X350747Y163687D01*
X351404Y162933D01*
X352095Y162209D01*
X352818Y161518D01*
X353573Y160862D01*
X354357Y160240D01*
X355169Y159656D01*
X356007Y159110D01*
X356870Y158603D01*
X357754Y158137D01*
X358660Y157712D01*
X359584Y157329D01*
X360525Y156989D01*
X361481Y156693D01*
X362449Y156442D01*
X363428Y156236D01*
X364415Y156075D01*
X365408Y155959D01*
X366406Y155890D01*
X367406Y155867D01*
X368406Y155890D01*
X369404Y155959D01*
X370398Y156075D01*
X371385Y156236D01*
X372364Y156442D01*
X373332Y156694D01*
X374288Y156990D01*
X375229Y157329D01*
X376153Y157712D01*
X377058Y158137D01*
X377943Y158604D01*
X378805Y159110D01*
X379644Y159656D01*
X380456Y160241D01*
X381240Y160862D01*
X381994Y161518D01*
X382718Y162209D01*
X383408Y162933D01*
X384065Y163687D01*
X384686Y164471D01*
X385271Y165283D01*
X385817Y166121D01*
X386323Y166984D01*
X386790Y167869D01*
X387215Y168774D01*
X387598Y169698D01*
X387937Y170639D01*
X388233Y171595D01*
X388485Y172563D01*
X388691Y173542D01*
X388852Y174529D01*
X388967Y175523D01*
X389037Y176521D01*
X389060Y177521D01*
X546540Y233763D02*
X546517Y234764D01*
X546448Y235761D01*
X546333Y236755D01*
X546172Y237742D01*
X545965Y238721D01*
X545714Y239689D01*
X545418Y240645D01*
X545078Y241586D01*
X544695Y242510D01*
X544270Y243415D01*
X543804Y244300D01*
X543297Y245163D01*
X542751Y246001D01*
X542167Y246813D01*
X541545Y247597D01*
X540889Y248351D01*
X540198Y249075D01*
X539474Y249766D01*
X538720Y250422D01*
X537936Y251043D01*
X537124Y251628D01*
X536286Y252174D01*
X535423Y252680D01*
X534538Y253147D01*
X533633Y253572D01*
X532709Y253955D01*
X531768Y254294D01*
X530812Y254590D01*
X529844Y254842D01*
X528865Y255048D01*
X527878Y255209D01*
X526885Y255325D01*
X525887Y255394D01*
X524887Y255417D01*
X523887Y255394D01*
X522889Y255325D01*
X521895Y255209D01*
X520908Y255048D01*
X519929Y254842D01*
X518961Y254590D01*
X518005Y254294D01*
X517065Y253955D01*
X516140Y253572D01*
X515235Y253147D01*
X514350Y252680D01*
X513487Y252174D01*
X512649Y251628D01*
X511837Y251043D01*
X511053Y250422D01*
X510299Y249766D01*
X509575Y249075D01*
X508884Y248351D01*
X508228Y247597D01*
X507607Y246813D01*
X507022Y246001D01*
X506476Y245163D01*
X505970Y244300D01*
X505503Y243415D01*
X505078Y242510D01*
X504695Y241586D01*
X504356Y240645D01*
X504060Y239689D01*
X503808Y238721D01*
X503602Y237742D01*
X503441Y236755D01*
X503325Y235761D01*
X503256Y234763D01*
X503233Y233763D01*
X503256Y232763D01*
X503325Y231766D01*
X503441Y230772D01*
X503602Y229785D01*
X503808Y228806D01*
X504060Y227838D01*
X504356Y226882D01*
X504695Y225941D01*
X505078Y225017D01*
X505503Y224112D01*
X505970Y223227D01*
X506476Y222364D01*
X507022Y221526D01*
X507607Y220714D01*
X508228Y219930D01*
X508884Y219176D01*
X509575Y218452D01*
X510299Y217761D01*
X511053Y217105D01*
X511837Y216483D01*
X512649Y215899D01*
X513487Y215353D01*
X514350Y214846D01*
X515235Y214380D01*
X516140Y213955D01*
X517065Y213572D01*
X518005Y213232D01*
X518961Y212936D01*
X519929Y212685D01*
X520908Y212479D01*
X521895Y212317D01*
X522889Y212202D01*
X523887Y212133D01*
X524887Y212110D01*
X525887Y212133D01*
X526885Y212202D01*
X527878Y212317D01*
X528865Y212479D01*
X529844Y212685D01*
X530813Y212936D01*
X531768Y213232D01*
X532709Y213572D01*
X533633Y213955D01*
X534539Y214380D01*
X535423Y214846D01*
X536286Y215353D01*
X537124Y215899D01*
X537936Y216484D01*
X538720Y217105D01*
X539475Y217761D01*
X540198Y218452D01*
X540889Y219176D01*
X541545Y219930D01*
X542167Y220714D01*
X542751Y221526D01*
X543297Y222364D01*
X543804Y223227D01*
X544270Y224112D01*
X544695Y225017D01*
X545078Y225941D01*
X545418Y226882D01*
X545714Y227838D01*
X545965Y228806D01*
X546172Y229785D01*
X546333Y230772D01*
X546448Y231766D01*
X546517Y232764D01*
X546540Y233763D01*
X389060D02*
X389037Y234764D01*
X388967Y235761D01*
X388852Y236755D01*
X388691Y237742D01*
X388485Y238721D01*
X388233Y239689D01*
X387937Y240645D01*
X387598Y241586D01*
X387215Y242510D01*
X386790Y243415D01*
X386323Y244300D01*
X385817Y245163D01*
X385270Y246001D01*
X384686Y246813D01*
X384065Y247597D01*
X383408Y248351D01*
X382718Y249075D01*
X381994Y249766D01*
X381240Y250422D01*
X380455Y251043D01*
X379644Y251628D01*
X378805Y252174D01*
X377943Y252680D01*
X377058Y253147D01*
X376153Y253572D01*
X375229Y253955D01*
X374288Y254294D01*
X373332Y254590D01*
X372364Y254842D01*
X371385Y255048D01*
X370398Y255209D01*
X369404Y255325D01*
X368406Y255394D01*
X367406Y255417D01*
X366406Y255394D01*
X365408Y255325D01*
X364415Y255209D01*
X363427Y255048D01*
X362449Y254842D01*
X361480Y254590D01*
X360525Y254294D01*
X359584Y253955D01*
X358660Y253572D01*
X357754Y253147D01*
X356870Y252680D01*
X356007Y252174D01*
X355169Y251628D01*
X354357Y251043D01*
X353573Y250422D01*
X352818Y249766D01*
X352095Y249075D01*
X351404Y248351D01*
X350747Y247597D01*
X350126Y246813D01*
X349542Y246001D01*
X348996Y245163D01*
X348489Y244300D01*
X348023Y243415D01*
X347598Y242510D01*
X347215Y241586D01*
X346875Y240645D01*
X346579Y239689D01*
X346328Y238721D01*
X346121Y237742D01*
X345960Y236755D01*
X345845Y235761D01*
X345776Y234763D01*
X345753Y233763D01*
X345776Y232763D01*
X345845Y231766D01*
X345960Y230772D01*
X346122Y229785D01*
X346328Y228806D01*
X346579Y227838D01*
X346875Y226882D01*
X347215Y225941D01*
X347598Y225017D01*
X348023Y224112D01*
X348489Y223227D01*
X348996Y222364D01*
X349542Y221526D01*
X350126Y220714D01*
X350747Y219930D01*
X351404Y219176D01*
X352095Y218452D01*
X352818Y217761D01*
X353573Y217105D01*
X354357Y216483D01*
X355169Y215899D01*
X356007Y215353D01*
X356870Y214846D01*
X357754Y214380D01*
X358660Y213955D01*
X359584Y213572D01*
X360525Y213232D01*
X361481Y212936D01*
X362449Y212685D01*
X363428Y212479D01*
X364415Y212317D01*
X365408Y212202D01*
X366406Y212133D01*
X367406Y212110D01*
X368406Y212133D01*
X369404Y212202D01*
X370398Y212317D01*
X371385Y212479D01*
X372364Y212685D01*
X373332Y212936D01*
X374288Y213232D01*
X375229Y213572D01*
X376153Y213955D01*
X377058Y214380D01*
X377943Y214846D01*
X378805Y215353D01*
X379644Y215899D01*
X380456Y216484D01*
X381240Y217105D01*
X381994Y217761D01*
X382718Y218452D01*
X383408Y219176D01*
X384065Y219930D01*
X384686Y220714D01*
X385271Y221526D01*
X385817Y222364D01*
X386323Y223227D01*
X386790Y224112D01*
X387215Y225017D01*
X387598Y225941D01*
X387937Y226882D01*
X388233Y227838D01*
X388485Y228806D01*
X388691Y229785D01*
X388852Y230772D01*
X388967Y231766D01*
X389037Y232764D01*
X389060Y233763D01*
X546540Y290006D02*
X546517Y291006D01*
X546448Y292004D01*
X546333Y292998D01*
X546172Y293985D01*
X545965Y294964D01*
X545714Y295932D01*
X545418Y296888D01*
X545078Y297829D01*
X544695Y298753D01*
X544270Y299658D01*
X543804Y300543D01*
X543297Y301406D01*
X542751Y302244D01*
X542167Y303056D01*
X541545Y303840D01*
X540889Y304594D01*
X540198Y305318D01*
X539474Y306009D01*
X538720Y306665D01*
X537936Y307286D01*
X537124Y307871D01*
X536286Y308417D01*
X535423Y308923D01*
X534538Y309390D01*
X533633Y309815D01*
X532709Y310198D01*
X531768Y310537D01*
X530812Y310833D01*
X529844Y311085D01*
X528865Y311291D01*
X527878Y311452D01*
X526885Y311568D01*
X525887Y311637D01*
X524887Y311660D01*
X523887Y311637D01*
X522889Y311568D01*
X521895Y311452D01*
X520908Y311291D01*
X519929Y311085D01*
X518961Y310833D01*
X518005Y310537D01*
X517065Y310198D01*
X516140Y309815D01*
X515235Y309390D01*
X514350Y308923D01*
X513487Y308417D01*
X512649Y307871D01*
X511837Y307286D01*
X511053Y306665D01*
X510299Y306009D01*
X509575Y305318D01*
X508884Y304594D01*
X508228Y303840D01*
X507607Y303056D01*
X507022Y302244D01*
X506476Y301406D01*
X505970Y300543D01*
X505503Y299658D01*
X505078Y298753D01*
X504695Y297829D01*
X504356Y296888D01*
X504060Y295932D01*
X503808Y294964D01*
X503602Y293985D01*
X503441Y292998D01*
X503325Y292004D01*
X503256Y291006D01*
X503233Y290006D01*
X503256Y289006D01*
X503325Y288008D01*
X503441Y287015D01*
X503602Y286028D01*
X503808Y285049D01*
X504060Y284081D01*
X504356Y283125D01*
X504695Y282184D01*
X505078Y281260D01*
X505503Y280355D01*
X505970Y279470D01*
X506476Y278607D01*
X507022Y277769D01*
X507607Y276957D01*
X508228Y276173D01*
X508884Y275418D01*
X509575Y274695D01*
X510299Y274004D01*
X511053Y273348D01*
X511837Y272726D01*
X512649Y272142D01*
X513487Y271596D01*
X514350Y271089D01*
X515235Y270623D01*
X516140Y270198D01*
X517065Y269815D01*
X518005Y269475D01*
X518961Y269179D01*
X519929Y268928D01*
X520908Y268722D01*
X521895Y268561D01*
X522889Y268445D01*
X523887Y268376D01*
X524887Y268353D01*
X525887Y268376D01*
X526885Y268445D01*
X527878Y268561D01*
X528865Y268722D01*
X529844Y268928D01*
X530813Y269180D01*
X531768Y269475D01*
X532709Y269815D01*
X533633Y270198D01*
X534539Y270623D01*
X535423Y271089D01*
X536286Y271596D01*
X537124Y272142D01*
X537936Y272727D01*
X538720Y273348D01*
X539475Y274004D01*
X540198Y274695D01*
X540889Y275419D01*
X541545Y276173D01*
X542167Y276957D01*
X542751Y277769D01*
X543297Y278607D01*
X543804Y279470D01*
X544270Y280355D01*
X544695Y281260D01*
X545078Y282184D01*
X545418Y283125D01*
X545714Y284081D01*
X545965Y285049D01*
X546172Y286028D01*
X546333Y287015D01*
X546448Y288009D01*
X546517Y289006D01*
X546540Y290006D01*
X389060D02*
X389037Y291006D01*
X388967Y292004D01*
X388852Y292998D01*
X388691Y293985D01*
X388485Y294964D01*
X388233Y295932D01*
X387937Y296888D01*
X387598Y297829D01*
X387215Y298753D01*
X386790Y299658D01*
X386323Y300543D01*
X385817Y301406D01*
X385270Y302244D01*
X384686Y303056D01*
X384065Y303840D01*
X383408Y304594D01*
X382718Y305318D01*
X381994Y306009D01*
X381240Y306665D01*
X380455Y307286D01*
X379644Y307871D01*
X378805Y308417D01*
X377943Y308923D01*
X377058Y309390D01*
X376153Y309815D01*
X375229Y310198D01*
X374288Y310537D01*
X373332Y310833D01*
X372364Y311085D01*
X371385Y311291D01*
X370398Y311452D01*
X369404Y311568D01*
X368406Y311637D01*
X367406Y311660D01*
X366406Y311637D01*
X365408Y311568D01*
X364415Y311452D01*
X363427Y311291D01*
X362449Y311085D01*
X361480Y310833D01*
X360525Y310537D01*
X359584Y310198D01*
X358660Y309815D01*
X357754Y309390D01*
X356870Y308923D01*
X356007Y308417D01*
X355169Y307871D01*
X354357Y307286D01*
X353573Y306665D01*
X352818Y306009D01*
X352095Y305318D01*
X351404Y304594D01*
X350747Y303840D01*
X350126Y303056D01*
X349542Y302244D01*
X348996Y301406D01*
X348489Y300543D01*
X348023Y299658D01*
X347598Y298753D01*
X347215Y297829D01*
X346875Y296888D01*
X346579Y295932D01*
X346328Y294964D01*
X346121Y293985D01*
X345960Y292998D01*
X345845Y292004D01*
X345776Y291006D01*
X345753Y290006D01*
X345776Y289006D01*
X345845Y288008D01*
X345960Y287015D01*
X346122Y286028D01*
X346328Y285049D01*
X346579Y284081D01*
X346875Y283125D01*
X347215Y282184D01*
X347598Y281260D01*
X348023Y280355D01*
X348489Y279470D01*
X348996Y278607D01*
X349542Y277769D01*
X350126Y276957D01*
X350747Y276173D01*
X351404Y275418D01*
X352095Y274695D01*
X352818Y274004D01*
X353573Y273348D01*
X354357Y272726D01*
X355169Y272142D01*
X356007Y271596D01*
X356870Y271089D01*
X357754Y270623D01*
X358660Y270198D01*
X359584Y269815D01*
X360525Y269475D01*
X361481Y269179D01*
X362449Y268928D01*
X363428Y268722D01*
X364415Y268561D01*
X365408Y268445D01*
X366406Y268376D01*
X367406Y268353D01*
X368406Y268376D01*
X369404Y268445D01*
X370398Y268561D01*
X371385Y268722D01*
X372364Y268928D01*
X373332Y269180D01*
X374288Y269475D01*
X375229Y269815D01*
X376153Y270198D01*
X377058Y270623D01*
X377943Y271089D01*
X378805Y271596D01*
X379644Y272142D01*
X380456Y272727D01*
X381240Y273348D01*
X381994Y274004D01*
X382718Y274695D01*
X383408Y275419D01*
X384065Y276173D01*
X384686Y276957D01*
X385271Y277769D01*
X385817Y278607D01*
X386323Y279470D01*
X386790Y280355D01*
X387215Y281260D01*
X387598Y282184D01*
X387937Y283125D01*
X388233Y284081D01*
X388485Y285049D01*
X388691Y286028D01*
X388852Y287015D01*
X388967Y288009D01*
X389037Y289006D01*
X389060Y290006D01*
X546540Y346249D02*
X546517Y347249D01*
X546448Y348247D01*
X546333Y349241D01*
X546172Y350228D01*
X545965Y351207D01*
X545714Y352175D01*
X545418Y353131D01*
X545078Y354071D01*
X544695Y354996D01*
X544270Y355901D01*
X543804Y356786D01*
X543297Y357648D01*
X542751Y358487D01*
X542167Y359298D01*
X541545Y360083D01*
X540889Y360837D01*
X540198Y361561D01*
X539474Y362251D01*
X538720Y362908D01*
X537936Y363529D01*
X537124Y364113D01*
X536286Y364660D01*
X535423Y365166D01*
X534538Y365633D01*
X533633Y366058D01*
X532709Y366441D01*
X531768Y366780D01*
X530812Y367076D01*
X529844Y367328D01*
X528865Y367534D01*
X527878Y367695D01*
X526885Y367811D01*
X525887Y367880D01*
X524887Y367903D01*
X523887Y367880D01*
X522889Y367811D01*
X521895Y367695D01*
X520908Y367534D01*
X519929Y367328D01*
X518961Y367076D01*
X518005Y366780D01*
X517065Y366441D01*
X516140Y366058D01*
X515235Y365633D01*
X514350Y365166D01*
X513487Y364660D01*
X512649Y364113D01*
X511837Y363529D01*
X511053Y362908D01*
X510299Y362251D01*
X509575Y361561D01*
X508884Y360837D01*
X508228Y360083D01*
X507607Y359298D01*
X507022Y358487D01*
X506476Y357648D01*
X505970Y356786D01*
X505503Y355901D01*
X505078Y354996D01*
X504695Y354071D01*
X504356Y353131D01*
X504060Y352175D01*
X503808Y351207D01*
X503602Y350228D01*
X503441Y349241D01*
X503325Y348247D01*
X503256Y347249D01*
X503233Y346249D01*
X503256Y345249D01*
X503325Y344251D01*
X503441Y343258D01*
X503602Y342270D01*
X503808Y341292D01*
X504060Y340324D01*
X504356Y339368D01*
X504695Y338427D01*
X505078Y337503D01*
X505503Y336597D01*
X505970Y335713D01*
X506476Y334850D01*
X507022Y334012D01*
X507607Y333200D01*
X508228Y332416D01*
X508884Y331661D01*
X509575Y330938D01*
X510299Y330247D01*
X511053Y329591D01*
X511837Y328969D01*
X512649Y328385D01*
X513487Y327839D01*
X514350Y327332D01*
X515235Y326866D01*
X516140Y326441D01*
X517065Y326058D01*
X518005Y325718D01*
X518961Y325422D01*
X519929Y325171D01*
X520908Y324964D01*
X521895Y324803D01*
X522889Y324688D01*
X523887Y324619D01*
X524887Y324596D01*
X525887Y324619D01*
X526885Y324688D01*
X527878Y324803D01*
X528865Y324964D01*
X529844Y325171D01*
X530813Y325423D01*
X531768Y325718D01*
X532709Y326058D01*
X533633Y326441D01*
X534539Y326866D01*
X535423Y327332D01*
X536286Y327839D01*
X537124Y328385D01*
X537936Y328970D01*
X538720Y329591D01*
X539475Y330247D01*
X540198Y330938D01*
X540889Y331662D01*
X541545Y332416D01*
X542167Y333200D01*
X542751Y334012D01*
X543297Y334850D01*
X543804Y335713D01*
X544270Y336598D01*
X544695Y337503D01*
X545078Y338427D01*
X545418Y339368D01*
X545714Y340324D01*
X545965Y341292D01*
X546172Y342271D01*
X546333Y343258D01*
X546448Y344252D01*
X546517Y345250D01*
X546540Y346249D01*
X389060D02*
X389037Y347249D01*
X388967Y348247D01*
X388852Y349241D01*
X388691Y350228D01*
X388485Y351207D01*
X388233Y352175D01*
X387937Y353131D01*
X387598Y354071D01*
X387215Y354996D01*
X386790Y355901D01*
X386323Y356786D01*
X385817Y357648D01*
X385270Y358487D01*
X384686Y359298D01*
X384065Y360083D01*
X383408Y360837D01*
X382718Y361561D01*
X381994Y362251D01*
X381240Y362908D01*
X380455Y363529D01*
X379644Y364113D01*
X378805Y364660D01*
X377943Y365166D01*
X377058Y365633D01*
X376153Y366058D01*
X375229Y366441D01*
X374288Y366780D01*
X373332Y367076D01*
X372364Y367328D01*
X371385Y367534D01*
X370398Y367695D01*
X369404Y367811D01*
X368406Y367880D01*
X367406Y367903D01*
X366406Y367880D01*
X365408Y367811D01*
X364415Y367695D01*
X363427Y367534D01*
X362449Y367328D01*
X361480Y367076D01*
X360525Y366780D01*
X359584Y366441D01*
X358660Y366058D01*
X357754Y365633D01*
X356870Y365166D01*
X356007Y364660D01*
X355169Y364113D01*
X354357Y363529D01*
X353573Y362908D01*
X352818Y362251D01*
X352095Y361561D01*
X351404Y360837D01*
X350747Y360083D01*
X350126Y359298D01*
X349542Y358487D01*
X348996Y357648D01*
X348489Y356786D01*
X348023Y355901D01*
X347598Y354996D01*
X347215Y354071D01*
X346875Y353131D01*
X346579Y352175D01*
X346328Y351207D01*
X346121Y350228D01*
X345960Y349241D01*
X345845Y348247D01*
X345776Y347249D01*
X345753Y346249D01*
X345776Y345249D01*
X345845Y344251D01*
X345960Y343258D01*
X346122Y342270D01*
X346328Y341292D01*
X346579Y340324D01*
X346875Y339368D01*
X347215Y338427D01*
X347598Y337503D01*
X348023Y336597D01*
X348489Y335713D01*
X348996Y334850D01*
X349542Y334012D01*
X350126Y333200D01*
X350747Y332416D01*
X351404Y331661D01*
X352095Y330938D01*
X352818Y330247D01*
X353573Y329591D01*
X354357Y328969D01*
X355169Y328385D01*
X356007Y327839D01*
X356870Y327332D01*
X357754Y326866D01*
X358660Y326441D01*
X359584Y326058D01*
X360525Y325718D01*
X361481Y325422D01*
X362449Y325171D01*
X363428Y324964D01*
X364415Y324803D01*
X365408Y324688D01*
X366406Y324619D01*
X367406Y324596D01*
X368406Y324619D01*
X369404Y324688D01*
X370398Y324803D01*
X371385Y324964D01*
X372364Y325171D01*
X373332Y325423D01*
X374288Y325718D01*
X375229Y326058D01*
X376153Y326441D01*
X377058Y326866D01*
X377943Y327332D01*
X378805Y327839D01*
X379644Y328385D01*
X380456Y328970D01*
X381240Y329591D01*
X381994Y330247D01*
X382718Y330938D01*
X383408Y331662D01*
X384065Y332416D01*
X384686Y333200D01*
X385271Y334012D01*
X385817Y334850D01*
X386323Y335713D01*
X386790Y336598D01*
X387215Y337503D01*
X387598Y338427D01*
X387937Y339368D01*
X388233Y340324D01*
X388485Y341292D01*
X388691Y342271D01*
X388852Y343258D01*
X388967Y344252D01*
X389037Y345250D01*
X389060Y346249D01*
X546540Y402492D02*
X546517Y403492D01*
X546448Y404490D01*
X546333Y405484D01*
X546172Y406471D01*
X545965Y407450D01*
X545714Y408418D01*
X545418Y409374D01*
X545078Y410315D01*
X544695Y411239D01*
X544270Y412144D01*
X543804Y413029D01*
X543297Y413892D01*
X542751Y414729D01*
X542167Y415542D01*
X541545Y416326D01*
X540889Y417080D01*
X540198Y417804D01*
X539474Y418495D01*
X538720Y419151D01*
X537936Y419772D01*
X537124Y420357D01*
X536286Y420902D01*
X535423Y421409D01*
X534538Y421876D01*
X533633Y422301D01*
X532709Y422684D01*
X531768Y423023D01*
X530812Y423319D01*
X529844Y423571D01*
X528865Y423777D01*
X527878Y423938D01*
X526885Y424053D01*
X525887Y424123D01*
X524887Y424146D01*
X523887Y424123D01*
X522889Y424053D01*
X521895Y423938D01*
X520908Y423777D01*
X519929Y423571D01*
X518961Y423319D01*
X518005Y423023D01*
X517065Y422684D01*
X516140Y422301D01*
X515235Y421876D01*
X514350Y421409D01*
X513487Y420903D01*
X512649Y420357D01*
X511837Y419772D01*
X511053Y419151D01*
X510299Y418495D01*
X509575Y417804D01*
X508884Y417080D01*
X508228Y416326D01*
X507607Y415542D01*
X507022Y414730D01*
X506476Y413892D01*
X505970Y413029D01*
X505503Y412144D01*
X505078Y411239D01*
X504695Y410315D01*
X504356Y409374D01*
X504060Y408418D01*
X503808Y407450D01*
X503602Y406471D01*
X503441Y405484D01*
X503325Y404490D01*
X503256Y403492D01*
X503233Y402492D01*
X503256Y401492D01*
X503325Y400494D01*
X503441Y399501D01*
X503602Y398514D01*
X503808Y397535D01*
X504060Y396567D01*
X504356Y395611D01*
X504695Y394670D01*
X505078Y393746D01*
X505503Y392841D01*
X505970Y391956D01*
X506476Y391093D01*
X507022Y390255D01*
X507607Y389443D01*
X508228Y388659D01*
X508884Y387904D01*
X509575Y387181D01*
X510299Y386490D01*
X511053Y385834D01*
X511837Y385212D01*
X512649Y384628D01*
X513487Y384082D01*
X514350Y383575D01*
X515235Y383109D01*
X516140Y382684D01*
X517065Y382301D01*
X518005Y381961D01*
X518961Y381665D01*
X519929Y381414D01*
X520908Y381207D01*
X521895Y381046D01*
X522889Y380931D01*
X523887Y380862D01*
X524887Y380839D01*
X525887Y380862D01*
X526885Y380931D01*
X527878Y381047D01*
X528865Y381207D01*
X529844Y381414D01*
X530813Y381665D01*
X531768Y381961D01*
X532709Y382301D01*
X533633Y382684D01*
X534539Y383109D01*
X535423Y383575D01*
X536286Y384082D01*
X537124Y384628D01*
X537936Y385212D01*
X538720Y385834D01*
X539475Y386490D01*
X540198Y387181D01*
X540889Y387905D01*
X541545Y388659D01*
X542167Y389443D01*
X542751Y390255D01*
X543297Y391093D01*
X543804Y391956D01*
X544270Y392841D01*
X544695Y393746D01*
X545078Y394670D01*
X545418Y395611D01*
X545714Y396567D01*
X545965Y397535D01*
X546172Y398514D01*
X546333Y399501D01*
X546448Y400495D01*
X546517Y401493D01*
X546540Y402492D01*
X389060D02*
X389037Y403492D01*
X388967Y404490D01*
X388852Y405484D01*
X388691Y406471D01*
X388485Y407450D01*
X388233Y408418D01*
X387937Y409374D01*
X387598Y410315D01*
X387215Y411239D01*
X386790Y412144D01*
X386323Y413029D01*
X385817Y413892D01*
X385270Y414729D01*
X384686Y415542D01*
X384065Y416326D01*
X383408Y417080D01*
X382718Y417804D01*
X381994Y418495D01*
X381240Y419151D01*
X380455Y419772D01*
X379644Y420357D01*
X378805Y420902D01*
X377943Y421409D01*
X377058Y421876D01*
X376153Y422301D01*
X375229Y422684D01*
X374288Y423023D01*
X373332Y423319D01*
X372364Y423571D01*
X371385Y423777D01*
X370398Y423938D01*
X369404Y424053D01*
X368406Y424123D01*
X367406Y424146D01*
X366406Y424123D01*
X365408Y424053D01*
X364415Y423938D01*
X363427Y423777D01*
X362449Y423571D01*
X361480Y423319D01*
X360525Y423023D01*
X359584Y422684D01*
X358660Y422301D01*
X357754Y421876D01*
X356870Y421409D01*
X356007Y420903D01*
X355169Y420357D01*
X354357Y419772D01*
X353573Y419151D01*
X352818Y418495D01*
X352095Y417804D01*
X351404Y417080D01*
X350747Y416326D01*
X350126Y415542D01*
X349542Y414730D01*
X348996Y413892D01*
X348489Y413029D01*
X348023Y412144D01*
X347598Y411239D01*
X347215Y410315D01*
X346875Y409374D01*
X346579Y408418D01*
X346328Y407450D01*
X346121Y406471D01*
X345960Y405484D01*
X345845Y404490D01*
X345776Y403492D01*
X345753Y402492D01*
X345776Y401492D01*
X345845Y400494D01*
X345960Y399501D01*
X346122Y398514D01*
X346328Y397535D01*
X346579Y396567D01*
X346875Y395611D01*
X347215Y394670D01*
X347598Y393746D01*
X348023Y392841D01*
X348489Y391956D01*
X348996Y391093D01*
X349542Y390255D01*
X350126Y389443D01*
X350747Y388659D01*
X351404Y387904D01*
X352095Y387181D01*
X352818Y386490D01*
X353573Y385834D01*
X354357Y385212D01*
X355169Y384628D01*
X356007Y384082D01*
X356870Y383575D01*
X357754Y383109D01*
X358660Y382684D01*
X359584Y382301D01*
X360525Y381961D01*
X361481Y381665D01*
X362449Y381414D01*
X363428Y381207D01*
X364415Y381046D01*
X365408Y380931D01*
X366406Y380862D01*
X367406Y380839D01*
X368406Y380862D01*
X369404Y380931D01*
X370398Y381047D01*
X371385Y381207D01*
X372364Y381414D01*
X373332Y381665D01*
X374288Y381961D01*
X375229Y382301D01*
X376153Y382684D01*
X377058Y383109D01*
X377943Y383575D01*
X378805Y384082D01*
X379644Y384628D01*
X380456Y385212D01*
X381240Y385834D01*
X381994Y386490D01*
X382718Y387181D01*
X383408Y387905D01*
X384065Y388659D01*
X384686Y389443D01*
X385271Y390255D01*
X385817Y391093D01*
X386323Y391956D01*
X386790Y392841D01*
X387215Y393746D01*
X387598Y394670D01*
X387937Y395611D01*
X388233Y396567D01*
X388485Y397535D01*
X388691Y398514D01*
X388852Y399501D01*
X388967Y400495D01*
X389037Y401493D01*
X389060Y402492D01*
X546540Y458735D02*
X546517Y459735D01*
X546448Y460733D01*
X546333Y461727D01*
X546172Y462714D01*
X545965Y463693D01*
X545714Y464661D01*
X545418Y465617D01*
X545078Y466558D01*
X544695Y467482D01*
X544270Y468387D01*
X543804Y469272D01*
X543297Y470134D01*
X542751Y470972D01*
X542167Y471784D01*
X541545Y472569D01*
X540889Y473323D01*
X540198Y474047D01*
X539474Y474738D01*
X538720Y475394D01*
X537936Y476015D01*
X537124Y476599D01*
X536286Y477145D01*
X535423Y477652D01*
X534538Y478119D01*
X533633Y478544D01*
X532709Y478927D01*
X531768Y479266D01*
X530812Y479562D01*
X529844Y479814D01*
X528865Y480020D01*
X527878Y480181D01*
X526885Y480297D01*
X525887Y480366D01*
X524887Y480389D01*
X523887Y480366D01*
X522889Y480297D01*
X521895Y480181D01*
X520908Y480020D01*
X519929Y479814D01*
X518961Y479562D01*
X518005Y479266D01*
X517065Y478927D01*
X516140Y478544D01*
X515235Y478119D01*
X514350Y477652D01*
X513487Y477145D01*
X512649Y476599D01*
X511837Y476015D01*
X511053Y475394D01*
X510299Y474738D01*
X509575Y474047D01*
X508884Y473323D01*
X508228Y472569D01*
X507607Y471784D01*
X507022Y470972D01*
X506476Y470134D01*
X505970Y469272D01*
X505503Y468387D01*
X505078Y467482D01*
X504695Y466558D01*
X504356Y465617D01*
X504060Y464661D01*
X503808Y463693D01*
X503602Y462714D01*
X503441Y461727D01*
X503325Y460733D01*
X503256Y459735D01*
X503233Y458735D01*
X503256Y457735D01*
X503325Y456737D01*
X503441Y455744D01*
X503602Y454756D01*
X503808Y453778D01*
X504060Y452809D01*
X504356Y451854D01*
X504695Y450913D01*
X505078Y449989D01*
X505503Y449084D01*
X505970Y448199D01*
X506476Y447336D01*
X507022Y446498D01*
X507607Y445686D01*
X508228Y444902D01*
X508884Y444147D01*
X509575Y443424D01*
X510299Y442733D01*
X511053Y442076D01*
X511837Y441455D01*
X512649Y440871D01*
X513487Y440325D01*
X514350Y439818D01*
X515235Y439352D01*
X516140Y438927D01*
X517065Y438544D01*
X518005Y438204D01*
X518961Y437908D01*
X519929Y437657D01*
X520908Y437451D01*
X521895Y437289D01*
X522889Y437174D01*
X523887Y437105D01*
X524887Y437082D01*
X525887Y437105D01*
X526885Y437174D01*
X527878Y437289D01*
X528865Y437451D01*
X529844Y437657D01*
X530813Y437908D01*
X531768Y438204D01*
X532709Y438544D01*
X533633Y438927D01*
X534539Y439352D01*
X535423Y439818D01*
X536286Y440325D01*
X537124Y440871D01*
X537936Y441456D01*
X538720Y442077D01*
X539475Y442733D01*
X540198Y443424D01*
X540889Y444147D01*
X541545Y444902D01*
X542167Y445686D01*
X542751Y446498D01*
X543297Y447336D01*
X543804Y448199D01*
X544270Y449084D01*
X544695Y449989D01*
X545078Y450913D01*
X545418Y451854D01*
X545714Y452810D01*
X545965Y453778D01*
X546172Y454757D01*
X546333Y455744D01*
X546448Y456738D01*
X546517Y457735D01*
X546540Y458735D01*
X389060D02*
X389037Y459735D01*
X388967Y460733D01*
X388852Y461727D01*
X388691Y462714D01*
X388485Y463693D01*
X388233Y464661D01*
X387937Y465617D01*
X387598Y466558D01*
X387215Y467482D01*
X386790Y468387D01*
X386323Y469272D01*
X385817Y470134D01*
X385270Y470972D01*
X384686Y471784D01*
X384065Y472569D01*
X383408Y473323D01*
X382718Y474047D01*
X381994Y474738D01*
X381240Y475394D01*
X380455Y476015D01*
X379644Y476599D01*
X378805Y477145D01*
X377943Y477652D01*
X377058Y478119D01*
X376153Y478544D01*
X375229Y478927D01*
X374288Y479266D01*
X373332Y479562D01*
X372364Y479814D01*
X371385Y480020D01*
X370398Y480181D01*
X369404Y480297D01*
X368406Y480366D01*
X367406Y480389D01*
X366406Y480366D01*
X365408Y480297D01*
X364415Y480181D01*
X363427Y480020D01*
X362449Y479814D01*
X361480Y479562D01*
X360525Y479266D01*
X359584Y478927D01*
X358660Y478544D01*
X357754Y478119D01*
X356870Y477652D01*
X356007Y477145D01*
X355169Y476599D01*
X354357Y476015D01*
X353573Y475394D01*
X352818Y474738D01*
X352095Y474047D01*
X351404Y473323D01*
X350747Y472569D01*
X350126Y471784D01*
X349542Y470972D01*
X348996Y470134D01*
X348489Y469272D01*
X348023Y468387D01*
X347598Y467482D01*
X347215Y466558D01*
X346875Y465617D01*
X346579Y464661D01*
X346328Y463693D01*
X346121Y462714D01*
X345960Y461727D01*
X345845Y460733D01*
X345776Y459735D01*
X345753Y458735D01*
X345776Y457735D01*
X345845Y456737D01*
X345960Y455744D01*
X346122Y454756D01*
X346328Y453778D01*
X346579Y452809D01*
X346875Y451854D01*
X347215Y450913D01*
X347598Y449989D01*
X348023Y449084D01*
X348489Y448199D01*
X348996Y447336D01*
X349542Y446498D01*
X350126Y445686D01*
X350747Y444902D01*
X351404Y444147D01*
X352095Y443424D01*
X352818Y442733D01*
X353573Y442076D01*
X354357Y441455D01*
X355169Y440871D01*
X356007Y440325D01*
X356870Y439818D01*
X357754Y439352D01*
X358660Y438927D01*
X359584Y438544D01*
X360525Y438204D01*
X361481Y437908D01*
X362449Y437657D01*
X363428Y437451D01*
X364415Y437289D01*
X365408Y437174D01*
X366406Y437105D01*
X367406Y437082D01*
X368406Y437105D01*
X369404Y437174D01*
X370398Y437289D01*
X371385Y437451D01*
X372364Y437657D01*
X373332Y437908D01*
X374288Y438204D01*
X375229Y438544D01*
X376153Y438927D01*
X377058Y439352D01*
X377943Y439818D01*
X378805Y440325D01*
X379644Y440871D01*
X380456Y441456D01*
X381240Y442077D01*
X381994Y442733D01*
X382718Y443424D01*
X383408Y444147D01*
X384065Y444902D01*
X384686Y445686D01*
X385271Y446498D01*
X385817Y447336D01*
X386323Y448199D01*
X386790Y449084D01*
X387215Y449989D01*
X387598Y450913D01*
X387937Y451854D01*
X388233Y452810D01*
X388485Y453778D01*
X388691Y454757D01*
X388852Y455744D01*
X388967Y456738D01*
X389037Y457735D01*
X389060Y458735D01*
X546540Y514978D02*
X546517Y515978D01*
X546448Y516976D01*
X546333Y517970D01*
X546172Y518957D01*
X545965Y519936D01*
X545714Y520904D01*
X545418Y521860D01*
X545078Y522800D01*
X544695Y523725D01*
X544270Y524630D01*
X543804Y525515D01*
X543297Y526377D01*
X542751Y527215D01*
X542167Y528027D01*
X541545Y528812D01*
X540889Y529566D01*
X540198Y530290D01*
X539474Y530980D01*
X538720Y531637D01*
X537936Y532258D01*
X537124Y532842D01*
X536286Y533389D01*
X535423Y533895D01*
X534538Y534362D01*
X533633Y534787D01*
X532709Y535170D01*
X531768Y535509D01*
X530812Y535805D01*
X529844Y536057D01*
X528865Y536263D01*
X527878Y536424D01*
X526885Y536540D01*
X525887Y536609D01*
X524887Y536632D01*
X523887Y536609D01*
X522889Y536540D01*
X521895Y536424D01*
X520908Y536263D01*
X519929Y536057D01*
X518961Y535805D01*
X518005Y535509D01*
X517065Y535170D01*
X516140Y534787D01*
X515235Y534362D01*
X514350Y533895D01*
X513487Y533389D01*
X512649Y532842D01*
X511837Y532258D01*
X511053Y531637D01*
X510299Y530980D01*
X509575Y530290D01*
X508884Y529566D01*
X508228Y528812D01*
X507607Y528027D01*
X507022Y527215D01*
X506476Y526377D01*
X505970Y525515D01*
X505503Y524630D01*
X505078Y523725D01*
X504695Y522800D01*
X504356Y521860D01*
X504060Y520904D01*
X503808Y519936D01*
X503602Y518957D01*
X503441Y517970D01*
X503325Y516976D01*
X503256Y515978D01*
X503233Y514978D01*
X503256Y513978D01*
X503325Y512980D01*
X503441Y511987D01*
X503602Y510999D01*
X503808Y510021D01*
X504060Y509053D01*
X504356Y508097D01*
X504695Y507156D01*
X505078Y506232D01*
X505503Y505326D01*
X505970Y504441D01*
X506476Y503579D01*
X507022Y502741D01*
X507607Y501929D01*
X508228Y501145D01*
X508884Y500390D01*
X509575Y499667D01*
X510299Y498976D01*
X511053Y498319D01*
X511837Y497698D01*
X512649Y497114D01*
X513487Y496568D01*
X514350Y496061D01*
X515235Y495595D01*
X516140Y495170D01*
X517065Y494787D01*
X518005Y494447D01*
X518961Y494151D01*
X519929Y493900D01*
X520908Y493693D01*
X521895Y493532D01*
X522889Y493417D01*
X523887Y493348D01*
X524887Y493325D01*
X525887Y493348D01*
X526885Y493417D01*
X527878Y493532D01*
X528865Y493693D01*
X529844Y493900D01*
X530813Y494151D01*
X531768Y494447D01*
X532709Y494787D01*
X533633Y495170D01*
X534539Y495595D01*
X535423Y496061D01*
X536286Y496568D01*
X537124Y497114D01*
X537936Y497698D01*
X538720Y498319D01*
X539475Y498976D01*
X540198Y499667D01*
X540889Y500390D01*
X541545Y501145D01*
X542167Y501929D01*
X542751Y502741D01*
X543297Y503579D01*
X543804Y504442D01*
X544270Y505327D01*
X544695Y506232D01*
X545078Y507156D01*
X545418Y508097D01*
X545714Y509053D01*
X545965Y510021D01*
X546172Y511000D01*
X546333Y511987D01*
X546448Y512981D01*
X546517Y513978D01*
X546540Y514978D01*
X389060D02*
X389037Y515978D01*
X388967Y516976D01*
X388852Y517970D01*
X388691Y518957D01*
X388485Y519936D01*
X388233Y520904D01*
X387937Y521860D01*
X387598Y522800D01*
X387215Y523725D01*
X386790Y524630D01*
X386323Y525515D01*
X385817Y526377D01*
X385270Y527215D01*
X384686Y528027D01*
X384065Y528812D01*
X383408Y529566D01*
X382718Y530290D01*
X381994Y530980D01*
X381240Y531637D01*
X380455Y532258D01*
X379644Y532842D01*
X378805Y533389D01*
X377943Y533895D01*
X377058Y534362D01*
X376153Y534787D01*
X375229Y535170D01*
X374288Y535509D01*
X373332Y535805D01*
X372364Y536057D01*
X371385Y536263D01*
X370398Y536424D01*
X369404Y536540D01*
X368406Y536609D01*
X367406Y536632D01*
X366406Y536609D01*
X365408Y536540D01*
X364415Y536424D01*
X363427Y536263D01*
X362449Y536057D01*
X361480Y535805D01*
X360525Y535509D01*
X359584Y535170D01*
X358660Y534787D01*
X357754Y534362D01*
X356870Y533895D01*
X356007Y533389D01*
X355169Y532842D01*
X354357Y532258D01*
X353573Y531637D01*
X352818Y530980D01*
X352095Y530290D01*
X351404Y529566D01*
X350747Y528812D01*
X350126Y528027D01*
X349542Y527215D01*
X348996Y526377D01*
X348489Y525515D01*
X348023Y524630D01*
X347598Y523725D01*
X347215Y522800D01*
X346875Y521860D01*
X346579Y520904D01*
X346328Y519936D01*
X346121Y518957D01*
X345960Y517970D01*
X345845Y516976D01*
X345776Y515978D01*
X345753Y514978D01*
X345776Y513978D01*
X345845Y512980D01*
X345960Y511987D01*
X346122Y510999D01*
X346328Y510021D01*
X346579Y509053D01*
X346875Y508097D01*
X347215Y507156D01*
X347598Y506232D01*
X348023Y505326D01*
X348489Y504441D01*
X348996Y503579D01*
X349542Y502741D01*
X350126Y501929D01*
X350747Y501145D01*
X351404Y500390D01*
X352095Y499667D01*
X352818Y498976D01*
X353573Y498319D01*
X354357Y497698D01*
X355169Y497114D01*
X356007Y496568D01*
X356870Y496061D01*
X357754Y495595D01*
X358660Y495170D01*
X359584Y494787D01*
X360525Y494447D01*
X361481Y494151D01*
X362449Y493900D01*
X363428Y493693D01*
X364415Y493532D01*
X365408Y493417D01*
X366406Y493348D01*
X367406Y493325D01*
X368406Y493348D01*
X369404Y493417D01*
X370398Y493532D01*
X371385Y493693D01*
X372364Y493900D01*
X373332Y494151D01*
X374288Y494447D01*
X375229Y494787D01*
X376153Y495170D01*
X377058Y495595D01*
X377943Y496061D01*
X378805Y496568D01*
X379644Y497114D01*
X380456Y497698D01*
X381240Y498319D01*
X381994Y498976D01*
X382718Y499667D01*
X383408Y500390D01*
X384065Y501145D01*
X384686Y501929D01*
X385271Y502741D01*
X385817Y503579D01*
X386323Y504442D01*
X386790Y505327D01*
X387215Y506232D01*
X387598Y507156D01*
X387937Y508097D01*
X388233Y509053D01*
X388485Y510021D01*
X388691Y511000D01*
X388852Y511987D01*
X388967Y512981D01*
X389037Y513978D01*
X389060Y514978D01*
X546540Y571221D02*
X546517Y572221D01*
X546448Y573219D01*
X546333Y574213D01*
X546172Y575200D01*
X545965Y576179D01*
X545714Y577147D01*
X545418Y578103D01*
X545078Y579043D01*
X544695Y579968D01*
X544270Y580873D01*
X543804Y581758D01*
X543297Y582620D01*
X542751Y583458D01*
X542167Y584270D01*
X541545Y585055D01*
X540889Y585809D01*
X540198Y586533D01*
X539474Y587223D01*
X538720Y587880D01*
X537936Y588501D01*
X537124Y589085D01*
X536286Y589632D01*
X535423Y590138D01*
X534538Y590605D01*
X533633Y591030D01*
X532709Y591413D01*
X531768Y591752D01*
X530812Y592048D01*
X529844Y592300D01*
X528865Y592506D01*
X527878Y592667D01*
X526885Y592782D01*
X525887Y592852D01*
X524887Y592875D01*
X523887Y592852D01*
X522889Y592782D01*
X521895Y592667D01*
X520908Y592506D01*
X519929Y592300D01*
X518961Y592048D01*
X518005Y591752D01*
X517065Y591413D01*
X516140Y591030D01*
X515235Y590605D01*
X514350Y590138D01*
X513487Y589632D01*
X512649Y589085D01*
X511837Y588501D01*
X511053Y587880D01*
X510299Y587223D01*
X509575Y586533D01*
X508884Y585809D01*
X508228Y585055D01*
X507607Y584270D01*
X507022Y583459D01*
X506476Y582620D01*
X505970Y581758D01*
X505503Y580873D01*
X505078Y579968D01*
X504695Y579043D01*
X504356Y578102D01*
X504060Y577147D01*
X503808Y576179D01*
X503602Y575200D01*
X503441Y574213D01*
X503325Y573219D01*
X503256Y572221D01*
X503233Y571221D01*
X503256Y570221D01*
X503325Y569223D01*
X503441Y568230D01*
X503602Y567242D01*
X503808Y566264D01*
X504060Y565295D01*
X504356Y564340D01*
X504695Y563399D01*
X505078Y562475D01*
X505503Y561569D01*
X505970Y560684D01*
X506476Y559822D01*
X507022Y558984D01*
X507607Y558172D01*
X508228Y557388D01*
X508884Y556633D01*
X509575Y555910D01*
X510299Y555219D01*
X511053Y554562D01*
X511837Y553941D01*
X512649Y553357D01*
X513487Y552811D01*
X514350Y552304D01*
X515235Y551838D01*
X516140Y551413D01*
X517065Y551030D01*
X518005Y550690D01*
X518961Y550394D01*
X519929Y550143D01*
X520908Y549936D01*
X521895Y549775D01*
X522889Y549660D01*
X523887Y549591D01*
X524887Y549568D01*
X525887Y549591D01*
X526885Y549660D01*
X527878Y549775D01*
X528865Y549936D01*
X529844Y550143D01*
X530813Y550394D01*
X531768Y550690D01*
X532709Y551030D01*
X533633Y551413D01*
X534539Y551838D01*
X535423Y552304D01*
X536286Y552811D01*
X537124Y553357D01*
X537936Y553941D01*
X538720Y554563D01*
X539475Y555219D01*
X540198Y555910D01*
X540889Y556633D01*
X541545Y557388D01*
X542167Y558172D01*
X542751Y558984D01*
X543297Y559822D01*
X543804Y560685D01*
X544270Y561570D01*
X544695Y562475D01*
X545078Y563399D01*
X545418Y564340D01*
X545714Y565296D01*
X545965Y566264D01*
X546172Y567243D01*
X546333Y568230D01*
X546448Y569223D01*
X546517Y570221D01*
X546540Y571221D01*
X389060D02*
X389037Y572221D01*
X388967Y573219D01*
X388852Y574213D01*
X388691Y575200D01*
X388485Y576179D01*
X388233Y577147D01*
X387937Y578103D01*
X387598Y579043D01*
X387215Y579968D01*
X386790Y580873D01*
X386323Y581758D01*
X385817Y582620D01*
X385270Y583458D01*
X384686Y584270D01*
X384065Y585055D01*
X383408Y585809D01*
X382718Y586533D01*
X381994Y587223D01*
X381240Y587880D01*
X380455Y588501D01*
X379644Y589085D01*
X378805Y589632D01*
X377943Y590138D01*
X377058Y590605D01*
X376153Y591030D01*
X375229Y591413D01*
X374288Y591752D01*
X373332Y592048D01*
X372364Y592300D01*
X371385Y592506D01*
X370398Y592667D01*
X369404Y592782D01*
X368406Y592852D01*
X367406Y592875D01*
X366406Y592852D01*
X365408Y592782D01*
X364415Y592667D01*
X363427Y592506D01*
X362449Y592300D01*
X361480Y592048D01*
X360525Y591752D01*
X359584Y591413D01*
X358660Y591030D01*
X357754Y590605D01*
X356870Y590138D01*
X356007Y589632D01*
X355169Y589085D01*
X354357Y588501D01*
X353573Y587880D01*
X352818Y587223D01*
X352095Y586533D01*
X351404Y585809D01*
X350747Y585055D01*
X350126Y584270D01*
X349542Y583459D01*
X348996Y582620D01*
X348489Y581758D01*
X348023Y580873D01*
X347598Y579968D01*
X347215Y579043D01*
X346875Y578102D01*
X346579Y577147D01*
X346328Y576179D01*
X346121Y575200D01*
X345960Y574213D01*
X345845Y573219D01*
X345776Y572221D01*
X345753Y571221D01*
X345776Y570221D01*
X345845Y569223D01*
X345960Y568230D01*
X346122Y567242D01*
X346328Y566264D01*
X346579Y565295D01*
X346875Y564340D01*
X347215Y563399D01*
X347598Y562475D01*
X348023Y561569D01*
X348489Y560684D01*
X348996Y559822D01*
X349542Y558984D01*
X350126Y558172D01*
X350747Y557388D01*
X351404Y556633D01*
X352095Y555910D01*
X352818Y555219D01*
X353573Y554562D01*
X354357Y553941D01*
X355169Y553357D01*
X356007Y552811D01*
X356870Y552304D01*
X357754Y551838D01*
X358660Y551413D01*
X359584Y551030D01*
X360525Y550690D01*
X361481Y550394D01*
X362449Y550143D01*
X363428Y549936D01*
X364415Y549775D01*
X365408Y549660D01*
X366406Y549591D01*
X367406Y549568D01*
X368406Y549591D01*
X369404Y549660D01*
X370398Y549775D01*
X371385Y549936D01*
X372364Y550143D01*
X373332Y550394D01*
X374288Y550690D01*
X375229Y551030D01*
X376153Y551413D01*
X377058Y551838D01*
X377943Y552304D01*
X378805Y552811D01*
X379644Y553357D01*
X380456Y553941D01*
X381240Y554563D01*
X381994Y555219D01*
X382718Y555910D01*
X383408Y556633D01*
X384065Y557388D01*
X384686Y558172D01*
X385271Y558984D01*
X385817Y559822D01*
X386323Y560685D01*
X386790Y561570D01*
X387215Y562475D01*
X387598Y563399D01*
X387937Y564340D01*
X388233Y565296D01*
X388485Y566264D01*
X388691Y567243D01*
X388852Y568230D01*
X388967Y569223D01*
X389037Y570221D01*
X389060Y571221D01*
X299952Y151930D02*
X330660D01*
X299952D02*
Y203111D01*
Y151930D02*
X330660Y203111D01*
X299952Y151930D02*
X330660D01*
X299952Y203111D02*
X330660D01*
Y151930D02*
Y203111D01*
X299952D02*
X330660Y151930D01*
X299952Y203111D02*
X330660D01*
X299952Y151930D02*
Y203111D01*
Y151930D02*
X330660Y203111D01*
X299952Y208173D02*
X330660D01*
X299952D02*
Y259354D01*
Y208173D02*
X330660Y259354D01*
X299952Y208173D02*
X330660D01*
X299952Y259354D02*
X330660D01*
Y208173D02*
Y259354D01*
X299952D02*
X330660Y208173D01*
X299952Y259354D02*
X330660D01*
X299952Y208173D02*
Y259354D01*
Y208173D02*
X330660Y259354D01*
X299952Y264416D02*
X330660D01*
X299952D02*
Y315597D01*
Y264416D02*
X330660Y315597D01*
X299952Y264416D02*
X330660D01*
X299952Y315597D02*
X330660D01*
Y264416D02*
Y315597D01*
X299952D02*
X330660Y264416D01*
X299952Y315597D02*
X330660D01*
X299952Y264416D02*
Y315597D01*
Y264416D02*
X330660Y315597D01*
X299952Y320659D02*
X330660D01*
X299952D02*
Y371840D01*
Y320659D02*
X330660Y371840D01*
X299952Y320659D02*
X330660D01*
X299952Y371840D02*
X330660D01*
Y320659D02*
Y371840D01*
X299952D02*
X330660Y320659D01*
X299952Y371840D02*
X330660D01*
X299952Y320659D02*
Y371840D01*
Y320659D02*
X330660Y371840D01*
X299952Y376902D02*
X330660D01*
X299952D02*
Y428083D01*
Y376902D02*
X330660Y428083D01*
X299952Y376902D02*
X330660D01*
X299952Y428083D02*
X330660D01*
Y376902D02*
Y428083D01*
X299952D02*
X330660Y376902D01*
X299952Y428083D02*
X330660D01*
X299952Y376902D02*
Y428083D01*
Y376902D02*
X330660Y428083D01*
X299952Y433145D02*
X330660D01*
X299952D02*
Y484326D01*
Y433145D02*
X330660Y484326D01*
X299952Y433145D02*
X330660D01*
X299952Y484326D02*
X330660D01*
Y433145D02*
Y484326D01*
X299952D02*
X330660Y433145D01*
X299952Y484326D02*
X330660D01*
X299952Y433145D02*
Y484326D01*
Y433145D02*
X330660Y484326D01*
X299952Y489388D02*
X330660D01*
X299952D02*
Y540569D01*
Y489388D02*
X330660Y540569D01*
X299952Y489388D02*
X330660D01*
X299952Y540569D02*
X330660D01*
Y489388D02*
Y540569D01*
X299952D02*
X330660Y489388D01*
X299952Y540569D02*
X330660D01*
X299952Y489388D02*
Y540569D01*
Y489388D02*
X330660Y540569D01*
X299952Y545631D02*
X330660Y596812D01*
X299952D02*
X330660D01*
X299952Y545631D02*
Y596812D01*
Y545631D02*
X330660D01*
X299952D02*
X330660Y596812D01*
X299952D02*
X330660Y545631D01*
X299952D02*
Y596812D01*
Y545631D02*
X330660D01*
Y596812D01*
X299952D02*
X330660D01*
X9Y-40D02*
Y631716D01*
X593597D01*
Y-40D02*
Y631716D01*
X9Y-40D02*
X593597D01*
X207070Y106073D02*
Y125167D01*
X26559Y106073D02*
X207070D01*
X26559D02*
Y125167D01*
X207070D01*
X231267Y296624D02*
Y377726D01*
Y296624D02*
X241503D01*
Y377726D01*
X231267D02*
X241503D01*
X231267Y381663D02*
Y482451D01*
Y381663D02*
X241503D01*
Y482451D01*
X231267D02*
X241503D01*
M02*
