0
SECTION
2
HEADER
9
$INSUNITS
70
4
9
$ACADVER
1
AC1014
9
$HANDSEED
5
FFFF
0
ENDSEC
0
SECTION
2
TABLES
0
TABLE
2
VPORT
5
8
100
AcDbSymbolTable
0
ENDTAB
0
TABLE
2
LTYPE
5
5
100
AcDbSymbolTable
0
LTYPE
5
14
100
AcDbSymbolTableRecord
100
AcDbLinetypeTableRecord
2
BYBLOCK
70
0
0
LTYPE
5
15
100
AcDbSymbolTableRecord
100
AcDbLinetypeTableRecord
2
BYLAYER
70
0
0
ENDTAB
0
TABLE
2
LAYER
5
2
100
AcDbSymbolTable
70
2
0
LAYER
5
50
100
AcDbSymbolTableRecord
100
AcDbLayerTableRecord
2
0
70
0
6
CONTINUOUS
0
ENDTAB
0
TABLE
2
STYLE
5
3
100
AcDbSymbolTable
70
1
0
STYLE
5
11
100
AcDbSymbolTableRecord
100
AcDbTextStyleTableRecord
2
STANDARD
70
0
0
ENDTAB
0
TABLE
2
VIEW
5
6
100
AcDbSymbolTable
70
0
0
ENDTAB
0
TABLE
2
UCS
5
7
100
AcDbSymbolTable
70
0
0
ENDTAB
0
TABLE
2
APPID
5
9
100
AcDbSymbolTable
70
2
0
APPID
5
12
100
AcDbSymbolTableRecord
100
AcDbRegAppTableRecord
2
ACAD
70
0
0
ENDTAB
0
TABLE
2
DIMSTYLE
5
A
100
AcDbSymbolTable
70
1
0
ENDTAB
0
TABLE
2
BLOCK_RECORD
5
1
100
AcDbSymbolTable
70
1
0
BLOCK_RECORD
5
1F
100
AcDbSymbolTableRecord
100
AcDbBlockTableRecord
2
*MODEL_SPACE
0
BLOCK_RECORD
5
1B
100
AcDbSymbolTableRecord
100
AcDbBlockTableRecord
2
*PAPER_SPACE
0
ENDTAB
0
ENDSEC
0
SECTION
2
BLOCKS
0
BLOCK
5
20
100
AcDbEntity
100
AcDbBlockBegin
2
*MODEL_SPACE
0
ENDBLK
5
21
100
AcDbEntity
100
AcDbBlockEnd
0
BLOCK
5
1C
100
AcDbEntity
100
AcDbBlockBegin
2
*PAPER_SPACE
0
ENDBLK
5
1D
100
AcDbEntity
100
AcDbBlockEnd
0
ENDSEC
0
SECTION
2
ENTITIES
0
LWPOLYLINE
5
100
100
AcDbEntity
8
0
100
AcDbPolyline
90
4
70
1
43
0.0
10
168.62066041197983
20
124.85231539013611
10
171.22066041197982
20
124.85231539013611
10
171.22066041197982
20
99.25231539013609
10
168.62066041197983
20
99.25231539013609
0
LWPOLYLINE
5
101
100
AcDbEntity
8
0
100
AcDbPolyline
90
4
70
1
43
0.0
10
168.62066041197983
20
98.25231539013609
10
171.22066041197982
20
98.25231539013609
10
171.22066041197982
20
77.652315390136096
10
168.62066041197983
20
77.652315390136096
0
LWPOLYLINE
5
102
100
AcDbEntity
8
0
100
AcDbPolyline
90
4
70
1
43
0.0
10
162.47467015982841
20
34.102315390136049
10
116.62467015982841
20
34.10231539013607
10
116.62467015982841
20
29.252315390136072
10
162.47467015982841
20
29.252315390136054
0
CIRCLE
5
103
100
AcDbEntity
8
0
100
AcDbCircle
10
203.19999694824219
20
147.39999771118164
30
0
40
5.5
210
0
220
0
230
1
0
CIRCLE
5
104
100
AcDbEntity
8
0
100
AcDbCircle
10
243.19999694824219
20
147.39999771118164
30
0
40
5.5
210
0
220
0
230
1
0
CIRCLE
5
105
100
AcDbEntity
8
0
100
AcDbCircle
10
203.19999694824219
20
133.11428342546736
30
0
40
5.5
210
0
220
0
230
1
0
CIRCLE
5
106
100
AcDbEntity
8
0
100
AcDbCircle
10
243.19999694824219
20
133.11428342546736
30
0
40
5.5
210
0
220
0
230
1
0
CIRCLE
5
107
100
AcDbEntity
8
0
100
AcDbCircle
10
203.19999694824219
20
118.82856913975306
30
0
40
5.5
210
0
220
0
230
1
0
CIRCLE
5
108
100
AcDbEntity
8
0
100
AcDbCircle
10
243.19999694824219
20
118.82856913975306
30
0
40
5.5
210
0
220
0
230
1
0
CIRCLE
5
109
100
AcDbEntity
8
0
100
AcDbCircle
10
203.19999694824219
20
104.54285485403879
30
0
40
5.5
210
0
220
0
230
1
0
CIRCLE
5
110
100
AcDbEntity
8
0
100
AcDbCircle
10
243.19999694824219
20
104.54285485403879
30
0
40
5.5
210
0
220
0
230
1
0
CIRCLE
5
111
100
AcDbEntity
8
0
100
AcDbCircle
10
203.19999694824219
20
90.257140568324488
30
0
40
5.5
210
0
220
0
230
1
0
CIRCLE
5
112
100
AcDbEntity
8
0
100
AcDbCircle
10
243.19999694824219
20
90.257140568324488
30
0
40
5.5
210
0
220
0
230
1
0
CIRCLE
5
113
100
AcDbEntity
8
0
100
AcDbCircle
10
203.19999694824219
20
75.971426282610224
30
0
40
5.5
210
0
220
0
230
1
0
CIRCLE
5
114
100
AcDbEntity
8
0
100
AcDbCircle
10
243.19999694824219
20
75.971426282610224
30
0
40
5.5
210
0
220
0
230
1
0
CIRCLE
5
115
100
AcDbEntity
8
0
100
AcDbCircle
10
203.19999694824219
20
61.685711996895932
30
0
40
5.5
210
0
220
0
230
1
0
CIRCLE
5
116
100
AcDbEntity
8
0
100
AcDbCircle
10
243.19999694824219
20
61.685711996895932
30
0
40
5.5
210
0
220
0
230
1
0
CIRCLE
5
117
100
AcDbEntity
8
0
100
AcDbCircle
10
203.19999694824219
20
47.399997711181641
30
0
40
5.5
210
0
220
0
230
1
0
CIRCLE
5
118
100
AcDbEntity
8
0
100
AcDbCircle
10
243.19999694824219
20
47.399997711181641
30
0
40
5.5
210
0
220
0
230
1
0
CIRCLE
5
119
100
AcDbEntity
8
0
100
AcDbCircle
10
203.19999694824219
20
12.399997711181641
30
0
40
5.5
210
0
220
0
230
1
0
CIRCLE
5
120
100
AcDbEntity
8
0
100
AcDbCircle
10
243.19999694824219
20
12.399997711181641
30
0
40
5.5
210
0
220
0
230
1
0
CIRCLE
5
121
100
AcDbEntity
8
0
100
AcDbCircle
10
243.19999694824219
20
47.399997711181641
30
0
40
5.5
210
0
220
0
230
1
0
CIRCLE
5
122
100
AcDbEntity
8
0
100
AcDbCircle
10
243.19999694824219
20
47.399997711181641
30
0
40
5.5
210
0
220
0
230
1
0
CIRCLE
5
123
100
AcDbEntity
8
0
100
AcDbCircle
10
243.19999694824219
20
33.119997711181639
30
0
40
5.5
210
0
220
0
230
1
0
CIRCLE
5
124
100
AcDbEntity
8
0
100
AcDbCircle
10
253.99999618530273
20
147.39999771118164
30
0
40
2.5000000000000049
210
0
220
0
230
1
0
CIRCLE
5
125
100
AcDbEntity
8
0
100
AcDbCircle
10
213.99999618530273
20
147.39999771118164
30
0
40
2.5000000000000049
210
0
220
0
230
1
0
CIRCLE
5
126
100
AcDbEntity
8
0
100
AcDbCircle
10
253.99999618530273
20
133.11428342546736
30
0
40
2.5000000000000049
210
0
220
0
230
1
0
CIRCLE
5
127
100
AcDbEntity
8
0
100
AcDbCircle
10
213.99999618530273
20
133.11428342546736
30
0
40
2.5000000000000049
210
0
220
0
230
1
0
CIRCLE
5
128
100
AcDbEntity
8
0
100
AcDbCircle
10
253.99999618530273
20
118.82856913975306
30
0
40
2.5000000000000049
210
0
220
0
230
1
0
CIRCLE
5
129
100
AcDbEntity
8
0
100
AcDbCircle
10
213.99999618530273
20
118.82856913975306
30
0
40
2.5000000000000049
210
0
220
0
230
1
0
CIRCLE
5
130
100
AcDbEntity
8
0
100
AcDbCircle
10
253.99999618530273
20
104.54285485403879
30
0
40
2.5000000000000049
210
0
220
0
230
1
0
CIRCLE
5
131
100
AcDbEntity
8
0
100
AcDbCircle
10
213.99999618530273
20
104.54285485403879
30
0
40
2.5000000000000049
210
0
220
0
230
1
0
CIRCLE
5
132
100
AcDbEntity
8
0
100
AcDbCircle
10
253.99999618530273
20
90.257140568324488
30
0
40
2.5000000000000049
210
0
220
0
230
1
0
CIRCLE
5
133
100
AcDbEntity
8
0
100
AcDbCircle
10
213.99999618530273
20
90.257140568324488
30
0
40
2.5000000000000049
210
0
220
0
230
1
0
CIRCLE
5
134
100
AcDbEntity
8
0
100
AcDbCircle
10
253.99999618530273
20
75.971426282610224
30
0
40
2.5000000000000049
210
0
220
0
230
1
0
CIRCLE
5
135
100
AcDbEntity
8
0
100
AcDbCircle
10
213.99999618530273
20
75.971426282610224
30
0
40
2.5000000000000049
210
0
220
0
230
1
0
CIRCLE
5
136
100
AcDbEntity
8
0
100
AcDbCircle
10
253.99999618530273
20
61.685711996895932
30
0
40
2.5000000000000049
210
0
220
0
230
1
0
CIRCLE
5
137
100
AcDbEntity
8
0
100
AcDbCircle
10
213.99999618530273
20
61.685711996895932
30
0
40
2.5000000000000049
210
0
220
0
230
1
0
CIRCLE
5
138
100
AcDbEntity
8
0
100
AcDbCircle
10
253.99999618530273
20
47.399997711181641
30
0
40
2.5000000000000049
210
0
220
0
230
1
0
CIRCLE
5
139
100
AcDbEntity
8
0
100
AcDbCircle
10
213.99999618530273
20
47.399997711181641
30
0
40
2.5000000000000049
210
0
220
0
230
1
0
LWPOLYLINE
5
140
100
AcDbEntity
8
0
100
AcDbPolyline
90
4
70
1
43
0.0
10
109.8810925436284
20
2.2995644891463836
10
260.65235428457459
20
2.2995644891463836
10
260.65235428457459
20
162.7656523730802
10
109.8810925436284
20
162.7656523730802
0
LWPOLYLINE
5
141
100
AcDbEntity
8
0
100
AcDbPolyline
90
4
70
1
43
0.0
10
186.06646904266884
20
153.89999771118164
10
193.86646904266885
20
153.89999771118167
10
193.86646904266885
20
140.8999977111817
10
186.06646904266884
20
140.89999771118164
0
LINE
5
142
100
AcDbEntity
8
0
100
AcDbLine
10
186.06646904266884
20
153.89999771118164
30
0
11
193.86646904266885
21
140.8999977111817
31
0
0
LINE
5
143
100
AcDbEntity
8
0
100
AcDbLine
10
193.86646904266885
20
153.89999771118167
30
0
11
186.06646904266884
21
140.89999771118164
31
0
0
LINE
5
144
100
AcDbEntity
8
0
100
AcDbLine
10
193.86646904266885
20
140.89999771118167
30
0
11
186.06646904266884
21
140.89999771118164
31
0
0
LWPOLYLINE
5
145
100
AcDbEntity
8
0
100
AcDbPolyline
90
3
70
1
43
0.0
10
186.06646904266884
20
140.89999771118164
10
186.06646904266884
20
153.89999771118164
10
193.86646904266885
20
153.89999771118164
0
LWPOLYLINE
5
146
100
AcDbEntity
8
0
100
AcDbPolyline
90
3
70
1
43
0.0
10
193.86646904266885
20
139.61428342546736
10
186.06646904266884
20
126.61428342546736
10
186.06646904266884
20
139.61428342546733
0
LWPOLYLINE
5
147
100
AcDbEntity
8
0
100
AcDbPolyline
90
3
70
1
43
0.0
10
186.06646904266884
20
139.61428342546733
10
193.86646904266885
20
126.61428342546739
10
193.86646904266885
20
139.61428342546736
0
LINE
5
148
100
AcDbEntity
8
0
100
AcDbLine
10
193.86646904266885
20
126.61428342546739
30
0
11
186.06646904266884
21
126.61428342546736
31
0
0
LINE
5
149
100
AcDbEntity
8
0
100
AcDbLine
10
193.86646904266885
20
139.61428342546736
30
0
11
186.06646904266884
21
126.61428342546736
31
0
0
LINE
5
150
100
AcDbEntity
8
0
100
AcDbLine
10
186.06646904266884
20
126.61428342546736
30
0
11
186.06646904266884
21
139.61428342546733
31
0
0
LINE
5
151
100
AcDbEntity
8
0
100
AcDbLine
10
193.86646904266885
20
126.61428342546739
30
0
11
186.06646904266884
21
126.61428342546736
31
0
0
LWPOLYLINE
5
152
100
AcDbEntity
8
0
100
AcDbPolyline
90
3
70
1
43
0.0
10
193.86646904266885
20
125.32856913975307
10
186.06646904266884
20
112.32856913975309
10
186.06646904266884
20
125.32856913975306
0
LWPOLYLINE
5
153
100
AcDbEntity
8
0
100
AcDbPolyline
90
3
70
1
43
0.0
10
186.06646904266884
20
125.32856913975306
10
193.86646904266885
20
112.3285691397531
10
193.86646904266885
20
125.32856913975307
0
LINE
5
154
100
AcDbEntity
8
0
100
AcDbLine
10
193.86646904266885
20
112.3285691397531
30
0
11
186.06646904266884
21
112.32856913975309
31
0
0
LINE
5
155
100
AcDbEntity
8
0
100
AcDbLine
10
193.86646904266885
20
125.32856913975307
30
0
11
186.06646904266884
21
112.32856913975309
31
0
0
LINE
5
156
100
AcDbEntity
8
0
100
AcDbLine
10
186.06646904266884
20
112.32856913975309
30
0
11
186.06646904266884
21
125.32856913975306
31
0
0
LINE
5
157
100
AcDbEntity
8
0
100
AcDbLine
10
193.86646904266885
20
112.3285691397531
30
0
11
186.06646904266884
21
112.32856913975309
31
0
0
LWPOLYLINE
5
158
100
AcDbEntity
8
0
100
AcDbPolyline
90
3
70
1
43
0.0
10
193.86646904266885
20
111.04285485403878
10
186.06646904266884
20
98.042854854038808
10
186.06646904266884
20
111.04285485403878
0
LWPOLYLINE
5
159
100
AcDbEntity
8
0
100
AcDbPolyline
90
3
70
1
43
0.0
10
186.06646904266884
20
111.04285485403878
10
193.86646904266885
20
98.042854854038808
10
193.86646904266885
20
111.04285485403878
0
LINE
5
160
100
AcDbEntity
8
0
100
AcDbLine
10
193.86646904266885
20
98.042854854038808
30
0
11
186.06646904266884
21
98.042854854038808
31
0
0
LINE
5
161
100
AcDbEntity
8
0
100
AcDbLine
10
193.86646904266885
20
111.04285485403878
30
0
11
186.06646904266884
21
98.042854854038808
31
0
0
LINE
5
162
100
AcDbEntity
8
0
100
AcDbLine
10
186.06646904266884
20
98.042854854038808
30
0
11
186.06646904266884
21
111.04285485403878
31
0
0
LINE
5
163
100
AcDbEntity
8
0
100
AcDbLine
10
193.86646904266885
20
98.042854854038808
30
0
11
186.06646904266884
21
98.042854854038808
31
0
0
LWPOLYLINE
5
164
100
AcDbEntity
8
0
100
AcDbPolyline
90
3
70
1
43
0.0
10
193.86646904266885
20
96.757140568324502
10
186.06646904266884
20
83.757140568324502
10
186.06646904266884
20
96.757140568324473
0
LWPOLYLINE
5
165
100
AcDbEntity
8
0
100
AcDbPolyline
90
3
70
1
43
0.0
10
186.06646904266884
20
96.757140568324473
10
193.86646904266885
20
83.75714056832453
10
193.86646904266885
20
96.757140568324502
0
LINE
5
166
100
AcDbEntity
8
0
100
AcDbLine
10
193.86646904266885
20
83.75714056832453
30
0
11
186.06646904266884
21
83.757140568324502
31
0
0
LINE
5
167
100
AcDbEntity
8
0
100
AcDbLine
10
193.86646904266885
20
96.757140568324502
30
0
11
186.06646904266884
21
83.757140568324502
31
0
0
LINE
5
168
100
AcDbEntity
8
0
100
AcDbLine
10
186.06646904266884
20
83.757140568324502
30
0
11
186.06646904266884
21
96.757140568324473
31
0
0
LINE
5
169
100
AcDbEntity
8
0
100
AcDbLine
10
193.86646904266885
20
83.75714056832453
30
0
11
186.06646904266884
21
83.757140568324502
31
0
0
LWPOLYLINE
5
170
100
AcDbEntity
8
0
100
AcDbPolyline
90
3
70
1
43
0.0
10
193.86646904266885
20
82.471426282610196
10
186.06646904266884
20
69.471426282610224
10
186.06646904266884
20
82.471426282610196
0
LWPOLYLINE
5
171
100
AcDbEntity
8
0
100
AcDbPolyline
90
3
70
1
43
0.0
10
186.06646904266884
20
82.471426282610196
10
193.86646904266885
20
69.471426282610238
10
193.86646904266885
20
82.471426282610196
0
LINE
5
172
100
AcDbEntity
8
0
100
AcDbLine
10
193.86646904266885
20
69.471426282610238
30
0
11
186.06646904266884
21
69.471426282610224
31
0
0
LINE
5
173
100
AcDbEntity
8
0
100
AcDbLine
10
193.86646904266885
20
82.471426282610196
30
0
11
186.06646904266884
21
69.471426282610224
31
0
0
LINE
5
174
100
AcDbEntity
8
0
100
AcDbLine
10
186.06646904266884
20
69.471426282610224
30
0
11
186.06646904266884
21
82.471426282610196
31
0
0
LINE
5
175
100
AcDbEntity
8
0
100
AcDbLine
10
193.86646904266885
20
69.471426282610238
30
0
11
186.06646904266884
21
69.471426282610224
31
0
0
LWPOLYLINE
5
176
100
AcDbEntity
8
0
100
AcDbPolyline
90
3
70
1
43
0.0
10
193.86646904266885
20
68.185711996895932
10
186.06646904266884
20
55.185711996895947
10
186.06646904266884
20
68.185711996895918
0
LWPOLYLINE
5
177
100
AcDbEntity
8
0
100
AcDbPolyline
90
3
70
1
43
0.0
10
186.06646904266884
20
68.185711996895918
10
193.86646904266885
20
55.185711996895961
10
193.86646904266885
20
68.185711996895932
0
LINE
5
178
100
AcDbEntity
8
0
100
AcDbLine
10
193.86646904266885
20
55.185711996895961
30
0
11
186.06646904266884
21
55.185711996895947
31
0
0
LINE
5
179
100
AcDbEntity
8
0
100
AcDbLine
10
193.86646904266885
20
68.185711996895932
30
0
11
186.06646904266884
21
55.185711996895947
31
0
0
LINE
5
180
100
AcDbEntity
8
0
100
AcDbLine
10
186.06646904266884
20
55.185711996895947
30
0
11
186.06646904266884
21
68.185711996895918
31
0
0
LINE
5
181
100
AcDbEntity
8
0
100
AcDbLine
10
193.86646904266885
20
55.185711996895961
30
0
11
186.06646904266884
21
55.185711996895947
31
0
0
LWPOLYLINE
5
182
100
AcDbEntity
8
0
100
AcDbPolyline
90
3
70
1
43
0.0
10
193.86646904266885
20
53.899997711181641
10
186.06646904266884
20
40.899997711181655
10
186.06646904266884
20
53.899997711181626
0
LWPOLYLINE
5
183
100
AcDbEntity
8
0
100
AcDbPolyline
90
3
70
1
43
0.0
10
186.06646904266884
20
53.899997711181626
10
193.86646904266885
20
40.899997711181669
10
193.86646904266885
20
53.899997711181641
0
LINE
5
184
100
AcDbEntity
8
0
100
AcDbLine
10
193.86646904266885
20
40.899997711181669
30
0
11
186.06646904266884
21
40.899997711181655
31
0
0
LINE
5
185
100
AcDbEntity
8
0
100
AcDbLine
10
193.86646904266885
20
53.899997711181641
30
0
11
186.06646904266884
21
40.899997711181655
31
0
0
LINE
5
186
100
AcDbEntity
8
0
100
AcDbLine
10
186.06646904266884
20
40.899997711181655
30
0
11
186.06646904266884
21
53.899997711181626
31
0
0
LINE
5
187
100
AcDbEntity
8
0
100
AcDbLine
10
193.86646904266885
20
40.899997711181669
30
0
11
186.06646904266884
21
40.899997711181655
31
0
0
CIRCLE
5
188
100
AcDbEntity
8
0
100
AcDbCircle
10
114.14118820318842
20
158.867832042148
30
0
40
1.4499999999999922
210
0
220
0
230
1
0
CIRCLE
5
189
100
AcDbEntity
8
0
100
AcDbCircle
10
114.14118820318842
20
5.8678320421479846
30
0
40
1.4499999999999922
210
0
220
0
230
1
0
CIRCLE
5
190
100
AcDbEntity
8
0
100
AcDbCircle
10
257.14118820318845
20
5.8678320421479846
30
0
40
1.4499999999999922
210
0
220
0
230
1
0
CIRCLE
5
191
100
AcDbEntity
8
0
100
AcDbCircle
10
257.14118820318845
20
159.867832042148
30
0
40
1.4499999999999922
210
0
220
0
230
1
0
CIRCLE
5
192
100
AcDbEntity
8
0
100
AcDbCircle
10
178.14118820318842
20
88.867832042147995
30
0
40
1.4499999999999922
210
0
220
0
230
1
0
CIRCLE
5
193
100
AcDbEntity
8
0
100
AcDbCircle
10
228.14118820318842
20
88.867832042147995
30
0
40
1.4499999999999922
210
0
220
0
230
1
0
ENDSEC
0
SECTION
2
OBJECTS
0
DICTIONARY
5
C
100
AcDbDictionary
3
ACAD_GROUP
350
D
3
ACAD_MLINESTYLE
350
17
0
DICTIONARY
5
D
100
AcDbDictionary
0
DICTIONARY
5
1A
330
C
100
AcDbDictionary
0
DICTIONARY
5
17
100
AcDbDictionary
0
ENDSEC
0
EOF
