M48
;Layer_Color=9474304
;FILE_FORMAT=2:5
INCH,TZ
;TYPE=PLATED
T01F00S00C0.02756
T02F00S00C0.02800
T03F00S00C0.03346
T04F00S00C0.03543
T05F00S00C0.03937
T06F00S00C0.04016
T07F00S00C0.04724
T08F00S00C0.05118
T09F00S00C0.09055
T10F00S00C0.11811
T11F00S00C0.22441
%
T01
X202400Y142500
X404500Y146500
X431800Y113500
X426400Y105800
X420300Y97700
X415100Y90400
X396000Y75500
X401700Y69500
X407000Y63600
X389500Y82000
X572100Y99400
X405101Y263400
X279116Y244634
X279000Y190200
X290300Y153600
X278816Y300733
X279416Y356934
X278616Y413333
X250700Y441700
X227800Y441000
X404600Y430272
X402900Y374400
X404600Y319487
X405000Y487999
X405168Y543600
X405300Y604400
X279116Y581834
X279183Y524834
X279016Y469233
X179500Y465600
X165300
T02
X55665Y103465
X66000Y95700
X75800Y86966
X136600Y93531
X147500Y93100
T03
X51100Y194800
Y204800
X51800Y247700
Y257700
X82400Y234200
Y224200
X112400
Y234200
X125500Y247900
Y257900
X155500
Y247900
X21800Y247700
Y257700
X21100Y204800
Y194800
X21499Y303799
Y313799
X22100Y360000
Y370000
X21299Y416399
Y426399
X51299
Y416399
X52100Y370000
Y360000
X51499Y313799
Y303799
X125199Y303999
Y313999
X155199
Y303999
X155800Y360200
Y370200
X125800
Y360200
X124999Y416599
Y426599
X154999
Y416599
X155399Y472499
Y482499
X125399
Y472499
X125567Y528100
Y538100
X155567
Y528100
X155500Y585100
Y595100
X125500
Y585100
X51800Y584900
Y594900
X51867Y537900
Y527900
X51699Y482299
Y472299
X21699
Y482299
X21867Y527900
Y537900
X21800Y584900
Y594900
T04
X95000Y26100
X112500Y26134
X130100Y26034
X147500Y26067
X164600
X181600Y26134
Y87000
X164600Y86933
X147500
X130100Y86900
X112500Y87000
X95000Y86966
X92400Y130267
X109500Y130467
X126900
X144000
X161400Y130567
X179300Y130767
X196800Y131900
X216200Y130067
X216500Y87033
X199100
Y26167
X216500
X216200Y190933
X196800Y192766
X224266Y204100
X224133Y258300
X163267
X119166Y257900
X118866Y204600
X126900Y191333
X144000
X161400Y191433
X163400Y204100
X179300Y191633
X109500Y191333
X92400Y191133
X58000Y204600
X58300Y257900
X57999Y313999
X58600Y370200
X57799Y426599
X118666
X162766Y426999
X163567Y370600
X119466Y370200
X118866Y313999
X162966Y314399
X223832
X224433Y370600
X223632Y426999
X224032Y482899
X224200Y538500
X224133Y595500
X163267
X119166Y595100
X119233Y538100
X163334Y538500
X163166Y482899
X119065Y482499
X58199
X58367Y538100
X58300Y595100
T05
X562468Y178001
X572468
X572601Y234201
X562601
X562300Y290300
X572300
X414800Y290000
X404800
X405101Y233901
X415101
X414968Y177701
X404968
X405401Y346201
X415401
X414600Y402600
X404600
X405000Y458500
X415000
X562500Y458800
X572500
X572100Y402900
X562100
X562901Y346501
X572901
X572668Y514401
X562668
X562601Y571401
X572601
X415101Y571101
X405101
X405168Y514101
X415168
T06
X31400Y110900
Y120900
X41400
X51400
X61400
Y110900
X71400
X81400
Y120900
X91400
Y110900
X101400
Y120900
X111400
Y110900
X121400
X131400
Y120900
X141400
X151400
Y110900
X161400
X171400
Y120900
X181400
X191400
Y110900
X181400
X161400Y120900
X141400Y110900
X121400Y120900
X71400
X51400Y110900
X41400
X201400
Y120900
X236400Y301700
X8300Y411700
Y421700
Y431700
Y441700
Y451700
X236400Y448400
Y458400
Y438400
Y428400
Y418400
Y408400
Y398400
Y388400
Y371700
Y361700
Y351700
Y341700
Y331700
Y321700
Y311700
Y468400
Y478400
X8300Y481700
Y471700
Y461700
T07
X15600Y38400
Y52179
X16200Y153400
Y167180
T08
X435751Y182900
X489983
X490116Y239100
X435884
X435583Y295199
X489816
X496900Y371700
X489615Y407799
X435383
X442668Y371700
X435783Y463699
X490016
X490183Y519300
X435951
X435884Y576300
X490116
T09
X315867Y159300
Y177804
Y196308
X316000Y215500
Y234004
Y252508
X315699Y271599
Y290103
Y308607
X316300Y327800
Y346304
Y364808
X315499Y384199
Y402703
Y421207
X315899Y440099
Y458603
Y477107
X316067Y495700
Y514204
Y532708
X316000Y552700
Y571204
Y589708
T10
X16781Y14008
X579773
X268750Y340780
X465600
X16781Y616370
X579773Y620307
T11
X367300Y39600
X525100Y39500
Y121300
X524567Y177700
X524700Y233900
X524399Y289999
X366999Y290199
X367300Y234100
X367167Y177900
X367600Y346400
X366799Y402799
X367199Y458699
X524599Y458499
X524199Y402599
X525000Y346200
X524767Y514100
X524700Y571100
X367300Y571300
X367367Y514300
M30
